<?xml version="1.0" encoding="UTF-8"?>
<!DOCTYPE svg PUBLIC "-//W3C//DTD SVG 1.1//EN" "http://www.w3.org/Graphics/SVG/1.1/DTD/svg11.dtd">
<!-- Creator: CorelDRAW X7 -->
<svg xmlns="http://www.w3.org/2000/svg" xml:space="preserve" width="46.6668mm" height="36.3927mm" version="1.1" style="shape-rendering:geometricPrecision; text-rendering:geometricPrecision; image-rendering:optimizeQuality; fill-rule:evenodd; clip-rule:evenodd"
viewBox="0 0 325 253"
 xmlns:xlink="http://www.w3.org/1999/xlink">
 <defs>
  <style type="text/css">
   <![CDATA[
    .str0 {stroke:#332C2B;stroke-width:1.39253}
    .fil17 {fill:#332C2B}
    .fil3 {fill:#050502}
    .fil10 {fill:#251D0D}
    .fil14 {fill:#502F05}
    .fil7 {fill:#604819}
    .fil5 {fill:#765811}
    .fil9 {fill:#B99757}
    .fil0 {fill:#C7A770}
    .fil1 {fill:#E9D4A3}
    .fil11 {fill:#ED927E}
    .fil8 {fill:#EEAB97}
    .fil2 {fill:#EECC49}
    .fil12 {fill:#F09D25}
    .fil16 {fill:#F1B33B}
    .fil4 {fill:#F1E7D1}
    .fil13 {fill:#F6C1AE}
    .fil6 {fill:#F92F0B}
    .fil15 {fill:white}
   ]]>
  </style>
 </defs>
 <g id="圖層_x0020_1">
  <metadata id="CorelCorpID_0Corel-Layer"/>
  <g id="_2174032142720">
   <path class="fil0" d="M105 188l-7 -1c-2,1 -6,8 -7,10 -1,3 -3,6 -2,9 0,3 -1,1 1,2l7 5 0 0 -4 -2c-9,2 -4,23 -2,28 2,1 10,0 12,0 2,0 10,-3 10,-3 0,-5 -2,-32 0,-33 1,1 2,19 2,23 0,11 3,12 -6,17 2,3 27,1 32,0 -1,-3 0,-24 2,-25l0 11 10 -2 -2 -11 1 0c4,1 3,25 3,29 4,0 27,-1 27,-5 -2,-7 0,-12 -1,-19 0,-4 -3,-17 -3,-17 3,3 5,14 5,19 0,3 0,7 0,11 0,6 1,5 4,8 4,0 12,-2 15,-5 2,-3 4,-3 6,-8 4,-14 -7,-21 -18,-20 3,-3 6,-2 9,-2 4,2 4,3 7,5l3 -20c2,-3 1,0 2,-6 1,-3 -2,-2 -1,-4 1,-2 3,-1 0,-4 -2,-2 -3,-1 -3,-4l4 -2c-1,-2 -5,-6 -7,-6 -4,4 -14,9 -23,13 -10,4 -17,3 -26,6 -3,10 1,10 2,11 -1,3 -1,6 -4,7 -4,-3 0,-8 -1,-11l-6 4 2 7 -1 6c-3,-1 -5,-3 -4,-5 1,-3 2,0 2,-8l-7 -1c0,3 2,7 -1,10 -2,-1 -3,-3 -3,-5 0,-5 2,0 2,-4 1,-1 -1,-8 -2,-10l-29 2z"/>
   <path class="fil1" d="M85 168c4,6 8,9 16,10 12,1 33,2 45,0 15,-4 22,-7 35,-13 13,-6 22,-13 21,-29 5,-51 -12,-53 -68,-46 -5,1 -9,1 -13,3 -2,1 -4,1 -6,2 -49,19 -58,28 -30,73z"/>
   <path class="fil0" d="M73 88c3,-1 9,4 4,6 -1,1 -3,1 -4,2 -2,1 -1,3 -3,4 -4,2 -4,-4 -3,-7 3,-3 2,-4 6,-5zm113 -13c3,-1 9,0 11,2 5,4 1,8 -1,9 -5,1 -7,-4 -10,-4 -2,-1 -4,0 -3,-3 0,-3 1,-3 3,-4zm-123 56c-1,8 16,33 20,40l4 2c-3,-6 -9,-14 -11,-21 -2,0 -4,-1 -6,-3 0,-4 2,-4 2,-6 1,-3 0,-5 1,-8 0,-3 -3,-8 -4,-12 -4,-22 19,-36 34,-29 9,4 4,3 11,0 4,-2 8,-3 13,-4 8,-2 21,-3 29,-1 10,3 4,3 12,-1 12,-6 27,-3 34,9 2,4 3,9 4,13 1,7 -3,12 -2,14 3,0 6,-1 8,3 0,6 -5,7 -9,8 1,10 0,10 -3,18 9,-3 15,-10 18,-16 1,-2 2,-5 1,-9 -1,0 -3,0 -5,0 2,0 3,-2 3,-4 -1,0 -7,-2 -9,-4 0,-2 5,-23 1,-42 0,-2 -4,-10 -4,-11l6 2c0,-2 -1,-3 -1,-4 0,-1 1,-2 1,-2 -1,-2 -2,0 -8,0 -2,-5 -2,-7 -5,-12 -2,-3 -5,-9 -9,-9 -16,4 -22,22 -57,27 -2,2 -6,10 -10,9l0 -6c-11,2 -21,4 -33,6 -5,1 -11,1 -16,2 -6,1 -16,0 -19,1 -2,5 2,7 0,13l-4 0 0 5 4 -2c0,1 5,14 7,18 2,2 5,6 5,7 1,3 1,8 -3,9z"/>
   <path class="fil0" d="M271 142c-9,5 -11,14 -14,23 -1,3 -1,6 -3,10 -2,6 -9,17 -13,22 -4,4 -16,8 -22,11 -1,2 -2,3 -2,6l-2 5c0,3 0,2 1,2 17,-12 38,-14 52,-24 5,-4 13,-20 15,-26 1,-4 -2,-9 0,-17 3,-7 7,-8 9,-12 2,-7 3,-27 -1,-34 -4,-8 -11,-21 -21,-14 -8,6 -15,16 -14,27 0,3 4,10 6,13 4,5 12,6 13,8l-4 0z"/>
   <path class="fil2" d="M123 27c-4,-1 -7,-6 -8,-9 -3,-5 -2,-9 -3,-13 -20,4 -16,32 -11,30 -3,2 -11,-4 -14,-9 -2,-4 -1,-5 -2,-7 -5,1 -8,5 -9,9 -2,6 2,14 4,19 3,6 10,9 14,14l-1 0c8,2 23,-1 28,-3 3,2 7,6 10,9 3,-4 4,-11 5,-15 1,-6 6,-5 11,-8 9,-5 10,-20 7,-29 -3,-9 -13,-17 -22,-12 -14,8 -12,21 -6,25l-3 -1z"/>
   <path class="fil0" d="M297 173c0,1 -9,11 -10,12 -3,3 -9,9 -13,10 -13,8 -23,11 -36,17 -1,1 -7,5 -9,8 -1,2 -4,4 1,2 8,-1 15,-2 24,-2 10,-1 12,-3 19,-9 16,-12 36,-33 36,-53 0,-26 -22,-15 -25,1 -2,17 16,10 13,14z"/>
   <path class="fil0" d="M241 146c-3,2 -3,3 -5,5 -2,1 -4,4 -3,6 -4,8 -5,24 -7,33 -1,3 -6,12 -4,15 5,-2 18,-8 21,-13 4,-8 1,-23 2,-32 0,-10 5,-24 3,-32 -1,-7 -4,-20 -11,-23 -17,4 -21,46 9,38 0,3 -3,3 -5,3z"/>
   <path class="fil3" d="M190 110c0,3 3,9 0,11 -2,8 -13,10 -19,4 -6,-7 -1,-18 7,-18l4 -1c2,-2 3,-3 6,-2 3,1 2,3 2,6zm-12 -18c-27,3 -22,43 5,40 26,-4 21,-44 -5,-40z"/>
   <path class="fil3" d="M104 116l1 8c-2,10 -13,14 -20,7 -7,-8 0,-20 11,-18l0 -1c1,-2 3,-3 6,-2 3,1 2,3 2,6zm-30 3c1,25 41,24 40,-2 -1,-26 -41,-25 -40,2z"/>
   <path class="fil0" d="M208 36c-6,4 -4,0 -5,-2 -2,1 -3,3 -5,5 -3,2 -5,0 -7,1 2,3 5,6 8,9 3,5 3,6 5,11 17,-8 36,-8 36,-33 -4,1 -10,6 -16,7 -3,1 -7,1 -10,2 -1,1 -3,2 -4,2 -3,2 -2,0 -2,-2z"/>
   <path class="fil2" d="M278 91c0,0 8,6 9,8 14,17 6,38 6,43 1,0 9,-2 9,-3 1,-1 3,-7 4,-9 2,-8 3,-14 2,-22 -1,-11 -1,-10 -10,-15 -4,-3 -17,-6 -20,-2z"/>
   <path class="fil2" d="M265 219c18,0 33,-18 42,-31 6,-9 10,-16 13,-25 4,-12 -3,-20 -15,-21 3,5 4,3 5,11 2,14 -5,25 -12,36 -8,13 -21,21 -33,30z"/>
   <path class="fil4" d="M74 119c-1,-27 39,-28 40,-2 1,26 -39,27 -40,2zm36 -21c-4,-4 -15,-5 -20,-4 -5,1 -12,5 -15,9 -4,5 -6,15 -4,20 0,2 2,7 3,8 16,25 64,1 36,-33z"/>
   <path class="fil0" d="M16 96c4,-7 12,-12 19,-15 2,-1 6,-2 8,-3 0,-6 1,-14 4,-19 1,-2 4,-4 3,-5l-14 4c2,2 6,3 6,5l-6 1c1,1 2,3 2,4l-36 15c0,4 10,12 14,13z"/>
   <path class="fil4" d="M178 92c26,-4 31,36 5,40 -27,3 -32,-37 -5,-40zm-20 6c-12,22 14,48 37,32 6,-3 9,-9 9,-16 1,-6 -1,-14 -5,-18 -11,-15 -33,-12 -41,2z"/>
   <path class="fil2" d="M239 104c0,1 7,6 9,15 2,10 3,12 1,22 -5,19 -2,21 -2,35 -1,2 -2,11 -2,12 5,-2 8,-18 8,-22 1,-5 0,-9 1,-13 0,-5 2,-8 2,-13 2,-12 -3,-16 -1,-25 0,-5 1,-8 -4,-10 -3,-1 -10,-2 -12,-1z"/>
   <path class="fil5" d="M50 54c1,1 -2,3 -3,5 -3,5 -4,13 -4,19 -2,1 -6,2 -8,3 -7,3 -15,8 -19,15l8 2c1,0 2,-3 6,-4 2,-1 4,-2 6,-3 9,-5 6,-3 15,-4l2 -7 -5 0c-3,-3 -1,-10 2,-12 6,-4 0,-4 8,-7 0,-6 3,-10 6,-15l-14 8z"/>
   <path class="fil5" d="M113 236c0,0 -8,3 -10,3 -2,0 -10,1 -12,0 -2,-5 -7,-26 2,-28 -4,-3 -10,-1 -13,1 -4,4 -5,9 -5,14 0,4 5,6 8,9 4,6 -6,3 -9,6 3,1 1,0 4,3 2,2 0,-1 2,3l6 0c2,-2 1,-3 6,-4 5,0 6,3 8,3 2,-1 1,-2 3,-3 4,-1 12,-3 10,-7z"/>
   <path class="fil2" d="M151 178l3 7c9,-1 21,-5 30,-9 6,-2 14,-6 18,-10 4,-4 2,-4 -1,-5 0,-8 -6,-3 -10,0 -15,8 -23,12 -40,17z"/>
   <path class="fil0" d="M303 140l11 3c6,-8 8,-14 6,-25 -1,-6 -7,-15 -12,-19 2,13 3,19 -1,32 -1,3 -3,7 -4,9z"/>
   <path class="fil2" d="M121 66c1,-2 1,-6 -3,-4 -15,5 -31,8 -47,7 -6,0 -15,-3 -20,1 -15,12 64,0 70,-4z"/>
   <path class="fil2" d="M135 180c-4,-1 -31,1 -47,-4 -1,-1 -5,-3 -6,-2 -1,1 -2,4 -2,6 1,5 24,6 28,6 4,0 19,-1 26,-1 0,0 1,0 1,0 1,-1 0,-3 0,-5z"/>
   <path class="fil0" d="M279 217c12,-1 23,-11 30,-20 4,-5 8,-9 10,-15 3,-6 6,-17 3,-22 -1,2 -6,20 -17,33 -4,4 -7,9 -12,13 -4,4 -10,8 -14,11z"/>
   <path class="fil2" d="M136 61c3,1 24,-8 28,-10 3,-1 25,-14 21,-18 -3,-3 -10,3 -13,6 -2,2 -21,12 -25,14 -4,1 -12,3 -11,8z"/>
   <path class="fil6" d="M132 68c3,1 31,-8 34,-11 6,-2 24,-14 25,-20 -4,-3 -10,5 -14,7 -12,8 -15,10 -30,15 -3,1 -15,3 -15,9z"/>
   <path class="fil5" d="M90 208c-2,-2 -1,1 -1,-2 -1,-3 1,-6 2,-9 1,-2 5,-9 7,-10l-19 -4 -2 3c3,2 5,-1 2,4 -1,1 -2,6 -2,7l3 1c1,10 1,2 3,7 0,1 0,2 1,3l6 0z"/>
   <path class="fil6" d="M120 60c-2,-1 -21,8 -33,2 -12,-7 -2,-4 -13,-1 -7,1 -22,0 -19,5 1,1 3,1 5,1 13,1 13,2 28,0 5,0 31,-4 32,-7z"/>
   <path class="fil5" d="M83 171c-4,-7 -21,-32 -20,-40l-6 2c2,3 6,3 1,5l0 4c2,1 3,2 5,3 2,5 0,6 7,16 4,6 7,7 13,10z"/>
   <path class="fil6" d="M49 75c-3,11 71,-3 73,-5 3,-5 -12,0 -15,0 -18,4 -14,5 -37,6 -15,0 -19,-1 -21,-1z"/>
   <polygon class="fil5" points="143,229 142,248 153,249 153,248 153,227 "/>
   <path class="fil5" d="M254 175c1,-2 2,-7 3,-10 2,-5 10,-20 14,-23l-10 -5c-9,12 -4,24 -7,38z"/>
   <path class="fil5" d="M59 61c4,0 17,-2 20,-5 -5,-6 -4,-7 -7,-16 -4,4 -13,15 -13,21z"/>
   <path class="fil7" d="M190 121l1 -2c-2,1 -10,7 -12,1 -4,1 -5,-1 -3,-4 -4,-1 4,-8 5,-9l-3 0c-8,0 -13,11 -7,18 6,6 17,4 19,-4z"/>
   <path class="fil8" d="M26 99c4,5 16,2 22,2 -2,-6 -2,-4 -1,-9l6 0 0 -4c-8,-1 -8,0 -15,4 -6,3 -8,2 -12,7z"/>
   <path class="fil5" d="M187 242c1,3 2,5 0,7 13,2 15,-9 24,-1 2,-5 2,-2 4,-4 1,-9 -14,-2 -13,-7 -3,3 -11,5 -15,5z"/>
   <path class="fil7" d="M105 124c-2,1 -3,3 -6,4 -2,1 -6,0 -7,-2 -2,0 -2,0 -3,-2l1 -2c-2,-1 0,-5 1,-6 2,-2 3,-2 5,-3 -11,-2 -18,10 -11,18 7,7 18,3 20,-7z"/>
   <path class="fil6" d="M137 56c12,-4 33,-17 44,-25 -6,-4 -13,5 -22,11 -3,2 -9,4 -13,5 -7,2 -9,0 -9,9z"/>
   <path class="fil5" d="M109 243c-3,2 -7,1 -6,5 4,3 4,-6 11,3l9 0c2,-1 3,-4 8,-3 4,0 6,6 8,3l2 -8c-5,1 -30,3 -32,0z"/>
   <path class="fil9" d="M150 43c8,-1 12,-4 18,-9 3,-2 10,-4 1,-6 -4,-2 -8,-4 -11,-4 -2,11 -3,12 -8,19z"/>
   <path class="fil10" d="M178 107l3 0c-1,1 -9,8 -5,9 3,1 5,2 3,4 2,6 10,0 12,-1l-1 2c3,-2 0,-8 0,-11 -1,1 -2,3 -5,2 -3,-1 -3,-4 -3,-6l-4 1z"/>
   <path class="fil11" d="M207 61c2,0 3,0 5,1l-2 3c4,4 4,6 -2,5l1 3c8,-1 17,-15 20,-21 -4,1 -7,3 -12,5 -4,0 -8,2 -10,4z"/>
   <path class="fil5" d="M155 245c1,6 1,6 8,7 8,-10 13,-3 17,-3 2,0 0,-1 2,-3 2,-2 2,0 4,-1l-4 -5c0,4 -23,5 -27,5z"/>
   <path class="fil12" d="M94 62c-9,-12 -17,-17 -18,-34 -2,2 -2,9 -2,12 -1,11 9,20 20,22z"/>
   <path class="fil10" d="M90 122c3,0 5,2 2,4 1,2 5,3 7,2 3,-1 4,-3 6,-4l-1 -8c-2,1 -3,3 -6,1 -2,-1 -2,-2 -2,-5l0 1c-2,1 -3,1 -5,3 -1,1 -3,5 -1,6z"/>
   <path class="fil5" d="M229 172c2,-6 3,-16 7,-21 7,-8 8,-2 -6,-7 -2,2 -4,9 -4,13l3 15z"/>
   <path class="fil12" d="M85 19c1,4 1,5 2,7 3,5 10,13 14,9 -5,-7 -5,-2 -5,-16 0,-1 -6,-1 -11,0z"/>
   <path class="fil12" d="M112 5c1,4 0,8 3,13 1,3 4,8 8,9 -1,-4 -5,-5 -2,-15 1,-2 2,-3 2,-4 -2,-3 -9,-6 -11,-3z"/>
   <path class="fil1" d="M142 182c7,-2 9,6 4,9 -2,1 -5,1 -6,-2 -1,-2 -1,-6 2,-7zm8 -4c-2,0 -12,2 -13,2 -2,3 -2,12 3,13 11,4 16,-6 10,-15z"/>
   <path class="fil5" d="M222 205c-2,-3 3,-12 4,-15 -1,1 -3,4 -5,5 -1,2 -4,3 -5,5 -5,4 -7,7 -7,14 2,-5 8,-7 13,-9z"/>
   <path class="fil5" d="M274 195c4,-1 10,-7 13,-10 1,-1 10,-11 10,-12 -3,0 -5,0 -8,-1 -1,6 -3,9 -6,13 -2,4 -7,7 -9,10z"/>
   <path class="fil5" d="M238 212c-6,1 -16,7 -21,11 -2,1 -1,1 -3,3 -1,1 -2,1 -3,2 3,-1 5,-3 8,-4 4,0 6,0 9,-2 4,-2 7,-6 10,-10z"/>
   <path class="fil12" d="M131 67c-3,-3 -4,-7 -10,-10 4,9 3,9 3,18 2,0 6,-6 7,-8z"/>
   <path class="fil13" d="M88 145c-2,-4 -16,-1 -16,3 1,5 14,1 16,-3z"/>
   <path class="fil5" d="M216 221c-1,-3 2,-10 3,-13 -3,1 -6,4 -8,6 -2,3 -1,2 -1,5 1,2 0,4 0,7l6 -5z"/>
   <path class="fil2" d="M272 194c2,-1 9,-8 10,-9 1,-3 5,-10 5,-13l-3 -3c-5,19 -8,17 -12,25z"/>
   <path class="fil3" d="M185 79c1,-4 3,-3 7,-2 10,2 6,10 0,6 -4,-2 -2,-3 -7,-4zm1 -4c-2,1 -3,1 -3,4 -1,3 1,2 3,3 3,0 5,5 10,4 2,-1 6,-5 1,-9 -2,-2 -8,-3 -11,-2z"/>
   <path class="fil13" d="M205 126c-4,1 -14,10 -3,8 9,-2 11,-10 3,-8z"/>
   <path class="fil14" d="M185 79c5,1 3,2 7,4 6,4 10,-4 0,-6 -4,-1 -6,-2 -7,2z"/>
   <path class="fil3" d="M68 98c-2,-3 3,-11 8,-8 1,0 2,1 1,2 -1,1 -3,1 -4,2 -3,1 -2,4 -5,4zm-1 -5c-2,3 -1,9 3,7 2,-1 1,-3 3,-4 1,-1 3,-1 4,-2 7,-3 -5,-12 -10,-1z"/>
   <path class="fil15" d="M182 106c0,2 0,5 3,6 3,1 4,-1 5,-2 0,-3 1,-5 -2,-6 -3,-1 -4,0 -6,2z"/>
   <path class="fil15" d="M96 112c0,3 0,4 2,5 3,2 4,0 6,-1 0,-3 1,-5 -2,-6 -3,-1 -5,0 -6,2z"/>
   <path class="fil3" d="M147 188c-2,4 -8,2 -6,-4 1,-2 8,-1 6,4zm-5 -6c-3,1 -3,5 -2,7 1,3 4,3 6,2 5,-3 3,-11 -4,-9z"/>
   <path class="fil14" d="M68 98c3,0 2,-3 5,-4 1,-1 3,-1 4,-2 1,-1 0,-2 -1,-2 -5,-3 -10,5 -8,8z"/>
   <path class="fil16" d="M147 188c2,-5 -5,-6 -6,-4 -2,6 4,8 6,4z"/>
   <path class="fil17" d="M87 247c1,1 11,1 13,0 -1,0 -1,0 -1,0 0,0 0,0 0,0 0,0 0,0 0,0 0,0 0,0 -1,-1 -3,-2 -5,-2 -8,0 -3,1 -2,0 -3,1z"/>
   <path class="fil15" d="M179 120c2,-2 0,-3 -3,-4 -2,3 -1,5 3,4z"/>
   <path class="fil15" d="M92 126c3,-2 1,-4 -2,-4l-1 2c1,2 1,2 3,2z"/>
   <path class="fil17" d="M78 246c0,-1 0,0 0,0 -2,-2 -2,-5 -6,-2 2,2 5,3 6,2z"/>
   <path class="fil3" d="M87 247c1,-1 0,0 3,-1 3,-2 5,-2 8,0 1,1 1,1 1,1 0,0 0,0 0,0 0,0 0,0 0,0 0,0 0,0 1,0 -2,1 -12,1 -13,0zm-15 -3c4,-3 4,0 6,2 0,0 0,-1 0,0 -1,1 -4,0 -6,-2zm78 -66c6,9 1,19 -10,15 -5,-1 -5,-10 -3,-13 1,0 11,-2 13,-2zm-15 2c0,1 0,3 -1,4 0,1 0,1 0,1 -8,0 -22,1 -26,1 -4,0 -27,-1 -28,-6 0,-2 1,-5 2,-6 1,-1 5,1 6,2 16,5 42,4 47,4zm67 57c-1,5 14,-2 13,7 -2,2 -2,-1 -4,4 -9,-8 -11,3 -24,1 2,-2 1,-4 0,-7 -3,-3 -4,-2 -4,-8 0,-4 0,-8 0,-11 0,-5 -2,-16 -5,-19 0,0 3,13 3,17 1,7 -1,12 1,19l4 5c-2,1 -2,-1 -4,1 -2,2 0,3 -2,3 -4,0 -9,-7 -17,3 -7,-1 -7,-1 -8,-7 0,-4 1,-28 -3,-29l-1 0 2 11 0 21 0 1 -11 -1 1 -19 0 -11c-2,1 -3,22 -2,25l-2 8c-2,3 -4,-3 -8,-3 -5,-1 -6,2 -8,3l-9 0c-7,-9 -7,0 -11,-3 -1,-4 3,-3 6,-5 9,-5 6,-6 6,-17 0,-4 -1,-22 -2,-23 -2,1 0,28 0,33 -1,5 -6,6 -10,7 -2,1 -1,2 -3,3 -2,0 -3,-3 -8,-3 -5,1 -4,2 -6,4l-6 0c-2,-4 0,-1 -2,-3 -3,-3 -1,-2 -4,-3 3,-3 13,0 9,-6 -3,-3 -8,-5 -8,-9 0,-5 1,-10 5,-14 3,-2 9,-4 13,-1l4 2 0 0 -7 -5 -6 0c-1,-1 -1,-2 -1,-3 -2,-5 -2,3 -3,-7l-3 -1c0,-1 1,-6 2,-7 3,-5 1,-2 -2,-4 1,-1 2,-2 2,-3 8,3 16,4 26,5 9,-1 19,-2 29,-2 1,2 3,9 2,10 0,4 -2,-1 -2,4 0,2 1,4 3,5 3,-3 1,-7 1,-10 2,1 4,2 7,1 -2,7 -1,5 -2,8 -1,2 1,4 4,5 3,-4 1,-7 -1,-13 3,0 5,-1 6,-4 1,3 -3,8 1,11 3,-1 3,-4 4,-7 -1,-1 -5,-1 -2,-11 11,-2 16,-2 26,-6 9,-4 17,-7 23,-13 2,0 6,4 7,6l-5 2c1,3 2,2 4,4 3,3 0,2 -1,4 -1,2 5,1 0,10 -3,7 -4,12 -3,20 -2,-2 -3,-3 -7,-5 -3,0 -8,-1 -9,2 8,0 22,6 18,20 -2,5 -4,5 -6,8zm70 -43c4,-8 7,-6 12,-25l3 3c0,3 -4,10 -5,13 -1,1 -8,8 -10,9zm7 23c4,-3 10,-7 14,-11 5,-4 8,-9 12,-13 11,-13 16,-31 17,-33 3,5 0,16 -3,22 -2,6 -6,10 -10,15 -7,9 -18,19 -30,20zm-128 -39c17,-5 25,-9 40,-17 4,-3 10,-8 10,0 3,1 5,1 1,5 -3,3 -14,9 -18,10 -9,4 -20,7 -29,7 -1,-2 -2,-4 -4,-5zm-63 -33c-2,4 -15,8 -16,3 0,-4 14,-7 16,-3zm142 77c-3,1 -7,1 -11,2 -3,1 -5,3 -8,4 1,-1 2,-1 3,-2 2,-2 1,-2 3,-3 5,-4 15,-10 21,-11 13,-6 23,-9 36,-17 2,-3 7,-6 9,-10 3,-4 5,-7 6,-13 3,1 5,1 8,1 3,-4 -15,3 -13,-14 3,-16 25,-27 25,-1 0,20 -20,41 -36,53 -7,6 -9,8 -19,9 -9,0 -16,1 -24,2zm35 -3c12,-9 25,-17 33,-30 7,-11 14,-22 12,-36 -1,-8 -2,-6 -5,-11 12,1 19,9 15,21 -3,9 -7,16 -13,25 -9,13 -24,31 -42,31zm-43 -14c-5,2 -11,4 -13,9 0,-7 2,-10 7,-14 1,-2 4,-3 5,-5 2,-1 4,-4 5,-5 3,-5 4,-10 4,-18l-4 -15c0,-4 2,-11 4,-13 5,2 5,3 11,2 2,0 5,0 5,-3 -30,8 -26,-34 -9,-38 7,3 10,16 11,23 2,8 -3,22 -3,32 -1,9 2,24 -2,32 -3,5 -16,11 -21,13zm-17 -79c8,-2 6,6 -3,8 -11,2 -1,-7 3,-8zm-3 10c1,16 -8,23 -21,29 -13,6 -20,9 -35,13 -12,2 -33,1 -45,0 -8,-1 -11,-4 -16,-10 -2,-3 -7,-13 -7,-16 3,0 7,-1 10,-3 9,-10 -8,-8 -14,-7 0,-3 1,-7 0,-11 -1,-1 -3,-6 -3,-8 -2,-5 0,-15 4,-20 3,-4 10,-8 15,-9 5,-1 15,0 19,4 2,0 3,-2 6,-3 2,-1 4,-1 6,-2 4,-2 8,-2 13,-3 21,-3 24,3 30,3 0,-7 25,-11 35,3 4,4 6,12 5,18 0,4 -2,7 -3,11 -7,5 -12,12 1,11zm14 85l-6 5c0,-3 1,-5 0,-7 0,-3 -1,-2 1,-5 2,-2 5,-5 8,-6 6,-3 18,-7 22,-11 4,-5 11,-16 13,-22 3,-14 -2,-26 7,-38l10 5 4 0c-1,-2 -9,-3 -13,-8 -2,-3 -6,-10 -6,-13 -1,-11 6,-21 14,-27 10,-7 17,6 21,14 4,7 3,27 1,34 -2,4 -6,5 -9,12 -2,8 1,13 0,17 -2,6 -10,22 -15,26 -14,10 -35,12 -52,24zm-190 -122c4,-5 6,-4 12,-7 7,-4 7,-5 15,-4l0 4 -6 0c-1,5 -1,3 1,9 -6,0 -18,3 -22,-2zm227 67c0,4 -3,20 -8,22 0,-1 1,-10 2,-12 0,-14 -3,-16 2,-35 2,-10 1,-12 -1,-22 -2,-9 -9,-14 -9,-15 2,-1 9,0 12,1 5,2 4,5 4,10 -2,9 3,13 1,25 0,5 -2,8 -2,13 -1,4 0,8 -1,13zm50 -26c1,-2 3,-6 4,-9 4,-13 3,-19 1,-32 5,4 11,13 12,19 2,11 0,17 -6,25l-11 -3zm-25 -49c3,-4 16,-1 20,2 9,5 9,4 10,15 1,8 0,14 -2,22 -1,2 -3,8 -4,9 0,1 -8,3 -9,3 0,-5 8,-26 -6,-43 -1,-2 -9,-8 -9,-8zm-229 -16c2,0 16,2 21,1 23,-1 19,-2 37,-6 3,0 18,-5 15,0 -2,2 -76,16 -73,5zm72 -9c-7,3 -85,16 -70,4 5,-4 14,-1 20,-1 16,1 32,-2 47,-7 4,-2 4,2 3,4zm-1 -6c-1,3 -27,7 -32,7 -15,2 -15,1 -28,0 -2,0 -4,0 -5,-1 -3,-5 12,-4 19,-5 11,-3 1,-6 13,1 12,6 31,-3 33,-2zm-61 1c0,-6 9,-17 13,-21 2,9 2,10 7,16 -3,3 -16,5 -20,5zm24 110c-6,-3 -9,-4 -13,-10 -7,-10 -5,-11 -7,-16 -2,-1 -4,-2 -5,-3 1,0 3,0 3,-2 -1,0 -2,-1 -3,-2 5,-2 2,-2 0,-6l5 -1c4,-1 4,-6 3,-9 0,-1 -3,-5 -5,-7 -2,-4 -7,-17 -7,-18l-4 2 0 -5 4 0c2,-6 -2,-8 0,-13 3,-1 13,0 19,-1 5,-1 11,-1 16,-2 12,-2 22,-4 33,-6l0 6c4,1 8,-7 10,-9 8,-1 24,-6 33,-10 8,-4 23,-15 24,-17 4,0 7,6 9,9 3,5 3,7 5,12l7 0c0,1 -1,1 -2,2 0,0 2,1 3,4l-6 -2c0,1 4,9 4,11 4,19 -1,40 -1,42 3,3 7,4 9,4 0,2 -1,3 -3,4 2,1 4,1 5,0 1,4 -2,11 -4,13 -4,5 -10,10 -15,12 4,-6 4,-8 3,-18 4,-1 9,-2 9,-8 -2,-4 -5,-3 -8,-3 -1,-2 3,-7 2,-14 -1,-4 -2,-9 -4,-13 -7,-12 -22,-15 -34,-9 -8,4 -2,4 -12,1 -8,-2 -21,-1 -29,1 -5,1 -9,2 -13,4 -7,3 -2,4 -11,0 -15,-7 -38,7 -34,29 1,4 4,9 4,12 -1,3 0,5 -1,8 0,2 -3,2 -2,6 1,2 4,3 6,3 2,8 7,16 11,21l-4 -2zm-67 -75c-4,-1 -14,-9 -14,-13l36 -15c0,-1 -1,-3 -2,-4l6 -1c0,-2 -4,-3 -6,-5l14 -4 14 -8c-3,5 -6,9 -6,15 -8,3 -2,3 -8,7 -3,2 -5,9 -2,12l5 0 -2 7c-9,1 -6,-1 -15,4 -2,1 -4,2 -6,3 -4,1 -5,4 -6,4l-8 -2zm191 -35c2,-2 6,-4 10,-4 5,-1 8,-4 12,-5 -3,6 -12,20 -20,21l-1 -3c4,0 5,1 5,0 1,-1 0,-3 -3,-5l2 -3c-2,-1 -3,-1 -5,-1zm-74 6c0,-5 11,-6 14,-8 15,-5 18,-7 30,-15 4,-2 10,-10 14,-7 -3,11 -49,32 -58,30zm3 -6c-1,-5 7,-7 11,-8 4,-2 23,-12 25,-14 3,-3 10,-9 13,-6 4,4 -18,17 -21,18 -4,2 -25,11 -28,10zm1 -5c0,-9 2,-7 9,-9 4,-1 10,-3 13,-5 9,-6 16,-15 22,-11 -11,8 -32,21 -44,25zm71 -20c0,2 -1,4 2,2 1,0 3,-1 4,-2 3,-1 7,-1 10,-2 6,-1 12,-6 16,-7 0,25 -19,25 -36,33 -2,-5 -2,-6 -5,-11 -3,-3 -6,-6 -8,-9 2,-1 4,1 7,-1 2,-2 3,-4 5,-5 1,2 -1,6 5,2zm-58 7c6,-7 7,-13 8,-19 3,0 7,2 11,4 2,1 3,1 3,2 -1,3 -17,12 -22,13zm-24 -15c-5,-4 -8,-17 6,-25 9,-5 19,3 22,12 3,9 2,24 -7,29 -5,3 -10,2 -11,8 -2,6 -5,20 -12,23 0,-9 1,-9 -3,-18 -7,2 -41,16 -47,-17 -1,-25 21,-21 22,-21 0,4 -1,7 0,10 1,1 2,5 3,5 3,2 3,2 2,0 -13,-14 11,-38 22,-26 -4,5 -6,18 3,20zm84 47c4,-3 5,-2 9,-6 10,-10 9,-16 13,-19 6,-5 10,-14 10,-23 -1,-5 -7,0 -10,2 -9,5 -14,3 -22,7l0 -3 -5 2 1 -4c-4,-1 -6,5 -11,7 -4,1 -2,0 -4,-2 0,-1 -3,-3 -5,-4 -6,-5 -9,-3 -14,-4 -2,-1 -4,-3 -6,-4 -2,0 -6,-1 -7,-2 -3,-2 -2,-17 -15,-21 -4,-1 -10,-2 -14,1 -9,6 -3,4 -11,1 -10,-4 -17,7 -22,14 -1,2 -15,-5 -23,9 -3,7 0,10 -4,14 -5,3 -16,11 -22,13 -3,1 -12,3 -13,4 -1,3 2,3 3,5 -1,0 -3,0 -4,1 1,2 1,3 2,4l-36 14c-1,5 4,9 7,12 4,3 10,6 14,7 3,0 8,5 17,4 4,0 13,-2 15,-4 1,1 1,5 3,7 1,3 2,5 3,7 2,5 8,8 5,14 -3,2 -5,2 -8,4 1,3 3,4 0,5 0,2 1,2 1,3 1,2 -4,1 3,5 4,2 0,5 6,15 7,10 11,11 14,13 0,2 -3,3 -2,8 0,4 -5,5 -1,7 2,2 -2,5 -2,9 0,3 2,2 3,2 2,1 2,6 4,10 -2,1 -4,3 -6,4 -2,3 -2,6 -3,9 -1,8 1,10 7,14 -2,2 -9,2 -10,8 2,5 13,5 17,5 4,0 7,0 10,0 8,0 3,2 8,3 5,0 15,1 20,1 3,0 7,0 10,0 6,0 3,0 7,-3 4,0 6,1 10,1 3,-1 4,2 9,2 1,0 18,-1 18,-1 9,-2 29,1 36,-3 2,-2 4,-6 1,-9 -4,-4 -6,-2 -11,-3 11,-22 65,-11 86,-22 11,-6 23,-18 29,-30 6,-12 9,-33 -5,-42 7,-9 10,-16 6,-28 -6,-16 -29,-34 -45,-26 -6,3 -16,10 -19,17 -18,-12 -34,0 -35,23 -1,7 5,9 7,14 0,0 -6,7 -4,16 3,9 7,23 -4,34 -1,1 -10,10 -11,10 0,-3 0,-8 2,-11 2,-2 2,-7 0,-10 3,-4 0,-4 -3,-7 7,-3 2,-6 -2,-9 -4,-3 1,-3 -3,-6 0,0 -3,-4 -3,-5 4,-3 22,-14 20,-29 -1,1 -2,1 -4,1 1,-1 2,-2 2,-4 -3,-1 -6,-2 -9,-4 1,-8 2,-16 2,-24 1,-8 -1,-13 -2,-20z"/>
   <path class="fil17 str0" d="M129 156c9,1 20,0 29,-5 -9,6 -19,7 -29,5z"/>
  </g>
 </g>
</svg>
