<?xml version="1.0" encoding="UTF-8"?>
<!DOCTYPE svg PUBLIC "-//W3C//DTD SVG 1.1//EN" "http://www.w3.org/Graphics/SVG/1.1/DTD/svg11.dtd">
<!-- Creator: CorelDRAW X7 -->
<svg xmlns="http://www.w3.org/2000/svg" xml:space="preserve" width="39.3917mm" height="53.9169mm" version="1.1" style="shape-rendering:geometricPrecision; text-rendering:geometricPrecision; image-rendering:optimizeQuality; fill-rule:evenodd; clip-rule:evenodd"
viewBox="0 0 189 258"
 xmlns:xlink="http://www.w3.org/1999/xlink">
 <defs>
  <style type="text/css">
   <![CDATA[
    .fil16 {fill:none}
    .fil0 {fill:#0486B9}
    .fil1 {fill:#0594CB}
    .fil4 {fill:#39A6DC}
    .fil5 {fill:#4EAEE0}
    .fil3 {fill:#66B8E7}
    .fil2 {fill:#70280B}
    .fil12 {fill:#91C9E6}
    .fil14 {fill:#A8D2E9}
    .fil10 {fill:#D4702C}
    .fil15 {fill:#EA9234}
    .fil9 {fill:#EBA617}
    .fil7 {fill:#EBAF30}
    .fil6 {fill:#ECB04E}
    .fil8 {fill:#EDC84F}
    .fil13 {fill:#EECF71}
    .fil11 {fill:#F2D89B}
   ]]>
  </style>
   <clipPath id="id0">
    <path d="M189 0l0 258 -189 0 0 -258 189 0z"/>
   </clipPath>
 </defs>
 <g id="圖層_x0020_1">
  <metadata id="CorelCorpID_0Corel-Layer"/>
  <g>
  </g>
  <g style="clip-path:url(#id0)">
   <g>
    <g id="_2173633770400">
     <path class="fil0" d="M283 108c-1,1 -8,4 -10,5 -4,3 -14,8 -18,11 -2,2 -7,6 -9,7 -2,2 -2,1 -5,1 -15,-1 -21,2 -33,4 -1,1 -4,1 -6,2 -3,1 -5,2 -7,2 -5,2 -9,4 -13,6 -1,2 0,3 0,5 0,2 0,3 1,5 3,-1 6,-3 9,-4 3,-1 5,-2 8,-3 5,-1 13,-4 18,-4 6,-2 17,-2 23,-1 0,0 1,0 1,0l5 0c3,0 4,0 7,1l2 -4c1,-3 4,-7 6,-9 1,-2 3,-3 4,-4 1,-2 1,-2 3,-3 16,-10 27,-13 47,-9 0,-3 -8,-13 -11,-14 -1,1 -3,1 -6,1 -1,1 -3,1 -5,2l-11 3z"/>
     <path class="fil1" d="M117 119c-2,0 -8,4 -12,6 -2,1 -9,7 -11,7 0,1 -1,1 -1,1 -1,5 -3,17 -3,22 -3,-1 -16,-1 -19,2 4,2 5,4 7,6 2,-1 4,-2 6,-3l7 -4c3,-1 10,-5 13,-5 2,-2 16,-5 22,-6 5,0 7,0 12,0 5,0 8,1 13,2 1,-2 1,-3 1,-6l0 -1c0,0 0,0 0,0 0,-1 0,0 0,-1 -1,-2 -1,-2 -1,-3 1,-7 -1,-9 0,-12 -2,1 -2,1 -4,2 0,0 0,0 -1,0 -5,1 -11,3 -15,1 -1,-1 -2,-2 -3,-3 -1,-1 -3,-2 -4,-3 -2,-2 -1,-1 -1,-3 -1,1 -2,1 -4,2 0,0 0,0 0,0 1,-2 1,-1 2,-2 -1,0 -1,0 -2,0 -1,1 0,0 -1,1l-1 0z"/>
     <path class="fil0" d="M154 159l-1 2c-9,-3 -24,-2 -33,0 -3,0 -8,1 -10,2l-33 12c-2,0 -2,0 -3,-1 0,2 1,1 0,4l-2 6c-1,1 -1,-1 -1,1 0,2 1,0 1,0 -1,0 0,0 -1,1l2 3 19 -9c11,-6 27,-11 40,-11 9,0 15,1 25,4l20 -14c1,0 0,0 1,-1 0,-1 -1,-8 -2,-10 -3,1 -8,4 -11,6 -2,0 -3,1 -5,2 -2,1 -4,3 -6,3z"/>
     <path class="fil2" d="M172 120c-1,4 3,10 1,14 1,0 1,0 1,2 1,2 1,3 1,4 0,2 1,6 1,8 1,2 2,9 2,10l3 17c1,6 2,11 3,17 2,11 4,22 6,34l6 33c1,5 6,32 6,34 1,0 2,-3 3,-4 2,-2 3,-2 3,-4 -1,-2 -6,-29 -6,-32l-16 -81c-1,-4 -3,-12 -3,-16 -1,-2 -1,-3 -1,-5 0,-2 -1,-3 0,-5 -1,-2 -4,-13 -3,-16 -2,-1 -1,0 -1,-2 -1,-1 -1,-2 -1,-3 0,-2 -1,-4 -1,-5l-4 0z"/>
     <path class="fil3" d="M50 152c1,0 -3,11 -4,13 -2,5 -4,10 -5,14 1,-3 6,-8 8,-10 2,-1 7,-7 9,-7 0,1 1,1 0,2 1,0 1,-1 2,-2l7 -4c2,-1 2,-1 4,-1 3,-3 16,-3 19,-2 0,-5 2,-17 3,-22 -4,-1 -9,0 -13,0 -4,1 -12,5 -16,8 -1,1 -3,1 -4,3l-10 8z"/>
     <path class="fil4" d="M217 55c-2,2 -27,8 -32,12l-1 0c-1,3 -1,2 4,9 0,0 0,1 1,1l0 2c0,0 0,0 1,0 2,0 0,0 1,0l1 -1 18 -6c2,0 5,-1 7,-1 1,-1 7,-2 9,-2 4,-1 7,-2 10,-2l5 -1c1,0 0,0 1,0 8,0 5,-1 8,-1 1,0 2,0 3,0l2 0c0,0 1,0 1,0 2,0 0,0 2,0 -3,-1 -8,-3 -11,-4 -4,-1 -7,-2 -10,-3 -7,-1 -14,-3 -20,-3z"/>
     <path class="fil5" d="M197 99c-1,2 -1,1 1,5 0,1 1,2 1,4 1,1 1,1 1,2 1,1 1,1 1,2 1,4 2,2 1,5l-5 0c-3,0 -12,0 -14,-2 -1,-1 -2,-3 -3,-4 -1,-1 -2,-2 -2,-4 -4,-5 -3,-3 -6,-6 -1,0 -1,0 -2,0 -4,1 -10,1 -14,3 -3,0 -5,1 -7,2 -2,0 -5,1 -7,1 0,1 -1,1 -2,1 -2,1 -2,1 -3,2 3,2 0,0 2,0l3 -1c1,3 2,1 1,3l-4 0c0,0 1,0 1,1 0,1 0,0 2,1 1,2 1,4 4,3 2,0 0,-1 4,0 0,4 -3,3 1,6 1,0 0,0 1,0 2,1 7,-1 10,-1 3,-1 7,-2 10,-2l4 0c0,0 0,0 0,0l7 -1c5,0 17,-1 22,0 0,-4 -1,-4 -3,-10 0,-2 -1,-3 -1,-5 -1,-2 -1,-3 -2,-5 -1,1 0,1 -2,0z"/>
     <path class="fil1" d="M218 90c-1,1 0,1 -1,1 -1,1 -1,1 -2,1 -2,1 -1,0 -3,2 1,1 1,0 1,2 2,0 1,0 3,0l3 -1c2,0 0,0 2,0 0,1 -1,1 -1,2 0,0 0,1 0,2 2,2 3,2 4,4l1 1c1,2 0,0 1,2 -2,1 -3,3 -5,4 -1,1 0,0 -1,1l5 4c-4,1 -5,-2 -8,-3 -2,2 -1,0 -3,2l-1 1c4,2 1,0 3,0 0,0 1,0 1,1l1 1c0,0 0,0 0,0l-2 0c0,0 0,1 0,1 3,-1 7,-1 10,-1 4,0 7,0 11,0 1,-2 6,-7 8,-9 2,-1 3,-3 4,-4 2,-1 4,-2 5,-4 1,-2 1,0 0,-1 -2,0 -3,-1 -5,1 0,-1 -1,-4 -4,-3l-1 -2c-1,-2 -6,-4 -9,-9 -1,0 -2,0 -4,1 -5,1 -11,3 -13,3z"/>
     <path class="fil6" d="M216 118c-7,1 -20,4 -25,7l-1 2c2,1 2,0 3,2 1,1 1,1 3,2l5 3c1,0 1,0 2,1 0,0 0,-1 0,-1 2,-1 1,0 2,0 1,2 1,1 3,0 1,1 1,1 0,2 12,-2 18,-5 33,-4 3,0 3,1 5,-1 -2,-1 -8,-11 -9,-14 -4,0 -7,0 -11,0 -3,0 -7,0 -10,1z"/>
     <path class="fil6" d="M151 147c-5,-1 -8,-2 -13,-2 -5,0 -7,0 -12,0 -6,1 -20,4 -22,6l0 4c0,0 0,0 0,0 0,2 0,3 0,5l2 -2c0,0 1,0 1,0l0 1c1,2 0,1 2,3l1 1c2,-1 7,-2 10,-2 9,-2 24,-3 33,0l1 -2c-1,-3 0,-3 -1,-6 0,-2 0,-4 -1,-6l-1 0z"/>
     <path class="fil7" d="M236 67c-3,0 -6,1 -10,2 -2,0 -8,1 -9,2 3,1 1,1 1,1 -1,2 1,1 -2,1 -1,2 0,0 0,3 -2,0 -2,0 -4,1 5,2 3,0 7,0 -1,2 0,1 -2,2 0,0 -1,0 -1,0 2,1 2,0 4,1 -3,2 -1,-1 -4,2l2 1c0,0 2,0 3,0 -1,2 -1,3 -4,2 0,0 0,0 0,0 0,0 0,0 -1,0l-1 0c0,4 4,3 6,3l-3 2c2,0 8,-2 13,-3 2,-1 3,-1 4,-1 2,-1 1,0 2,-1 2,-1 10,-2 13,-2 1,0 3,-1 4,-1l11 0 1 -1c-5,-1 -11,-6 -18,-9 -3,-2 -4,-4 -5,-5 -2,4 0,1 -2,2 -2,-2 -2,-1 -5,-2z"/>
     <path class="fil8" d="M68 121c0,0 -8,11 -10,14 -2,4 -7,12 -8,16l0 1 10 -8c1,-2 3,-2 4,-3 4,-3 12,-7 16,-8 4,0 9,-1 13,0 0,0 1,0 1,-1 -2,-1 -1,0 -1,-2l3 -11c1,-3 1,-2 2,-5l-1 0c-1,2 -2,1 -7,1 -3,0 -5,0 -7,1 -3,0 -11,3 -13,5l-2 0z"/>
     <path class="fil9" d="M129 96c-3,1 -27,14 -31,18 -1,3 -1,2 -2,5l-3 11c0,2 -1,1 1,2 2,0 9,-6 11,-7 4,-2 10,-6 12,-6 2,-2 4,-3 7,-4l11 -5c1,-1 0,-1 2,0 1,-1 1,-1 3,-2 1,0 2,0 2,-1l1 -1c-3,0 -2,0 -3,1 -5,1 -1,-2 -8,1 -1,-1 -1,2 0,-1 1,-2 1,0 3,-3 -1,-1 -2,-2 -3,-2 1,-2 1,-1 1,-3 -2,0 -2,3 -2,0 0,0 0,0 -1,0l1 -2c0,-1 0,-1 0,-1l-2 0z"/>
     <path class="fil7" d="M134 68c-4,2 -8,3 -12,6 -2,1 -4,1 -6,3 -2,2 -4,2 -6,4 -4,3 -19,12 -22,17 1,0 2,0 3,0 0,-1 1,0 1,-1 4,-1 9,-3 14,-2 1,-2 19,-12 20,-12 3,-3 12,-6 16,-7 1,-1 1,-1 2,-1 1,-1 2,-1 3,-2 0,-1 -1,-1 -2,-2l-2 -4c1,-2 4,-2 9,-3 4,-2 10,-5 14,-5l-1 0 -4 0c-2,-4 -2,-9 -5,-12 -2,4 0,10 -1,14 -3,0 -8,2 -11,3 -2,1 -9,3 -10,4z"/>
     <path class="fil1" d="M212 94c-3,0 -1,0 -3,1 -2,0 -2,0 -3,1 -2,1 -5,1 -6,3l-1 0c1,2 1,3 2,5 0,2 1,3 1,5 2,6 3,6 3,10 -5,-1 -17,0 -22,0l-7 1c0,0 0,0 0,0 0,1 1,3 1,5 0,1 0,2 1,3 0,2 -1,1 1,2 2,0 4,-2 6,-2 1,-1 5,-3 6,-3 5,-3 18,-6 25,-7 0,0 0,-1 0,-1l2 0c0,0 0,0 0,0l-1 -1c0,-1 -1,-1 -1,-1 -2,0 1,2 -3,0l1 -1c2,-2 1,0 3,-2 3,1 4,4 8,3l-5 -4c1,-1 0,0 1,-1 2,-1 3,-3 5,-4 -1,-2 0,0 -1,-2l-1 -1c-1,-2 -2,-2 -4,-4 0,-1 0,-2 0,-2 0,-1 1,-1 1,-2 -2,0 0,0 -2,0l-3 1c-2,0 -1,0 -3,0 0,-2 0,-1 -1,-2z"/>
     <path class="fil10" d="M254 100l0 0c-1,2 -3,3 -5,4 -1,1 -2,3 -4,4 -2,2 -7,7 -8,9 1,3 7,13 9,14 2,-1 7,-5 9,-7 4,-3 14,-8 18,-11 2,-1 9,-4 10,-5 0,0 -1,0 -1,0 -6,0 -5,3 -8,3 1,-2 3,-2 4,-4 -3,-1 -2,2 -4,1 -1,-1 -4,-2 -5,-3 -3,0 -4,0 -6,0 -6,1 -4,-2 -5,-3 0,-1 1,0 -1,-1 0,0 0,0 0,0 0,0 0,0 0,0 0,0 0,1 0,1 0,0 -1,0 -1,0 0,0 0,1 0,2 -1,-3 -1,1 -2,-4z"/>
     <path class="fil10" d="M71 157c-2,0 -2,0 -4,1l-7 4c-1,1 -1,2 -2,2l-3 2c2,2 6,1 9,2 5,2 7,3 10,6 1,1 1,1 3,1l33 -12 -1 -1c-2,-2 -1,-1 -2,-3l0 -1c0,0 -1,0 -1,0l-2 2c0,-2 0,-3 0,-5 0,0 0,0 0,0l0 -4c-3,0 -10,4 -13,5l-7 4c-2,1 -4,2 -6,3 -2,-2 -3,-4 -7,-6z"/>
     <path class="fil6" d="M132 94c-2,2 -2,1 -3,2l2 0c0,0 0,0 0,1l-1 2c1,0 1,0 1,0 0,3 0,0 2,0 0,2 0,1 -1,3 1,0 2,1 3,2 -2,3 -2,1 -3,3 -1,3 -1,0 0,1 7,-3 3,0 8,-1 1,-1 0,-1 3,-1l-1 1c2,0 5,-1 7,-1 2,-1 4,-2 7,-2 4,-2 10,-2 14,-3 2,-1 0,0 1,-1 -1,-3 -5,-7 -7,-9l-1 -1c-1,-2 -1,-1 -2,-4l-2 -1 -1 -1c-2,2 -10,4 -13,5l-13 5z"/>
     <path class="fil11" d="M191 79c-2,1 -8,1 -11,1l-13 3c-7,2 -6,0 -8,2l2 1c1,3 1,2 2,4l1 1c2,2 6,6 7,9 -1,1 1,0 -1,1 1,0 1,0 2,0 3,-2 5,0 7,-1 1,0 1,0 5,-1 2,0 4,0 6,0 1,0 0,0 1,0l1 0c3,0 1,0 5,0 2,1 1,1 2,0l1 0c-2,-2 -3,-3 -3,-4 -1,-2 -1,-3 -2,-5 -2,-3 -3,-7 -5,-9l2 -3 -1 1z"/>
     <path class="fil5" d="M235 86c3,5 8,7 9,9l1 2c3,-1 4,2 4,3 2,-2 3,-1 5,-1 1,1 1,-1 0,1l0 0c3,-2 4,-2 7,-2l15 -1c2,0 6,0 8,0l1 -1c-3,-1 -4,0 -7,-3 -4,-4 -4,-6 -13,-11l-11 0c-1,0 -3,1 -4,1 -3,0 -11,1 -13,2 -1,1 0,0 -2,1z"/>
     <path class="fil9" d="M192 78l-2 3c2,2 3,6 5,9 1,2 1,3 2,5 0,1 1,2 3,4 1,-2 4,-2 6,-3 1,-1 1,-1 3,-1 2,-1 0,-1 3,-1 2,-2 1,-1 3,-2 1,0 1,0 2,-1 1,0 0,0 1,-1l3 -2c-2,0 -6,1 -6,-3l1 0c1,0 1,0 1,0 0,0 0,0 0,0 3,1 3,0 4,-2 -1,0 -3,0 -3,0l-2 -1c3,-3 1,0 4,-2 -2,-1 -2,0 -4,-1 0,0 1,0 1,0 2,-1 1,0 2,-2 -4,0 -2,2 -7,0 2,-1 2,-1 4,-1 0,-3 -1,-1 0,-3 3,0 1,1 2,-1 0,0 2,0 -1,-1 -2,0 -5,1 -7,1l-18 6z"/>
     <path class="fil12" d="M147 73c-1,1 -2,1 -3,2 5,0 3,-3 7,2 2,3 5,5 7,7l1 1c2,-2 1,0 8,-2l13 -3c3,0 9,0 11,-1 -1,0 1,0 -1,0 -1,0 -1,0 -1,0l0 -2c-1,0 -1,-1 -1,-1 -5,-7 -5,-6 -4,-9 -2,0 -1,1 -4,1 -10,-1 -5,-1 -12,1 -1,0 -1,0 -2,0l-9 2c-1,0 -2,0 -3,0 -1,0 -1,1 -2,1 -1,0 -3,1 -5,1z"/>
     <path class="fil5" d="M91 98c-4,4 0,-4 -12,9 -4,4 -8,9 -11,14l2 0c2,-2 10,-5 13,-5 2,-1 4,-1 7,-1 5,0 6,1 7,-1 3,-6 7,-14 9,-19 -5,-1 -10,1 -14,2 0,1 -1,0 -1,1z"/>
     <path class="fil1" d="M71 186c1,-1 0,-1 1,-1 0,0 -1,2 -1,0 0,-2 0,0 1,-1l2 -6c1,-3 0,-2 0,-4 -3,-3 -5,-4 -10,-6 -3,-1 -7,0 -9,-2l3 -2c1,-1 0,-1 0,-2 -2,0 -7,6 -9,7 -2,2 -7,7 -8,10 1,-4 3,-9 5,-14 1,-2 5,-13 4,-13l0 -1c-2,8 -12,25 -13,36 5,-5 10,-9 16,-9 10,-1 12,3 18,8z"/>
     <path class="fil13" d="M236 67c3,1 3,0 5,2 2,-1 0,2 2,-2 1,1 2,3 5,5 7,3 13,8 18,9 1,1 2,1 3,1 5,0 4,-1 9,0l12 2c-3,-5 -25,-17 -32,-19 -2,0 0,0 -2,0 0,0 -1,0 -1,0l-2 0c-1,0 -2,0 -3,0 -3,0 0,1 -8,1 -1,0 0,0 -1,0l-5 1z"/>
     <path class="fil0" d="M152 123l-1 1c-1,3 1,5 0,12 0,1 0,1 1,3 0,1 0,0 0,1 0,0 0,0 0,0l0 1c0,3 0,4 -1,6l1 0c2,-1 4,-2 5,-4 2,-1 4,-1 5,-3 4,-2 8,-4 11,-6 2,-4 -2,-10 -1,-14 -3,0 -7,1 -10,2 -3,0 -8,2 -10,1z"/>
     <path class="fil6" d="M284 97c-2,0 -6,0 -8,0l-15 1c-3,0 -4,0 -7,2 1,5 1,1 2,4 0,-1 0,-2 0,-2 0,0 1,0 1,0 0,0 0,-1 0,-1 0,0 0,0 0,0 0,0 0,0 0,0 2,1 1,0 1,1 1,1 -1,4 5,3 2,0 3,0 6,0 1,1 4,2 5,3 2,1 1,-2 4,-1 -1,2 -3,2 -4,4 3,0 2,-3 8,-3 0,0 1,0 1,0l11 -3c2,-1 4,-1 5,-2 3,0 5,0 6,-1 0,-1 0,0 0,-1 0,0 -1,0 -1,-1 0,0 0,0 0,0 -7,-2 -13,-2 -20,-3z"/>
     <path class="fil1" d="M106 95c-2,5 -6,13 -9,19l1 0c4,-4 28,-17 31,-18 1,-1 1,0 3,-2 0,-1 0,-1 0,-2 -2,0 -1,2 -4,1l0 -1c0,-3 0,-2 -1,-2 1,-3 -2,-1 -2,-4 0,-2 1,-2 2,-3l-1 0c-1,0 -19,10 -20,12z"/>
     <path class="fil4" d="M144 75c-1,0 -1,0 -2,1 -4,1 -13,4 -16,7l1 0c-1,1 -2,1 -2,3 0,3 3,1 2,4 1,0 1,-1 1,2l0 1c3,1 2,-1 4,-1 0,1 0,1 0,2l13 -5c3,-1 11,-3 13,-5 -2,-2 -5,-4 -7,-7 -4,-5 -2,-2 -7,-2z"/>
     <path class="fil14" d="M172 101c3,3 2,1 6,6 0,2 1,3 2,4 1,1 2,3 3,4 2,2 11,2 14,2l5 0c1,-3 0,-1 -1,-5 0,-1 0,-1 -1,-2 0,-1 0,-1 -1,-2 0,-2 -1,-3 -1,-4 -2,-4 -2,-3 -1,-5 -4,0 -2,0 -5,0l-1 0c-1,0 0,0 -1,0 -2,0 -4,0 -6,0 -4,1 -4,1 -5,1 -2,1 -4,-1 -7,1z"/>
     <path class="fil14" d="M266 81l-1 1c9,5 9,7 13,11 3,3 4,2 7,3l-1 1c7,1 13,1 20,3 2,0 0,0 2,0 0,0 0,0 0,0 0,0 0,0 1,0 -1,-1 -1,-1 -1,-1l-3 -4c-3,-3 -9,-9 -13,-11l-12 -2c-5,-1 -4,0 -9,0 -1,0 -2,0 -3,-1z"/>
     <path class="fil4" d="M137 110c-2,-1 -1,-1 -2,0l-11 5c-3,1 -5,2 -7,4l1 0c1,-1 0,0 1,-1 1,0 1,0 2,0 -1,1 -1,0 -2,2 0,0 0,0 0,0 2,-1 3,-1 4,-2 0,2 -1,1 1,3 1,1 3,2 4,3 1,1 2,2 3,3 4,2 10,0 15,-1 1,0 1,0 1,0 2,-1 2,-1 4,-2l1 -1c-1,0 0,0 -1,0 -4,-3 -1,-2 -1,-6 -4,-1 -2,0 -4,0 -3,1 -3,-1 -4,-3 -2,-1 -2,0 -2,-1 0,-1 -1,-1 -1,-1l4 0c1,-2 0,0 -1,-3l-3 1c-2,0 1,2 -2,0z"/>
     <path class="fil10" d="M173 134c-3,2 -7,4 -11,6 -1,2 -3,2 -5,3 -1,2 -3,3 -5,4 1,2 1,4 1,6 1,3 0,3 1,6 2,0 4,-2 6,-3 2,-1 3,-2 5,-2 3,-2 8,-5 11,-6 0,-2 -1,-6 -1,-8 0,-1 0,-2 -1,-4 0,-2 0,-2 -1,-2z"/>
     <path class="fil13" d="M165 59l1 0c-4,0 -10,3 -14,5 -5,1 -8,1 -9,3l2 4c1,1 2,1 2,2 2,0 4,-1 5,-1 1,0 1,-1 2,-1 1,0 2,0 3,0l9 -2c1,0 1,0 2,0 7,-2 2,-2 12,-1 3,0 2,-1 4,-1l1 0c-2,-1 -2,0 -4,-2 -2,-2 -3,-4 -7,-7 2,-2 0,-1 3,-2 -3,0 -4,1 -6,1 -2,1 -4,0 -6,2z"/>
     <path class="fil15" d="M179 130c-1,3 2,14 3,16 4,-2 8,-4 13,-6 2,0 4,-1 7,-2 2,-1 5,-1 6,-2 1,-1 1,-1 0,-2 -2,1 -2,2 -3,0 -1,0 0,-1 -2,0 0,0 0,1 0,1 -1,-1 -1,-1 -2,-1l-5 -3c-2,-1 -2,-1 -3,-2 -1,-2 -1,-1 -3,-2l1 -2c-1,0 -5,2 -6,3 -2,0 -4,2 -6,2z"/>
     <path class="fil7" d="M184 55c-1,0 -6,1 -7,1 -3,1 -1,0 -3,2 4,3 5,5 7,7 2,2 2,1 4,2 5,-4 30,-10 32,-12l-24 0c-3,0 -6,0 -9,0z"/>
    </g>
   </g>
  </g>
  <polygon class="fil16" points="189,0 189,258 0,258 0,0 "/>
 </g>
</svg>
