<?xml version="1.0" encoding="UTF-8"?>
<!DOCTYPE svg PUBLIC "-//W3C//DTD SVG 1.1//EN" "http://www.w3.org/Graphics/SVG/1.1/DTD/svg11.dtd">
<!-- Creator: CorelDRAW X7 -->
<svg xmlns="http://www.w3.org/2000/svg" xml:space="preserve" width="72.6306mm" height="60.0966mm" version="1.1" style="shape-rendering:geometricPrecision; text-rendering:geometricPrecision; image-rendering:optimizeQuality; fill-rule:evenodd; clip-rule:evenodd"
viewBox="0 0 662 548"
 xmlns:xlink="http://www.w3.org/1999/xlink">
 <defs>
  <style type="text/css">
   <![CDATA[
    .fil2 {fill:none}
    .fil1 {fill:#E9D0A2}
    .fil21 {fill:#073503;fill-opacity:0.788235}
    .fil10 {fill:#2F6A13;fill-opacity:0.788235}
    .fil20 {fill:#365903;fill-opacity:0.788235}
    .fil8 {fill:#3D7C23;fill-opacity:0.788235}
    .fil18 {fill:#4C7302;fill-opacity:0.788235}
    .fil7 {fill:#519136;fill-opacity:0.788235}
    .fil22 {fill:#559511;fill-opacity:0.788235}
    .fil11 {fill:#62963B;fill-opacity:0.788235}
    .fil17 {fill:#679806;fill-opacity:0.788235}
    .fil6 {fill:#71AA47;fill-opacity:0.788235}
    .fil19 {fill:#7BB915;fill-opacity:0.788235}
    .fil9 {fill:#8AB84E;fill-opacity:0.788235}
    .fil15 {fill:#95B817;fill-opacity:0.788235}
    .fil12 {fill:#95BC74;fill-opacity:0.788235}
    .fil13 {fill:#9AC956;fill-opacity:0.788235}
    .fil16 {fill:#C2D74E;fill-opacity:0.788235}
    .fil14 {fill:#C8EA79;fill-opacity:0.788235}
    .fil3 {fill:#EEDECE;fill-opacity:0.788235}
    .fil5 {fill:#EFE8E0;fill-opacity:0.788235}
    .fil4 {fill:#F5F3EC;fill-opacity:0.788235}
    .fil0 {fill:#94DE6E;fill-opacity:0.788235}
   ]]>
  </style>
   <clipPath id="id0">
    <path d="M662 132l-662 0 0 300 662 0 0 -300z"/>
   </clipPath>
   <clipPath id="id1">
    <path d="M662 132l-662 0 0 300 662 0 0 -300z"/>
   </clipPath>
 </defs>
 <g id="圖層_x0020_1">
  <metadata id="CorelCorpID_0Corel-Layer"/>
  <g style="clip-path:url(#id0)">
   <polygon class="fil0" points="0,132 662,132 662,432 0,432 "/>
  </g>
  <g style="clip-path:url(#id1)">
   <g id="_2173700146848">
    <path id="1" class="fil1" d="M282 132l-116 -1c0,0 -212,14 -110,83 102,68 453,-21 530,68 76,90 -194,111 -194,111 0,0 69,28 145,24 0,0 485,-170 29,-236 0,0 -164,-11 -269,-11 -106,0 96,-38 96,-38l-111 0z"/>
   </g>
  </g>
  <polygon class="fil2" points="662,132 0,132 0,432 662,432 "/>
  <g id="_2173700102912">
   <path class="fil3" d="M662 405c0,0 -165,36 -270,-8 -106,-43 -189,-10 -189,-10 0,0 -163,46 -131,-46 29,-85 -59,-73 -72,-71l0 278 662 0 0 -143z"/>
   <path class="fil4" d="M368 391c27,12 57,27 87,31 16,2 32,4 49,5 17,0 36,-2 52,-2l8 0c-6,5 -53,7 -64,7 -30,2 -42,-2 -71,-3 2,2 1,2 4,3 3,2 2,1 5,2l63 8c18,1 70,-7 74,-2 -6,-1 -48,3 -52,7 -12,-2 -30,1 -43,0 -15,0 -29,-1 -44,-3 -60,-12 -43,-8 -100,-27 -21,-8 -84,-19 -109,-14 -43,2 -69,13 -86,15 -32,3 -47,-2 -76,-13 -36,-22 13,-69 -4,-102 -7,-14 -46,-14 -61,-16l0 -17c14,-3 35,-3 51,5 18,9 31,26 21,50 -2,6 -3,13 -4,17 -17,55 24,57 57,57 43,1 90,-18 101,-18 51,-6 94,-8 142,10z"/>
   <path class="fil5" d="M589 506l-4 -20c1,0 2,-3 2,-3 2,3 0,-6 12,-8 14,-3 14,2 17,5 11,10 1,19 -4,26l-23 0z"/>
   <path class="fil5" d="M347 465l-2 -10c1,-1 1,-2 1,-2 1,1 0,-3 6,-4 7,-1 7,1 9,3 5,5 0,9 -2,13l-12 0z"/>
   <path class="fil5" d="M117 473l-2 -10c1,0 1,-2 1,-2 1,2 1,-3 6,-4 7,-1 7,1 9,3 5,5 0,9 -2,13l-12 0z"/>
   <path class="fil5" d="M12 412l-2 -10c0,-1 1,-2 1,-2 1,1 0,-3 6,-4 7,-1 7,1 9,3 5,5 0,9 -3,13l-11 0z"/>
   <path class="fil5" d="M83 502l-2 -10c1,-1 1,-2 1,-2 1,1 1,-3 7,-4 6,-1 6,1 8,3 5,5 0,9 -2,13l-12 0z"/>
   <path class="fil5" d="M123 483l-2 -10c0,-1 1,-2 1,-2 1,1 0,-3 6,-4 7,-1 7,1 9,3 5,5 0,9 -3,12l-11 1z"/>
   <path class="fil5" d="M254 519l-2 -10c0,-1 1,-2 1,-2 1,1 0,-3 6,-4 7,-1 7,1 9,3 5,5 0,9 -3,12l-11 1z"/>
   <path class="fil5" d="M414 478l-1 -5c0,0 0,-1 0,-1 1,1 0,-1 3,-2 4,-1 4,1 5,1 2,3 0,5 -2,7l-5 0z"/>
   <path class="fil5" d="M404 463l-1 -5c0,-1 1,-1 1,-1 0,0 0,-2 3,-2 3,-1 3,0 4,1 3,3 0,5 -1,7l-6 0z"/>
   <path class="fil5" d="M549 505l-1 -5c0,0 0,-1 0,-1 1,1 0,-1 3,-2 4,-1 4,1 5,1 2,3 0,5 -2,7l-5 0z"/>
   <path class="fil5" d="M579 459l-1 -5c0,0 1,-1 1,-1 0,1 0,-1 3,-2 3,-1 3,1 4,1 3,3 0,5 -1,7l-6 0z"/>
   <path class="fil5" d="M469 516l-1 -5c0,0 0,-1 0,-1 1,1 0,-2 3,-2 4,-1 4,0 5,1 2,3 0,5 -2,7l-5 0z"/>
   <path class="fil5" d="M284 431l-1 -5c1,0 1,-1 1,-1 0,1 0,-1 3,-2 3,-1 3,1 4,1 3,3 0,5 -1,7l-6 0z"/>
   <path class="fil5" d="M244 465l-1 -5c0,0 0,-1 1,-1 0,1 0,-1 3,-2 3,-1 3,1 4,1 2,3 0,5 -1,7l-6 0z"/>
   <path class="fil5" d="M167 433l-1 -5c0,0 0,-1 0,-1 1,1 1,-1 4,-2 3,-1 3,1 4,1 2,3 0,5 -1,7l-6 0z"/>
   <path class="fil5" d="M71 419l-1 -5c0,0 0,-1 0,0 1,0 0,-2 3,-3 4,0 4,1 4,2 3,2 1,4 -1,6l-5 0z"/>
   <path class="fil5" d="M15 345l-1 -5c0,0 1,-1 1,0 0,0 0,-2 3,-2 3,-1 3,0 4,1 3,2 0,5 -1,6l-6 0z"/>
   <path class="fil5" d="M47 327l-1 -5c0,0 0,-1 1,-1 0,1 0,-1 3,-2 3,0 3,1 4,2 3,2 0,4 -1,6l-6 0z"/>
   <path class="fil5" d="M32 516l-1 -5c0,0 0,-1 0,-1 1,1 0,-2 3,-2 3,-1 4,0 4,1 3,3 1,5 -1,7l-5 0z"/>
   <path class="fil5" d="M18 547l-1 -5c1,0 1,-1 1,-1 0,1 0,-2 3,-2 3,-1 4,0 4,1 3,3 0,5 -1,7l-6 0z"/>
   <path class="fil5" d="M145 548l-1 -5c0,0 1,-1 1,-1 0,1 0,-1 3,-2 3,0 3,1 4,2 3,2 0,4 -1,6l-6 0z"/>
   <path class="fil5" d="M173 515l-1 -5c1,0 1,-1 1,0 0,0 0,-2 3,-3 3,0 3,1 4,2 3,2 0,4 -1,6l-6 0z"/>
   <path class="fil5" d="M181 514l-1 -5c1,0 1,-1 1,-1 0,1 0,-2 3,-2 3,-1 3,0 4,1 3,3 0,5 -1,7l-6 0z"/>
   <path class="fil5" d="M175 507l-1 -5c0,0 1,-1 1,-1 0,1 0,-1 3,-2 3,0 3,1 4,2 3,2 0,4 -1,6l-6 0z"/>
   <path class="fil5" d="M324 536l-1 -5c0,0 1,-1 1,-1 0,1 0,-1 3,-2 3,0 3,1 4,2 3,2 0,4 -1,6l-6 0z"/>
   <path class="fil5" d="M332 535l-1 -5c0,-1 1,-1 1,-1 0,0 0,-2 3,-2 3,-1 3,0 4,1 3,3 0,5 -1,7l-6 0z"/>
   <path class="fil5" d="M326 528l-1 -5c0,0 0,-1 1,-1 0,1 0,-1 3,-2 3,-1 3,1 4,1 3,3 0,5 -1,7l-6 0z"/>
   <path class="fil5" d="M493 455l-1 -5c0,0 0,-1 0,-1 1,1 0,-1 3,-2 3,0 4,1 4,2 3,2 1,4 -1,6l-5 0z"/>
   <path class="fil5" d="M500 454l-1 -5c1,-1 1,-1 1,-1 0,1 0,-2 3,-2 3,-1 3,0 4,1 3,3 0,5 -1,7l-6 0z"/>
   <path class="fil5" d="M494 447l-1 -5c0,0 1,-1 1,-1 0,1 0,-1 3,-2 3,0 3,1 4,2 3,2 0,4 -1,6l-6 0z"/>
   <path class="fil5" d="M623 543l-1 -5c1,0 1,-1 1,-1 0,1 0,-1 3,-2 3,-1 3,1 4,1 3,3 0,5 -1,7l-6 0z"/>
   <path class="fil5" d="M631 541l-1 -5c0,0 1,-1 1,0 0,0 0,-2 3,-3 3,0 3,1 4,2 3,2 0,4 -1,6l-6 0z"/>
   <path class="fil5" d="M625 535l-1 -5c0,-1 1,-1 1,-1 0,0 0,-2 3,-2 3,-1 3,0 4,1 3,3 0,5 -1,7l-6 0z"/>
   <path class="fil5" d="M637 444l-1 -5c0,0 1,-1 1,-1 0,1 0,-1 3,-2 3,-1 3,1 4,1 3,3 0,5 -1,7l-6 0z"/>
   <path class="fil5" d="M645 442l-1 -5c0,0 1,-1 1,0 0,0 0,-2 3,-3 3,0 3,1 4,2 3,2 0,4 -1,6l-6 0z"/>
   <path class="fil5" d="M639 436l-1 -5c0,-1 0,-1 1,-1 0,0 0,-2 3,-2 3,-1 3,0 4,1 3,3 0,5 -1,7l-6 0z"/>
   <path class="fil5" d="M531 540l-1 -5c0,0 0,-1 0,-1 1,1 0,-1 3,-2 3,0 4,1 4,2 3,2 1,4 -1,6l-5 0z"/>
   <path class="fil5" d="M538 539l-1 -5c1,-1 1,-1 1,-1 0,0 0,-2 3,-2 3,-1 4,0 4,1 3,3 0,5 -1,6l-6 1z"/>
   <path class="fil5" d="M532 532l-1 -5c1,0 1,-1 1,-1 0,1 0,-1 3,-2 3,-1 3,1 4,1 3,3 0,5 -1,7l-6 0z"/>
   <path class="fil5" d="M416 431l-1 -5c0,-1 1,-1 1,-1 0,1 0,-2 3,-2 3,-1 3,0 4,1 3,3 0,5 -1,7l-6 0z"/>
   <path class="fil5" d="M383 409l0 -4c0,0 0,0 0,0 0,0 0,-1 2,-2 2,0 2,1 3,1 2,2 0,3 -1,5l-4 0z"/>
   <path class="fil5" d="M389 508l0 -3c0,-1 0,-1 0,-1 0,0 0,-1 2,-1 3,-1 3,0 3,1 2,1 0,3 -1,4l-4 0z"/>
   <path class="fil5" d="M277 484l0 -3c0,0 0,-1 0,-1 0,1 0,-1 2,-1 2,-1 3,0 3,1 2,2 0,3 -1,4l-4 0z"/>
   <path class="fil5" d="M315 424l-1 -3c0,0 0,-1 0,-1 1,1 0,-1 2,-1 3,-1 3,0 3,1 2,1 0,3 0,4l-4 0z"/>
   <path class="fil5" d="M294 409l-1 -4c0,0 0,-1 1,0 0,0 0,-1 2,-2 2,0 2,1 3,1 1,2 0,3 -1,4l-4 1z"/>
   <path class="fil5" d="M279 394l-1 -3c1,-1 1,-1 1,-1 0,0 0,-1 2,-1 2,-1 2,0 3,0 2,2 0,4 -1,5l-4 0z"/>
   <path class="fil5" d="M226 414l0 -4c0,0 0,-1 0,0 0,0 0,-2 2,-2 2,0 2,0 3,1 2,2 0,3 -1,4l-4 1z"/>
   <path class="fil5" d="M196 472l-1 -4c0,0 1,0 1,0 0,0 0,-1 2,-2 2,0 2,1 3,1 2,2 0,3 -1,5l-4 0z"/>
   <path class="fil5" d="M30 436l-1 -3c0,0 1,-1 1,-1 0,1 0,-1 2,-1 2,-1 2,0 3,1 1,1 0,3 -1,4l-4 0z"/>
   <path class="fil5" d="M46 466l0 -3c0,0 0,-1 0,-1 0,1 0,-1 2,-1 2,-1 2,0 3,1 2,1 0,3 -1,4l-4 0z"/>
   <path class="fil5" d="M37 377l-1 -4c1,0 1,-1 1,0 0,0 0,-2 2,-2 2,0 2,0 3,1 2,2 0,3 -1,4l-4 1z"/>
  </g>
  <g id="_2173700101632">
   <path class="fil6" d="M495 467c-1,5 -1,2 -2,3 -4,10 -2,8 -13,11 -8,2 -10,5 -16,8 -1,5 1,1 -3,7 -1,2 -2,3 -3,4 -3,12 0,8 -11,10 -5,1 -8,4 -13,6 -2,3 -2,2 -4,6 -2,2 -2,4 -4,6l-1 6c7,1 1,0 7,-3 6,-3 4,-1 5,-4 0,0 0,-1 0,-1 2,1 4,1 6,3 1,-3 2,-5 3,-8 7,2 2,5 9,4 11,-3 10,2 15,-2 -1,-3 -2,1 -3,-9 5,1 10,3 12,6 -2,-4 -1,-2 -3,-7 10,1 3,-1 8,2 4,2 -2,0 3,3 5,2 1,0 6,-1 -5,-1 -6,-8 -8,-12 6,1 7,-1 8,5 1,-7 0,-3 6,-5 0,5 -1,7 2,9 -3,2 -1,0 1,0 0,0 3,0 3,0 7,0 -4,4 2,-1 4,-3 -3,0 3,-2 -1,1 3,3 -2,0l0 -3c0,-5 -1,-7 1,-9l2 -1c1,0 1,-2 7,5 -3,0 -1,1 -1,-2l2 -18c0,0 0,-1 0,-1 1,0 1,1 1,1l3 9c-1,0 -2,1 1,-5l8 -7c-1,7 -2,10 -3,11 0,2 1,-3 2,5l2 -2c1,-3 2,1 0,-4 2,0 8,1 8,0 4,0 -2,2 2,-1 13,-8 -8,3 3,-2 5,5 4,-3 4,6l16 -14c0,0 3,0 4,-3 0,-1 0,-1 1,-1 8,5 6,3 11,-2 0,13 10,6 10,5 4,-5 -2,3 0,-3 7,1 3,-2 7,6 1,2 3,1 3,4 3,-3 3,-2 4,-8l2 2c5,3 13,2 25,3 -2,0 0,3 -1,-2 -1,-6 2,5 0,-5l2 2c1,0 1,0 2,1 0,0 0,0 1,0 4,3 -7,-2 2,2l5 0c0,0 1,-1 1,-1l5 -4c3,-1 4,0 5,2l1 -4c0,-1 1,-1 1,-1l5 -2 0 -21c-24,0 -27,6 -43,15l-3 8 -14 -5c-22,-2 -11,4 -24,-8 -7,-6 -12,-6 -19,-9 -1,-1 -1,-1 -2,-1 0,-1 0,0 -1,-1l-25 0c-2,2 0,1 -4,2l-7 2c-10,4 -22,13 -25,15z"/>
   <path class="fil7" d="M479 520c8,0 19,-1 24,0 4,1 14,7 15,9 0,-4 1,-11 1,-14 -1,-19 1,-10 5,-14l2 16c0,-4 6,-6 12,-10 6,-4 9,-7 14,-12 -1,10 -3,8 -8,14 10,1 22,1 30,-6 1,2 2,2 3,3 0,0 2,1 2,1 3,2 3,1 5,4 0,1 0,1 0,1 0,0 0,1 0,1l1 3c4,-3 1,-2 6,-4 -4,-2 -3,0 -4,-4 4,1 4,1 7,-2 1,4 0,3 2,5l26 -21c16,-4 28,5 40,8l0 -28 -5 2c0,0 -1,0 -1,1l-1 4c-1,-2 -2,-3 -5,-2l-5 4c0,0 -1,1 -1,1l-5 0c-9,-4 2,1 -2,-2 -1,0 -1,0 -1,0 -1,-1 -1,-1 -2,-1l-2 -2c2,10 -1,-1 0,5 1,5 -1,2 1,2 -12,-1 -20,0 -25,-3l-2 -2c-1,6 -1,5 -4,8 0,-3 -2,-2 -3,-4 -4,-8 0,-5 -7,-6 -2,6 4,-2 0,3 0,1 -10,8 -10,-5 -5,5 -3,7 -11,2 -1,0 -1,0 -1,1 -1,3 -4,3 -4,3l-16 14c0,-9 1,-1 -4,-6 -11,5 10,-6 -3,2 -4,3 2,1 -2,1 0,1 -6,0 -8,0 2,5 1,1 0,4l-2 2c-1,-8 -2,-3 -2,-5 1,-1 2,-4 3,-11l-8 7c-3,6 -2,5 -1,5l-3 -9c0,0 0,-1 -1,-1 0,0 0,1 0,1l-2 18c0,3 -2,2 1,2 -6,-7 -6,-5 -7,-5l-2 1c-2,2 -1,4 -1,9l0 3c5,3 1,1 2,0 -6,2 1,-1 -3,2 -6,5 5,1 -2,1 0,0 -3,0 -3,0 -2,0 -4,2 -1,0 -3,-2 -2,-4 -2,-9 -6,2 -5,-2 -6,5 -1,-6 -2,-4 -8,-5 2,4 3,11 8,12 -5,1 -1,3 -6,1 -5,-3 1,-1 -3,-3 -5,-3 2,-1 -8,-2 2,5 1,3 3,7z"/>
   <path class="fil6" d="M596 511l-4 9c-16,0 -17,-6 -32,4 -10,6 -13,9 -15,24l32 0 0 0 9 -7 8 2 4 -5c-4,-3 -2,-1 -5,-4l14 1c-1,-3 -5,-1 -2,-6 10,6 6,7 17,4l-2 -12 6 6 7 -6c8,3 2,3 13,2l13 -5c0,6 -1,2 3,4l0 -21 0 -1 0 -2c-12,-3 -24,-12 -40,-8l-26 21z"/>
   <path class="fil8" d="M479 520c4,8 -1,1 5,4 6,2 11,0 17,1 6,2 7,8 12,11l0 12 11 0 3 0 6 0 12 0c2,-15 5,-18 15,-24 15,-10 16,-4 32,-4l4 -9c-2,-2 -1,-1 -2,-5 -3,3 -3,3 -7,2 1,4 0,2 4,4 -5,2 -2,1 -6,4l-1 -3c0,0 0,-1 0,-1 0,0 0,0 0,-1 -2,-3 -2,-2 -5,-4 0,0 -2,-1 -2,-1 -1,-1 -2,-1 -3,-3 -8,7 -20,7 -30,6 5,-6 7,-4 8,-14 -5,5 -8,8 -14,12 -6,4 -12,6 -12,10l-2 -16c-4,4 -6,-5 -5,14 0,3 -1,10 -1,14 -1,-2 -11,-8 -15,-9 -5,-1 -16,0 -24,0z"/>
   <path class="fil7" d="M425 534l0 14 8 0 80 0 0 -12c-5,-3 -6,-9 -12,-11 -6,-1 -11,1 -17,-1 -6,-3 -1,4 -5,-4 -2,-3 -7,-5 -12,-6 1,10 2,6 3,9 -5,4 -4,-1 -15,2 -7,1 -2,-2 -9,-4 -1,3 -2,5 -3,8 -2,-2 -4,-2 -6,-3 0,0 0,1 0,1 -1,3 1,1 -5,4 -6,3 0,4 -7,3z"/>
   <path class="fil7" d="M626 527l2 4c4,-7 2,-2 3,-3l0 15c11,-8 9,-15 17,-17 -1,2 -1,4 -3,5 -1,2 -2,2 -3,5 5,-1 4,-2 10,-2 -6,7 -15,2 -16,14l15 0 1 0 10 0 0 -15 0 -11c-4,-2 -3,2 -3,-4l-13 5c-11,1 -5,1 -13,-2l-7 6z"/>
   <path class="fil7" d="M598 538c7,3 6,2 15,2 5,1 9,2 14,3l0 5 9 0c1,-12 10,-7 16,-14 -6,0 -5,1 -10,2 1,-3 2,-3 3,-5 2,-1 2,-3 3,-5 -8,2 -6,9 -17,17l0 -15c-1,1 1,-4 -3,3l-2 -4 -6 -6 2 12c-11,3 -7,2 -17,-4 -3,5 1,3 2,6l-14 -1c3,3 1,1 5,4z"/>
   <path class="fil7" d="M577 548l13 0 30 0 5 0 2 0 0 -5c-5,-1 -9,-2 -14,-3 -9,0 -8,1 -15,-2l-4 5 -8 -2 -9 7z"/>
  </g>
  <g id="_2173700123648">
   <path class="fil6" d="M0 456c7,-3 4,1 9,-4 1,0 1,1 1,1 0,5 1,5 5,8 4,3 1,1 5,2l10 4c1,0 0,-1 2,2 1,1 1,2 2,3l2 1c3,1 4,-1 7,7 0,0 0,1 0,2 22,-11 33,-5 54,-2 -1,-1 0,-3 -2,-4 9,-3 2,1 5,0 13,-4 -8,-1 11,-3l9 0c4,-1 -2,1 3,-2 3,-2 4,-8 15,2l1 -11c3,7 3,3 5,9l9 -3c12,-4 6,1 14,10 0,0 1,-2 2,-3l3 -4c2,4 1,7 2,9 7,2 3,0 7,0 5,0 0,-1 3,0l2 1c1,0 1,0 2,1 0,0 0,0 1,0l4 -7c2,2 0,3 7,4 6,2 3,0 5,2l1 1c0,0 0,1 0,1 0,0 1,0 1,0 3,3 0,2 2,7 0,0 1,-1 1,-1 4,6 -1,0 7,-4l2 13c6,-1 3,0 9,1 2,-7 0,7 0,-2l0 -4c2,2 10,4 9,-3l14 5c17,3 4,2 12,4 8,1 2,1 6,-2l1 6c3,5 0,4 4,4l2 0c8,-2 -2,1 10,3 -1,-8 -8,-14 4,-6 0,0 1,0 1,0 0,0 1,1 1,1 9,6 -3,5 8,7 0,0 0,0 1,0 0,0 0,0 0,0l17 6 5 -5c2,4 1,4 4,8 0,0 4,3 5,3 2,1 10,2 9,23l3 1 0 0c0,-40 -30,-62 -58,-62l-13 0c-6,-2 -1,1 -5,-3l-6 -8c-11,-14 -20,-13 -34,-13 -6,-14 -16,-15 -24,-24 -21,-6 -24,-7 -47,-6l-24 3 -12 8c-2,1 -7,5 -10,7 -5,3 -17,-2 -31,-2l-14 5 -8 9c-9,-4 -11,-16 -37,-29 -5,-2 -4,-1 -7,-4l-14 -1 0 28z"/>
   <path class="fil7" d="M97 480c9,3 21,11 26,16l5 4c2,2 2,2 3,4 4,5 3,6 5,11 20,-1 31,-12 51,14 4,5 7,11 4,18l13 0 5 0c-3,-18 -13,-21 -23,-31 -17,-18 -17,-6 -36,-17 3,-2 3,-1 9,1 7,2 7,2 15,2 -2,-7 -4,-7 -7,-14 2,2 7,8 9,11 10,14 17,16 33,28 4,-34 1,-19 -3,-36 3,6 2,7 10,9l-1 14c3,1 4,-3 8,0 -11,7 -8,14 -6,27 7,-7 17,-9 26,-17 0,0 0,0 1,1l1 5c9,1 12,0 16,-5 2,3 2,-2 1,3 0,0 -2,4 -3,4 8,-1 12,-3 16,-5 -14,20 -36,-4 -51,20l17 0 38 0 37 0 25 0c1,-21 -7,-22 -9,-23 -1,0 -5,-3 -5,-3 -3,-4 -2,-4 -4,-8l-5 5 -17 -6c0,0 0,0 0,0 -1,0 -1,0 -1,0 -11,-2 1,-1 -8,-7 0,0 -1,-1 -1,-1 0,0 -1,0 -1,0 -12,-8 -5,-2 -4,6 -12,-2 -2,-5 -10,-3l-2 0c-4,0 -1,1 -4,-4l-1 -6c-4,3 2,3 -6,2 -8,-2 5,-1 -12,-4l-14 -5c1,7 -7,5 -9,3l0 4c0,9 2,-5 0,2 -6,-1 -3,-2 -9,-1l-2 -13c-8,4 -3,10 -7,4 0,0 -1,1 -1,1 -2,-5 1,-4 -2,-7 0,0 -1,0 -1,0 0,0 0,-1 0,-1l-1 -1c-2,-2 1,0 -5,-2 -7,-1 -5,-2 -7,-4l-4 7c-1,0 -1,0 -1,0 -1,-1 -1,-1 -2,-1l-2 -1c-3,-1 2,0 -3,0 -4,0 0,2 -7,0 -1,-2 0,-5 -2,-9l-3 4c-1,1 -2,3 -2,3 -8,-9 -2,-14 -14,-10l-9 3c-2,-6 -2,-2 -5,-9l-1 11c-11,-10 -12,-4 -15,-2 -5,3 1,1 -3,2l-9 0c-19,2 2,-1 -11,3 -3,1 4,-3 -5,0 2,1 1,3 2,4z"/>
   <path class="fil6" d="M0 505c12,0 1,0 7,4 0,0 1,0 1,1l13 5c6,3 3,2 10,2 1,-3 -3,-1 4,-3l2 -3c5,8 -3,4 7,4 0,0 7,-1 10,-1 -9,3 -4,-3 -8,6 8,-2 10,1 11,-7 4,6 4,5 12,7 7,-9 2,-6 1,-7 10,1 4,5 2,7 7,0 5,0 9,-2 -4,3 -4,5 -5,11 17,-8 4,3 14,-8 1,2 2,2 2,7 3,-6 3,-8 9,-11 -1,6 -6,15 8,16 4,0 0,2 4,-1 3,-2 2,5 2,-6 5,4 9,3 2,9 8,1 14,-3 19,0l4 3c9,5 6,1 10,3 -4,5 -1,1 -3,6l19 0 25 0c3,-7 0,-13 -4,-18 -20,-26 -31,-15 -51,-14 -2,-5 -1,-6 -5,-11 -1,-2 -1,-2 -3,-4l-5 -4 4 10c-1,0 -1,0 -2,0 -6,-1 -4,-1 -7,-5 -1,4 0,6 -7,1 0,0 -1,0 -1,0 0,-1 -1,-1 -1,-1 0,0 0,-1 0,-1l-2 -1c-7,-3 -4,6 -15,-1 -9,-6 -3,0 -6,-8 0,4 1,4 -5,7 -12,-4 -6,-10 -12,-11 -2,3 -7,4 -13,4 -10,-1 -7,1 -8,-7l-2 3c0,1 -1,1 -1,1l-9 9c-1,-7 -2,-2 -3,-6 0,0 -1,0 -1,-1 -8,-1 -4,0 -9,-6 -3,-5 -3,-4 -6,-6 -5,-4 -11,-6 -17,-9l0 37z"/>
   <path class="fil7" d="M35 514c-7,6 -7,4 -9,15l11 -2c-1,-2 -8,1 -12,4 -6,3 -7,9 -9,16l38 0 37 1 38 -1 18 0c2,-5 -1,-1 3,-6 -4,-2 -1,2 -10,-3l-4 -3c-5,-3 -11,1 -19,0 7,-6 3,-5 -2,-9 0,11 1,4 -2,6 -4,3 0,1 -4,1 -14,-1 -9,-10 -8,-16 -6,3 -6,5 -9,11 0,-5 -1,-5 -2,-7 -10,11 3,0 -14,8 1,-6 1,-8 5,-11 -4,2 -2,2 -9,2 2,-2 8,-6 -2,-7 1,1 6,-2 -1,7 -8,-2 -8,-1 -12,-7 -1,8 -3,5 -11,7 4,-9 -1,-3 8,-6 -3,0 -10,1 -10,1 -10,0 -2,4 -7,-4l-2 3z"/>
   <path class="fil9" d="M43 482c-5,0 -8,4 -11,7 0,1 1,1 1,1 1,4 2,-1 3,6l9 -9c0,0 1,0 1,-1l2 -3c1,8 -2,6 8,7 6,0 11,-1 13,-4 6,1 0,7 12,11 6,-3 5,-3 5,-7 3,8 -3,2 6,8 11,7 8,-2 15,1l2 1c0,0 0,1 0,1 0,0 1,0 1,1 0,0 1,0 1,0 7,5 6,3 7,-1 3,4 1,4 7,5 1,0 1,0 2,0l-4 -10c-5,-5 -17,-13 -26,-16 -21,-3 -32,-9 -54,2z"/>
   <path class="fil10" d="M209 547l15 0c15,-24 37,0 51,-20 -4,2 -8,4 -16,5 1,0 3,-4 3,-4 1,-5 1,0 -1,-3 -4,5 -7,6 -16,5l-1 -5c-1,-1 -1,-1 -1,-1 -9,8 -19,10 -26,17 -2,-13 -5,-20 6,-27 -4,-3 -5,1 -8,0l1 -14c-8,-2 -7,-3 -10,-9 4,17 7,2 3,36 -16,-12 -23,-14 -33,-28 -2,-3 -7,-9 -9,-11 3,7 5,7 7,14 -8,0 -8,0 -15,-2 -6,-2 -6,-3 -9,-1 19,11 19,-1 36,17 10,10 20,13 23,31z"/>
   <path class="fil7" d="M0 468c6,3 12,5 17,9 3,2 3,1 6,6 5,6 1,5 9,6 3,-3 6,-7 11,-7 0,-1 0,-2 0,-2 -3,-8 -4,-6 -7,-7l-2 -1c-1,-1 -1,-2 -2,-3 -2,-3 -1,-2 -2,-2l-10 -4c-4,-1 -1,1 -5,-2 -4,-3 -5,-3 -5,-8 0,0 0,-1 -1,-1 -5,5 -2,1 -9,4l0 12z"/>
   <path class="fil7" d="M0 532l8 0 -4 -17c-1,3 0,2 2,8 1,0 13,-1 5,-6l0 19c7,1 6,0 15,-11 2,-2 0,1 3,-3 1,-3 0,-1 2,-5 -7,0 -4,1 -10,-2l-13 -5c0,-1 -1,-1 -1,-1 -6,-4 5,-4 -7,-4l0 27z"/>
   <path class="fil8" d="M0 548c5,-2 9,-1 16,-1 2,-7 3,-13 9,-16 4,-3 11,-6 12,-4l-11 2c2,-11 2,-9 9,-15 -7,2 -3,0 -4,3 -2,4 -1,2 -2,5 -3,4 -1,1 -3,3 -9,11 -8,12 -15,11l0 -19c8,5 -4,6 -5,6 -2,-6 -3,-5 -2,-8l4 17 -8 0 0 16 0 0z"/>
  </g>
  <g id="_2173700128096">
   <path class="fil11" d="M312 62c-2,2 -17,9 -20,10 -6,3 -13,7 -18,11 -12,8 -22,15 -33,23l-1 1c-2,2 -1,1 -2,2 -2,1 -3,1 -4,1 -10,5 -14,6 -26,8 -10,2 -52,9 -61,3 -11,-7 -37,-23 -47,-22 -5,11 -29,33 -32,34 -14,1 -5,-37 -10,-45l-7 1c-6,-1 -21,7 -25,10l-26 16 0 26 339 0c-4,-9 6,-35 9,-45 2,-9 12,-39 11,-43 -9,-1 -18,0 -26,2 -7,2 -16,6 -21,7z"/>
   <path class="fil11" d="M555 107c-8,3 -15,7 -23,10l0 -12c-1,-6 1,-7 3,-10 -1,-1 0,0 -2,0 0,0 -1,0 -1,0l-2 -5c-3,2 -2,4 -2,8 -3,-5 0,-3 -4,-4 1,5 2,3 3,9l1 17c-7,2 -18,8 -24,9 -9,2 -17,-6 -24,-8l0 -21c-1,-6 1,-7 4,-12l-5 1c0,-5 1,-3 -1,-6 -2,3 -2,4 -2,8 -1,-2 -2,-3 -5,-4 1,6 5,5 5,12l0 19c-5,-2 -16,-9 -21,-12 -15,-8 -12,-5 -12,-19 -2,-11 2,-8 3,-15l-4 3c0,-5 1,-4 -2,-6l-1 7c-3,-2 -1,-2 -5,-3 2,5 4,5 5,11l0 12c-5,-2 -11,-6 -16,-9 -11,-6 -12,-7 -13,-12l1 -17c-2,-13 3,-8 4,-16l-5 3c0,-5 0,-6 -2,-8 -2,2 -1,0 -1,3l-1 8c-1,-3 -4,-5 -6,-6 1,6 4,7 6,13 -2,2 3,2 -4,1l4 2 0 18c-7,-3 -14,-10 -20,-12 -2,1 21,18 23,19 11,9 73,57 76,58l177 0c0,-2 0,-3 0,-4l0 -5c-1,-132 -86,-33 -107,-25z"/>
   <path class="fil12" d="M94 94c-4,0 -1,-1 -3,2 5,2 4,3 9,3 10,-1 36,15 47,22 9,6 51,-1 61,-3 12,-2 16,-3 26,-8 1,0 2,0 4,-1 1,-1 0,0 2,-2l1 -1c-3,0 -12,-5 -15,-7l12 -99c-25,1 -61,29 -79,44l-48 43c-5,6 -9,15 -17,7z"/>
   <path class="fil13" d="M0 142l662 0 0 -1 -177 0c-3,-1 -65,-49 -76,-58 -2,-1 -25,-18 -23,-19 -5,-6 -18,-10 -27,-11 1,4 -9,34 -11,43 -3,10 -13,36 -9,45l-339 0 0 1z"/>
   <path class="fil12" d="M410 75c1,5 2,6 13,12 5,3 11,7 16,9l0 -12 -6 0c-3,-6 -8,-9 -3,-16 8,-11 30,-6 24,8 -5,12 -7,6 -11,11 0,14 -3,11 12,19 5,3 16,10 21,12l0 -19c-4,-1 -6,0 -9,-4l-4 -8c3,-5 4,-8 11,-10 10,-2 19,-1 18,11 0,4 0,4 -2,6 -4,6 -6,6 -10,6l0 21c7,2 15,10 24,8 6,-1 17,-7 24,-9l-1 -17c-4,2 -5,1 -8,-3 -3,-4 -2,-5 0,-9l-1 0c0,-6 3,-8 7,-10 -1,-14 -3,-26 0,-39 3,-11 7,-25 9,-35 -25,0 -53,16 -69,27 -11,7 -18,13 -28,20 -4,3 -24,20 -27,21z"/>
   <path class="fil14" d="M573 23c-2,-2 -4,-3 -5,-4 -2,-1 -2,-1 -3,-2 -15,-8 -12,-9 -31,-10 -2,10 -6,24 -9,35 -3,13 -1,25 0,39 -4,2 -7,4 -7,10l1 0c4,-8 19,-9 23,-2 2,4 2,7 -1,11 -2,4 -3,5 -9,5l0 12c8,-3 15,-7 23,-10 13,-5 34,-14 45,-22 26,-20 111,18 -27,-62z"/>
   <path class="fil14" d="M241 106c11,-8 21,-15 33,-23 5,-4 12,-8 18,-11 3,-1 18,-8 20,-10l-5 1c-4,-7 -6,-15 -11,-23 -6,-9 -15,-20 -24,-26 -12,-9 -19,-13 -34,-14l-12 99c3,2 12,7 15,7z"/>
   <path class="fil13" d="M100 99c-5,0 -4,-1 -9,-3 2,-3 -1,-2 3,-2 -6,1 -26,-10 -38,-7 -5,1 -2,0 -5,2l7 -1c5,8 -4,46 10,45 3,-1 27,-23 32,-34z"/>
   <path class="fil15" d="M393 47c1,4 4,8 9,9 7,1 2,1 4,-1 -2,-6 -5,-7 -6,-13 2,1 5,3 6,6l1 -8c0,-3 -1,-1 1,-3 2,2 2,3 2,8l5 -3c-1,8 -6,3 -4,16 10,-2 18,-10 15,-22 0,0 -1,0 -1,0 -3,-3 -4,-4 -9,-6 -9,-2 -24,0 -23,17z"/>
   <path class="fil15" d="M476 99c0,-7 -4,-6 -5,-12 3,1 4,2 5,4 0,-4 0,-5 2,-8 2,3 1,1 1,6l5 -1c-3,5 -5,6 -4,12 4,0 6,0 10,-6 2,-2 2,-2 2,-6 1,-12 -8,-13 -18,-11 -7,2 -8,5 -11,10l4 8c3,4 5,3 9,4z"/>
   <path class="fil15" d="M439 84c-1,-6 -3,-6 -5,-11 4,1 2,1 5,3l1 -7c3,2 2,1 2,6l4 -3c-1,7 -5,4 -3,15 4,-5 6,1 11,-11 6,-14 -16,-19 -24,-8 -5,7 0,10 3,16l6 0z"/>
   <path class="fil14" d="M0 115l26 -16c-6,-1 -10,-4 -15,-7 -3,-1 -7,-5 -11,-6l0 29z"/>
   <path class="fil15" d="M519 91c-2,4 -3,5 0,9 3,4 4,5 8,3 -1,-6 -2,-4 -3,-9 4,1 1,-1 4,4 0,-4 -1,-6 2,-8l2 5c0,0 1,0 1,0 2,0 1,-1 2,0 -2,3 -4,4 -3,10 6,0 7,-1 9,-5 3,-4 3,-7 1,-11 -4,-7 -19,-6 -23,2z"/>
   <path class="fil16" d="M393 47c-1,-17 14,-19 23,-17 5,2 6,3 9,6 0,0 1,0 1,0 -2,-10 -12,-15 -23,-12 -8,2 -17,20 -10,23z"/>
  </g>
  <g id="_2173700141280">
   <path class="fil17" d="M62 250c3,2 4,2 5,5 2,-2 1,-1 2,-3 -3,-4 -2,-16 -2,-21 1,-18 4,-41 8,-58 4,-16 13,-39 22,-54 2,-3 3,-5 5,-8l-8 -1 -8 8c-20,17 -26,64 -27,89 0,10 1,34 3,43z"/>
   <path class="fil18" d="M69 252c2,-2 2,-2 5,-3 2,-2 -3,-2 5,-2 -3,-3 3,-2 -4,-3l0 -1c0,0 6,-1 -1,0 1,-12 3,-33 0,-39 0,-3 -1,-2 -1,-3 2,-4 -3,-2 5,-2 -4,-2 -3,0 -3,-5 10,0 8,12 26,10 2,-4 6,-14 5,-19 -4,0 -3,1 -5,6 -1,2 -3,6 -3,6l-6 1c-8,1 -7,-1 -10,-5 -1,-1 -1,-1 -2,-2 0,0 0,0 0,0l15 -38c4,-9 14,-32 11,-39l-4 -3c-2,3 -3,5 -5,8 -9,15 -18,38 -22,54 -4,17 -7,40 -8,58 0,5 -1,17 2,21z"/>
   <path class="fil19" d="M61 137c1,7 -4,18 -6,25 -1,9 -2,20 -2,30 -1,27 3,46 3,59l6 -1c-2,-9 -3,-33 -3,-43 1,-25 7,-72 27,-89l8 -8c-12,-1 -21,8 -27,18 -1,2 -2,2 -3,5 0,0 -1,2 -1,2 -2,3 0,1 -2,2z"/>
   <path class="fil20" d="M29 135c0,0 -7,12 -7,12 0,5 -1,10 -1,14 1,7 4,6 0,9l4 0c2,2 0,0 2,2 0,0 3,2 3,2 4,2 4,1 8,1 9,1 1,1 5,-1 -7,-1 -10,-2 -14,-5 -11,-10 -3,-34 12,-32 0,1 -13,29 7,28 6,0 2,-1 2,-1 0,19 -1,22 0,46l1 27c3,3 3,11 3,15l2 -1c0,-13 -4,-32 -3,-59 0,-10 1,-21 2,-30 2,-7 7,-18 6,-25 -1,1 -1,0 -3,3 0,0 -1,2 -1,2 -1,3 0,3 -1,6l-4 12c-7,-1 -9,-4 -5,-10 1,-7 0,-12 -2,-17 -2,-1 -5,-2 -9,-2 -6,1 -2,1 -7,4z"/>
   <path class="fil20" d="M92 198c-3,-5 -1,-10 2,-17 0,-1 -1,1 0,-5l11 -28c6,-12 13,-28 1,-34 3,7 -7,30 -11,39l-15 38c0,0 0,0 0,0 1,1 1,1 2,2 3,4 2,6 10,5z"/>
   <path class="fil17" d="M38 175l12 1 0 34c-1,-24 0,-27 0,-46 0,0 4,1 -2,1 -20,1 -7,-27 -7,-28 -15,-2 -23,22 -12,32 4,3 7,4 14,5 -4,2 4,2 -5,1z"/>
   <path class="fil21" d="M89 106c-18,7 -16,10 -26,23 -1,4 -2,4 -2,8 2,-1 0,1 2,-2 0,0 1,-2 1,-2 1,-3 2,-3 3,-5 6,-10 15,-19 27,-18l8 1 4 3c12,6 5,22 -1,34l-11 28c-1,6 0,4 0,5l3 -5c0,-6 14,-34 16,-37l3 -9c1,-9 2,-9 -1,-17l-5 -4c-3,-2 -2,2 -2,-5 -2,3 -4,1 -4,1l-15 1z"/>
   <path class="fil20" d="M73 201c0,1 1,0 1,3 3,6 1,27 0,39 7,-1 1,0 1,0l0 1c7,1 1,0 4,3l3 1 -1 -2c-8,-5 8,-30 -1,-38 8,2 15,9 24,10 6,-1 14,-17 11,-27 -1,-3 -1,-2 -2,-3l-4 19c-3,10 -13,7 -21,2 -5,-3 -9,-6 -15,-8z"/>
   <path class="fil21" d="M98 197c0,0 2,-4 3,-6 2,-5 1,-6 5,-6 1,-2 -1,-2 4,-2 2,2 2,2 3,5 1,1 1,0 2,3 3,10 -5,26 -11,27 -9,-1 -16,-8 -24,-10 9,8 -7,33 1,38 1,-10 0,-22 4,-30l0 -3c8,4 14,8 25,5 0,-3 9,-9 8,-28 -1,-8 1,-3 -3,-8 -9,-6 -9,-4 -16,2l-1 13z"/>
   <path class="fil22" d="M78 199c-8,0 -3,-2 -5,2 6,2 10,5 15,8 8,5 18,8 21,-2l4 -19c-1,-3 -1,-3 -3,-5 -5,0 -3,0 -4,2 4,-1 0,-2 3,0 -1,6 -3,23 -10,24 -7,0 -18,-9 -21,-10z"/>
   <path class="fil19" d="M78 199c3,1 14,10 21,10 7,-1 9,-18 10,-24 -3,-2 1,-1 -3,0 1,5 -3,15 -5,19 -18,2 -16,-10 -26,-10 0,5 -1,3 3,5z"/>
  </g>
  <g id="_2173700135936">
   <path class="fil17" d="M531 408c2,1 2,1 3,2 0,0 0,0 1,-1 -2,-2 -1,-7 -1,-9 0,-9 1,-19 3,-27 2,-7 6,-18 11,-25 0,-1 1,-2 1,-3l-3 -1 -4 4c-9,7 -11,29 -12,41 0,4 0,15 1,19z"/>
   <path class="fil18" d="M535 409c1,-1 1,-1 2,-1 1,-1 -1,-1 2,-1 -1,-2 2,-1 -2,-1l0 -1c0,0 3,-1 0,0 0,-6 1,-15 0,-18 0,-1 0,-1 -1,-1 1,-2 -1,-1 3,-1 -2,-1 -2,0 -2,-2 5,0 4,5 12,4 1,-2 3,-6 2,-9 -2,0 -1,1 -2,3 0,1 -1,3 -1,3l-3 1c-3,0 -3,-1 -5,-3 0,0 0,0 0,-1 0,0 0,0 0,0l6 -17c2,-4 7,-15 5,-18l-2 -1c0,1 -1,2 -1,3 -5,7 -9,18 -11,25 -2,8 -3,18 -3,27 0,2 -1,7 1,9z"/>
   <path class="fil19" d="M531 357c0,3 -2,8 -3,11 0,4 -1,9 -1,14 0,12 2,21 2,26l2 0c-1,-4 -1,-15 -1,-19 1,-12 3,-34 12,-41l4 -4c-5,0 -10,4 -12,8 -1,1 -1,2 -2,3 0,0 0,1 0,1 -1,1 0,0 -1,1z"/>
   <path class="fil20" d="M516 356c0,0 -3,5 -3,5 0,2 0,5 0,7 0,3 1,2 0,4l1 0c1,0 0,0 1,0 0,0 2,1 2,1 2,1 1,1 3,1 5,0 1,0 3,-1 -3,0 -5,0 -7,-2 -5,-4 -1,-15 6,-14 0,0 -6,13 3,12 3,0 1,0 1,0 0,9 -1,10 0,21l0 12c2,2 2,5 2,7l1 -1c0,-5 -2,-14 -2,-26 0,-5 1,-10 1,-14 1,-3 3,-8 3,-11 -1,0 0,0 -1,1 0,0 -1,1 -1,1 0,1 0,1 -1,3l-1 5c-4,0 -4,-2 -2,-5 0,-3 0,-5 -1,-7 -1,-1 -3,-1 -4,-1 -3,0 -1,0 -4,2z"/>
   <path class="fil20" d="M545 385c-1,-3 0,-5 1,-8 0,-1 -1,0 0,-2l5 -13c3,-6 6,-13 0,-16 2,3 -3,14 -5,18l-6 17c0,0 0,0 0,0 0,1 0,1 0,1 2,2 2,3 5,3z"/>
   <path class="fil17" d="M520 374l6 1 0 15c-1,-11 0,-12 0,-21 0,0 2,0 -1,0 -9,1 -3,-12 -3,-12 -7,-1 -11,10 -6,14 2,2 4,2 7,2 -2,1 2,1 -3,1z"/>
   <path class="fil21" d="M544 343c-8,3 -8,4 -12,10 -1,2 -1,2 -1,4 1,-1 0,0 1,-1 0,0 0,-1 0,-1 1,-1 1,-2 2,-3 2,-4 7,-8 12,-8l3 1 2 1c6,3 3,10 0,16l-5 13c-1,2 0,1 0,2l1 -3c1,-3 7,-15 8,-16l1 -4c1,-5 1,-5 -1,-8l-2 -2c-1,-1 -1,1 -1,-3 0,2 -1,1 -1,1l-7 1z"/>
   <path class="fil20" d="M536 386c1,0 1,0 1,1 1,3 0,12 0,18 3,-1 0,0 0,0l0 1c4,0 1,-1 2,1l1 0 0 -1c-4,-2 4,-13 -1,-17 4,1 7,4 12,5 2,-1 6,-8 5,-13 -1,-1 -1,-1 -1,-1l-2 9c-2,4 -6,3 -10,1 -2,-2 -4,-3 -7,-4z"/>
   <path class="fil21" d="M548 384c0,0 1,-2 1,-3 1,-2 0,-3 2,-3 1,0 0,0 2,0 1,0 1,0 2,2 0,0 0,0 1,1 1,5 -3,12 -5,13 -5,-1 -8,-4 -12,-5 5,4 -3,15 1,17 1,-4 0,-10 2,-14l0 -1c3,2 6,4 11,3 0,-2 4,-5 4,-13 0,-4 0,-2 -1,-4 -5,-2 -4,-2 -8,1l0 6z"/>
   <path class="fil22" d="M539 385c-4,0 -2,-1 -3,1 3,1 5,2 7,4 4,2 8,3 10,-1l2 -9c-1,-2 -1,-2 -2,-2 -2,0 -1,0 -2,0 2,0 1,0 2,1 -1,2 -2,10 -5,10 -3,1 -8,-4 -9,-4z"/>
   <path class="fil19" d="M539 385c1,0 6,5 9,4 3,0 4,-8 5,-10 -1,-1 0,-1 -2,-1 1,3 -1,7 -2,9 -8,1 -7,-4 -12,-4 0,2 0,1 2,2z"/>
  </g>
  <g id="_2173700132256">
   <path class="fil17" d="M632 195c-2,1 -2,1 -3,2 0,-1 0,0 -1,-1 2,-2 1,-7 1,-10 0,-8 -1,-19 -3,-26 -2,-8 -6,-18 -10,-25 -1,-1 -2,-2 -2,-3l3 -1 4 4c9,7 12,29 12,40 0,5 0,16 -1,20z"/>
   <path class="fil18" d="M628 196c-1,-1 -1,-1 -2,-1 -1,-1 1,-1 -2,-1 1,-2 -2,-1 2,-2l0 0c0,0 -3,-1 0,0 0,-6 -1,-15 0,-18 0,-1 1,-1 1,-1 -1,-2 1,-2 -2,-2 1,0 1,1 1,-2 -5,0 -4,6 -12,5 -1,-2 -3,-6 -2,-9 2,0 1,1 2,3 0,1 1,3 1,3l3 0c3,1 3,0 5,-2 0,0 0,-1 0,-1 0,0 0,0 1,0l-7 -17c-2,-5 -7,-15 -5,-18l2 -1c0,1 1,2 2,3 4,7 8,17 10,25 2,7 3,18 3,26 0,3 1,8 -1,10z"/>
   <path class="fil19" d="M632 143c0,3 2,9 3,12 1,4 1,9 1,13 0,13 -2,21 -2,27l-2 0c1,-4 1,-15 1,-20 0,-11 -3,-33 -12,-40l-4 -4c5,0 10,4 12,8 1,1 1,1 2,2 0,0 0,1 0,2 1,1 0,0 1,0z"/>
   <path class="fil20" d="M647 142c0,0 3,6 3,6 0,2 1,4 0,6 0,4 -1,3 0,4l-1 0c-1,1 0,0 -1,1 0,0 -2,1 -2,1 -1,1 -1,1 -3,1 -4,0 -1,0 -3,-1 4,0 5,-1 7,-2 5,-5 1,-16 -6,-15 0,1 6,14 -3,13 -3,0 -1,0 -1,0 0,8 1,10 0,21l0 12c-1,1 -2,5 -2,7l-1 -1c0,-6 2,-14 2,-27 0,-4 0,-9 -1,-13 -1,-3 -3,-9 -3,-12 1,1 1,0 1,2 0,0 1,1 1,1 0,1 0,1 1,2l1 6c4,0 4,-2 3,-5 -1,-3 -1,-5 0,-8 1,0 3,0 4,0 3,0 1,0 4,1z"/>
   <path class="fil20" d="M618 171c1,-2 1,-4 -1,-7 0,-1 1,0 0,-3l-5 -13c-3,-5 -6,-12 0,-15 -2,3 3,13 5,18l7 17c-1,0 -1,0 -1,0 0,0 0,1 0,1 -2,2 -2,3 -5,2z"/>
   <path class="fil17" d="M643 161l-6 0 0 16c1,-11 0,-13 0,-21 0,0 -2,0 1,0 9,1 3,-12 3,-13 7,-1 11,10 6,15 -2,1 -3,2 -7,2 2,1 -1,1 3,1z"/>
   <path class="fil21" d="M619 129c8,4 8,5 12,11 1,1 1,1 1,3 -1,0 0,1 -1,0 0,-1 0,-2 0,-2 -1,-1 -1,-1 -2,-2 -2,-4 -7,-8 -12,-8l-3 1 -2 1c-6,3 -3,10 0,15l5 13c1,3 0,2 0,3l-1 -3c0,-3 -6,-15 -8,-17l-1 -4c-1,-4 -1,-4 1,-8l2 -1c1,-2 1,1 1,-3 0,2 2,1 2,1l6 0z"/>
   <path class="fil20" d="M627 173c0,0 -1,0 -1,1 -1,3 0,12 0,18 -3,-1 0,0 0,0l0 0c-4,1 -1,0 -2,2l-1 0 0 -1c4,-2 -4,-13 1,-17 -4,1 -7,4 -12,4 -2,0 -6,-7 -5,-12 1,-2 1,-1 1,-1l2 9c2,4 6,2 10,0 2,-1 4,-2 7,-3z"/>
   <path class="fil21" d="M615 171c0,0 -1,-2 -1,-3 -1,-2 0,-3 -2,-3 -1,0 0,-1 -2,-1 -1,1 -1,1 -2,3 0,0 0,-1 -1,1 -1,5 3,12 5,12 5,0 8,-3 12,-4 -5,4 3,15 -1,17 0,-4 0,-10 -2,-14l0 -1c-3,2 -6,4 -11,2 0,-1 -4,-4 -4,-13 0,-3 0,-1 1,-3 5,-3 4,-2 8,1l0 6z"/>
   <path class="fil22" d="M625 171c3,0 1,0 2,2 -3,1 -5,2 -7,3 -4,2 -8,4 -10,0l-2 -9c1,-2 1,-2 2,-3 2,0 1,1 2,1 -2,0 0,0 -2,0 1,3 2,11 5,11 3,0 8,-4 10,-5z"/>
   <path class="fil19" d="M625 171c-2,1 -7,5 -10,5 -3,0 -4,-8 -5,-11 2,0 0,0 2,0 -1,3 1,7 2,9 8,1 7,-5 12,-5 0,3 0,2 -1,2z"/>
  </g>
 </g>
</svg>
