<?xml version="1.0" encoding="UTF-8"?>
<!DOCTYPE svg PUBLIC "-//W3C//DTD SVG 1.1//EN" "http://www.w3.org/Graphics/SVG/1.1/DTD/svg11.dtd">
<!-- Creator: CorelDRAW X7 -->
<svg xmlns="http://www.w3.org/2000/svg" xml:space="preserve" width="79.0585mm" height="56.9282mm" version="1.1" style="shape-rendering:geometricPrecision; text-rendering:geometricPrecision; image-rendering:optimizeQuality; fill-rule:evenodd; clip-rule:evenodd"
viewBox="0 0 769 554"
 xmlns:xlink="http://www.w3.org/1999/xlink">
 <defs>
  <style type="text/css">
   <![CDATA[
    .fil0 {fill:#FEFEFE}
    .fil2 {fill:#FEFEFE;fill-opacity:0.670588}
    .fil1 {fill:#FEFEFE;fill-opacity:0.850980}
   ]]>
  </style>
 </defs>
 <g id="圖層_x0020_1">
  <metadata id="CorelCorpID_0Corel-Layer"/>
  <circle class="fil0" cx="129" cy="79" r="2"/>
  <circle class="fil0" cx="188" cy="125" r="2"/>
  <circle class="fil0" cx="363" cy="80" r="2"/>
  <circle class="fil0" cx="611" cy="141" r="2"/>
  <circle class="fil0" cx="115" cy="220" r="2"/>
  <circle class="fil0" cx="174" cy="265" r="2"/>
  <circle class="fil0" cx="545" cy="87" r="2"/>
  <circle class="fil0" cx="485" cy="41" r="2"/>
  <circle class="fil0" cx="449" cy="217" r="2"/>
  <circle class="fil0" cx="389" cy="263" r="2"/>
  <circle class="fil0" cx="675" cy="209" r="2"/>
  <circle class="fil0" cx="616" cy="254" r="2"/>
  <circle class="fil0" cx="712" cy="34" r="2"/>
  <circle class="fil0" cx="653" cy="79" r="2"/>
  <circle class="fil0" cx="98" cy="139" r="2"/>
  <circle class="fil0" cx="199" cy="32" r="2"/>
  <circle class="fil0" cx="140" cy="77" r="2"/>
  <circle class="fil0" cx="76" cy="297" r="2"/>
  <circle class="fil0" cx="177" cy="190" r="2"/>
  <circle class="fil0" cx="118" cy="236" r="2"/>
  <circle class="fil0" cx="371" cy="288" r="2"/>
  <circle class="fil0" cx="271" cy="181" r="2"/>
  <circle class="fil0" cx="330" cy="226" r="2"/>
  <circle class="fil0" cx="317" cy="306" r="2"/>
  <circle class="fil0" cx="217" cy="199" r="2"/>
  <circle class="fil0" cx="276" cy="244" r="2"/>
  <circle class="fil0" cx="570" cy="296" r="2"/>
  <circle class="fil0" cx="469" cy="189" r="2"/>
  <circle class="fil0" cx="528" cy="235" r="2"/>
  <circle class="fil0" cx="337" cy="109" r="2"/>
  <circle class="fil0" cx="237" cy="2" r="2"/>
  <circle class="fil0" cx="296" cy="48" r="2"/>
  <circle class="fil0" cx="453" cy="57" r="2"/>
  <circle class="fil0" cx="393" cy="11" r="2"/>
  <circle class="fil0" cx="52" cy="12" r="2"/>
  <circle class="fil0" cx="63" cy="10" r="2"/>
  <circle class="fil0" cx="61" cy="85" r="2"/>
  <circle class="fil0" cx="64" cy="102" r="2"/>
  <circle class="fil0" cx="106" cy="3" r="2"/>
  <circle class="fil0" cx="109" cy="19" r="2"/>
  <circle class="fil0" cx="694" cy="276" r="2"/>
  <circle class="fil0" cx="602" cy="40" r="2"/>
  <circle class="fil0" cx="555" cy="11" r="2"/>
  <circle class="fil0" cx="224" cy="88" r="2"/>
  <circle class="fil0" cx="708" cy="132" r="2"/>
  <circle class="fil0" cx="62" cy="204" r="2"/>
  <path class="fil1" d="M632 190l6 -3 8 1c11,3 12,3 17,-6 8,2 38,3 44,0l6 -4 0 -9 -7 -4 -3 -2c5,-7 3,-2 7,-6 3,-4 3,-6 3,-13 -10,-8 -11,-10 -26,-5 -6,-7 -7,-14 -19,-13 -10,2 -4,4 -12,2 -8,-1 -11,-7 -34,8l-11 7c-7,5 0,2 -9,3 -33,4 -26,29 -18,35 8,7 12,0 21,4 1,1 3,2 4,3 10,6 12,4 23,2z"/>
  <path class="fil2" d="M546 187l4 -2 4 1c7,1 8,1 11,-4 5,1 24,2 27,0l4 -3 0 -5 -4 -3 -2 -1c3,-4 2,-1 4,-4 3,-2 2,-4 2,-8 -6,-5 -7,-6 -16,-3 -3,-5 -4,-9 -12,-8 -6,1 -2,2 -7,1 -5,0 -7,-4 -22,5l-6 4c-5,4 0,2 -6,2 -20,3 -16,18 -11,22 5,4 7,0 13,3 1,0 2,1 3,1 5,4 7,3 14,2z"/>
  <path class="fil1" d="M165 533l7 -3 7 1c11,3 12,3 17,-6 8,2 38,3 44,0l6 -4 0 -9 -7 -5 -3 -1c5,-7 4,-2 7,-6 3,-4 3,-6 3,-13 -10,-8 -11,-11 -26,-6 -6,-6 -7,-14 -19,-12 -10,1 -4,4 -12,2 -8,-1 -10,-7 -34,8l-11 7c-7,5 0,1 -9,3 -32,4 -26,29 -18,35 8,6 12,0 21,4 1,0 3,2 4,3 10,6 12,4 23,2z"/>
  <path class="fil2" d="M79 530l4 -2 4 1c7,1 8,1 11,-4 5,1 24,1 27,-1l4 -2 0 -6 -4 -2 -2 -1c3,-4 2,-2 4,-4 3,-2 2,-4 2,-8 -6,-5 -7,-6 -16,-3 -3,-5 -4,-9 -12,-8 -6,1 -2,2 -7,1 -5,0 -7,-4 -22,5l-6 4c-5,3 0,1 -6,2 -20,3 -16,18 -11,22 5,4 8,0 13,3 1,0 2,1 3,1 6,4 7,3 14,2z"/>
  <path class="fil2" d="M151 149l4 -2 5 1c7,1 8,1 11,-4 5,1 23,2 27,0l4 -3 0 -5 -5 -3 -1 -1c3,-4 2,-1 4,-4 2,-2 2,-3 2,-8 -7,-5 -7,-6 -16,-3 -4,-4 -4,-9 -12,-8 -6,1 -3,2 -8,2 -5,-1 -6,-5 -21,4l-7 4c-4,4 0,2 -5,2 -20,3 -16,18 -12,22 6,4 8,0 14,3 0,0 1,1 2,1 6,4 8,3 14,2z"/>
  <path class="fil2" d="M662 388l5 -2 4 1c7,1 8,1 11,-4 5,1 24,1 27,-1l4 -2 0 -6 -4 -2 -2 -1c3,-4 2,-2 4,-4 2,-2 2,-4 2,-8 -6,-5 -7,-6 -16,-3 -4,-5 -4,-9 -12,-8 -6,1 -2,2 -8,1 -4,0 -6,-4 -21,5l-6 4c-5,4 0,1 -6,2 -20,3 -16,18 -11,22 5,4 7,0 13,3 1,0 2,1 3,1 5,4 7,3 13,2z"/>
  <path class="fil2" d="M92 186l4 -2 4 1c7,1 8,1 11,-4 5,1 24,1 27,-1l4 -2 0 -6 -4 -2 -2 -1c3,-4 2,-2 4,-4 3,-3 2,-4 2,-8 -6,-5 -7,-6 -16,-3 -3,-5 -4,-9 -12,-8 -6,1 -2,2 -7,1 -5,0 -7,-4 -22,5l-6 4c-5,3 0,1 -5,2 -21,3 -17,18 -12,22 5,4 8,0 13,3 1,0 2,1 3,1 6,4 7,3 14,2z"/>
  <path class="fil2" d="M381 154l4 -2 4 1c7,1 8,1 11,-4 5,1 24,2 27,0l4 -3 0 -5 -4 -3 -2 -1c3,-4 2,-1 4,-4 3,-2 2,-3 2,-7 -6,-5 -7,-7 -16,-4 -3,-4 -4,-9 -12,-8 -6,1 -2,3 -7,2 -5,-1 -7,-5 -22,4l-6 5c-5,3 0,1 -6,1 -20,3 -16,19 -11,22 5,4 8,1 13,3 1,0 2,1 3,2 6,3 7,2 14,1z"/>
  <path class="fil2" d="M480 553l5 -2 4 1c7,1 8,1 11,-4 5,1 24,1 27,-1l4 -2 0 -6 -4 -2 -2 -1c3,-4 2,-2 4,-4 2,-2 2,-4 2,-8 -6,-5 -7,-6 -16,-3 -4,-5 -4,-9 -12,-8 -6,1 -2,2 -8,1 -4,0 -6,-4 -21,5l-6 4c-5,3 0,1 -6,2 -20,3 -16,18 -11,22 5,4 7,0 13,3 1,0 2,1 2,1 6,4 8,3 14,2z"/>
  <circle class="fil0" cx="6" cy="65" r="2"/>
  <circle class="fil0" cx="2" cy="163" r="2"/>
  <circle class="fil0" cx="755" cy="12" r="2"/>
  <circle class="fil0" cx="766" cy="10" r="2"/>
  <circle class="fil0" cx="765" cy="85" r="2"/>
  <circle class="fil0" cx="767" cy="102" r="2"/>
  <circle class="fil0" cx="765" cy="204" r="2"/>
 </g>
</svg>
