<?xml version="1.0" encoding="UTF-8"?>
<!DOCTYPE svg PUBLIC "-//W3C//DTD SVG 1.1//EN" "http://www.w3.org/Graphics/SVG/1.1/DTD/svg11.dtd">
<!-- Creator: CorelDRAW X7 -->
<svg xmlns="http://www.w3.org/2000/svg" xml:space="preserve" width="69.2579mm" height="64.9929mm" version="1.1" style="shape-rendering:geometricPrecision; text-rendering:geometricPrecision; image-rendering:optimizeQuality; fill-rule:evenodd; clip-rule:evenodd"
viewBox="0 0 2170 2037"
 xmlns:xlink="http://www.w3.org/1999/xlink">
 <defs>
  <style type="text/css">
   <![CDATA[
    .fil2 {fill:#FEFEFE}
    .fil1 {fill:#FEFEFE;fill-opacity:0.670588}
    .fil0 {fill:#FEFEFE;fill-opacity:0.850980}
   ]]>
  </style>
 </defs>
 <g id="圖層_x0020_1">
  <metadata id="CorelCorpID_0Corel-Layer"/>
  <path class="fil0" d="M1703 1510l22 -9 23 4c35,7 40,7 56,-21 27,8 123,9 141,-1l20 -12 -1 -28 -22 -13 -9 -5c17,-21 11,-7 22,-19 11,-13 10,-19 10,-39 -34,-26 -36,-34 -84,-19 -18,-21 -21,-44 -61,-38 -32,4 -13,11 -40,7 -25,-4 -33,-24 -110,23l-33 22c-23,16 0,5 -29,9 -105,12 -84,91 -60,110 29,21 40,2 70,13 3,2 9,7 13,9 30,18 37,13 72,7z"/>
  <path class="fil1" d="M1426 1499l14 -5 14 2c22,5 25,5 35,-13 16,5 76,6 87,0l13 -7 -1 -18 -13 -8 -6 -3c10,-14 7,-5 14,-12 7,-8 6,-12 6,-25 -21,-15 -23,-21 -52,-11 -11,-13 -13,-27 -38,-24 -20,3 -8,7 -25,4 -15,-2 -20,-14 -68,15l-21 13c-15,10 0,4 -18,6 -66,8 -52,57 -37,68 17,13 24,1 43,9 2,1 6,4 8,5 19,11 24,9 45,4z"/>
  <path class="fil0" d="M396 755l-22 -9 -23 4c-36,7 -40,7 -57,-21 -26,8 -122,9 -140,-1l-20 -11 1 -29 21 -13 10 -4c-17,-22 -11,-8 -22,-20 -12,-13 -10,-19 -10,-39 33,-25 36,-34 83,-19 19,-21 22,-44 61,-38 33,4 13,11 41,7 24,-4 32,-24 109,23l34 22c23,16 -1,5 28,9 106,13 84,92 60,110 -28,21 -39,2 -69,14 -3,1 -9,6 -13,8 -30,18 -38,14 -72,7z"/>
  <path class="fil1" d="M673 745l-14 -6 -14 2c-22,5 -25,5 -35,-13 -17,5 -77,6 -88,0l-12 -7 0 -18 14 -8 6 -3c-11,-14 -7,-5 -14,-12 -7,-8 -6,-12 -6,-25 21,-15 22,-20 52,-11 11,-13 13,-27 38,-24 20,3 8,7 25,5 15,-3 20,-15 68,14l21 13c14,10 0,4 17,6 66,8 53,57 38,69 -18,13 -25,1 -43,8 -2,1 -6,4 -8,5 -19,12 -24,9 -45,5z"/>
  <path class="fil1" d="M297 1671l-14 -6 -14 3c-22,4 -25,4 -35,-13 -17,5 -76,6 -88,-1l-12 -7 0 -18 14 -8 6 -3c-11,-13 -7,-4 -14,-12 -7,-8 -6,-11 -6,-24 21,-16 22,-21 52,-12 11,-13 13,-27 38,-24 20,3 8,7 25,5 15,-3 20,-15 68,14l21 14c14,10 0,3 18,5 65,8 52,57 37,69 -18,13 -25,1 -43,8 -2,1 -6,4 -8,6 -19,11 -24,8 -45,4z"/>
  <path class="fil1" d="M2062 424l-14 -5 -14 2c-22,4 -25,4 -35,-13 -17,5 -76,6 -87,0l-13 -8 1 -18 13 -8 6 -2c-11,-14 -7,-5 -14,-13 -7,-7 -6,-11 -6,-24 21,-16 22,-21 52,-11 11,-14 13,-28 38,-24 20,2 8,7 25,4 15,-2 20,-15 68,15l21 13c15,10 0,3 18,6 66,7 52,57 37,68 -17,13 -25,1 -43,9 -2,0 -6,3 -8,5 -19,11 -24,8 -45,4z"/>
  <path class="fil1" d="M1039 125l-14 -5 -14 2c-22,4 -25,4 -35,-13 -17,5 -76,6 -88,0l-12 -8 0 -18 14 -8 6 -2c-11,-14 -7,-5 -14,-13 -7,-7 -6,-11 -6,-24 21,-16 22,-21 52,-11 11,-14 13,-28 38,-25 20,3 8,8 25,5 15,-2 20,-15 68,15l21 13c14,10 0,3 18,6 65,7 52,57 37,68 -18,13 -25,1 -43,9 -2,0 -6,3 -8,5 -19,11 -24,8 -45,4z"/>
  <path class="fil1" d="M1994 2033l-14 -5 -14 2c-22,4 -25,4 -35,-13 -17,5 -76,6 -88,0l-12 -8 0 -18 14 -8 6 -2c-11,-14 -7,-5 -14,-13 -7,-7 -6,-11 -6,-24 21,-16 22,-21 52,-11 11,-14 13,-28 38,-24 20,2 8,7 25,4 15,-2 20,-15 68,15l21 13c15,10 0,3 18,6 65,7 52,57 37,68 -17,13 -25,1 -43,9 -2,0 -6,3 -8,5 -19,11 -24,8 -45,4z"/>
  <circle class="fil2" cx="227" cy="356" r="6"/>
  <circle class="fil2" cx="419" cy="503" r="6"/>
  <circle class="fil2" cx="982" cy="358" r="6"/>
  <circle class="fil2" cx="1781" cy="554" r="6"/>
  <circle class="fil2" cx="183" cy="807" r="6"/>
  <circle class="fil2" cx="374" cy="955" r="6"/>
  <circle class="fil2" cx="1568" cy="381" r="6"/>
  <circle class="fil2" cx="1377" cy="233" r="6"/>
  <circle class="fil2" cx="1258" cy="799" r="6"/>
  <circle class="fil2" cx="1066" cy="946" r="6"/>
  <circle class="fil2" cx="1988" cy="772" r="6"/>
  <circle class="fil2" cx="1796" cy="919" r="6"/>
  <circle class="fil2" cx="2106" cy="209" r="6"/>
  <circle class="fil2" cx="1915" cy="356" r="6"/>
  <circle class="fil2" cx="130" cy="547" r="6"/>
  <circle class="fil2" cx="454" cy="202" r="6"/>
  <circle class="fil2" cx="263" cy="349" r="6"/>
  <circle class="fil2" cx="58" cy="1058" r="6"/>
  <circle class="fil2" cx="383" cy="712" r="6"/>
  <circle class="fil2" cx="192" cy="860" r="6"/>
  <circle class="fil2" cx="1009" cy="1027" r="6"/>
  <circle class="fil2" cx="684" cy="682" r="6"/>
  <circle class="fil2" cx="876" cy="829" r="6"/>
  <circle class="fil2" cx="510" cy="740" r="6"/>
  <circle class="fil2" cx="702" cy="887" r="6"/>
  <circle class="fil2" cx="1648" cy="1054" r="6"/>
  <circle class="fil2" cx="1323" cy="708" r="6"/>
  <circle class="fil2" cx="1514" cy="856" r="6"/>
  <circle class="fil2" cx="900" cy="452" r="6"/>
  <circle class="fil2" cx="575" cy="106" r="6"/>
  <circle class="fil2" cx="766" cy="254" r="6"/>
  <circle class="fil2" cx="1271" cy="284" r="6"/>
  <circle class="fil2" cx="1080" cy="137" r="6"/>
  <circle class="fil2" cx="156" cy="109" r="6"/>
  <circle class="fil2" cx="165" cy="162" r="6"/>
  <circle class="fil2" cx="2049" cy="989" r="6"/>
  <circle class="fil2" cx="1750" cy="227" r="6"/>
  <circle class="fil2" cx="1600" cy="136" r="6"/>
  <circle class="fil2" cx="533" cy="382" r="6"/>
  <circle class="fil2" cx="2092" cy="525" r="6"/>
  <path class="fil0" d="M1847 713l22 -10 23 4c36,8 40,8 57,-21 26,8 122,10 140,-1l20 -12 -1 -29 -21 -14 -10 -4c17,-23 11,-8 22,-20 12,-13 10,-20 10,-41 -33,-26 -36,-34 -83,-19 -19,-22 -22,-45 -61,-40 -33,5 -13,12 -41,8 -24,-4 -32,-24 -109,24l-34 22c-23,17 1,6 -28,9 -106,13 -84,95 -60,114 28,21 39,2 69,14 3,1 9,6 13,8 30,19 38,14 72,8z"/>
  <path class="fil1" d="M1570 702l14 -6 14 2c22,5 25,5 35,-13 17,5 77,6 88,0l12 -8 0 -18 -14 -8 -6 -3c11,-14 7,-5 14,-13 7,-8 6,-12 6,-25 -21,-16 -22,-21 -52,-12 -11,-13 -13,-28 -38,-24 -20,2 -8,7 -25,4 -15,-2 -20,-15 -68,15l-21 14c-14,10 0,4 -17,6 -66,8 -53,59 -38,70 18,14 25,1 43,9 2,1 6,4 8,5 19,12 24,9 45,5z"/>
  <path class="fil1" d="M300 580l14 -6 14 2c22,5 25,5 35,-13 16,5 76,6 87,0l13 -8 -1 -18 -13 -9 -6 -2c10,-14 7,-5 14,-13 7,-8 6,-12 6,-25 -21,-16 -23,-22 -52,-12 -11,-14 -13,-28 -38,-25 -20,3 -8,8 -25,5 -15,-2 -20,-15 -68,15l-21 14c-15,10 0,3 -18,6 -66,8 -52,58 -37,70 17,14 24,1 43,9 2,1 6,4 8,5 19,12 24,9 45,5z"/>
  <path class="fil1" d="M108 698l14 -6 15 3c22,4 24,4 35,-14 16,5 76,6 87,0l12 -8 0 -18 -14 -8 -6 -3c11,-14 7,-5 14,-13 7,-8 6,-11 6,-25 -20,-16 -22,-21 -52,-11 -11,-14 -13,-29 -38,-25 -20,3 -8,7 -25,4 -15,-2 -20,-15 -68,16l-21 13c-14,10 1,4 -17,6 -66,8 -53,59 -38,70 18,14 25,2 43,9 2,1 6,4 8,6 19,11 24,8 45,4z"/>
  <path class="fil1" d="M1039 596l14 -5 14 2c22,5 25,4 35,-13 17,5 76,6 88,-1l12 -7 0 -19 -14 -8 -6 -3c11,-14 7,-5 14,-12 7,-8 6,-12 6,-25 -21,-17 -22,-22 -52,-12 -11,-14 -13,-28 -38,-25 -20,3 -8,7 -25,5 -15,-3 -20,-15 -68,15l-21 13c-14,11 0,4 -17,6 -66,8 -53,59 -38,71 18,13 25,1 43,8 2,1 6,4 8,6 19,11 24,8 45,4z"/>
 </g>
</svg>
