<?xml version="1.0" encoding="UTF-8"?>
<!DOCTYPE svg PUBLIC "-//W3C//DTD SVG 1.1//EN" "http://www.w3.org/Graphics/SVG/1.1/DTD/svg11.dtd">
<!-- Creator: CorelDRAW X7 -->
<svg xmlns="http://www.w3.org/2000/svg" xml:space="preserve" width="72.8mm" height="30.4877mm" version="1.1" style="shape-rendering:geometricPrecision; text-rendering:geometricPrecision; image-rendering:optimizeQuality; fill-rule:evenodd; clip-rule:evenodd"
viewBox="0 0 864 362"
 xmlns:xlink="http://www.w3.org/1999/xlink">
 <defs>
  <style type="text/css">
   <![CDATA[
    .fil1 {fill:#F5F3EC}
    .fil2 {fill:#EFE8E0;fill-opacity:0.729412}
    .fil0 {fill:#EEDECE}
   ]]>
  </style>
 </defs>
 <g id="圖層_x0020_1">
  <metadata id="CorelCorpID_0Corel-Layer"/>
  <path class="fil0" d="M0 176c0,0 215,46 352,-10 137,-57 246,-14 246,-14 0,0 212,60 171,-59 -23,-65 7,-86 39,-93l56 0 0 362 -864 0 0 -186z"/>
  <path class="fil1" d="M384 158c-37,15 -75,34 -114,40 -21,3 -41,5 -63,6 -23,0 -47,-3 -69,-2l-10 0c7,7 69,9 84,9 39,2 54,-2 91,-4 -1,2 -1,2 -5,4 -4,3 -2,2 -6,2l-82 11c-23,2 -91,-9 -97,-3 9,-1 64,5 69,9 15,-3 39,2 56,1 19,-1 38,-2 57,-4 77,-16 56,-11 130,-36 28,-10 109,-25 142,-19 55,4 89,18 112,20 41,4 61,-2 99,-16 47,-29 -17,-90 5,-133 9,-19 64,-18 81,-21l0 -22 -47 0c-8,2 -15,4 -22,7 -23,11 -40,34 -27,65 3,7 4,16 6,22 21,71 -31,74 -75,74 -55,1 -117,-23 -131,-24 -67,-7 -122,-10 -184,14z"/>
  <path class="fil2" d="M95 308l6 -26c-1,-2 -3,-5 -3,-4 -2,3 -1,-8 -16,-11 -17,-4 -18,3 -22,7 -14,13 -1,24 6,33l29 1z"/>
  <path class="fil2" d="M410 254l3 -13c-1,-1 -1,-3 -2,-2 -1,1 0,-4 -8,-6 -8,-2 -9,2 -11,4 -7,6 0,12 3,16l15 1z"/>
  <path class="fil2" d="M709 264l3 -13c0,0 -1,-2 -1,-2 -1,2 -1,-4 -8,-5 -9,-2 -9,1 -11,3 -7,7 -1,12 3,17l14 0z"/>
  <path class="fil2" d="M847 184l2 -13c0,0 -1,-2 -1,-2 -1,2 0,-3 -8,-5 -9,-2 -9,1 -11,4 -7,6 -1,12 3,16l15 0z"/>
  <path class="fil2" d="M754 302l2 -13c0,-1 -1,-3 -1,-2 -1,1 0,-4 -8,-6 -9,-2 -9,2 -11,4 -7,6 -1,12 3,16l15 1z"/>
  <path class="fil2" d="M702 277l3 -13c-1,-1 -1,-3 -2,-2 -1,1 0,-4 -8,-6 -8,-2 -9,2 -11,4 -7,6 0,12 3,16l15 1z"/>
  <path class="fil2" d="M531 323l3 -12c0,-1 -1,-3 -1,-2 -1,1 -1,-4 -8,-6 -9,-2 -9,2 -11,4 -7,6 -1,12 3,16l14 0z"/>
  <path class="fil2" d="M324 270l1 -6c0,0 -1,-1 -1,-1 0,1 0,-2 -4,-3 -4,-1 -4,1 -5,2 -4,3 -1,6 1,8l8 0z"/>
  <path class="fil2" d="M336 251l1 -7c0,0 0,-1 0,-1 -1,1 0,-2 -4,-3 -5,0 -5,1 -6,2 -3,4 0,6 2,9l7 0z"/>
  <path class="fil2" d="M148 306l1 -7c0,0 0,-1 0,-1 -1,1 -1,-2 -4,-3 -5,0 -5,1 -6,2 -3,3 0,6 2,9l7 0z"/>
  <path class="fil2" d="M108 246l1 -7c0,0 0,-1 0,-1 -1,1 0,-2 -4,-3 -5,0 -5,1 -6,2 -3,3 0,6 2,9l7 0z"/>
  <path class="fil2" d="M252 320l1 -7c0,0 0,-1 -1,-1 0,1 0,-2 -3,-2 -5,-1 -5,0 -6,1 -3,4 0,6 2,9l7 0z"/>
  <path class="fil2" d="M492 209l1 -6c0,-1 0,-1 -1,-1 0,1 0,-2 -4,-3 -4,-1 -4,1 -5,2 -4,3 0,6 1,8l8 0z"/>
  <path class="fil2" d="M545 254l1 -7c0,0 -1,-1 -1,-1 0,1 0,-2 -4,-3 -4,0 -4,1 -5,2 -4,3 -1,6 1,9l8 0z"/>
  <path class="fil2" d="M645 212l1 -6c0,-1 0,-2 -1,-1 0,0 0,-2 -4,-3 -4,-1 -4,1 -5,2 -4,3 0,6 1,8l8 0z"/>
  <path class="fil2" d="M770 194l2 -6c-1,0 -1,-1 -1,-1 -1,1 0,-2 -4,-3 -4,-1 -5,1 -6,2 -3,3 0,6 2,8l7 0z"/>
  <path class="fil2" d="M842 98l2 -6c-1,-1 -1,-2 -1,-1 -1,0 0,-2 -4,-3 -4,-1 -5,1 -6,2 -3,3 0,6 2,8l7 0z"/>
  <path class="fil2" d="M801 74l1 -6c0,-1 0,-2 -1,-1 0,1 0,-2 -4,-3 -4,-1 -4,1 -5,2 -3,3 0,6 1,8l8 0z"/>
  <path class="fil2" d="M821 320l1 -7c0,0 0,-1 0,-1 -1,1 -1,-2 -4,-2 -5,-1 -5,0 -6,1 -3,4 0,6 2,9l7 0z"/>
  <path class="fil2" d="M838 360l1 -6c0,-1 0,-2 0,-1 -1,0 0,-2 -4,-3 -5,-1 -5,1 -6,2 -3,3 0,6 2,8l7 0z"/>
  <path class="fil2" d="M673 362l2 -6c-1,-1 -1,-2 -1,-1 -1,0 0,-2 -4,-3 -4,-1 -5,1 -6,2 -3,3 0,6 2,8l7 0z"/>
  <path class="fil2" d="M636 319l2 -6c-1,-1 -1,-2 -1,-1 -1,0 0,-2 -4,-3 -4,-1 -5,1 -6,2 -3,3 0,6 2,8l7 0z"/>
  <path class="fil2" d="M626 317l1 -6c0,-1 0,-2 0,-1 -1,0 0,-2 -4,-3 -5,-1 -5,1 -6,2 -3,3 0,6 2,8l7 0z"/>
  <path class="fil2" d="M634 309l1 -7c0,0 0,-1 0,-1 -1,1 0,-2 -4,-3 -5,-1 -5,1 -6,2 -3,3 0,6 2,8l7 1z"/>
  <path class="fil2" d="M440 346l1 -6c0,0 0,-1 0,-1 -1,1 0,-2 -4,-3 -5,-1 -5,1 -6,2 -3,3 0,6 2,8l7 0z"/>
  <path class="fil2" d="M430 344l1 -6c0,0 0,-1 -1,-1 0,1 0,-2 -4,-3 -4,-1 -4,1 -5,2 -4,3 0,6 1,8l8 0z"/>
  <path class="fil2" d="M438 336l1 -7c0,0 0,-1 -1,-1 0,1 0,-2 -4,-2 -4,-1 -4,0 -5,1 -4,4 0,6 1,9l8 0z"/>
  <path class="fil2" d="M221 241l1 -6c0,-1 0,-2 0,-1 -1,0 -1,-2 -4,-3 -5,-1 -5,1 -6,2 -3,3 0,6 2,8l7 0z"/>
  <path class="fil2" d="M211 239l1 -6c0,-1 -1,-2 -1,-1 0,0 0,-2 -4,-3 -4,-1 -4,1 -5,2 -4,3 0,6 1,8l8 0z"/>
  <path class="fil2" d="M219 230l1 -6c0,0 -1,-1 -1,-1 0,1 0,-2 -4,-3 -4,-1 -4,1 -5,2 -4,3 0,6 1,8l8 0z"/>
  <path class="fil2" d="M51 355l1 -6c0,-1 0,-2 -1,-1 0,0 0,-2 -4,-3 -4,-1 -4,1 -5,2 -4,3 0,6 1,8l8 0z"/>
  <path class="fil2" d="M40 353l2 -6c0,-1 -1,-2 -1,-1 0,0 0,-2 -4,-3 -4,-1 -4,1 -5,2 -4,3 -1,6 1,8l7 0z"/>
  <path class="fil2" d="M49 344l1 -6c0,0 -1,-1 -1,-1 0,1 0,-2 -4,-3 -4,-1 -4,1 -5,2 -4,3 -1,6 1,8l8 0z"/>
  <path class="fil2" d="M33 226l1 -6c0,-1 -1,-2 -1,-1 0,0 0,-2 -4,-3 -4,-1 -4,1 -5,2 -4,3 0,6 1,8l8 0z"/>
  <path class="fil2" d="M22 224l2 -6c-1,-1 -1,-2 -1,-1 -1,0 0,-2 -4,-3 -4,-1 -4,1 -6,2 -3,3 0,6 2,8l7 0z"/>
  <path class="fil2" d="M30 216l2 -7c-1,0 -1,-1 -1,-1 -1,1 0,-2 -4,-3 -4,-1 -4,1 -6,2 -3,3 0,6 2,8l7 1z"/>
  <path class="fil2" d="M171 352l2 -7c0,0 -1,-1 -1,-1 0,1 0,-2 -4,-3 -4,-1 -4,1 -5,2 -4,3 -1,6 1,8l7 1z"/>
  <path class="fil2" d="M161 350l2 -7c-1,0 -1,-1 -1,-1 -1,1 0,-2 -4,-3 -4,-1 -5,1 -6,2 -3,3 0,6 2,8l7 1z"/>
  <path class="fil2" d="M169 341l2 -7c-1,0 -1,-1 -1,-1 -1,1 0,-2 -4,-2 -4,-1 -5,0 -6,1 -3,4 0,6 2,9l7 0z"/>
  <path class="fil2" d="M320 209l2 -6c-1,-1 -1,-2 -1,-1 -1,0 0,-2 -4,-3 -4,-1 -5,1 -6,2 -3,3 0,6 2,8l7 0z"/>
  <path class="fil2" d="M363 181l1 -5c0,0 0,-1 0,-1 -1,1 0,-1 -3,-1 -3,-1 -3,0 -4,1 -2,2 0,4 1,6l5 0z"/>
  <path class="fil2" d="M355 310l1 -5c0,0 0,-1 0,0 -1,0 -1,-2 -3,-2 -3,-1 -3,0 -4,1 -2,2 0,4 1,6l5 0z"/>
  <path class="fil2" d="M501 279l1 -5c0,0 0,0 -1,0 0,0 0,-2 -2,-2 -3,-1 -3,0 -4,1 -2,2 0,4 1,6l5 0z"/>
  <path class="fil2" d="M453 201l1 -5c-1,0 -1,-1 -1,0 0,0 0,-2 -3,-2 -3,-1 -3,0 -4,1 -2,2 0,4 1,6l6 0z"/>
  <path class="fil2" d="M480 180l1 -4c-1,0 -1,-1 -1,-1 0,1 0,-1 -3,-2 -3,0 -3,1 -3,1 -3,3 -1,5 1,6l5 0z"/>
  <path class="fil2" d="M499 161l1 -4c-1,0 -1,-1 -1,-1 0,1 0,-1 -3,-2 -3,0 -3,1 -3,1 -3,3 -1,5 1,6l5 0z"/>
  <path class="fil2" d="M568 187l0 -5c0,0 0,-1 0,0 0,0 0,-2 -3,-2 -3,-1 -3,0 -4,1 -2,2 0,4 1,6l6 0z"/>
  <path class="fil2" d="M607 262l1 -4c0,0 -1,-1 -1,-1 0,1 0,-1 -2,-2 -3,0 -3,1 -4,2 -3,2 0,4 1,5l5 0z"/>
  <path class="fil2" d="M823 216l1 -4c0,0 0,-1 0,-1 -1,1 0,-1 -3,-2 -3,0 -3,1 -4,1 -2,3 0,5 1,6l5 0z"/>
  <path class="fil2" d="M802 255l1 -4c0,0 -1,-1 -1,-1 0,1 0,-1 -2,-2 -3,0 -4,1 -4,2 -3,2 0,4 1,5l5 0z"/>
  <path class="fil2" d="M814 139l1 -5c0,0 -1,-1 -1,-1 0,1 0,-1 -3,-1 -2,-1 -3,0 -3,1 -3,2 0,4 1,6l5 0z"/>
 </g>
</svg>
