<?xml version="1.0" encoding="UTF-8"?>
<!DOCTYPE svg PUBLIC "-//W3C//DTD SVG 1.1//EN" "http://www.w3.org/Graphics/SVG/1.1/DTD/svg11.dtd">
<!-- Creator: CorelDRAW X7 -->
<svg xmlns="http://www.w3.org/2000/svg" xml:space="preserve" width="69.7793mm" height="48.5424mm" version="1.1" style="shape-rendering:geometricPrecision; text-rendering:geometricPrecision; image-rendering:optimizeQuality; fill-rule:evenodd; clip-rule:evenodd"
viewBox="0 0 797 555"
 xmlns:xlink="http://www.w3.org/1999/xlink">
 <defs>
  <style type="text/css">
   <![CDATA[
    .fil0 {fill:#FEFEFE}
    .fil1 {fill:#FEFEFE;fill-opacity:0.670588}
    .fil2 {fill:#FEFEFE;fill-opacity:0.850980}
   ]]>
  </style>
 </defs>
 <g id="圖層_x0020_1">
  <metadata id="CorelCorpID_0Corel-Layer"/>
  <circle class="fil0" cx="113" cy="93" r="2"/>
  <circle class="fil0" cx="183" cy="147" r="2"/>
  <circle class="fil0" cx="388" cy="94" r="2"/>
  <circle class="fil0" cx="680" cy="166" r="2"/>
  <circle class="fil0" cx="97" cy="258" r="2"/>
  <circle class="fil0" cx="167" cy="312" r="2"/>
  <circle class="fil0" cx="602" cy="102" r="2"/>
  <circle class="fil0" cx="532" cy="49" r="2"/>
  <circle class="fil0" cx="489" cy="255" r="2"/>
  <circle class="fil0" cx="419" cy="309" r="2"/>
  <circle class="fil0" cx="755" cy="245" r="2"/>
  <circle class="fil0" cx="685" cy="299" r="2"/>
  <circle class="fil0" cx="729" cy="93" r="2"/>
  <circle class="fil0" cx="78" cy="163" r="2"/>
  <circle class="fil0" cx="196" cy="37" r="2"/>
  <circle class="fil0" cx="126" cy="91" r="2"/>
  <circle class="fil0" cx="52" cy="349" r="2"/>
  <circle class="fil0" cx="170" cy="223" r="2"/>
  <circle class="fil0" cx="100" cy="277" r="2"/>
  <circle class="fil0" cx="398" cy="338" r="2"/>
  <circle class="fil0" cx="280" cy="212" r="2"/>
  <circle class="fil0" cx="350" cy="266" r="2"/>
  <circle class="fil0" cx="335" cy="359" r="2"/>
  <circle class="fil0" cx="216" cy="233" r="2"/>
  <circle class="fil0" cx="286" cy="287" r="2"/>
  <circle class="fil0" cx="631" cy="348" r="2"/>
  <circle class="fil0" cx="513" cy="222" r="2"/>
  <circle class="fil0" cx="583" cy="276" r="2"/>
  <circle class="fil0" cx="358" cy="128" r="2"/>
  <circle class="fil0" cx="240" cy="2" r="2"/>
  <circle class="fil0" cx="310" cy="56" r="2"/>
  <circle class="fil0" cx="494" cy="67" r="2"/>
  <circle class="fil0" cx="424" cy="13" r="2"/>
  <circle class="fil0" cx="23" cy="15" r="2"/>
  <circle class="fil0" cx="36" cy="12" r="2"/>
  <circle class="fil0" cx="34" cy="100" r="2"/>
  <circle class="fil0" cx="37" cy="119" r="2"/>
  <circle class="fil0" cx="87" cy="3" r="2"/>
  <circle class="fil0" cx="90" cy="23" r="2"/>
  <circle class="fil0" cx="777" cy="324" r="2"/>
  <circle class="fil0" cx="669" cy="46" r="2"/>
  <circle class="fil0" cx="614" cy="13" r="2"/>
  <circle class="fil0" cx="225" cy="103" r="2"/>
  <circle class="fil0" cx="34" cy="239" r="2"/>
  <path class="fil1" d="M64 200l8 -4 8 2c13,2 15,2 21,-8 9,3 44,3 51,0l7 -5 0 -11 -8 -4 -4 -2c7,-8 5,-3 8,-7 5,-5 4,-7 4,-15 -12,-10 -13,-13 -30,-7 -7,-8 -8,-17 -23,-15 -12,2 -4,5 -14,3 -9,-1 -12,-9 -40,9l-13 8c-8,6 1,2 -10,3 -38,5 -31,35 -22,42 10,8 15,0 25,5 2,0 4,2 5,3 11,7 14,5 27,3z"/>
  <path class="fil1" d="M702 553l8 -4 8 2c13,2 15,2 21,-8 10,3 45,3 51,0l7 -5 0 -11 -8 -5 -3 -1c6,-8 4,-3 8,-7 4,-5 3,-7 3,-15 -12,-10 -13,-13 -30,-7 -7,-8 -8,-17 -22,-15 -12,2 -5,5 -15,3 -9,-1 -12,-9 -40,9l-12 8c-9,6 0,2 -10,3 -39,5 -31,35 -22,42 10,8 14,0 25,5 1,0 3,2 5,3 11,7 13,5 26,3z"/>
  <path class="fil1" d="M216 513l8 -3 8 1c13,3 15,3 21,-7 10,2 45,3 51,-1l8 -4 -1 -11 -8 -5 -3 -1c6,-9 4,-3 8,-8 4,-4 3,-7 3,-14 -12,-10 -13,-13 -30,-7 -7,-8 -8,-17 -22,-15 -12,2 -5,4 -15,3 -9,-2 -12,-9 -40,9l-12 8c-9,6 0,2 -10,3 -39,5 -31,35 -22,41 10,8 14,1 25,6 1,0 3,2 5,3 11,7 13,5 26,2z"/>
  <path class="fil2" d="M444 137l8 -4 9 2c12,2 14,2 20,-8 10,3 45,3 51,0l8 -5 -1 -10 -8 -5 -3 -2c6,-8 4,-3 8,-7 4,-5 3,-7 4,-15 -13,-10 -14,-13 -31,-7 -7,-8 -8,-16 -22,-14 -12,1 -5,4 -15,2 -9,-1 -12,-9 -40,9l-12 8c-9,6 0,2 -10,3 -39,5 -31,35 -22,42 10,8 14,0 25,5 1,0 3,2 5,3 11,7 13,5 26,3z"/>
  <path class="fil1" d="M343 133l5 -2 5 1c8,1 9,1 13,-5 6,2 28,2 32,0l4 -3 0 -7 -5 -3 -2 -1c4,-5 3,-2 5,-5 3,-2 2,-4 2,-9 -7,-6 -8,-8 -19,-4 -4,-5 -4,-10 -13,-9 -8,1 -3,3 -9,2 -6,-1 -8,-6 -25,5l-8 5c-5,4 0,1 -6,2 -24,3 -19,22 -14,26 6,5 9,0 16,3 0,0 2,2 3,2 6,4 8,3 16,2z"/>
 </g>
</svg>
