<?xml version="1.0" encoding="UTF-8"?>
<!DOCTYPE svg PUBLIC "-//W3C//DTD SVG 1.1//EN" "http://www.w3.org/Graphics/SVG/1.1/DTD/svg11.dtd">
<!-- Creator: CorelDRAW X7 -->
<svg xmlns="http://www.w3.org/2000/svg" xml:space="preserve" width="44.2214mm" height="42.3624mm" version="1.1" style="shape-rendering:geometricPrecision; text-rendering:geometricPrecision; image-rendering:optimizeQuality; fill-rule:evenodd; clip-rule:evenodd"
viewBox="0 0 337 323"
 xmlns:xlink="http://www.w3.org/1999/xlink">
 <defs>
  <style type="text/css">
   <![CDATA[
    .str0 {stroke:#332C2B;stroke-width:1.52634}
    .fil17 {fill:#FEFEFE}
    .fil11 {fill:#FEFEFE}
    .fil2 {fill:#020201}
    .fil9 {fill:#2D320D}
    .fil12 {fill:#5B7827}
    .fil5 {fill:#7E8235}
    .fil14 {fill:#8EB447}
    .fil13 {fill:#8F9C40}
    .fil6 {fill:#9DB01C}
    .fil15 {fill:#A6D43C}
    .fil4 {fill:#AAB659}
    .fil16 {fill:#B7EA55}
    .fil1 {fill:#D4E17F}
    .fil8 {fill:#DA8164}
    .fil7 {fill:#E6B6AE}
    .fil3 {fill:#FAF1D3}
    .fil10 {fill:white}
    .fil0 {fill:#61913D}
   ]]>
  </style>
 </defs>
 <g id="圖層_x0020_1">
  <metadata id="CorelCorpID_0Corel-Layer"/>
  <g id="_2173703623952">
   <g>
    <ellipse class="fil0" cx="130" cy="309" rx="122" ry="14"/>
    <path class="fil1" d="M124 155c7,32 57,21 49,-12 -7,-32 -57,-21 -49,12zm-98 -11c7,33 56,23 50,-10 -6,-32 -56,-23 -50,10zm45 -74l3 -1c21,-5 48,-4 66,7l24 19 1 -1 -7 -10c2,-5 25,-25 31,-29 10,-6 36,-17 48,-15l-4 1c-14,5 -27,9 -38,22 -13,15 -13,19 -19,38l-6 14c2,-3 4,-8 6,-11 1,3 1,7 -1,11 3,-1 5,-6 10,-8 -1,3 -2,7 -2,10 4,-1 7,-4 13,-4 -2,3 -7,6 -11,9 -4,7 0,37 -2,49 -1,7 -10,28 -17,29 -22,0 -29,-4 -44,-20 -14,-15 -6,-36 -3,-53 13,-70 -37,-70 -37,-24 0,19 7,40 -4,57 -11,18 -21,26 -43,24 -20,-2 -23,-29 -20,-45 7,-30 7,-22 -4,-51 2,2 4,0 6,6 1,-2 0,-6 1,-8 1,2 2,4 3,6 1,0 3,-7 7,-9l1 1 -6 13c5,-6 7,-18 8,-20 4,-17 0,-34 -10,-49 -3,-5 -26,-16 -16,-26 12,13 18,16 29,32 6,9 18,28 22,39l-12 8 27 -11z"/>
    <path class="fil2" d="M61 300l0 0 0 -1 0 0 1 -1 0 0 1 -1 1 0c1,0 9,-4 12,-5 5,-1 6,-5 6,-10l-17 -13 0 -1 -10 -13c-10,15 3,24 3,30 0,11 -23,10 -19,21 4,4 20,0 22,-6zm42 -3c-7,2 -12,10 -9,14 3,1 13,-1 16,-1 8,-2 8,-7 12,-7 12,0 22,-14 28,-21 7,-10 8,-16 10,-27 1,-6 -1,-8 3,-7l-1 0 -1 12c-1,2 -3,12 -6,17 -2,4 -8,12 -9,14 4,1 14,3 18,0 -4,-9 -6,-16 -2,-26 1,-4 8,-14 13,-12 -2,3 -14,6 -12,27 1,17 18,13 15,23 -1,1 -2,2 -4,2l-11 1c-1,2 -3,4 -1,5 4,4 45,1 41,-3 -4,-4 -6,-7 -7,-12 5,-7 25,-10 30,-23 4,-13 -1,-30 -12,-39 -5,-5 -24,-6 -31,-6 -16,-2 -24,-7 -27,-16 -12,4 -25,5 -39,5l-3 7 -8 17c-1,19 1,16 5,32 7,10 5,21 -8,24zm-18 -16l1 0 12 3c3,2 11,1 14,1 0,-4 -1,-8 -3,-11 0,-1 -4,-7 -5,-7l-3 -21 0 0c-2,4 0,9 -5,15 -3,4 -4,1 -5,5 -1,5 1,9 -4,13l-12 -15 -3 -8 0 -2 0 -1 -1 -7 -4 4c-3,-9 -11,-13 -9,-29 -5,10 -3,29 2,38 2,5 20,20 25,22zm5 -64l-28 -5c-3,7 -2,21 3,27l-1 -8 4 0 0 15c1,-1 3,-3 4,-4 2,2 0,6 2,10 2,5 4,1 6,2l1 11 3 -3c1,1 3,9 4,10 1,-1 1,-9 2,-11 4,-10 2,4 6,-3l0 -1 4 -15 4 -4 1 -11 2 6 1 -12 4 4 0 -2c0,-2 0,-3 1,-6 -9,1 -11,1 -23,0zm-65 -34c11,20 40,28 61,31 18,3 48,1 67,-3 9,-2 15,-7 15,-8 -2,0 -27,3 -40,-13 -10,-10 -16,-15 -16,-33 0,-20 19,-67 -4,-82 -13,-9 -23,14 -24,24 -1,16 5,33 1,48 -6,27 -32,49 -60,36zm253 -37c-2,16 0,42 -4,56 -5,17 -19,27 -23,39l-2 7c9,-1 37,-20 42,-28 10,-17 16,-31 18,-51 3,-37 -10,-86 16,-118 -28,25 -43,58 -47,95zm-49 110l0 9c3,-2 5,-5 8,-8 3,-2 5,-4 9,-6 -1,-2 -1,-4 0,-6 3,-18 14,-32 19,-50 5,-21 0,-41 4,-64 6,-33 21,-71 54,-85 -8,-4 -41,24 -47,32 -13,14 -24,30 -30,48 -4,12 -3,22 -4,34 -1,15 3,24 3,37 1,27 -21,27 -16,59zm21 -19c11,-14 22,-27 24,-45 2,-22 -1,-40 5,-63 8,-32 22,-71 55,-84 -15,-3 -33,19 -41,29 -10,14 -17,32 -20,49 -2,10 -4,19 -4,30 0,11 1,22 0,33 -3,21 -14,33 -19,51zm-46 -179c-24,22 -26,50 -26,50l12 -10 -4 13 1 -1 6 -4c8,-5 15,-20 16,-29 3,-16 10,-19 16,-31l0 0 -21 12zm-188 24c3,0 3,4 5,6 5,-7 6,-3 8,-13 3,-17 0,-36 -11,-49l-10 -9c0,0 2,15 1,20 -2,12 -15,35 6,50 0,-2 1,-3 1,-5zm150 118c7,-1 13,-7 15,-10 9,-15 7,-28 4,-44 -2,-12 -1,-13 0,-24 1,-4 8,-5 10,-9 -6,0 -7,5 -13,4 2,-3 -1,-5 3,-10 -6,3 -6,7 -10,8 0,-3 2,-7 0,-10 -1,4 -1,5 -5,10l6 -14c6,-19 6,-23 19,-38 11,-13 24,-17 38,-22l3 -1 0 0 -10 -3c-24,-6 -31,0 -52,8 -7,3 -32,22 -33,30l-1 1c-18,-11 -45,-12 -66,-7l0 0c-19,-13 -33,-69 -69,-67 -9,9 38,27 26,75 -1,2 -1,12 -8,20l5 -14c-5,4 -5,11 -7,11 0,-3 -3,-4 -3,-8 -1,3 0,6 -1,8 -1,-4 -4,-3 -6,-6 11,29 11,21 4,51 -3,16 0,43 20,45 22,2 32,-6 43,-24 11,-17 4,-38 4,-57 0,-46 50,-46 37,24 -3,17 -11,38 3,53 15,16 22,20 44,20zm-55 88c-5,-2 -13,-1 -20,-3 -14,-4 -3,4 -12,9 -5,2 -13,3 -16,8 -5,10 -33,14 -26,-2 1,-4 10,-7 14,-10 9,-7 -8,-13 2,-35 4,-9 -4,-22 6,-40 1,-1 1,-3 0,-4 -5,-3 -17,-7 -24,-13 -23,-14 -26,-45 -19,-69 9,-30 -18,-43 -15,-72 2,-11 11,-30 4,-39 -12,-18 1,-22 16,-15 19,9 38,34 46,48 6,14 8,15 12,14 16,-2 28,-1 43,2 5,1 15,5 17,5 0,0 7,-8 8,-10 8,-8 23,-18 33,-22 12,-5 18,-6 31,-7 4,0 27,2 27,7 -1,3 -6,3 -9,5 -3,2 -5,6 -7,8 -4,7 -7,12 -9,20 -3,8 -3,14 -7,22 -2,3 -15,17 -15,17 2,-1 5,1 7,0 0,7 -15,4 -12,26 1,12 5,20 4,33 -2,29 -26,39 -32,42 6,12 26,12 35,13 25,4 20,5 32,19 9,-28 22,-30 16,-63 -4,-21 0,-47 8,-68 12,-27 54,-78 88,-70 -4,5 -8,4 -12,11 -5,7 -6,8 -8,16 -4,15 -7,27 -6,43 1,37 3,51 -7,88 -7,23 -31,38 -52,48 -11,5 -20,14 -25,25 -6,13 -24,15 -29,21 1,5 3,8 7,11 4,13 -43,10 -46,6 -6,-12 14,-6 16,-11 3,-9 -15,-7 -20,-7 -19,-2 -5,-4 -20,5 -2,2 -8,5 -10,5 -8,2 -3,2 -10,6 -5,2 -19,6 -24,2 -4,-21 20,-16 20,-25z"/>
    <path class="fil1" d="M214 235c6,9 1,24 -3,34 -3,8 -14,23 -15,27 1,5 4,9 7,12 -1,0 -5,0 -7,-1 -3,0 -4,0 -8,0 -3,0 -12,1 -14,-2 2,0 3,-1 4,-2 3,-10 -14,-6 -15,-23 -2,-21 10,-24 12,-27 -5,-2 -12,8 -13,12 -1,-1 -1,-3 -1,-5l1 -12 1 0c-4,-1 -2,1 -3,7 -2,11 -3,17 -10,27 -6,7 -16,21 -28,21l-19 -6c13,-3 15,-14 8,-24 -10,-18 -7,-30 -6,-32 1,-2 0,-6 1,-7 0,0 0,1 0,1 5,-1 4,-9 5,-9 0,-1 1,2 1,2 3,-2 2,-8 5,-11 14,-1 25,-1 39,-5 3,9 11,14 27,16 7,0 26,1 31,7z"/>
    <path class="fil3" d="M97 174c2,-2 12,-6 7,-11 -2,-2 -13,-3 -16,-1 -1,3 4,8 6,11 -9,3 -10,-1 -14,-2 1,2 5,5 7,5 4,1 5,-1 8,-2 2,3 3,4 7,5 3,1 6,0 9,-2 -2,-1 -11,3 -14,-3zm-72 9c28,13 54,-9 60,-36 4,-15 -2,-32 -1,-48 1,-10 11,-33 24,-24 23,15 4,62 4,82 0,19 6,22 18,35 13,11 32,11 38,11 -3,3 -7,6 -16,9 -18,3 -48,5 -66,2 -21,-3 -50,-11 -61,-31z"/>
    <path class="fil1" d="M246 245c-2,2 -16,12 -16,14l-1 -3c-6,-32 17,-32 16,-59 0,-13 -4,-22 -3,-37 1,-12 0,-22 4,-34 6,-18 17,-34 30,-48 6,-8 13,-13 20,-19 4,-4 21,-16 27,-13 -33,14 -48,52 -54,85 -4,23 1,43 -4,64 -5,18 -16,32 -19,50z"/>
    <path class="fil4" d="M317 58l8 -7c-26,32 -13,81 -16,118 -2,20 -8,34 -18,51 -5,8 -33,27 -42,28l2 -7c20,-10 40,-60 44,-83 6,-26 9,-59 14,-79 1,-3 7,-19 8,-21zm-2 1l0 1 0 -1 0 0z"/>
    <path class="fil1" d="M251 241c4,-12 18,-22 23,-39 4,-14 2,-40 4,-56 3,-33 16,-62 37,-87l1 0 0 -1 1 0c0,0 -7,18 -8,21 -5,20 -9,69 -15,94 -4,28 -29,63 -43,68z"/>
    <path class="fil5" d="M249 239c5,-18 17,-32 20,-53 1,-11 0,-22 0,-33 0,-11 2,-20 4,-30 3,-17 10,-35 20,-49 8,-10 26,-32 41,-29 -33,13 -47,52 -55,84 -6,23 -3,41 -5,63 -1,17 -15,33 -25,47z"/>
    <path class="fil1" d="M90 217c0,1 -2,8 -2,10 -2,12 2,5 3,9 0,11 2,3 2,10 1,5 2,6 3,11l0 1c-4,7 -5,3 -6,3 -1,2 -1,10 -2,11 -1,-1 -5,-7 -4,-10 -1,1 -1,3 -3,3 0,-4 -4,-5 -1,-11 -2,-1 -4,3 -6,-2 -2,-4 0,-8 -2,-10 0,2 -3,5 -5,5 2,-5 -2,-8 1,-16 -2,0 -4,5 -3,8 -5,-6 -6,-20 -3,-27l28 5z"/>
    <path class="fil6" d="M236 40c-20,-2 -67,26 -78,44l7 10 -1 1 -24 -19 1 -1c6,3 4,1 9,-4 7,-6 20,-16 28,-20 8,-4 13,-7 22,-9 14,-7 26,-5 26,-5l10 3 0 0 0 0z"/>
    <path class="fil5" d="M53 120c-24,-2 -30,33 -6,37 26,5 31,-34 6,-37zm-27 24c-6,-33 44,-42 50,-10 6,33 -43,43 -50,10z"/>
    <path class="fil5" d="M150 131c-24,-4 -30,34 -5,37 24,4 30,-33 5,-37zm-26 24c-8,-33 42,-44 49,-12 8,33 -42,44 -49,12z"/>
    <path class="fil6" d="M71 64c1,3 3,4 4,5l-31 12 12 -8c-4,-11 -16,-30 -22,-39 -10,-13 -18,-21 -29,-32 2,-1 4,0 6,0 0,0 15,12 17,14 15,14 32,33 36,54 3,-2 5,-4 7,-6z"/>
    <path class="fil2" d="M49 131c-2,-3 -4,-5 -8,-3 -4,2 -2,5 -1,8 0,1 0,1 1,1l0 0c3,2 -1,7 -2,10l4 -5 -3 5c2,-1 1,-2 4,-1l-1 4c1,0 0,-1 2,-2 1,0 0,1 2,-1 1,2 2,3 4,2l0 -3c2,2 3,4 5,4 2,-3 1,-2 0,-5 0,-2 1,-1 1,-3 1,-1 0,-1 1,-2 0,-1 1,-3 0,-4 -3,-2 1,-1 -6,-5l-1 2 -2 -2zm4 -11c25,3 20,42 -6,37 -24,-4 -18,-39 6,-37z"/>
    <path class="fil2" d="M151 159c-1,2 -1,2 0,1l2 0 0 -2c1,-2 1,-1 0,-1l-1 -2c1,0 1,0 2,-1 1,-2 1,-1 1,-2 0,-3 0,1 0,-1 0,-2 0,-2 -1,-2l1 -1c-1,-1 0,0 -1,-1 -3,-1 3,1 -1,-1l2 -1c-2,-1 -4,-4 -7,-4l0 3c-2,-4 0,-1 -3,-4 1,-1 1,-1 0,-1 -3,-3 -8,-2 -9,2 -2,3 0,6 4,7 0,1 0,1 1,1 -1,0 -1,2 -2,3 -3,2 -1,1 -2,3 -1,2 -1,1 -2,2l5 -4c-3,3 -1,2 -3,5l1 0 0 2c1,-2 0,-2 2,-3 2,3 0,2 0,4l1 -2c3,3 -1,2 1,3l2 -4 1 3 3 -1 0 -4c1,2 0,2 1,2 1,1 1,-1 2,1zm-1 -28c25,4 19,41 -5,37 -25,-3 -19,-41 5,-37z"/>
    <path class="fil7" d="M18 26c12,41 3,53 -2,56 -1,2 0,3 -1,5 -21,-15 -8,-38 -6,-50 1,-5 -1,-20 -1,-20l10 9z"/>
    <path class="fil4" d="M65 268l0 1c0,4 3,10 3,15 -1,8 -4,9 -4,13l-1 0 -1 1 0 0 -1 1 0 0 0 1 0 0c-2,6 -18,10 -22,6 -4,-11 19,-10 19,-21 0,-6 -13,-15 -3,-30l10 13z"/>
    <path class="fil7" d="M193 106c-5,3 3,-39 11,-48l21 -12c-6,12 -13,15 -16,31 -1,9 -8,24 -16,29z"/>
    <path class="fil4" d="M196 296c1,-4 12,-19 15,-27 4,-10 9,-25 3,-35 11,9 16,26 12,39 -5,13 -25,16 -30,23z"/>
    <path class="fil1" d="M226 37c0,0 -15,0 -26,5 -9,2 -14,5 -22,9 -8,4 -21,14 -28,20 -5,5 -3,7 -9,4 1,-8 26,-27 33,-30 21,-8 28,-14 52,-8z"/>
    <path class="fil8" d="M16 82c5,-3 13,-15 2,-56 11,13 14,32 11,49 -2,10 -3,6 -8,13 -2,-2 -2,-5 -5,-6z"/>
    <path class="fil5" d="M96 258c-3,-2 -2,-7 -3,-12 0,-7 -2,1 -2,-10 -1,-4 -5,3 -3,-9 0,-2 2,-9 2,-10 12,1 19,0 24,0 -2,3 0,6 -2,8 -1,-1 -2,-2 -3,-3 0,1 1,6 -2,11 -1,-1 -2,-3 -2,-5 0,8 -1,12 -5,14 -1,4 -2,6 -2,10 -1,3 -2,6 -2,6z"/>
    <path class="fil4" d="M104 267c2,2 0,7 0,10 -1,2 -1,2 -2,4 -1,3 -1,3 -4,3l-12 -3 -1 0c-6,-5 -16,-22 -13,-28l0 1 1 0c2,3 1,7 3,9 1,-1 1,-1 1,-2 3,1 3,6 4,8 0,-1 0,-2 1,-3 3,2 5,7 5,11 3,-4 3,-6 4,-11 1,-4 2,-1 5,-5 4,-5 2,-15 5,-15l3 21z"/>
    <path class="fil1" d="M72 66l-8 4c-4,-21 -21,-40 -36,-55 -2,-2 -17,-13 -17,-13 23,1 54,44 61,64z"/>
    <path class="fil5" d="M72 253l0 1 1 0 -1 0 0 -1c-3,6 7,23 13,28l1 0 -1 0c-5,-2 -23,-17 -25,-22 -5,-9 -9,-34 -2,-38 0,15 7,19 9,29l4 -4 1 7z"/>
    <path class="fil8" d="M193 106c-1,1 -6,6 -7,5 0,-5 2,-8 3,-12 -3,4 -6,7 -11,9 -1,-1 -2,-20 21,-45 2,-1 3,-3 5,-5 -8,9 -16,51 -11,48z"/>
    <path class="fil4" d="M166 200c7,-1 15,-23 16,-30 2,-12 -1,-41 3,-48 -1,11 -2,12 0,24 3,16 5,29 -4,44 -2,3 -7,10 -15,10z"/>
    <path class="fil5" d="M64 297l-1 0 -1 1 0 0 -1 1 0 0 0 1 0 0 0 0 0 -1 0 0 1 -1 0 0 1 -1 1 0c0,-4 3,-5 4,-13 0,-5 -3,-11 -3,-15l0 -1 0 1 18 13c0,5 -2,9 -7,10 -3,1 -11,5 -12,5z"/>
    <path class="fil4" d="M122 303c-4,0 -4,5 -12,7 -3,0 -13,2 -16,1 -3,-4 2,-12 9,-14l19 6z"/>
    <path class="fil4" d="M162 265c-4,10 -2,17 2,26 -4,3 -14,1 -18,0 1,-2 7,-10 9,-14 3,-5 5,-15 6,-17 0,2 0,4 1,5z"/>
    <path class="fil4" d="M203 308c3,7 -39,8 -42,3 -2,-2 -1,-3 2,-5l11 -1c2,3 11,2 14,2 4,0 5,0 8,0 2,1 6,1 7,1z"/>
    <path class="fil9" d="M153 157c1,0 1,-1 0,1 -1,0 0,0 0,-1l-2 0 0 2c1,1 0,0 0,1 -1,1 -1,1 0,-1 -1,-2 -1,0 -2,-1 -1,0 0,0 -1,-2l0 4 -3 1 -1 -3 -2 4c-2,-1 2,0 -1,-3l-1 2c0,-2 2,-1 0,-4 -2,1 -1,1 -2,3l0 -2 -1 0c2,-3 0,-2 3,-5l-5 4c1,-1 1,0 2,-2 1,-2 -1,-1 2,-3 1,-1 1,-3 2,-3 -1,0 -1,0 -1,-1 6,0 6,-3 5,-8l0 -1 0 0 -1 -1 -1 0c1,0 1,-1 1,0 1,0 1,0 1,1l0 0c1,0 1,0 0,1 3,3 1,0 3,4l0 -3c3,0 5,3 7,4l-2 1c4,2 -2,0 1,1 1,1 0,0 1,1l-1 1c1,0 1,0 1,2 0,2 0,-2 0,1 0,1 0,0 -1,2 -1,1 -1,1 -2,1l1 2zm-9 -5c2,4 9,1 7,-3 -2,-4 -9,-1 -7,3z"/>
    <path class="fil9" d="M41 137l0 0c-1,0 -1,0 -1,-1l1 1 0 0c6,2 8,-1 8,-6l2 2 1 -2c7,4 3,3 6,5 1,1 0,3 0,4 -1,1 0,1 -1,2 0,2 -1,1 -1,3 1,3 2,2 0,5 -2,0 -3,-2 -5,-4l0 3c-2,1 -3,0 -4,-2 -2,2 -1,1 -2,1 -2,1 -1,2 -2,2l1 -4c-3,-1 -2,0 -4,1l3 -5 -4 5c1,-3 5,-8 2,-10zm14 3c0,-5 -7,-5 -8,-1 0,5 7,6 8,1z"/>
    <path class="fil2" d="M104 165c-3,-2 -10,-3 -14,-2 1,2 4,8 6,8 2,0 3,-2 4,-3 1,-1 3,-2 4,-3zm-7 9c3,6 12,2 14,3 -2,3 -6,3 -9,3 -4,-1 -5,-3 -7,-6 -3,1 -4,3 -8,2 -2,0 -6,-3 -7,-5 4,0 5,5 14,2 -2,-3 -7,-7 -7,-11 4,-2 18,-1 19,2 2,4 -7,8 -9,10z"/>
    <path class="fil5" d="M98 284c3,0 3,0 4,-3 1,-2 1,-2 2,-4 0,-3 2,-8 0,-10 1,0 5,6 5,7 2,3 3,7 3,11 -3,0 -11,1 -14,-1z"/>
    <path class="fil4" d="M229 256l1 3c0,-2 14,-12 16,-14 -1,2 -1,4 0,6 -4,2 -6,4 -9,6 -3,3 -5,6 -8,8l0 -9z"/>
    <path class="fil10" d="M49 131c0,5 -2,8 -8,6l0 0 -1 -1c-1,-3 -3,-6 1,-8 4,-2 6,0 8,3z"/>
    <path class="fil9" d="M104 165c-1,1 -2,2 -3,3 -1,2 -3,3 -5,3 -2,0 -5,-6 -6,-8 4,-1 11,0 14,2z"/>
    <path class="fil2" d="M55 140c-1,5 -8,4 -8,-1 1,-4 8,-4 8,1z"/>
    <path class="fil2" d="M144 152c-2,-4 5,-7 7,-3 2,4 -5,7 -7,3z"/>
    <path class="fil10" d="M153 158l0 2 -2 0c0,-1 1,0 0,-1l0 -2 2 0c0,1 -1,1 0,1z"/>
    <circle class="fil11 str0" transform="matrix(-0.582492 0.0315514 0.0315514 0.582492 43.8327 132.121)" r="10"/>
    <circle class="fil11 str0" transform="matrix(-0.582492 0.0315514 0.0315514 0.582492 140.921 143.097)" r="10"/>
    <circle class="fil11" transform="matrix(-0.177572 0.00961842 0.00961842 0.177572 152.023 158.658)" r="10"/>
    <circle class="fil11" transform="matrix(-0.177572 0.00961842 0.00961842 0.177572 56.8534 147.306)" r="10"/>
    <circle class="fil11" transform="matrix(-0.0936927 0.00507498 0.00507498 0.0936927 90.843 163.064)" r="10"/>
   </g>
   <g>
    <g>
     <path class="fil12" d="M128 46l1 2 -2 -2 -3 1c-3,1 -2,3 -4,4l2 2 7 -3c0,0 0,0 -1,0 -1,-1 0,0 -1,-2 2,0 6,2 6,3 -5,1 -5,1 -9,4 0,0 0,0 0,0l-3 2c-1,0 -2,1 -3,1 -1,1 -1,2 -2,3 -1,1 -2,1 -3,2 0,2 1,1 1,4 1,0 1,0 2,1 0,0 0,0 0,0l-1 1c0,0 -1,0 1,2 3,4 9,-2 10,-4 2,-4 4,-14 6,-16 1,0 0,0 1,0 0,0 1,-1 2,-1 -1,3 0,1 -1,2 -2,4 -1,2 -2,4 1,-1 5,-4 7,-4 -3,-1 -6,-3 -7,-5 -1,-1 0,-1 -1,0 -1,-1 -1,1 -1,-1 2,-5 10,-7 13,1l1 2c6,-2 4,-1 5,0 -2,1 -3,0 -4,2l-1 2c-3,0 -2,-1 -5,1l-6 4c-2,1 -1,1 -2,3l-1 5c2,0 4,-2 6,-3 2,0 -1,0 1,0 0,0 0,0 1,1 0,0 0,0 0,0l1 -3c0,-2 0,-1 0,-1l2 -2c1,1 0,0 1,0 -1,2 -2,3 -2,5 3,-1 3,-4 6,-2 0,-3 -1,-5 -1,-7l1 -2c1,-2 0,-2 3,-2 -1,2 -2,1 -1,4 3,-1 4,-3 9,-3l1 3c3,-2 12,-10 13,1 10,-2 7,7 4,10 1,1 1,2 0,4l0 -1c0,0 -1,-1 -1,-1 0,0 0,0 0,-1 -1,1 0,1 -1,2 3,1 3,4 7,6 0,3 -1,-1 1,4 0,2 0,4 0,6 2,1 4,2 3,4 -2,1 -2,-1 -6,-1 0,1 0,2 0,3 1,2 2,1 2,4 -4,4 -13,2 -18,-1 -3,3 -1,3 -4,6 0,-2 2,-2 2,-4 -14,0 -9,0 -15,-5l-1 -5c-3,-1 -4,-2 -4,-5 4,1 0,0 3,2 0,0 2,1 3,1 1,1 2,0 3,1 3,0 3,1 6,-1 1,0 10,-4 11,-3 -2,-1 -4,1 -6,-1 0,0 1,0 1,0 0,0 0,0 0,-1l1 -1c-8,-1 -3,2 -13,1 -5,0 -4,-2 -5,-2 2,-1 3,0 3,0 3,1 4,-1 7,-1 -1,0 -1,-1 -1,-3 4,1 1,1 3,2 2,0 3,-1 4,-2l1 -3c1,-2 1,-1 2,-2 0,-3 -1,-5 1,-8l-4 0 0 3c-1,-2 -2,-2 -4,-1 -3,1 -8,2 -10,5l0 1c-1,1 -3,3 -5,3l1 0c0,0 0,0 1,0 0,1 1,1 1,1 3,1 3,1 3,3 0,0 0,0 0,0 -1,0 -1,0 -1,0 -3,-1 -5,-2 -8,-3 -4,0 -5,-2 -10,0 -2,0 -7,6 -13,4 -1,-1 -1,-1 -2,-2 0,-2 0,0 0,-1 0,3 1,3 2,4 4,3 9,4 13,3 11,-1 9,-8 19,-6 -2,3 -2,1 -5,2 0,0 -11,10 -21,6 -2,0 -1,0 -1,0 0,1 0,-1 1,0l0 1c3,6 9,6 15,7l4 1c-4,1 -10,0 -13,-1 -7,-1 -3,-3 -10,0 0,3 0,5 -2,5 1,-2 1,-1 1,-4 -7,2 -15,3 -19,-3l-1 -1c-1,0 -4,2 -4,4 -1,0 -1,0 0,1l1 1c-6,-1 -5,-2 -8,-4 -10,5 -21,1 -17,-4 1,0 1,0 2,-1 3,-2 7,-2 9,-3l-2 0c-1,0 1,1 -4,2 -2,0 -5,0 -6,0 -4,-1 -4,-2 -6,-5 -1,-1 -1,0 0,-1 -1,1 0,7 1,8 1,1 2,1 3,2 -2,0 -7,-2 -8,-3 -2,-1 -4,-3 -5,-5 -11,1 -7,3 -10,5 -4,3 -8,0 -12,0 -3,0 -5,2 -8,2 -2,-7 0,-11 5,-14 -9,-7 -7,-16 -3,-14 1,1 3,2 4,2 3,2 10,7 11,9 2,-1 0,-1 2,-1 0,-1 -1,-2 -2,-3 -1,-1 -1,-4 -4,-6 0,-1 0,-1 -1,-1 -1,-1 -1,-1 -1,-2 1,-1 0,0 1,0l4 0c0,-4 -1,-10 2,-12 4,-2 5,5 6,9 2,5 0,6 2,8 0,0 0,1 1,1l1 2c0,1 0,0 0,0 1,-1 2,-3 2,-4 1,-1 1,-1 2,-3 4,-3 6,-2 10,-3 0,0 0,0 0,0 0,0 0,0 0,0 0,3 1,7 0,9 -1,4 2,2 3,8l-2 -1c0,0 0,-1 -1,-1l-2 -4 -3 2c0,0 0,0 0,0 2,1 1,6 2,8 0,1 1,1 1,2 4,3 2,3 6,4 2,0 5,0 7,-1 -1,-1 -4,-1 -6,-4 -3,-4 0,-1 -3,-4 0,-5 0,1 0,-4 0,-3 0,-4 0,-6 1,-3 0,-8 0,-10 4,-1 4,2 6,2 1,-1 0,-3 0,-4l-3 -4c-1,-1 -1,-4 -1,-6 -2,2 -2,3 -2,6 0,1 0,3 0,4l-1 4c-1,-1 -1,-1 -1,-3 0,-3 0,-6 1,-8 1,-3 1,-6 4,-5 0,0 0,0 0,0l1 3c1,2 3,7 4,9 2,-2 0,-15 8,-12 0,1 0,3 0,5l5 0c0,-2 1,-4 1,-5 2,0 2,1 2,3 1,4 4,6 6,9 0,-1 0,-1 -1,-2 -1,-1 -1,0 -1,-2 6,1 11,4 14,8 2,-1 2,-2 3,-3 1,-2 1,-3 2,-4 3,0 4,2 5,4 3,-3 4,-7 10,-4z"/>
     <path class="fil13" d="M145 90c-2,0 -4,-1 -5,0l-4 -1c-6,-1 -12,-1 -15,-7l0 -1c-1,-1 -1,1 -1,0 0,0 -1,0 1,0 10,4 21,-6 21,-6 3,-1 3,1 5,-2 -10,-2 -8,5 -19,6 -4,1 -9,0 -13,-3 -1,-1 -2,-1 -2,-4 0,1 0,-1 0,1 1,1 1,1 2,2 6,2 11,-4 13,-4 5,-2 6,0 10,0 3,1 5,2 8,3 0,0 0,0 1,0 0,0 0,0 0,0 0,-2 0,-2 -3,-3 0,0 -1,0 -1,-1 -1,0 -1,0 -1,0l-1 0c2,0 4,-2 5,-3l0 -1c2,-3 7,-4 10,-5 2,-1 3,-1 4,1l0 -3 4 0c-2,3 -1,5 -1,8 -1,1 -1,0 -2,2l-1 3c-1,1 -2,2 -4,2 -2,-1 1,-1 -3,-2 0,2 0,3 1,3 -3,0 -4,2 -7,1 0,0 -1,-1 -3,0 1,0 0,2 5,2 10,1 5,-2 13,-1l-1 1c0,1 0,1 0,1 0,0 -1,0 -1,0 2,2 4,0 6,1 -1,-1 -10,3 -11,3 -3,2 -3,1 -6,1 -1,-1 -2,0 -3,-1 -1,0 -3,-1 -3,-1 -3,-2 1,-1 -3,-2 0,3 1,4 4,5l1 5z"/>
     <path class="fil14" d="M64 50c0,2 0,2 1,3l1 -4c0,-1 0,-3 0,-4 0,-3 0,-4 2,-6 0,2 0,5 1,6l3 4c0,1 1,3 0,4 -2,0 -2,-3 -6,-2 0,2 1,7 0,10 0,2 0,3 0,6 0,5 0,-1 0,4 3,3 0,0 3,4 2,3 5,3 6,4 -2,1 -5,1 -7,1 -4,-1 -2,-1 -6,-4 0,-1 -1,-1 -1,-2 -1,-2 0,-7 -2,-8 0,0 0,0 0,0l3 -2 2 4c1,0 1,1 1,1l2 1c-1,-6 -4,-4 -3,-8 1,-2 0,-6 0,-9 0,0 0,0 0,0 0,0 0,0 0,0 -4,1 -6,0 -10,3 -1,2 -1,2 -2,3 0,-1 0,0 -1,-2 -3,-5 -3,-20 5,-20 1,3 1,5 3,8 1,1 4,5 5,5z"/>
     <path class="fil15" d="M83 72c-4,-1 -5,0 -7,2l0 2c0,1 1,1 2,1 -3,-1 -8,-5 -9,-7 -1,-4 0,-10 0,-12 0,-2 -1,-3 -1,-5l4 6c3,4 6,9 10,8 0,-2 0,-2 -1,-3 -2,-1 -4,-1 -5,-4 -1,-2 -1,-6 0,-9 -1,1 -1,-1 1,1 2,2 1,3 6,5 0,-1 0,-1 0,-1l-1 -1c-4,-5 -3,-3 -5,-6 0,0 0,0 0,0 -2,-3 -1,-4 0,-7 1,-2 3,-8 3,0 0,6 3,12 3,14 0,4 -1,7 -1,13 1,1 1,2 1,3z"/>
     <path class="fil14" d="M128 46l2 0c0,2 0,0 1,1 1,-1 0,-1 1,0 1,2 4,4 7,5 -2,0 -6,3 -7,4 1,-2 0,0 2,-4 1,-1 0,1 1,-2 -1,0 -2,1 -2,1 -1,0 0,0 -1,0 -2,2 -4,12 -6,16 -1,2 -7,8 -10,4 -2,-2 -1,-2 -1,-2l1 -1c0,0 0,0 0,0 -1,-1 -1,-1 -2,-1 0,-3 -1,-2 -1,-4 1,-1 2,-1 3,-2 1,-1 1,-2 2,-3 1,0 2,-1 3,-1l3 -2c0,0 0,0 0,0 4,-3 4,-3 9,-4 0,-1 -4,-3 -6,-3 1,2 0,1 1,2 1,0 1,0 1,0l-7 3 -2 -2c2,-1 1,-3 4,-4l3 -1 2 2 -1 -2z"/>
     <path class="fil14" d="M112 67c-1,1 -2,1 -4,1 -3,2 -3,4 -6,1 -3,-3 -3,-8 -3,-12 0,-2 0,-3 -1,-5 0,-2 -1,-3 -1,-5l6 4c0,0 0,0 1,0l2 2c2,2 1,2 2,4 3,5 2,3 3,9 0,1 1,0 1,1z"/>
     <path class="fil15" d="M100 70l-2 3c-6,1 -8,-3 -10,-3 -2,-1 -1,0 -2,1 -3,-9 1,-10 0,-15 -1,-3 0,-2 1,0l1 0c1,2 2,6 5,8 3,2 3,-1 6,5 0,0 0,0 1,1z"/>
     <path class="fil15" d="M146 52l-1 2c0,2 1,4 1,7 -3,-2 -3,1 -6,2 0,-2 1,-3 2,-5 -1,0 0,1 -1,0l-2 2c0,0 0,-1 0,1l-1 3c0,0 0,0 0,0 -1,-1 -1,-1 -1,-1 -2,0 1,0 -1,0 -2,1 -4,3 -6,3l1 -5c1,-2 0,-2 2,-3l6 -4c3,-2 2,-1 5,-1l1 -2c0,1 -1,1 1,1z"/>
     <path class="fil14" d="M98 81c2,-2 3,0 4,-3l-3 1c0,0 0,0 0,-1l7 -5c2,0 2,1 5,0 0,3 3,9 -2,11 -5,3 -9,-3 -11,-3z"/>
     <path class="fil16" d="M36 74c0,3 0,6 1,8 -1,0 -5,-1 -7,-1 -4,0 -5,1 -7,1 0,-3 -1,-2 0,-5 1,-2 2,-2 3,-3 2,-2 2,-2 5,-1 1,1 0,0 2,1 2,0 1,0 3,0z"/>
     <path class="fil15" d="M176 58l-1 2c0,0 0,0 0,0 -4,8 -4,7 -10,7 -1,-7 1,-7 3,-9l1 1c0,0 0,0 0,0 0,1 0,0 0,1 2,-1 1,-1 2,-3 3,-1 3,-1 5,1z"/>
    </g>
    <circle class="fil17" cx="66" cy="67" r="3"/>
    <circle class="fil17" cx="80" cy="74" r="3"/>
    <circle class="fil17" cx="111" cy="62" r="2"/>
    <circle class="fil17" cx="123" cy="77" r="2"/>
    <circle class="fil17" cx="34" cy="75" r="2"/>
    <circle class="fil17" cx="65" cy="51" r="2"/>
    <circle class="fil17" cx="139" cy="61" r="2"/>
    <circle class="fil17" cx="152" cy="79" r="1"/>
    <circle class="fil17" cx="154" cy="84" r="1"/>
    <circle class="fil17" cx="171" cy="84" r="1"/>
    <circle class="fil17" cx="178" cy="74" r="1"/>
    <circle class="fil17" cx="135" cy="70" r="1"/>
    <circle class="fil17" cx="158" cy="60" r="1"/>
    <circle class="fil17" cx="111" cy="83" r="1"/>
    <circle class="fil17" cx="93" cy="57" r="1"/>
    <circle class="fil17" cx="56" cy="74" r="1"/>
    <circle class="fil17" cx="77" cy="51" r="1"/>
    <circle class="fil17" cx="32" cy="67" r="1"/>
    <circle class="fil17" cx="87" cy="61" r="1"/>
    <circle class="fil17" cx="134" cy="52" r="1"/>
    <circle class="fil17" cx="47" cy="65" r="1"/>
    <circle class="fil17" cx="131" cy="85" r="1"/>
   </g>
   <g>
    <g>
     <path class="fil12" d="M100 234l0 -1 -1 1 -1 -1c-1,-1 -1,-1 -2,-2l2 -1 3 2c-1,0 -1,0 -1,0 -1,1 0,0 -1,1 1,0 3,-1 3,-1 -2,-1 -2,-1 -3,-3 0,0 0,0 -1,0l0 -1c-1,0 -1,0 -2,-1 0,0 0,0 0,-1 -1,0 -1,0 -1,-1 0,-1 0,-1 0,-2 1,0 1,0 1,0 0,0 0,0 0,0l0 -1c0,0 0,0 1,-1 1,-1 3,2 4,3 0,2 0,7 1,8 0,0 0,0 0,0 0,0 1,0 1,1 0,-2 0,-1 0,-1 -1,-2 0,-1 -1,-2 1,0 2,2 3,2 -1,0 -3,1 -4,2 0,0 0,0 0,0 -1,0 0,-1 -1,0 1,3 4,4 6,1l1 -1c3,1 1,1 2,0 -1,0 -1,0 -2,-1l0 -1c-1,0 -1,0 -2,-1l-2 -2c-1,0 -1,-1 -1,-1l0 -3c1,1 2,1 3,2 1,0 -1,0 0,0 0,0 0,0 0,0 0,0 1,0 1,0l0 1c0,1 0,1 0,1l0 1c1,0 0,0 1,0 0,-1 -1,-2 -1,-2 2,0 1,1 3,1 0,1 -1,2 -1,3l0 1c0,1 0,1 1,1 0,-1 0,-1 0,-2 1,1 2,2 4,2l0 -1c2,1 5,6 6,1 5,2 4,-3 3,-4 1,-1 1,-1 1,-2l-1 1c0,0 0,0 0,0 0,0 0,0 0,0 -1,0 0,0 -1,0 2,-1 2,-2 4,-2 1,-2 -1,0 1,-2 0,-1 1,-2 1,-3 1,0 1,0 1,-1 0,-1 -1,0 -3,0 1,-1 1,-1 1,-2 1,-1 1,0 1,-1 -1,-3 -5,-3 -8,-2 -1,-1 0,-1 -1,-3 0,1 0,1 0,2 -6,-1 -4,0 -7,1l-1 2c-1,0 -2,1 -2,2 2,0 0,0 2,-1 0,0 1,0 1,0 1,0 1,0 2,0 1,0 1,0 2,1 1,0 4,3 4,3 0,0 -1,-1 -2,-1 0,0 0,1 0,1 0,0 0,0 0,0l0 0c-3,0 -1,-1 -5,-1 -2,-1 -2,0 -2,0 0,1 1,1 1,1 1,-1 1,0 3,0 -1,1 -1,1 -1,2 2,0 1,-1 2,-1 1,0 1,1 1,1l1 2c0,1 0,1 0,1 0,1 -1,2 0,3l-2 0 0 -1c0,1 -1,0 -2,0 -1,-1 -3,-2 -3,-3l-1 -1c0,-1 0,-1 -1,-2l0 0c0,0 0,0 0,0 1,0 1,0 1,0 1,0 1,0 2,-1 0,0 -1,0 -1,0 0,0 0,0 0,0 -1,0 -2,1 -4,1 -1,0 -2,0 -4,-1 -1,-1 -3,-4 -5,-3 -1,0 -1,0 -1,1 -1,0 -1,-1 0,0 0,-1 0,-1 1,-2 2,-1 4,-1 6,0 4,2 3,4 7,4 0,-1 0,0 -1,-1 -1,0 -4,-5 -9,-4 -1,0 0,0 -1,0 1,-1 0,0 1,0l0 -1c2,-2 4,-1 7,-1l2 -1c-2,0 -4,-1 -6,0 -3,0 -1,1 -4,-1 0,-2 0,-2 -1,-3 1,1 1,1 0,2 -2,-2 -6,-3 -8,0l-1 0c0,0 -1,-1 -1,-2 0,0 0,0 0,-1l0 0c-2,0 -2,1 -3,1 -4,-3 -9,-2 -8,0 0,0 0,1 0,1 2,1 3,1 4,2l-1 0c0,0 1,-1 -1,-1 -1,-1 -2,-1 -3,-1 -2,0 -2,1 -3,2 -1,0 0,0 0,0 0,-1 1,-3 1,-3 1,-1 1,-1 1,-1 0,0 -3,0 -3,0 -1,1 -2,2 -3,2 -4,-1 -3,-2 -4,-3 -1,-2 -3,-1 -5,-1 -2,0 -2,-2 -4,-2 -1,3 -1,5 1,7 -5,2 -4,6 -2,6 0,0 1,-1 2,-1 1,0 5,-2 5,-3 1,1 0,1 1,1 0,0 -1,1 -1,1 0,1 -1,2 -2,3 -1,0 -1,0 -1,0 -1,0 0,0 -1,1 1,0 0,0 1,0l2 0c-1,2 -2,5 -1,6 2,1 3,-2 4,-4 1,-2 1,-2 2,-3 0,0 0,0 0,0l1 -1c0,-1 0,0 0,0 0,0 0,1 0,2 1,0 0,0 1,1 1,2 2,2 4,3 0,0 0,0 0,0 0,0 0,0 0,0 0,-2 1,-3 1,-5 0,-1 1,0 2,-3l-1 1c0,0 0,0 0,0l-2 2 -1 -2c0,0 0,0 0,0 1,0 1,-2 2,-3 0,0 0,-1 0,-1 2,-1 2,-1 3,-1 1,0 3,0 3,1 0,0 -1,0 -3,1 -1,2 0,1 -2,2 0,2 1,-1 0,2 0,1 0,1 0,2 0,2 -1,4 -1,5 1,0 1,-1 2,-1 1,1 0,2 0,2l-2 1c0,1 -1,2 -1,3 0,-1 0,-2 0,-3 0,0 0,-1 0,-2l0 -2c0,1 0,1 0,2 -1,1 -1,2 -1,4 0,1 0,2 2,2 0,0 0,0 0,0l1 -1c0,-1 2,-3 2,-4 1,1 -1,7 2,6 1,0 1,-1 1,-2l2 0c0,1 0,2 0,3 1,0 1,0 1,-1 1,-2 2,-3 4,-4 -1,1 0,1 -1,1 0,1 0,0 -1,1 3,0 5,-1 8,-2 0,0 0,1 0,1 1,1 0,2 1,2 1,0 2,0 3,-1 1,2 1,4 4,3z"/>
     <path class="fil13" d="M111 216c-1,0 -1,0 -2,-1l-2 1c-3,0 -5,-1 -7,1l0 1c-1,0 0,-1 -1,0 1,0 0,0 1,0 5,-1 8,4 9,4 1,1 1,0 1,1 -4,0 -3,-2 -7,-4 -2,-1 -4,-1 -6,0 -1,1 -1,1 -1,2 -1,-1 -1,0 0,0 0,-1 0,-1 1,-1 2,-1 4,2 5,3 2,1 3,1 4,1 2,0 3,-1 4,-1 0,0 0,0 0,0 0,0 1,0 1,0 -1,1 -1,1 -2,1 0,0 0,0 -1,0 0,0 0,0 0,0l0 0c1,1 1,1 1,2l1 1c0,1 2,2 3,3 1,0 2,1 2,0l0 1 2 0c-1,-1 0,-2 0,-3 0,0 0,0 0,-1l-1 -2c0,0 0,-1 -1,-1 -1,0 0,1 -2,1 0,-1 0,-1 1,-2 -2,0 -2,-1 -3,0 0,0 -1,0 -1,-1 0,0 0,-1 2,0 4,0 2,1 5,1l0 0c0,0 0,0 0,0 0,0 0,-1 0,-1 1,0 2,1 2,1 0,0 -3,-3 -4,-3 -1,-1 -1,-1 -2,-1 -1,0 -1,0 -2,0 0,0 -1,0 -1,0 -2,1 0,1 -2,1 0,-1 1,-2 2,-2l1 -2z"/>
     <path class="fil14" d="M72 226c0,-1 0,-1 0,-2l0 2c0,1 0,2 0,2 0,1 0,2 0,3 0,-1 1,-2 1,-3l2 -1c0,0 1,-1 0,-2 -1,0 -1,1 -2,1 0,-1 1,-3 1,-5 0,-1 0,-1 0,-2 1,-3 0,0 0,-2 2,-1 1,0 2,-2 2,-1 3,-1 3,-1 0,-1 -2,-1 -3,-1 -1,0 -1,0 -3,1 0,0 0,1 0,1 -1,1 -1,3 -2,3 0,0 0,0 0,0l1 2 2 -2c0,0 0,0 0,0l1 -1c-1,3 -2,2 -2,3 0,2 -1,3 -1,5 0,0 0,0 0,0 0,0 0,0 0,0 -2,-1 -3,-1 -4,-3 -1,-1 0,-1 -1,-1 0,0 0,0 0,0 -2,2 -4,9 0,10 1,-1 1,-2 2,-3 0,-1 2,-2 3,-2z"/>
     <path class="fil15" d="M82 218c-2,0 -2,-1 -3,-1l0 -2c1,0 1,0 1,0 -1,0 -4,2 -4,3 -1,1 -1,4 -1,5 -1,1 -1,1 -1,2l2 -3c2,-1 4,-3 5,-2 0,1 0,1 -1,1 0,0 -1,0 -2,1 -1,1 -1,3 -1,5 0,-1 -1,0 0,-1 2,-1 1,-1 4,-1 0,0 -1,0 -1,0l0 0c-2,2 -1,1 -3,2 0,1 0,1 0,1 -1,1 -1,1 -1,2 1,2 1,4 2,1 1,-3 2,-5 3,-6 0,-2 0,-3 1,-6 0,0 0,-1 0,-1z"/>
     <path class="fil14" d="M100 234l0 0c1,-1 0,0 1,0 0,0 0,0 0,0 1,-1 3,-2 4,-2 -1,0 -2,-2 -3,-2 1,1 0,0 1,2 0,0 0,-1 0,1 0,-1 -1,-1 -1,-1 0,0 0,0 0,0 -1,-1 -1,-6 -1,-8 -1,-1 -3,-4 -4,-3 -1,1 -1,1 -1,1l0 1c0,0 0,0 0,0 0,0 0,0 -1,0 0,1 0,1 0,2 0,1 0,1 1,1 0,1 0,1 0,1 1,1 1,1 2,1l0 1c1,0 1,0 1,0 1,2 1,2 3,3 0,0 -2,1 -3,1 1,-1 0,0 1,-1 0,0 0,0 1,0l-3 -2 -2 1c1,1 1,1 2,2l1 1 1 -1 0 1z"/>
     <path class="fil14" d="M94 223c0,0 -1,-1 -1,-1 -1,-1 -1,-2 -3,-1 -1,1 -2,3 -2,5 -1,1 -1,1 -1,2 0,1 -1,1 -1,2l3 -1c0,0 0,0 0,0l1 0c2,-1 1,-1 2,-2 1,-2 1,-1 2,-4 0,0 0,1 0,0z"/>
     <path class="fil15" d="M89 221l0 -2c-3,-1 -4,1 -5,1 -1,-1 0,-1 -1,-1 -2,3 0,4 -1,6 -1,1 0,1 1,1l0 -1c0,0 2,-2 3,-3 1,0 1,1 3,-1 0,0 0,0 0,0z"/>
     <path class="fil15" d="M108 233l0 -1c0,-1 1,-2 1,-3 -2,0 -1,-1 -3,-1 0,0 1,1 1,2 -1,0 0,0 -1,0l0 -1c0,0 0,0 0,-1l0 -1c0,0 -1,0 -1,0 0,0 0,0 0,0 -1,0 1,0 0,0 -1,-1 -2,-1 -3,-2l0 3c0,0 0,1 1,1l2 2c1,1 1,1 2,1l0 1c1,0 0,0 1,0z"/>
     <path class="fil14" d="M90 216c1,0 1,0 1,1l-1 0c0,0 0,-1 0,0l2 3c1,0 2,0 3,0 0,-1 2,-3 0,-5 -2,-2 -4,0 -5,1z"/>
     <path class="fil16" d="M61 212c1,-1 1,-2 2,-3 -1,0 -2,0 -3,0 -2,0 -2,-1 -3,-1 -1,1 -1,1 -1,2 1,1 1,1 1,2 1,1 1,1 2,0 1,0 1,0 1,0 1,0 1,0 1,0z"/>
     <path class="fil15" d="M122 233l0 -1c0,0 0,0 0,0 -1,-4 -2,-3 -4,-4 -1,3 0,3 1,5l0 -1c0,0 0,0 0,0 0,0 0,0 0,0 1,0 0,0 0,1 2,1 2,1 3,0z"/>
    </g>
    <circle class="fil17" transform="matrix(-0.355511 -0.0780288 0.0780288 -0.355511 74.1822 218.649)" r="3"/>
    <circle class="fil17" transform="matrix(-0.355511 -0.0780288 0.0780288 -0.355511 81.1576 216.659)" r="3"/>
    <circle class="fil17" transform="matrix(-0.227866 -0.0500127 0.0500127 -0.227866 93.6151 225.281)" r="3"/>
    <circle class="fil17" transform="matrix(-0.227866 -0.0500127 0.0500127 -0.227866 100.552 219.486)" r="3"/>
    <circle class="fil17" transform="matrix(-0.227866 -0.0500127 0.0500127 -0.227866 60.9217 211.716)" r="3"/>
    <circle class="fil17" transform="matrix(-0.227866 -0.0500127 0.0500127 -0.227866 72.3911 225.374)" r="3"/>
    <circle class="fil17" transform="matrix(-0.227866 -0.0500127 0.0500127 -0.227866 105.605 228.384)" r="3"/>
    <circle class="fil17" transform="matrix(-0.192061 -0.0421543 0.0421543 -0.192061 113.111 221.694)" r="3"/>
    <circle class="fil17" transform="matrix(-0.192061 -0.0421543 0.0421543 -0.192061 114.734 219.551)" r="3"/>
    <circle class="fil17" transform="matrix(-0.0960307 -0.0210771 0.0210771 -0.0960307 122.335 221.032)" r="3"/>
    <circle class="fil17" transform="matrix(-0.0960307 -0.0210771 0.0210771 -0.0960307 124.121 226.465)" r="3"/>
    <circle class="fil17" transform="matrix(-0.0960307 -0.0210771 0.0210771 -0.0960307 105.108 223.753)" r="3"/>
    <circle class="fil17" transform="matrix(-0.0960307 -0.0210771 0.0210771 -0.0960307 114.343 230.383)" r="3"/>
    <circle class="fil17" transform="matrix(-0.0960307 -0.0210771 0.0210771 -0.0960307 95.4233 215.883)" r="3"/>
    <circle class="fil17" transform="matrix(-0.0960307 -0.0210771 0.0210771 -0.0960307 85.2094 225.651)" r="3"/>
    <circle class="fil17" transform="matrix(-0.0960307 -0.0210771 0.0210771 -0.0960307 70.4702 214.615)" r="3"/>
    <circle class="fil17" transform="matrix(-0.0960307 -0.0210771 0.0210771 -0.0960307 77.3668 226.609)" r="3"/>
    <circle class="fil17" transform="matrix(-0.0960307 -0.0210771 0.0210771 -0.0960307 59.2222 215.124)" r="3"/>
    <circle class="fil17" transform="matrix(-0.0960307 -0.0210771 0.0210771 -0.0960307 82.7435 223.146)" r="3"/>
    <circle class="fil17" transform="matrix(-0.0960307 -0.0210771 0.0210771 -0.0960307 102.603 231.844)" r="3"/>
    <circle class="fil17" transform="matrix(-0.0960307 -0.0210771 0.0210771 -0.0960307 65.5277 217.593)" r="3"/>
    <circle class="fil17" transform="matrix(-0.0960307 -0.0210771 0.0210771 -0.0960307 104.475 217.037)" r="3"/>
   </g>
  </g>
 </g>
</svg>
