<?xml version="1.0" encoding="UTF-8"?>
<!DOCTYPE svg PUBLIC "-//W3C//DTD SVG 1.1//EN" "http://www.w3.org/Graphics/SVG/1.1/DTD/svg11.dtd">
<!-- Creator: CorelDRAW X7 -->
<svg xmlns="http://www.w3.org/2000/svg" xml:space="preserve" width="48.8066mm" height="48.209mm" version="1.1" style="shape-rendering:geometricPrecision; text-rendering:geometricPrecision; image-rendering:optimizeQuality; fill-rule:evenodd; clip-rule:evenodd"
viewBox="0 0 291 288"
 xmlns:xlink="http://www.w3.org/1999/xlink">
 <defs>
  <style type="text/css">
   <![CDATA[
    .str0 {stroke:#332C2B;stroke-width:1.19407}
    .fil162 {fill:none}
    .fil160 {fill:#332C2B}
    .fil161 {fill:#ECF6F3}
    .fil142 {fill:black}
    .fil151 {fill:#010202}
    .fil154 {fill:#020205}
    .fil153 {fill:#03060A}
    .fil146 {fill:#041224}
    .fil143 {fill:#051429}
    .fil145 {fill:#0C3266}
    .fil139 {fill:#150606}
    .fil148 {fill:#15458A}
    .fil141 {fill:#16468D}
    .fil163 {fill:#16468D}
    .fil158 {fill:#181718}
    .fil137 {fill:#184689}
    .fil149 {fill:#1B4B92}
    .fil4 {fill:#1C3D02}
    .fil17 {fill:#1C4302}
    .fil136 {fill:#1E4E96}
    .fil12 {fill:#224403}
    .fil98 {fill:#233B06}
    .fil6 {fill:#244A02}
    .fil147 {fill:#250909}
    .fil50 {fill:#274908}
    .fil177 {fill:#291305}
    .fil56 {fill:#2A5705}
    .fil157 {fill:#2B2A35}
    .fil69 {fill:#2B5C02}
    .fil25 {fill:#2B6402}
    .fil26 {fill:#2D6501}
    .fil8 {fill:#2D6504}
    .fil23 {fill:#2D6506}
    .fil11 {fill:#306604}
    .fil20 {fill:#316502}
    .fil34 {fill:#32640A}
    .fil76 {fill:#326A02}
    .fil79 {fill:#335A06}
    .fil73 {fill:#365917}
    .fil93 {fill:#386616}
    .fil31 {fill:#396909}
    .fil67 {fill:#3C7402}
    .fil3 {fill:#3C7C03}
    .fil36 {fill:#3D7A0A}
    .fil167 {fill:#421D0A}
    .fil22 {fill:#436E03}
    .fil27 {fill:#437202}
    .fil24 {fill:#446C0A}
    .fil159 {fill:#46536B}
    .fil77 {fill:#477715}
    .fil43 {fill:#497707}
    .fil62 {fill:#498403}
    .fil41 {fill:#4B4504}
    .fil123 {fill:#4D6F2D}
    .fil60 {fill:#4D9210}
    .fil105 {fill:#4E532C}
    .fil75 {fill:#4F510B}
    .fil57 {fill:#52A708}
    .fil35 {fill:#534303}
    .fil1 {fill:#537F03}
    .fil32 {fill:#54420B}
    .fil28 {fill:#547D0A}
    .fil169 {fill:#552B0A}
    .fil18 {fill:#554201}
    .fil0 {fill:#554205}
    .fil110 {fill:#564615}
    .fil49 {fill:#567A16}
    .fil97 {fill:#56A42B}
    .fil130 {fill:#57680B}
    .fil94 {fill:#583D08}
    .fil78 {fill:#587048}
    .fil47 {fill:#588515}
    .fil38 {fill:#588606}
    .fil52 {fill:#594806}
    .fil42 {fill:#599603}
    .fil166 {fill:#5E7DA9}
    .fil138 {fill:#5E7DA9}
    .fil59 {fill:#634B02}
    .fil92 {fill:#678A16}
    .fil14 {fill:#678C05}
    .fil53 {fill:#679503}
    .fil54 {fill:#68A806}
    .fil87 {fill:#6A5503}
    .fil172 {fill:#6A8A39}
    .fil58 {fill:#6AA916}
    .fil29 {fill:#6BB809}
    .fil70 {fill:#6C8E2D}
    .fil30 {fill:#6CB502}
    .fil174 {fill:#6D4515}
    .fil10 {fill:#6EB901}
    .fil106 {fill:#70712E}
    .fil84 {fill:#70B216}
    .fil74 {fill:#71730D}
    .fil125 {fill:#718E4F}
    .fil19 {fill:#72BA04}
    .fil127 {fill:#74A750}
    .fil107 {fill:#74AD2C}
    .fil171 {fill:#755856}
    .fil80 {fill:#755B06}
    .fil39 {fill:#75AA06}
    .fil82 {fill:#75B709}
    .fil16 {fill:#76B816}
    .fil101 {fill:#77C205}
    .fil115 {fill:#788F68}
    .fil72 {fill:#78B926}
    .fil9 {fill:#856C0B}
    .fil116 {fill:#866918}
    .fil173 {fill:#86B34E}
    .fil119 {fill:#877950}
    .fil89 {fill:#88B32E}
    .fil71 {fill:#89CB17}
    .fil85 {fill:#89D418}
    .fil7 {fill:#8A6D06}
    .fil21 {fill:#8A6E01}
    .fil102 {fill:#8A9030}
    .fil134 {fill:#8AB1E5}
    .fil68 {fill:#8AC826}
    .fil37 {fill:#8AD601}
    .fil2 {fill:#8BD506}
    .fil33 {fill:#8C6B05}
    .fil124 {fill:#8C936D}
    .fil40 {fill:#8CD313}
    .fil15 {fill:#8CD40B}
    .fil5 {fill:#8CD603}
    .fil108 {fill:#8DB250}
    .fil111 {fill:#8F9317}
    .fil91 {fill:#90AD6E}
    .fil103 {fill:#926B06}
    .fil46 {fill:#93D517}
    .fil178 {fill:#95A12A}
    .fil81 {fill:#95C96B}
    .fil83 {fill:#95CB27}
    .fil95 {fill:#97C94B}
    .fil156 {fill:#A49C99}
    .fil66 {fill:#A6D735}
    .fil86 {fill:#A7D550}
    .fil120 {fill:#A99C5E}
    .fil129 {fill:#ABB590}
    .fil45 {fill:#ABEB0A}
    .fil13 {fill:#ADED04}
    .fil128 {fill:#AEB072}
    .fil117 {fill:#AED270}
    .fil104 {fill:#B1E751}
    .fil64 {fill:#B3CF90}
    .fil100 {fill:#B7E58F}
    .fil65 {fill:#B7E86F}
    .fil96 {fill:#B8CEA9}
    .fil176 {fill:#C59B54}
    .fil132 {fill:#C7B170}
    .fil113 {fill:#C7D9B8}
    .fil121 {fill:#CAD095}
    .fil48 {fill:#CAF373}
    .fil126 {fill:#CCE163}
    .fil109 {fill:#CDE9AC}
    .fil51 {fill:#CDF191}
    .fil155 {fill:#D6E1F2}
    .fil122 {fill:#D7F7A8}
    .fil112 {fill:#D8ECD2}
    .fil114 {fill:#DAF8B9}
    .fil88 {fill:#DBF6C7}
    .fil175 {fill:#E0DCD9}
    .fil118 {fill:#E6FCB9}
    .fil90 {fill:#E7FAC8}
    .fil63 {fill:#E8F8D7}
    .fil164 {fill:#E9D0A2}
    .fil165 {fill:#E9D0A2}
    .fil44 {fill:#EAF4E5}
    .fil99 {fill:#ECFDDC}
    .fil152 {fill:#EFE0D5}
    .fil131 {fill:#EFF0B2}
    .fil150 {fill:#F1E1D7}
    .fil140 {fill:#F3E3D8}
    .fil170 {fill:#F3F2EB}
    .fil55 {fill:#F3F4EB}
    .fil61 {fill:#F4F4F9}
    .fil135 {fill:#F7C84E}
    .fil144 {fill:#F9BDBB}
    .fil168 {fill:#FEFEFE}
    .fil133 {fill:#055459}
   ]]>
  </style>
 </defs>
 <g id="圖層_x0020_1">
  <metadata id="CorelCorpID_0Corel-Layer"/>
  <g id="_2173658328368">
   <g>
    <path class="fil0" d="M65 134l2 0c-1,2 -3,4 -3,7l2 1c-1,1 0,0 -1,1 -1,3 -5,7 -7,13 0,2 0,2 0,4 1,2 -1,8 -2,12 -1,2 -2,6 -1,9 0,3 -1,4 -1,7 -2,10 1,9 -2,16l0 2 -3 -10 0 0c-1,1 -1,0 -1,1 0,0 0,2 1,2 1,4 0,9 1,13 1,5 0,9 1,13l0 1 0 1c1,3 2,0 2,4 3,0 3,0 6,0 -1,0 -1,-1 -1,-1l0 -1 0 0 0 -1 1 0c2,0 -1,0 1,0 0,0 1,0 1,0l3 1c-1,-2 -1,-2 -3,-3 -2,0 -1,1 -2,-1 1,-1 0,0 2,-1l3 1c1,0 0,1 1,0 -2,-7 -3,-13 -9,-16 1,-2 2,-4 3,-9 1,-6 -1,-9 0,-9l0 -2c1,0 2,0 2,-2 0,0 -1,0 -1,0 -2,0 -1,0 -2,-1 1,-5 1,-10 3,-14 -2,-1 -1,0 -1,-1 0,-2 1,-1 2,-2 0,-2 0,-1 -1,-2l0 -1c0,-2 2,-7 2,-9 4,-11 3,-5 5,-8l0 -2 0 -3 4 -11c-1,0 -2,0 -4,0 0,0 -1,0 -2,0 -1,1 -1,1 -1,1z"/>
    <path class="fil1" d="M74 129c1,1 0,1 1,1 1,0 2,0 3,1 0,1 0,2 1,3 0,-1 1,0 0,-2l2 1c0,0 0,1 0,1 2,3 1,1 2,3l6 8c0,0 0,0 0,1 0,1 0,1 -1,1 -1,-1 -1,-1 -1,-2 -1,-2 -1,-2 -2,-2 -1,2 -1,1 1,5 1,1 1,3 1,4 -1,3 1,7 2,9 1,6 4,24 1,29 0,1 0,0 0,1l0 1 0 0c2,0 2,0 3,-1l0 -1c0,0 1,0 1,0 0,-1 2,-3 3,-4 1,-1 2,-2 3,-4 0,-1 0,0 1,-1 2,-4 3,-6 5,-10 1,-4 3,-9 3,-13l-1 0 0 -4c-2,0 -3,0 -5,0 -1,0 -1,1 -3,1 -1,-1 -3,-3 -4,-4 -2,-1 -4,-1 -5,-3 -1,-4 -4,-8 -6,-11 -1,-2 -3,-3 -3,-5 -2,0 -2,-1 -4,-2 -1,-1 -2,-2 -3,-3 0,1 0,0 -1,2z"/>
    <path class="fil2" d="M72 44l-1 2c-2,-1 -1,0 -1,-2l-6 1 1 0c1,0 1,-1 1,1 0,2 0,1 -1,2 0,2 1,4 1,6 1,0 1,1 3,2l0 -1c2,0 -1,-1 2,1 2,0 2,0 2,2l0 1c1,0 0,0 1,0 3,0 1,-1 3,-1 0,0 1,1 1,1l1 1c2,1 7,5 8,7l0 0c3,2 2,3 3,4 -1,2 1,1 -1,1l0 0c1,1 1,1 1,2l1 0 1 -2c3,0 3,0 3,-1 0,-1 0,0 -1,-1 -2,-2 0,1 -1,-1 0,0 0,-1 2,0 1,0 0,0 0,0l1 6c0,0 0,0 0,0l-1 0 0 1 1 0c0,2 0,1 -1,1l0 2 1 0 1 -1c3,-1 0,-1 4,-2l0 -2 0 -1c0,0 0,0 0,0 0,-1 1,-2 2,-2 -1,-2 -3,-3 -3,-6 -1,-1 -1,0 -1,-2 1,0 1,0 1,1l1 1c2,0 1,-1 3,0l0 -1c0,-1 1,0 -1,-1 0,0 -1,0 -1,-1 -1,0 -1,0 -3,-1 -2,0 -1,1 -2,-1 -2,-2 1,0 -3,0 -1,0 -1,-1 -2,-2 1,-1 0,0 1,-1l1 0c0,0 0,-1 0,-1l0 -1 -3 1c0,0 -2,0 0,-2l0 -1 0 0c-2,0 -2,-1 -3,-1 -2,0 -1,1 -3,1 0,-1 0,-1 0,-2 -1,-1 0,0 -1,-2l1 0c-1,0 -2,0 -2,0 -3,-2 -5,-1 -6,-3 -1,-1 -1,-1 -3,-1 -2,-1 0,-1 -2,-1z"/>
    <path class="fil3" d="M74 10c-3,1 -5,2 -8,3 -2,1 -3,2 -4,3 -1,0 -3,2 -3,2l0 4 -2 1c-1,0 0,0 -1,0l-1 1c0,0 0,0 0,0 0,0 0,0 -1,0 0,2 0,2 -2,4l0 3c0,-3 -1,0 -2,0 -2,1 0,0 -1,1 1,3 -1,4 1,5 3,0 1,0 2,-1l0 1c3,-1 7,-5 8,-6 1,0 1,0 3,0 1,0 7,-4 11,-4 1,-2 1,-2 4,-2 -1,-3 0,-6 -3,-6l0 -2c1,1 0,0 3,0 1,0 1,0 1,0l1 0c0,0 -2,0 -2,0 -2,0 -1,0 -1,1 0,2 -1,2 4,2 0,2 0,2 2,2 0,1 1,-1 0,0l2 -2c2,-1 6,-1 8,0l1 0c0,0 0,0 0,0 3,-2 2,-1 2,-2 1,-1 0,0 -1,0 -2,0 -3,0 -6,0l0 -2c-3,0 -5,1 -7,1l3 0c1,-2 -1,-3 4,-3l0 -2c-1,-1 -5,-2 -7,-2l-3 0c-1,3 0,2 -2,3l-2 0 -1 -3z"/>
    <path class="fil2" d="M89 78l-3 1c-1,1 0,1 -2,1 0,1 0,1 0,1 1,3 1,-2 1,1 0,0 -1,1 -1,1 -1,1 0,0 -1,1l-2 0c-1,0 0,0 -1,0 0,1 -1,1 -1,1 0,2 -1,2 -2,3l-1 1c0,2 0,1 -1,2l0 0c0,2 0,2 -2,3l0 1 0 3 1 -1c1,-2 -1,0 1,-2 0,2 0,2 0,3 0,0 0,1 0,1 -1,3 -1,1 -2,3 -2,3 1,9 1,9l0 4c1,-1 1,0 1,-3 0,0 0,0 1,1 0,0 0,1 0,1l2 0c2,-2 0,-2 4,-3 1,1 1,1 1,0 -1,0 -1,0 0,-1 0,0 0,0 0,0l1 -1 1 -2c0,-1 0,-1 1,-2 0,0 0,-1 0,-1 1,-1 1,-1 1,-2l1 1 0 -2c0,-1 0,-1 1,-2l0 0c0,-2 0,-1 1,-2 0,-1 1,-3 2,-5 0,-1 0,0 0,-1 0,-1 0,-1 1,-1 0,-2 1,-3 0,-5 0,-3 0,-3 0,-5 -1,0 -1,0 -1,0 -1,1 0,2 -1,1 0,0 0,0 0,0 0,0 -1,1 0,-1 0,-1 3,-2 4,-3 -1,0 -1,0 -1,0 -4,-1 2,0 -1,0 0,0 -1,0 -1,0l-1 0c0,0 1,0 -1,0 -1,1 0,1 -1,1z"/>
    <path class="fil4" d="M32 140c1,-1 1,-1 2,0 0,0 1,0 0,1 0,0 0,0 0,1 -3,1 -2,0 -2,-2zm-17 5l1 -1c0,-2 0,-1 -1,-3 2,0 2,-1 1,-4 -1,1 0,-1 -1,2 -4,2 -5,16 -5,21 1,1 0,1 2,1 1,-2 -1,-1 2,-4l1 -1 2 -1c0,0 -1,0 0,0 0,0 1,-1 1,-1l3 -1c0,-1 0,-1 1,-2 1,0 1,0 2,-1 1,-1 2,-1 3,-2 0,-1 0,0 1,0 1,-2 2,-1 3,-2l1 -1 1 0c1,-1 9,-5 11,-5 2,0 3,-1 5,-2 2,-1 12,-3 16,-4 0,0 0,0 1,-1 1,0 2,0 2,0 2,0 3,0 4,0l0 0 0 -2 -1 0c0,1 -1,1 0,1 -1,-2 -1,-3 0,-5 -3,0 -2,-1 -4,-1 -3,0 -6,0 -8,1 -2,0 -1,1 -2,3 2,0 3,0 3,1 -1,0 -7,-1 -10,0 0,0 0,0 -1,0l0 1c2,2 5,-1 8,1l-1 1c-1,1 -2,1 -3,1 -2,1 -4,0 -5,-1l0 0c0,-1 0,-1 0,-1 -5,0 -12,0 -16,3 -4,3 -1,1 -4,2 -1,3 -1,3 -2,4 -1,1 0,0 -1,1 0,0 0,1 -1,1 -1,1 -1,0 -1,2 -2,2 0,3 -5,3 0,0 -1,-1 -1,-2 0,1 -1,1 -3,1 0,-2 0,-3 1,-3z"/>
    <path class="fil5" d="M78 121c0,0 0,0 -1,1 0,0 0,0 0,0 -1,1 -1,0 -1,2l-1 3c1,1 2,2 3,3 2,1 2,2 4,2l1 0c1,-1 3,-1 4,0 -1,1 0,-1 -1,0l-1 1c-1,1 0,2 0,3 4,4 1,2 4,4 0,0 0,0 0,0 0,0 0,-2 1,-2l5 1c0,1 1,1 2,1 1,0 1,0 1,-1 0,-1 0,-1 0,-2 -2,-2 -2,3 -2,-2 0,0 0,-1 2,0 1,-3 -1,-1 2,-2 0,5 -2,4 -2,4 1,2 0,1 1,2 -1,1 -2,2 0,5l3 2c-1,-3 -3,-3 0,-7 0,0 -1,0 -1,0 0,0 -1,-1 -1,-2l2 -1 0 -2c0,-1 0,-1 -1,-1l-1 -2c-3,1 2,-1 -1,1 -1,0 0,0 -2,0l0 -1c0,0 0,0 1,0l0 -1c0,0 0,-2 1,-3 1,0 1,0 1,1l1 0c0,0 0,0 0,0 0,1 1,2 1,3 0,1 0,1 1,2 1,1 2,4 3,6 0,4 0,5 0,8l0 2c0,2 0,2 0,4l3 -1 1 3 0 -2 -1 -9 0 -2c0,0 0,-1 0,-1l0 -1c-2,-6 -5,-12 -9,-17l-1 0c-4,-1 -1,1 -4,0 -2,-1 -1,-1 -2,-1 -2,0 -8,-2 -10,-1 -3,1 2,-1 -1,1l-1 1c0,0 0,-1 0,-1 -2,-3 0,-2 -3,-1z"/>
    <path class="fil3" d="M44 64c2,1 1,1 2,3 0,2 1,1 0,3 1,1 1,0 1,1 1,1 0,0 1,1l1 0 0 2 0 1c3,0 1,1 2,2 1,1 0,0 1,1 0,0 0,0 1,0 0,-2 0,-1 0,-2 1,1 1,2 1,4l1 -2c1,-1 0,0 0,0 6,0 8,1 9,-4 2,-1 0,0 2,0 0,0 0,-5 1,-6l2 0c-1,-2 -1,-2 -1,-3 -1,-1 -1,-2 -1,-3 -1,-1 -1,-1 -1,-2l-2 -1 -3 0c-1,-1 -3,-2 -4,-2 -4,-2 -5,-2 -8,-1 -6,0 -5,2 -5,8z"/>
    <path class="fil6" d="M56 39c3,-1 1,-1 3,0 -1,1 0,1 -1,1 -1,1 2,-1 -1,0 -1,0 0,0 0,3 -3,0 -1,0 -3,0 0,-1 0,-2 0,-3l2 -1zm-4 -2c-1,1 -3,0 -4,0 -1,-2 0,-2 0,-4l0 0c-1,1 -1,1 -1,2 -1,2 -3,5 -3,8 -4,-1 -4,0 -5,-4l-2 0 0 -2c0,0 0,0 -1,0 -1,0 0,0 -1,-1 0,-1 -1,-1 -2,-2 0,0 -1,-1 -2,-1l-1 0c0,0 0,0 1,0l1 3c1,1 0,0 1,1 1,1 1,1 1,2 1,0 1,-2 1,1l-2 0c0,0 0,0 0,0 -1,0 -1,2 -1,2l3 2c0,1 0,-1 0,1 1,3 -5,2 -7,2 0,1 0,1 0,2 1,0 0,-1 0,0 0,0 1,1 1,1 3,1 0,1 4,1l0 2c1,1 0,0 1,1 1,-1 4,-1 6,-1l1 0c2,0 2,0 5,0 0,-1 0,-1 1,-1 0,-1 0,-1 0,-1 1,-1 0,0 1,-1l1 0 0 -2 4 -2c2,-1 1,-1 3,-2l1 1c0,-1 0,0 1,-1 0,0 0,0 0,-1 1,0 1,0 2,-1 0,-1 0,-1 1,-1 1,-2 2,-3 2,-5l0 -3c1,1 0,2 2,1 2,-2 5,-4 7,-5 1,-1 1,-1 3,-2l-1 0c-4,0 -10,4 -11,4 -2,0 -2,0 -3,0 -1,1 -5,5 -8,6z"/>
    <path class="fil7" d="M61 172c-2,4 -2,9 -3,14l5 0c0,3 -1,4 -4,5 -1,0 1,3 0,9 -1,5 -2,7 -3,9 6,3 7,9 9,16 -1,1 0,0 -1,0l0 0c1,0 1,0 2,0l0 2 2 0 0 -5c-1,-2 -1,-9 -1,-12 0,-2 0,-4 0,-6 -1,-4 1,0 1,-4l-1 0 0 -1c0,-5 -2,-14 -1,-19 -1,-1 0,-3 0,-6 -1,-5 2,-7 -1,-8 0,-4 0,-1 -2,-2 -2,5 1,1 1,5 -1,2 -2,2 -2,2 -1,0 -1,0 -1,-1 0,1 0,-1 0,2z"/>
    <path class="fil8" d="M31 125c0,1 0,0 1,1l0 0c-1,2 -5,2 -8,2 1,3 1,2 1,5 2,0 2,0 3,0 0,1 0,1 0,1l-1 1c0,1 -1,1 -1,3l-3 0c0,-2 -1,-2 -3,-2l-3 7c0,0 -1,0 -1,1l0 0 -1 1 0 2c4,-1 3,-2 6,-3 3,0 4,-7 13,-11 2,-1 5,-2 7,-2 5,0 4,0 8,-1 3,-1 4,0 6,-2 2,-2 3,-2 6,-3 -1,-2 0,-1 -2,-1 -2,-1 -3,1 -3,1 -2,3 -2,2 -3,0l-8 -1c0,0 0,0 -1,0 -3,0 -2,0 -3,-1 1,1 1,-1 7,-1 5,0 4,1 6,-1 3,0 11,0 13,0 0,0 1,1 1,1 1,2 2,0 3,2l-2 0c0,0 0,0 1,0 0,1 0,1 1,1 1,0 1,0 1,0 0,-3 -1,-3 -3,-4 -4,-3 -13,-2 -18,-1 -3,0 -7,1 -10,2 -2,1 -4,0 -6,1 -1,0 -3,1 -4,2z"/>
    <path class="fil6" d="M66 74c-1,5 -3,4 -6,5 -3,1 -4,2 -5,4l1 2c0,3 2,9 3,10l2 0c1,2 2,4 3,6 0,-2 1,-4 1,-5 1,0 1,0 1,1 1,2 1,3 1,4 0,0 0,-1 0,0 0,0 0,-1 0,-1l1 0c0,0 0,0 0,0 2,-2 3,-8 4,-10 1,-3 2,-10 -2,-12 1,-3 1,-2 0,-5 0,-2 -1,-4 -1,-5l-2 0c-1,1 -1,6 -1,6z"/>
    <path class="fil9" d="M40 145l0 2 -1 4c1,3 0,0 1,2 0,0 0,-1 0,1l0 5 -1 1c1,1 0,0 1,2 0,4 0,1 0,4 1,2 -1,2 0,8 1,1 0,2 0,3 0,2 0,3 0,5l0 2c-2,5 -1,5 -1,7 0,3 0,0 0,1l-2 0c-1,-1 0,-1 0,-3 0,-2 -1,-7 -1,-10 0,-2 -2,-8 -1,-11 0,-2 -1,0 0,-1l0 3c1,-1 1,-2 2,-3 1,0 0,0 1,0 1,-1 1,1 1,-2l-7 1c0,2 0,4 0,6 1,2 2,3 2,5 1,3 2,7 2,11 0,2 0,5 1,6l1 0 2 1 0 2 -4 2 0 0c1,3 0,9 3,11 0,-3 0,-2 -1,-4 -1,-1 -1,-5 -1,-6 1,-3 2,-1 3,0 1,-2 1,-3 1,-5l4 0 1 3c0,0 0,-2 0,-2 0,-1 1,0 1,0l1 3c-1,0 0,0 1,0 -1,0 -1,-2 -1,-2 0,-1 0,0 1,-1 -1,-3 -1,-1 -1,-4 0,-1 -1,-2 -1,-3 -1,-3 -1,-6 -2,-8 0,0 -2,-16 -2,-17 1,-2 1,-1 1,-4l-1 -12 0 -5c-2,1 -2,1 -3,2z"/>
    <path class="fil10" d="M30 19c1,0 1,0 1,2 -1,0 -1,0 -2,-1 0,-2 1,-1 1,-1zm-10 -7c1,1 0,0 1,1 1,1 1,0 2,2 0,0 0,0 1,1 1,0 0,0 1,1 1,1 1,1 1,2 1,1 3,3 3,4 1,1 1,1 2,2l1 2c0,0 1,0 1,0 0,-1 0,-1 1,-2 1,0 6,2 9,0 2,-1 3,-5 2,-7 0,-2 1,-1 -1,-1 1,-1 1,0 2,-1l0 -1 0 -1 -2 -2 -3 -1c1,3 1,2 2,4 -3,0 -3,0 -3,-2 0,0 0,0 -1,-1 0,1 0,0 -1,1 -1,-1 -1,-2 -2,-3l-2 0c0,0 0,1 0,1 0,5 1,4 -1,5 -2,-1 -1,-3 -1,-6l-3 0 1 0c2,-2 1,0 1,-1l-2 1c-1,0 -1,0 -1,0 1,-2 0,-1 1,-2l-1 -1c1,0 0,0 0,0 1,-4 1,-3 1,-4 -2,-1 -1,0 -2,0l0 7 -3 0c-4,1 -1,-1 -4,2z"/>
    <path class="fil3" d="M8 32c2,1 1,0 2,1 1,2 2,4 4,6 2,2 3,3 5,4 2,1 2,2 4,2 4,0 7,3 12,1l0 -2 -3 -2 -2 -1c-1,0 -1,1 -1,-1 -1,-3 4,-2 4,-2l-1 -2 -1 -3c-1,0 -1,0 -1,0l1 0c0,0 0,0 -1,-1 0,0 0,0 -1,0 0,0 -1,-1 -1,-1l-6 0c-1,0 -1,1 -1,-1 -1,-1 -1,-1 -3,-1 0,0 -2,1 -3,1 -3,0 -5,1 -7,2z"/>
    <path class="fil8" d="M35 101c-1,1 -2,1 -4,2l-1 0 -3 0c2,1 0,0 2,1 -1,1 1,1 -1,1 -2,0 -3,1 -4,2l0 0 1 0c0,0 0,1 0,1l0 1c0,0 0,1 0,1 2,0 2,0 4,-2l3 -1 0 4 7 0c0,3 0,3 1,5l-8 0 -1 0 0 1 9 0 3 0 0 1 9 -2c5,-1 8,0 12,0 2,-3 3,-2 0,-8 0,-1 -1,-2 -3,-2 1,2 0,0 1,2 1,2 -2,-2 1,0 0,1 0,0 1,2 0,0 0,0 0,0l0 1c1,2 -1,3 -3,2 0,0 0,0 0,0l0 1c-1,0 -1,1 -1,0 0,0 0,1 0,1l-7 0c0,-3 1,-2 4,-2 3,0 4,0 4,-2 -5,0 -10,1 -15,0l0 -1 -7 0c0,-9 0,-5 2,-9 2,1 4,1 7,0l-3 0c-1,0 -2,0 -3,0l-7 0z"/>
    <path class="fil0" d="M28 148l1 -1 0 2c-1,5 -4,12 -1,18l0 0 2 0c0,0 -1,0 -1,0 0,1 -2,13 0,13 0,0 1,0 1,0 1,1 0,0 1,1 0,2 0,1 -1,3 0,3 -1,7 -1,11 1,3 2,2 2,4 0,1 0,5 0,6 1,0 1,0 1,-1 0,0 0,-1 0,-2l3 1c-2,-9 -1,-5 -3,-7 0,-3 1,-4 0,-8 -1,-2 0,-4 0,-6 0,2 1,3 1,7 0,0 -1,4 0,5 0,2 -1,1 1,2 4,-1 -1,-6 2,-8 0,-4 -1,-8 -2,-11 0,-2 -1,-3 -2,-5 0,-2 0,-4 0,-6l0 -2c1,-2 -1,0 2,-1 0,0 1,0 1,-1 1,0 0,0 1,-1 -1,0 -1,-1 -1,-1 0,0 -1,0 -1,0l-1 -1 -1 0c-1,-4 -1,-10 0,-14l-1 1c-1,1 -2,0 -3,2z"/>
    <path class="fil11" d="M94 105c2,0 2,0 3,1 2,0 2,0 3,-1 2,2 0,2 3,2 1,2 0,2 -1,3l2 1c-3,1 1,-1 -1,1 -4,0 -2,-1 -5,-1 -4,0 -2,0 -2,1 0,2 -1,1 1,1 0,0 2,0 2,0 0,0 0,0 -1,1l2 1c8,-3 14,-4 23,-3l2 0 0 -1c0,0 -3,-3 -3,-3 -1,-1 -3,-2 -4,-3 -1,0 -1,0 -1,-1 -1,0 -1,0 -1,0 0,0 0,0 0,0 -7,-3 -13,-3 -20,-1 0,0 -1,1 -1,1 -1,0 0,0 -1,1z"/>
    <path class="fil7" d="M38 206c1,2 1,1 1,4 1,3 3,4 4,8 1,3 2,7 2,10l0 0 2 -4c0,0 0,0 0,0l1 -3 1 0 1 2c-1,1 0,0 -1,1l-1 4c0,0 0,0 0,0l1 -1c1,-2 0,-1 2,-2 -1,-4 0,-8 -1,-13 -1,-4 0,-9 -1,-13 -1,0 -2,0 -1,0l-1 -3 0 5c0,0 0,0 0,0 0,0 0,0 0,0l-1 1c0,0 0,0 0,0 0,0 0,0 0,0l-7 0 0 4c-1,-1 0,1 -1,0 0,0 0,0 0,0z"/>
    <path class="fil12" d="M61 106c2,0 3,1 3,2 3,6 2,5 0,8 -4,0 -7,-1 -12,0l-9 2 -1 0 -2 1c-1,0 -3,1 -4,1 -1,1 -3,1 -4,2 -1,1 -1,1 -3,2 0,1 1,1 -1,1 1,0 2,0 3,0 1,-1 3,-2 4,-2 2,-1 4,0 6,-1 3,-1 7,-2 10,-2 5,-1 14,-2 18,1 2,1 3,1 3,4 0,0 0,0 -1,0 0,0 0,0 0,0l3 1c-1,-2 0,-2 -1,-4 0,0 0,0 0,0l-2 -3 0 -2c0,-1 -1,-8 -1,-9 -2,0 -1,0 -2,0l-2 -2c-1,0 -1,0 -2,-1l-2 0 -2 0c1,1 1,0 1,1l0 0z"/>
    <path class="fil9" d="M64 160c0,-5 1,-4 2,-5 2,5 0,5 0,5l-2 0zm8 -27l0 0 -4 11c1,1 -1,2 2,1 -1,0 1,-2 1,-3 1,-3 0,-1 2,-2 0,1 1,2 0,4 -1,3 0,-1 -3,6 -1,4 1,3 -1,4 0,-6 0,-3 0,-6 -1,-1 0,-1 -1,-1l0 2c-2,3 -1,-3 -5,8 0,2 -2,7 -2,9l0 1c1,1 1,0 1,2 -1,1 -2,0 -2,2 0,1 -1,0 1,1 0,-3 0,-1 0,-2 0,1 0,1 1,1 0,0 1,0 2,-2 0,-4 -3,0 -1,-5 2,1 2,-2 2,2 3,1 0,3 1,8 0,3 -1,5 0,6 1,0 1,0 1,-4 0,-2 0,-3 0,-4 0,-4 1,-7 1,-10 1,-1 1,0 1,-2 2,-4 2,-15 7,-16 0,-4 1,-4 2,-8 -2,-1 0,0 -1,-2l-2 -2c-1,-1 0,0 -1,-1l-2 2z"/>
    <path class="fil13" d="M109 144l0 -3c0,-1 0,0 -1,-1 0,-1 0,-1 0,-2 2,1 3,1 4,2 3,1 5,3 6,3l2 1c0,-3 0,-7 -1,-9 -2,0 -2,0 -2,-2 0,0 0,-2 0,-3 -1,1 -1,2 -3,1 1,0 1,-1 2,-3 -8,3 -4,2 -6,6 -1,-2 -1,-3 -1,-5l3 0 0 -2 3 1 0 -2c-1,0 -1,0 -1,-1l-1 -1 -2 0c-1,0 -1,1 -3,1 -2,-1 -1,-1 -3,-1 -3,-2 -3,-1 -5,-1 4,5 7,11 9,17l0 1c0,0 0,1 0,1l0 2z"/>
    <path class="fil14" d="M126 144c2,1 2,2 0,3 -1,-1 -1,-1 0,-3zm-11 -18c2,3 3,5 4,9 1,2 1,6 1,9l0 1 0 1c1,0 0,-1 1,0 0,0 1,1 1,1 1,1 0,0 1,2l1 1c1,1 1,1 1,2 1,1 2,1 2,3 1,0 1,0 1,1 0,0 1,0 1,0 1,2 0,1 1,2 2,1 0,0 1,1 2,0 0,0 1,0l-1 -3c0,-4 -1,-8 -2,-12 -1,-2 -1,-3 -2,-5 -1,-1 -2,-3 -2,-4 -2,-1 -1,-1 -2,-3 -1,0 -1,-1 -1,-1 -1,-1 -1,0 -2,-1l0 -1c-1,0 -1,-1 -3,-2 -1,-1 -2,-1 -3,-2 0,1 0,1 1,1z"/>
    <path class="fil15" d="M99 80c4,-4 1,-2 3,-4 2,1 2,1 2,2 0,1 0,2 0,3 -1,-2 -2,0 -3,1 0,1 0,1 -1,1l-1 -3zm6 -9c1,0 2,3 3,6 1,3 1,7 0,9 -1,-2 0,-3 0,-4 -1,-1 -1,-2 -1,-3 -2,-1 -3,-3 -4,-5l-1 0c-1,0 0,1 -1,0l0 2c-4,1 -1,1 -4,2l-1 1c2,0 2,1 3,3 0,1 -1,0 0,1 1,1 0,0 1,2 1,0 0,0 1,1 1,2 0,1 1,2 1,1 1,0 1,2l2 4 1 1c1,1 0,2 0,3l2 0c1,-1 1,-2 2,-3 1,-5 1,-9 0,-14 0,-4 -1,-7 -2,-10 -1,-1 0,1 -1,-1 -1,-1 0,-1 0,-2 0,-2 0,0 -1,-1 0,0 -1,0 -2,-1 0,0 0,0 0,0l1 5z"/>
    <path class="fil10" d="M24 67l0 3c-2,0 -2,0 -3,-1l-1 2 0 -3c-1,1 -1,1 -1,2 -1,1 -1,1 -1,2 1,2 -1,4 -2,7 -1,3 0,5 0,8l1 -1c1,0 3,-1 2,-3 0,-2 0,-1 0,-1 2,-1 2,0 3,0 0,-4 1,0 1,-5l-1 2c-1,0 0,0 0,0l0 -4c3,-1 1,0 3,-3l0 2c2,-1 1,0 3,0l0 1c0,1 0,1 0,1 3,-1 0,-2 3,-1l0 0c0,0 0,0 1,-1l0 -2c1,0 1,-1 2,-1 1,-1 0,0 1,-1l-1 0c1,-5 0,-1 -1,-3 0,2 -1,2 -1,3 0,-2 0,-1 1,-3 -1,0 -1,1 -1,0 -1,-2 1,-1 -1,-2 -3,-1 -1,1 -3,-1 0,0 0,-1 0,-1 0,0 0,0 0,0 -2,1 -1,1 -2,2l-2 2z"/>
    <path class="fil16" d="M74 230l-1 1c-1,-1 -1,1 -1,-1 0,0 -1,-2 0,1 -2,0 -1,0 -2,-1l0 0c0,1 0,2 -2,2l0 0 2 1c-2,0 -1,-1 -3,0 -1,0 -1,0 -3,1l-1 0c0,1 -5,1 -6,0 -4,-1 -2,-1 -6,0 0,1 -1,0 -3,0 1,3 1,1 1,1 -1,0 -1,1 -3,0 -2,0 -1,0 -4,1l-1 -2c-1,0 -3,1 -4,0 0,0 -2,-1 -2,-1l-2 -1 -1 0 -4 0c0,0 -1,0 -2,0l-1 1 2 0c2,3 3,1 7,2 2,1 2,3 7,2 2,0 16,-1 18,0l7 0c1,-2 0,-1 4,-2 6,0 10,-1 16,-1l1 -1 -1 0c-1,0 -1,0 -1,-1 -4,-1 -6,0 -10,-1 0,0 0,0 1,-1l-2 -1 1 0 -1 1z"/>
    <path class="fil17" d="M61 125c-3,1 -4,1 -6,3 -2,2 -3,1 -6,2 -4,1 -3,1 -8,1 -2,0 -5,1 -7,2 -9,4 -10,11 -13,11 -3,1 -2,2 -6,3l0 -2c-1,0 -1,1 -1,3 2,0 3,0 3,-1 0,1 1,2 1,2 5,0 3,-1 5,-3 0,-2 0,-1 1,-2 1,0 1,-1 1,-1 1,-1 0,0 1,-1 1,-1 1,-1 2,-4 3,-1 0,1 4,-2 4,-3 11,-3 16,-3 0,0 0,0 0,1l0 0c1,1 3,2 5,1 1,0 2,0 3,-1l1 -1c-3,-2 -6,1 -8,-1l0 -1c1,0 1,0 1,0 3,-1 9,0 10,0 0,-1 -1,-1 -3,-1 1,-2 0,-3 2,-3 2,-1 5,-1 8,-1 2,0 1,1 4,1 -1,2 -1,3 0,5 -1,0 0,0 0,-1l1 0 1 0 0 -1c1,-1 -1,0 1,-1 0,-2 0,-2 0,-3l-3 -1c0,0 0,0 0,0 -1,0 -1,0 -1,-1 -1,0 -1,0 -1,0 -3,0 -5,0 -8,1z"/>
    <path class="fil18" d="M31 205l0 5c0,2 0,6 1,8l0 -1c4,2 1,1 4,2 0,-1 0,-1 0,-1 0,-1 0,-1 0,-1l3 -1 1 -2c0,1 0,0 1,3 1,3 0,-1 2,4l1 3c-1,1 0,1 -1,1 0,1 0,0 1,1l-1 1c1,0 1,0 1,0 0,1 1,1 1,1 0,-3 -1,-7 -2,-10 -1,-4 -3,-5 -4,-8 -3,-2 -2,-8 -3,-11 0,-3 1,-3 0,-4 2,0 0,0 1,-1 -1,-1 -1,-4 -1,-6 -3,2 2,7 -2,8 -2,-1 -1,0 -1,-2 -1,-1 0,-5 0,-5 0,-4 -1,-5 -1,-7 0,2 -1,4 0,6 1,4 0,5 0,8 2,2 1,-2 3,7l-3 -1c0,1 0,2 0,2 0,1 0,1 -1,1z"/>
    <path class="fil19" d="M14 0l0 2c2,0 0,-1 0,1l0 0c2,2 -1,-2 1,0 0,1 0,0 0,1 0,1 0,0 1,1 1,2 0,1 0,2l2 4 2 1c3,-3 0,-1 4,-2l3 0 0 -7c1,0 0,-1 2,0 0,1 0,0 -1,4 0,0 1,0 0,0l1 1c-1,1 0,0 -1,2 0,0 0,0 1,0l2 -1c0,1 1,-1 -1,1l-1 0 3 0c0,3 -1,5 1,6 2,-1 1,0 1,-5 0,0 0,-1 0,-1l2 0 0 -1c-1,-1 -3,-1 -4,-1l-3 -1 1 -4c-2,-3 -2,-1 -4,-3l-11 0 -1 0z"/>
    <path class="fil20" d="M86 109c0,2 0,3 -1,5 -2,2 -2,0 -3,2l3 0c0,0 0,0 1,-1 1,-1 -2,1 1,0 2,-1 1,-2 2,-4 0,1 1,2 0,3 -1,2 -1,-1 -2,2 2,1 2,1 3,1 0,1 0,0 0,1l2 0 8 -3 -2 -1c1,-1 1,-1 1,-1 0,0 -2,0 -2,0 -2,0 -1,1 -1,-1 0,-1 -2,-1 2,-1 3,0 1,1 5,1 2,-2 -2,0 1,-1l-2 -1c1,-1 2,-1 1,-3 -3,0 -1,0 -3,-2 -1,1 -1,1 -3,1 -1,-1 -1,-1 -3,-1l0 -1 2 0c0,1 -1,1 -1,1l-1 0c0,0 0,0 0,1 -1,1 -1,0 -1,2 2,-1 2,-1 3,-1 0,3 -1,0 -1,3l0 0c-3,1 -1,2 -3,2 -1,-3 0,-1 -1,-2l1 -2c0,-1 0,-1 0,-1 -1,0 0,0 -1,1l-3 1c-2,0 -1,0 -2,0z"/>
    <path class="fil21" d="M32 164l0 2 7 -1c0,3 0,1 -1,2 -1,0 0,0 -1,0 -1,1 -1,2 -2,3l0 -3c-1,1 0,-1 0,1 -1,3 1,9 1,11 0,3 1,8 1,10 0,2 -1,2 0,3l2 0c0,-1 0,2 0,-1 0,-2 -1,-2 1,-7l0 -2c0,-2 0,-3 0,-5 0,-1 1,-2 0,-3 -1,-6 1,-6 0,-8 0,-3 0,0 0,-4 -1,-2 0,-1 -1,-2 -1,0 0,-1 -1,0 0,0 0,0 0,0 -1,0 -1,0 -1,0l2 3c-1,1 -5,1 -7,1z"/>
    <path class="fil0" d="M38 69l0 1c-1,5 -5,9 -6,15 -1,3 0,2 0,4 0,2 -1,6 -1,9 -1,5 0,4 -2,4l1 1 1 0 0 -3c2,0 1,1 4,-2 -1,-1 -1,-1 -3,-2 3,-1 0,-1 2,-5l0 -3c0,-2 1,-1 2,-3 0,0 -1,1 0,-1l0 -2 0 -2c1,0 1,0 2,1 1,-2 1,-5 2,-8 1,-2 3,-4 3,-8 -2,0 0,0 -2,0 -1,1 -3,2 -3,4z"/>
    <path class="fil22" d="M39 27c-3,-1 -6,-2 -6,2 0,0 -1,0 1,0l0 -1 1 -1c2,1 1,1 4,1l0 3c-1,-2 0,-1 -3,-2 0,1 0,2 0,3l1 4 -2 0c1,1 0,1 1,1 1,0 1,0 1,0l2 0 0 2c2,0 1,-1 3,-1 0,2 1,3 0,3 3,-1 1,-3 3,-6l2 0c0,-1 0,-1 1,-2 0,-1 0,-1 0,-1 0,-1 -2,-1 0,-4 -3,-1 0,0 -2,-3 0,1 -3,3 -7,2z"/>
    <path class="fil23" d="M23 108c0,2 -1,4 -2,5 -1,-1 0,-2 0,-4l0 0c-2,1 -3,2 -4,4 -1,1 0,0 -1,1 -1,-2 0,-1 0,-2 0,0 1,-1 1,-2l0 0 0 0c-1,2 -2,3 -4,5 0,1 -1,4 -3,5l1 2 0 2 1 0c0,0 1,-1 1,-1 0,0 1,0 1,-1 1,0 0,0 0,0 1,0 1,0 1,-1 0,-1 0,-1 1,-2l-1 -1c0,-1 0,0 0,-1 2,0 0,1 2,2l2 0 4 0 4 -1c0,-1 -1,0 1,-1 0,0 0,0 1,0 1,0 1,0 2,0l0 -1 1 0 0 -2c-4,0 -1,0 -2,1 -3,0 -1,0 -3,1l-1 1c0,0 -1,0 -1,0l-1 -2c-1,0 -1,0 -2,-1 2,-2 1,-3 2,-5 0,1 1,1 1,1 0,0 0,-1 0,-1l0 -1c0,0 0,-1 0,-1l-1 0c0,0 0,0 0,0l-1 1z"/>
    <path class="fil24" d="M10 103l1 0 1 -1c0,-2 0,-1 0,-1 0,-2 1,-4 2,-5l1 -2c0,-1 1,-2 2,-3 -2,-1 -1,-1 -2,0 0,1 -2,3 -3,3 0,0 -1,-1 -1,-2 -1,-1 -1,-1 0,-2 1,-1 0,0 2,0l1 -2c-1,-1 0,-3 -1,-7 0,0 0,0 0,-1l1 0c1,-1 -1,-1 1,-3 1,-1 1,-4 3,-5 0,-1 0,-1 1,-2 0,-1 0,-1 1,-2l0 -1 0 0c-2,1 -7,6 -6,10 -2,1 -2,1 -3,5 -2,7 -3,14 -2,21l1 0z"/>
    <path class="fil1" d="M61 45l-1 3c-3,0 -2,0 -5,1 -3,2 0,0 -2,2 0,0 0,1 0,1 -1,1 0,-1 0,1 -3,0 -2,0 -4,1l0 0c2,0 4,0 5,0 1,0 2,0 3,1 1,0 0,-1 1,0l1 0c1,-1 1,0 3,1l0 1c0,0 0,0 0,0 2,0 3,0 5,0 2,1 2,1 3,1 0,-1 0,-1 -1,-2 -2,-1 -2,-2 -3,-2l-2 -1c0,-3 -1,-2 -1,-4l2 -4 -1 0 -3 0z"/>
    <path class="fil7" d="M38 81l0 3c1,0 1,0 2,1 0,-2 0,-3 1,-4 1,5 0,6 0,11l2 -3 0 -1 1 -2c0,-4 1,-7 1,-12 2,-1 1,-1 3,-2 -1,-1 0,0 -1,-1 0,-1 0,0 -1,-1 -1,0 -2,-3 -2,-5l-1 0c0,4 -2,6 -3,8 -1,3 -1,6 -2,8z"/>
    <path class="fil15" d="M89 140c-1,1 -1,1 0,0 5,-1 5,1 7,4 -1,-1 0,-1 1,-1l0 1c0,0 0,0 0,0 1,1 1,0 1,1l1 1c0,1 -1,2 -2,1 -1,-1 0,-1 -2,-2 0,0 0,0 0,0l0 1c0,1 1,1 1,1 0,1 0,-1 0,2 -2,0 -1,0 -3,0l1 0c0,0 0,0 0,0 3,2 3,0 2,2 1,1 3,3 4,4 2,0 2,-1 3,-1 1,-1 0,0 1,-1 1,0 1,0 2,0 0,-2 0,-2 0,-4l-1 1 -1 0 0 2c-2,1 -2,2 -4,1 -1,-2 -1,-2 0,-4 0,-1 1,-1 3,-2l1 -3 0 -1c0,0 0,0 -1,1 0,0 0,0 -1,0 -1,-1 -1,-2 0,-3l1 -1c1,-3 0,-4 -1,-6l0 0 0 2 -2 1c0,1 1,2 1,2 0,0 1,0 1,0 -3,4 -1,4 0,7l-3 -2c-2,-3 -1,-4 0,-5 -1,-1 0,0 -1,-2 0,0 2,1 2,-4 -3,1 -1,-1 -2,2 -2,-1 -2,0 -2,0 0,5 0,0 2,2 0,1 0,1 0,2 0,1 0,1 -1,1 -1,0 -2,0 -2,-1l-5 -1c-1,0 -1,2 -1,2 0,0 0,0 0,0z"/>
    <path class="fil8" d="M46 110l7 0c0,-1 0,-2 3,-1 2,1 3,1 5,1 0,-4 1,-2 -2,-3 -1,0 -2,-1 -3,-1 1,-1 3,0 4,-1l2 0 0 -1 -7 -2 -7 -1c1,1 -1,1 1,1 -1,1 -1,1 -3,1l0 7z"/>
    <path class="fil25" d="M25 110c0,0 -1,0 -1,-1 -1,2 0,3 -2,5 1,1 1,1 2,1l1 2c0,0 1,0 1,0l1 -1c2,-1 0,-1 3,-1 1,-1 -2,-1 2,-1l0 2 8 0c-1,-2 -1,-2 -1,-5l-7 0 0 -4 -3 1c-2,2 -2,2 -4,2z"/>
    <path class="fil26" d="M61 125c3,-1 5,-1 8,-1l2 0c-1,-2 -2,0 -3,-2 0,0 -1,-1 -1,-1 -2,0 -10,0 -13,0 -2,2 -1,1 -6,1 -6,0 -6,2 -7,1 1,1 0,1 3,1 1,0 1,0 1,0l8 1c1,2 1,3 3,0 0,0 1,-2 3,-1 2,0 1,-1 2,1z"/>
    <path class="fil15" d="M70 105c0,1 0,3 0,3 0,1 1,8 1,9 2,1 0,1 3,3l1 0c0,0 1,0 1,0l0 -1c1,-3 1,-3 2,-5l-2 0c0,0 0,-1 0,-1 -1,-1 -1,-1 -1,-1 0,3 0,2 -1,3l0 -4c0,0 -3,-6 -1,-9 1,-2 1,0 2,-3 0,0 0,-1 0,-1 0,-1 0,-1 0,-3 -2,2 0,0 -1,2l-1 1 0 -3 -1 2c-1,1 -1,2 -1,3 -1,2 -1,3 -1,5z"/>
    <path class="fil27" d="M41 62c1,0 1,0 1,1 -1,1 -1,1 -3,2l0 -4 2 1zm-13 -5c-2,1 -2,1 -3,2 -1,1 -2,1 -2,3l0 1c1,-2 3,-3 5,-3 5,-1 3,-1 8,0 1,-1 1,0 1,1 1,2 2,1 1,3 -1,2 -1,2 -1,2 -1,1 -2,2 -2,4 -1,1 0,0 -1,1l1 0c1,0 0,0 1,-1l0 -1 2 0c0,-2 2,-3 3,-4 2,0 0,0 2,0l1 0c0,2 1,5 2,5 1,-2 0,-1 0,-3 -1,-2 0,-2 -2,-3 -2,-1 0,0 -1,-1 -1,-1 -1,-1 -2,-1 0,-1 0,-1 -1,-2 1,-1 1,-2 1,-3 0,-2 0,-3 1,-4 -2,0 -1,1 -1,0l-1 0c0,3 0,4 -4,3 0,2 1,0 0,1 0,1 0,1 0,1 -1,1 -1,0 -2,0 -3,0 -3,0 -6,-1z"/>
    <path class="fil28" d="M73 131l1 0c1,1 0,0 1,1l2 2c1,2 -1,1 1,2 1,0 1,0 1,1 2,2 5,11 7,14l1 1c0,-1 0,-3 -1,-4 -2,-4 -2,-3 -1,-5 1,0 1,0 2,2 0,1 0,1 1,2 1,0 1,0 1,-1 0,-1 0,-1 0,-1l-6 -8c-1,-2 0,0 -2,-3 0,0 0,-1 0,-1l-2 -1c1,2 0,1 0,2 -1,-1 -1,-2 -1,-3 -1,-1 -2,-1 -3,-1 -1,0 0,0 -1,-1l0 0c-2,1 0,0 -1,1l0 1z"/>
    <path class="fil29" d="M15 77c0,5 -1,8 1,13 1,-1 3,-3 4,-5 1,-2 3,-3 4,-4l1 1c1,-1 0,-1 0,-2l0 -1c1,0 2,0 3,0 1,-1 1,-1 1,-2 1,-1 1,-1 2,-1l0 -1c-3,-1 0,0 -3,1 0,0 0,0 0,-1l0 -1c-2,0 -1,-1 -3,0l0 -2c-2,3 0,2 -3,3l0 4c0,0 -1,0 0,0l1 -2c0,5 -1,1 -1,5 -1,0 -1,-1 -3,0 0,0 0,-1 0,1 1,2 -1,3 -2,3l-1 1c0,-3 -1,-5 0,-8 1,-3 3,-5 2,-7 -2,1 -2,4 -3,5z"/>
    <path class="fil30" d="M28 60c0,0 0,0 0,0 -1,1 -2,2 -4,3 2,0 1,0 2,1l-2 1 0 0 0 2 2 -2c1,-1 0,-1 2,-2 0,0 0,0 0,0 0,0 0,1 0,1 2,2 0,0 3,1 2,1 0,0 1,2 0,1 0,0 1,0 -1,2 -1,1 -1,3 0,-1 1,-1 1,-3 1,2 2,-2 1,3l1 0c0,-2 1,-3 2,-4 0,-2 -1,-4 -1,-6 -5,-1 -3,-1 -8,0z"/>
    <path class="fil9" d="M35 93c1,-2 0,-4 1,-6 3,0 2,1 4,2l0 7c-1,0 0,-1 -1,1 -3,-1 -4,0 -4,-4zm5 -8l0 2 -4 0 -2 1 0 3 0 5 2 1c0,0 0,0 1,0l0 3c-2,0 -2,0 -4,1 1,0 -1,1 2,0l7 0 0 -1 0 -1 1 -10 -2 3c0,-5 1,-6 0,-11 -1,1 -1,2 -1,4z"/>
    <path class="fil31" d="M41 53c0,1 -1,0 1,0 -1,1 -1,2 -1,4 0,1 0,2 -1,3 1,1 1,1 1,2 1,0 1,0 2,1 1,1 -1,0 1,1 0,-6 -1,-8 5,-8 3,-1 4,-1 8,1 1,0 3,1 4,2l3 0c0,0 -1,-1 -2,-2l-3 -1 0 -1 -1 0c0,1 1,0 -1,1 0,0 1,0 0,0 -4,-1 -8,-1 -11,-1l1 -1c0,0 0,-1 0,-1 1,1 1,1 2,1l0 0c-2,-1 0,0 -2,-1 0,0 1,0 1,0 0,0 0,0 0,0l1 -1c-1,-1 -1,1 -1,-2 -1,1 0,0 -1,1 0,0 0,0 0,1 -1,0 -1,0 -1,1 -3,0 -3,0 -5,0z"/>
    <path class="fil9" d="M32 145c-1,4 -1,10 0,14l1 0 4 1 0 2 -2 0c0,1 -1,1 -1,1 -3,1 -1,-1 -2,1 2,0 6,0 7,-1l-2 -3c0,0 0,0 1,0 0,0 0,0 0,0 1,-1 0,0 1,0l0 -3c-3,1 -4,0 -7,0l0 -3 7 0 0 -1c-1,0 -2,0 -2,0 -3,-1 -1,-2 -5,-2l0 -4c3,0 4,2 7,2l0 -2c-3,0 -4,0 -5,-3l-1 1 -1 0z"/>
    <path class="fil26" d="M46 110l0 1c5,1 10,0 15,0 0,2 -1,2 -4,2 -3,0 -4,-1 -4,2l7 0c0,0 0,-1 0,-1 0,1 0,0 1,0l0 -1c0,0 0,0 0,0 2,1 4,0 3,-2l0 -1c0,0 0,0 0,0 -1,-2 -1,-1 -1,-2 -3,-2 0,2 -1,0 -1,-2 0,0 -1,-2l0 0c0,-1 0,0 -1,-1 -1,1 -3,0 -4,1 1,0 2,1 3,1 3,1 2,-1 2,3 -2,0 -3,0 -5,-1 -3,-1 -3,0 -3,1l-7 0z"/>
    <path class="fil26" d="M25 127c-1,2 -2,2 -4,4l0 2 -1 3c2,0 3,0 3,2l3 0c0,-2 1,-2 1,-3l1 -1c0,0 0,0 0,-1 -1,0 -1,0 -3,0 0,-3 0,-2 -1,-5 3,0 7,0 8,-2l0 0c-1,-1 -1,0 -1,-1 -1,0 -2,0 -3,0 2,0 1,0 1,-1l-1 0c-1,0 -1,1 -2,1 0,0 0,1 0,1 -1,1 -1,0 -1,1z"/>
    <path class="fil32" d="M32 218l1 2 0 1c0,0 0,-1 0,-1 2,0 2,1 2,2 0,5 -1,-1 -1,2l1 1c1,0 1,0 1,0l1 -3c2,-1 4,1 5,2l1 1c1,0 0,0 1,-1l-1 -3c-2,-5 -1,-1 -2,-4 -1,-3 -1,-2 -1,-3l-1 2 -3 1c0,0 0,0 0,1 0,0 0,0 0,1 -3,-1 0,0 -4,-2l0 1z"/>
    <path class="fil15" d="M79 119c-1,1 -1,1 -1,2 3,-1 1,-2 3,1 0,0 0,1 0,1l1 -1c3,-2 -2,0 1,-1 2,-1 8,1 10,1 1,0 0,0 2,1 3,1 0,-1 4,0l1 -2c-2,0 -3,0 -4,-1 -1,-1 -1,0 -2,-1 0,0 0,0 -1,0 -1,0 -1,0 -1,-1l-2 0c-1,0 0,0 -1,0 -1,0 -4,0 -6,0 -2,1 -3,1 -4,1z"/>
    <path class="fil21" d="M39 160l1 -1 0 -5c0,-2 0,-1 0,-1 -1,-2 0,1 -1,-2l1 -4c-1,-1 -1,-1 -1,0l0 2c-3,0 -4,-2 -7,-2l0 4c4,0 2,1 5,2 0,0 1,0 2,0l0 1 -7 0 0 3c3,0 4,1 7,0l0 3z"/>
    <path class="fil33" d="M38 206c0,0 0,0 0,0 1,1 0,-1 1,0l0 -4 7 0c0,0 0,0 0,0 0,0 0,0 0,0l1 -1c0,0 0,0 0,0 0,0 0,0 0,0l0 -5c0,0 -1,-1 -1,0 0,0 0,2 0,2l-1 -3 -4 0c0,2 0,3 -1,5 -1,-1 -2,-3 -3,0 0,1 0,5 1,6z"/>
    <path class="fil26" d="M46 110l0 -7c2,0 2,0 3,-1 -2,0 0,0 -1,-1l0 0c-3,1 -5,1 -7,0 -2,4 -2,0 -2,9l7 0z"/>
    <path class="fil6" d="M4 41c3,2 5,0 8,2l6 2 -3 -3c-3,-2 -1,0 -3,-4 0,1 1,1 0,1 -2,1 1,1 -1,0 -1,1 0,1 -1,-2 -2,0 -3,0 -5,0 -1,0 -1,0 -2,0 0,0 0,0 -2,0 0,0 0,1 0,1 0,0 0,0 0,0l-1 1c0,0 0,0 0,0l2 0c0,0 1,0 -2,0 5,1 4,1 4,2z"/>
    <path class="fil34" d="M84 110c0,1 0,1 -1,1 0,1 0,1 -1,0 0,2 -1,2 -2,3l0 2c0,1 -2,2 -1,3 1,0 2,0 4,-1 2,0 5,0 6,0 1,0 0,0 1,0 0,-1 0,0 0,-1 -1,0 -1,0 -3,-1 1,-3 1,0 2,-2 1,-1 0,-2 0,-3 -1,2 0,3 -2,4 -3,1 0,-1 -1,0 -1,1 -1,1 -1,1l-3 0c1,-2 1,0 3,-2 1,-2 1,-3 1,-5 -1,0 0,0 -2,1z"/>
    <path class="fil35" d="M51 228l0 6 0 0c4,-1 2,-1 6,0 1,1 6,1 6,0 1,-1 0,0 1,-1 -1,-1 -3,-2 -4,-3l-2 0c0,0 0,1 1,1 -3,0 -3,0 -6,0 0,-4 -1,-1 -2,-4l0 1z"/>
    <path class="fil28" d="M33 236c1,1 0,-1 1,1 1,1 1,1 2,1l23 -1c-2,-1 -16,0 -18,0 -5,1 -5,-1 -7,-2 -4,-1 -5,1 -7,-2l-2 0c-2,0 -2,1 -2,2 2,2 7,1 10,1z"/>
    <path class="fil36" d="M74 27l1 0c2,-1 3,-1 6,-2 1,-1 0,0 1,-2 1,-1 -1,1 1,-1l1 1c0,-1 0,-1 1,-1l2 0c1,-1 4,-1 6,-2 -2,-1 -6,-1 -8,0l-2 2c1,-1 0,1 0,0 -2,0 -2,0 -2,-2 -5,0 -4,0 -4,-2 0,-1 -1,-1 1,-1 0,0 2,0 2,0l-1 0c0,0 0,0 -1,0 -3,0 -2,1 -3,0l0 2c3,0 2,3 3,6 -3,0 -3,0 -4,2z"/>
    <path class="fil37" d="M93 149c2,0 1,0 3,0 0,-3 0,-1 0,-2 0,0 -1,0 -1,-1l0 -1c0,0 0,0 0,0 2,1 1,1 2,2 1,1 2,0 2,-1l-1 -1c0,-1 0,0 -1,-1 0,0 0,0 0,0l0 -1c-1,0 -2,0 -1,1 -2,-3 -2,-5 -7,-4 0,2 0,2 3,3 0,3 -1,4 1,6z"/>
    <path class="fil22" d="M33 53c-1,1 0,0 -2,1 0,0 0,0 -1,1 -1,0 -2,1 -2,2 3,1 3,1 6,1 1,0 1,1 2,0 0,0 0,0 0,-1 1,-1 0,1 0,-1 4,1 4,0 4,-3 -2,0 -5,0 -6,1 -1,-1 0,0 -1,-1z"/>
    <path class="fil9" d="M29 120c3,0 1,-1 2,1 0,0 -1,2 -2,0 -1,-1 0,0 0,-1zm-2 -2c2,0 1,0 1,0 0,3 0,3 0,6l1 0c2,-1 2,-1 3,-2 1,-2 5,-3 7,-3l1 -2 -9 0c-1,0 -1,0 -2,0 -1,0 -1,0 -1,0 -2,1 -1,0 -1,1z"/>
    <path class="fil27" d="M39 27c4,1 7,-1 7,-2 2,3 -1,2 2,3 -2,3 0,3 0,4 0,0 0,0 0,1l0 0c1,-1 0,0 1,-1 1,-1 -1,0 1,-1l-1 -1 2 -7 0 0c-1,-1 0,-1 -3,-2 1,2 3,5 0,6l0 -6c-1,-1 0,0 -1,0 -1,0 -2,4 -3,4 -2,2 -4,0 -5,2z"/>
    <path class="fil7" d="M39 97c1,-2 0,-1 1,-1l0 -7c-2,-1 -1,-2 -4,-2 -1,2 0,4 -1,6 0,4 1,3 4,4z"/>
    <path class="fil36" d="M49 75c1,3 2,4 3,6l3 2c1,-2 2,-3 5,-4 3,-1 5,0 6,-5 -2,0 0,-1 -2,0 -1,5 -3,4 -9,4 0,0 1,-1 0,0l-1 2c0,-2 0,-3 -1,-4 0,1 0,0 0,2 -1,0 -1,0 -1,0 -1,-1 0,0 -1,-1 -1,-1 1,-2 -2,-2z"/>
    <path class="fil29" d="M42 229l0 0c0,1 0,0 1,2 0,0 0,1 0,1 -1,0 -1,0 -1,1l-1 1c0,0 0,0 -1,0l0 0 1 0 1 2c3,-1 2,-1 4,-1 2,1 2,0 3,0 0,0 0,2 -1,-1l0 0c-1,0 0,0 -1,-1 1,-2 2,-1 2,-4 0,0 -1,1 -1,1 -1,1 -3,0 -4,0l-1 -1 0 -2 1 -1 -2 0 0 3z"/>
    <path class="fil38" d="M56 46c-1,0 -1,-2 -1,1l-1 0 -5 3 -1 0c0,3 0,1 1,2l-1 1c0,0 0,0 0,0 0,0 -1,0 -1,0 2,1 0,0 2,1 2,-1 1,-1 4,-1 0,-2 -1,0 0,-1 0,0 0,-1 0,-1 2,-2 -1,0 2,-2 3,-1 2,-1 5,-1l1 -3c-1,0 -2,1 -3,1 -2,0 -1,1 -2,0z"/>
    <path class="fil39" d="M61 226c2,1 2,1 3,3l-3 -1c-1,1 0,0 -1,1l0 1c1,1 3,2 4,3 1,0 0,0 0,1 2,-1 2,-1 3,-1 2,-1 1,0 3,0l-2 -1 -1 0c0,-2 0,-2 -1,-3 0,-2 1,-1 -1,-3 -1,0 0,0 -1,-1l0 0 -3 -1 0 2z"/>
    <path class="fil40" d="M82 132c0,2 2,3 3,5 2,3 5,7 6,11 1,2 3,2 5,3 1,-2 1,0 -2,-2 0,0 0,0 0,0l-1 0c-2,-2 -1,-3 -1,-6 -3,-1 -3,-1 -3,-3 -1,1 -1,1 0,0 -3,-2 0,0 -4,-4 0,-1 -1,-2 0,-3l1 -1c1,-1 0,1 1,0 -1,-1 -3,-1 -4,0l-1 0z"/>
    <path class="fil41" d="M33 221l-1 1 1 2 -1 1 1 3c0,2 -1,2 0,4l2 1 0 -1c0,-1 -1,-1 -1,-1 0,0 0,-1 0,-2l0 0 0 -1c0,-1 0,0 0,-2l1 0c2,0 2,0 3,1 3,1 2,2 4,4l0 -2 0 0c-1,-1 0,1 -1,-1 0,-1 0,-1 0,-1 0,-1 -1,-1 -1,-2l0 0c-2,-1 -3,-1 -3,-3l-1 3c0,0 0,0 -1,0l-1 -1c0,-3 1,3 1,-2 0,-1 0,-2 -2,-2 0,0 0,1 0,1z"/>
    <path class="fil42" d="M68 222l0 5 1 2 3 -3c1,-1 0,-1 2,-1 0,-1 0,-1 1,-1l0 -1 0 -1 -1 0 -1 1c0,0 0,0 -1,0 0,1 1,0 0,1 0,-2 -1,-1 1,-2l0 -1 0 -1 -1 0 0 0c-1,1 1,1 -1,1l-1 1 0 -3c-2,1 0,0 -1,0l-1 3z"/>
    <path class="fil36" d="M94 20l5 0c1,-2 0,-2 -2,-3 -1,0 0,0 -1,-1 -1,0 0,0 -1,-1 -2,-1 0,0 -2,-1l1 2c-1,0 -1,0 -1,0 0,0 0,1 0,1 -5,1 -3,-2 -3,-3l3 0c-1,0 -1,0 -1,0 -1,-1 -1,-1 -1,-1 -1,0 -1,-1 -2,-1l0 2c-5,0 -3,1 -4,3l-3 0c2,0 4,-1 7,-1l0 2c3,0 4,0 6,0 1,0 2,-1 1,0 0,1 1,0 -2,2 0,0 0,0 0,0z"/>
    <path class="fil43" d="M14 88c0,1 0,-1 1,2 0,0 0,0 0,0 0,0 0,1 0,1 1,-1 0,-1 2,0l2 0 0 -1c-1,-2 -1,2 -1,-2 2,0 3,0 4,0l1 -4c-1,0 -1,0 -2,0 0,1 1,1 -1,1 -1,2 -3,4 -4,5 -2,-5 -1,-8 -1,-13 -2,2 0,2 -1,3l-1 0c0,1 0,1 0,1 1,4 0,6 1,7z"/>
    <path class="fil23" d="M18 45c1,1 3,1 5,2 2,1 3,3 5,2 0,-1 0,-1 0,-2 2,0 8,1 7,-2 0,-2 0,0 0,-1l0 2c-5,2 -8,-1 -12,-1 -2,0 -2,-1 -4,-2 0,0 -1,0 1,2 -2,-1 -1,0 -2,0z"/>
    <path class="fil44" d="M19 119c-1,1 0,0 -1,1 0,0 -1,1 -1,1 -1,0 -2,1 -3,1 0,0 1,0 0,0 0,1 -1,1 -1,1 0,0 -1,1 -1,1 0,1 0,0 -1,1 0,1 -1,1 -1,1 0,-4 1,-4 1,-4 0,0 0,0 0,0l-1 -2c0,0 0,1 0,1 0,0 0,0 0,0 -1,0 0,-1 -1,0 -2,3 0,5 0,6 0,0 1,0 1,0l1 0c2,-1 0,-1 3,-1 -2,-2 2,-3 2,-3 2,-2 1,0 2,-2 2,-1 4,0 5,-2l-4 0z"/>
    <path class="fil45" d="M99 123l1 0c2,0 2,-1 5,1 2,0 1,0 3,1 2,0 2,-1 3,-1l-2 -2c-1,0 -5,-1 -5,-2l-8 0c1,1 2,1 4,1l-1 2z"/>
    <path class="fil46" d="M101 74c1,1 0,0 1,0l0 -2c2,1 1,0 2,1l2 3 0 -1 -3 -6c-1,0 -2,-2 -2,-3 2,0 0,-1 2,1 0,1 0,1 1,2 0,1 0,1 1,2l-1 -5c0,0 0,0 0,0 1,1 2,1 2,1 0,-1 -1,-2 -2,-3l0 1c-2,-1 -1,0 -3,0l-1 -1c0,-1 0,-1 -1,-1 0,2 0,1 1,2 0,3 2,4 3,6 -1,0 -2,1 -2,2 0,0 0,0 0,0l0 1z"/>
    <path class="fil34" d="M88 107c0,0 0,0 0,0 0,0 0,0 0,0 -2,2 -1,0 -2,2 1,0 0,0 2,0l3 -1c1,-1 0,-1 1,-1 0,0 0,0 0,1l-1 2c1,1 0,-1 1,2 2,0 0,-1 3,-2l0 0c0,-3 1,0 1,-3 -1,0 -1,0 -3,1 0,-2 0,-1 1,-2 0,-1 0,-1 0,-1l1 0c0,0 1,0 1,-1l-2 0 -1 1c-2,0 -3,1 -5,2z"/>
    <path class="fil21" d="M68 144l0 3c1,0 0,0 1,1 0,3 0,0 0,6 2,-1 0,0 1,-4 3,-7 2,-3 3,-6 1,-2 0,-3 0,-4 -2,1 -1,-1 -2,2 0,1 -2,3 -1,3 -3,1 -1,0 -2,-1z"/>
    <path class="fil47" d="M73 59l0 2c7,3 6,3 11,7 1,1 2,1 3,3 0,-3 -1,-1 0,-4l0 0 -2 0 -2 -2c-1,-1 1,0 -1,-1 -2,0 -1,0 -2,-1l-4 -3c-2,-1 -1,-1 -2,-1 -1,0 0,0 -1,0z"/>
    <path class="fil5" d="M104 150l0 -6 -1 3c-2,1 -3,1 -3,2 -1,2 -1,2 0,4 2,1 2,0 4,-1l0 -2z"/>
    <path class="fil6" d="M15 139c1,-3 0,-1 1,-2 1,3 1,4 -1,4 1,2 1,1 1,3l0 0c0,-1 1,-1 1,-1l3 -7 1 -3c-1,1 0,0 -1,1l-1 0c0,-1 1,0 0,-1l-2 1c-1,2 -2,3 -2,5z"/>
    <path class="fil48" d="M102 134c1,2 2,3 1,6l-1 3c0,0 1,-1 1,-1l1 -2c1,1 1,6 1,9l1 -2c0,-3 0,-4 0,-8 -1,-2 -2,-5 -3,-6 -2,-1 0,-1 -1,0l0 1z"/>
    <path class="fil16" d="M33 4c1,1 5,4 6,5 1,2 1,3 2,4 -1,1 1,1 -1,0 0,2 0,2 3,2 -1,-2 -1,-1 -2,-4l3 1 0 -1c-1,-1 -2,-2 -4,-2l-1 -2c-2,0 -3,-4 -7,-4l0 0c1,1 0,0 1,1z"/>
    <path class="fil16" d="M45 228l0 1c-1,0 -1,0 -2,0l1 1c1,0 3,1 4,0 0,0 1,-1 1,-1 0,3 -1,2 -2,4 1,1 0,1 1,1 0,-1 1,-3 2,-5 0,-1 0,0 0,-1 -1,-1 0,0 -1,-1l-1 1c0,0 0,0 0,0l1 -4 -2 0c0,0 0,0 0,0l-2 4z"/>
    <path class="fil49" d="M66 237c2,0 3,-1 5,-1 2,0 3,0 5,0 7,-1 9,1 11,-1l-1 -1c-6,0 -10,1 -16,1 -4,1 -3,0 -4,2z"/>
    <path class="fil50" d="M63 103l1 0c1,0 1,0 2,-1 0,0 0,0 0,-1 1,0 0,0 1,0 0,-1 0,-2 -1,-4 0,-1 0,-1 -1,-1 0,1 -1,3 -1,5 -1,-2 -2,-4 -3,-6l-2 0c1,3 4,5 4,8z"/>
    <path class="fil51" d="M103 69l3 6 1 4c0,1 0,2 1,3 0,1 -1,2 0,4 1,-2 1,-6 0,-9 -1,-3 -2,-6 -3,-6 -1,-1 -1,-1 -1,-2 0,0 0,0 0,0 0,0 -1,0 -1,0 0,0 0,0 0,0z"/>
    <path class="fil45" d="M119 135c-1,-4 -2,-6 -4,-9l0 2 -3 -1 0 2 -3 0c0,2 0,3 1,5 2,-4 -2,-3 6,-6 -1,2 -1,3 -2,3 2,1 2,0 3,-1 0,1 0,3 0,3 0,2 0,2 2,2z"/>
    <path class="fil52" d="M33 145l1 -1c4,0 2,2 6,1 1,-1 1,-1 3,-2 0,-2 -1,-2 1,-3 -2,0 -10,4 -11,5z"/>
    <path class="fil53" d="M87 67c-1,-2 -6,-6 -8,-7l-3 0 4 3c1,1 0,1 2,1 2,1 0,0 1,1l2 2 2 0z"/>
    <path class="fil54" d="M31 25c0,1 0,1 1,2 1,2 0,1 1,2 0,-4 3,-3 6,-2 1,-2 3,0 5,-2 1,0 2,-4 3,-4 0,-1 0,-1 0,-2 0,-1 0,0 0,-1l0 -1 -1 -1c-1,1 -1,0 -2,1 2,0 1,-1 1,1 1,2 0,6 -2,7 -3,2 -8,0 -9,0 -1,1 -1,1 -1,2 0,0 -1,0 -1,0l-1 -2z"/>
    <path class="fil55" d="M64 59l2 1 1 2c0,1 0,2 1,3 0,-2 1,-3 1,-5 0,0 0,0 1,0 1,-1 1,0 0,-2 -1,0 -1,0 -3,-1 -2,0 -3,0 -5,0 1,1 2,2 2,2z"/>
    <path class="fil56" d="M12 38c2,4 0,2 3,4l3 3c1,0 0,-1 2,0 -2,-2 -1,-2 -1,-2 -2,-1 -3,-2 -5,-4 -2,-2 -3,-4 -4,-6 -2,1 -1,0 -1,1 1,1 1,1 2,2 0,2 0,1 1,2z"/>
    <path class="fil57" d="M25 224l3 3 3 1c0,0 0,0 0,0 1,0 1,0 2,0l-1 -3c-1,-1 0,0 -1,-1l-2 -1 -3 1 -1 0z"/>
    <path class="fil31" d="M39 39l0 0c1,4 1,3 5,4 0,-3 2,-6 3,-8l-2 0c-2,3 0,5 -3,6 1,0 0,-1 0,-3 -2,0 -1,1 -3,1z"/>
    <path class="fil58" d="M36 228c2,1 1,1 3,3l1 3 0 0c1,0 1,0 1,0l1 -1c0,-1 0,-1 1,-1 0,0 0,-1 0,-1 -1,-2 -1,-1 -1,-2l0 2c-2,-2 -1,-3 -4,-4l-2 0 0 1z"/>
    <path class="fil52" d="M34 88l2 -1 4 0 0 -2c-1,-1 -1,-1 -2,-1l0 -3c-1,-1 -1,-1 -2,-1l0 2 0 2c-1,2 0,1 0,1 -1,2 -2,1 -2,3z"/>
    <path class="fil59" d="M31 103c2,-1 3,-1 4,-2 -3,1 -1,0 -2,0 2,-1 2,-1 4,-1l0 -3c-1,0 -1,0 -1,0l-2 -1 0 -5c-2,4 1,4 -2,5 2,1 2,1 3,2 -3,3 -2,2 -4,2l0 3z"/>
    <path class="fil60" d="M50 31c1,0 2,-3 2,0l0 -3c2,-2 2,-2 2,-4l0 0c-1,2 -1,1 -2,2l0 -2c0,0 -1,0 -1,0 0,-1 0,-1 0,-1 0,0 0,0 0,0l-2 7 1 1z"/>
    <path class="fil61" d="M77 226l1 0 1 -1c0,0 0,0 0,0l3 -2c0,-1 -2,-4 -3,-4 -1,0 -1,0 -1,1 -1,0 0,2 1,4 -1,0 -4,1 -2,2z"/>
    <path class="fil62" d="M76 119l0 1 -1 2 -1 0 2 2c0,-2 0,-1 1,-2 0,0 0,0 0,0 1,-1 1,-1 1,-1 0,-1 0,-1 1,-2 -1,-1 1,-2 1,-3l0 -2c-2,2 -2,4 -4,5z"/>
    <path class="fil5" d="M99 80l1 3c1,0 1,0 1,-1 1,-1 2,-3 3,-1 0,-1 0,-2 0,-3 0,-1 0,-1 -2,-2 -2,2 1,0 -3,4z"/>
    <path class="fil63" d="M26 217c0,-1 0,0 1,-2 2,1 0,0 1,1 0,1 0,1 1,1 0,0 0,1 0,1 1,0 0,0 1,1 1,0 1,0 3,1l-1 -2c-1,-2 -1,-6 -1,-8 -1,1 0,-1 -1,2l1 5c-4,-1 -1,0 -4,-3l-2 2c1,2 1,1 1,1z"/>
    <path class="fil64" d="M17 110c0,1 -1,2 -1,2l1 1c1,-2 2,-3 4,-4l3 -2c1,-1 2,-2 4,-2 -1,-1 0,-1 -2,0 -2,0 -7,4 -9,5z"/>
    <path class="fil24" d="M47 21c1,0 0,-1 1,0l0 6c3,-1 1,-4 0,-6 3,1 2,1 3,2l0 -2 -1 -1 -2 0 -1 -2c0,1 0,0 0,1 0,1 0,1 0,2z"/>
    <path class="fil42" d="M66 54c0,-2 -1,-4 -1,-6 1,-1 1,0 1,-2 0,-2 0,-1 -1,-1l-2 4c0,2 1,1 1,4l2 1z"/>
    <path class="fil65" d="M32 5c1,0 1,1 2,2 -4,0 -1,0 -2,1 1,0 3,0 4,1 1,0 1,0 2,1 1,1 1,1 1,-1 -1,-1 -5,-4 -6,-5 -1,0 -1,0 -1,1z"/>
    <path class="fil15" d="M101 133c-1,-4 -1,-2 1,-2 0,-1 -1,-2 -1,-3 0,0 0,0 0,0l-1 0c0,-1 0,-1 -1,-1 -1,1 -1,3 -1,3l0 1c-1,0 -1,0 -1,0l0 1c2,0 1,0 2,0 3,-2 -2,0 1,-1l1 2z"/>
    <path class="fil66" d="M103 140l-1 1c-1,1 -1,2 0,3 1,0 1,0 1,0 1,-1 1,-1 1,-1l0 1 0 6 1 0 1 -1 0 -2 -1 2c0,-3 0,-8 -1,-9l-1 2c0,0 -1,1 -1,1l1 -3z"/>
    <path class="fil40" d="M97 60c0,0 1,0 0,-1 0,-2 0,0 0,-1 -1,-1 0,0 -1,-1 -1,-1 -1,-1 -1,-1 -1,-1 0,-1 -1,-1l0 1c0,0 0,1 0,1l-1 0c-1,1 0,0 -1,1 1,1 1,2 2,2 4,0 1,-2 3,0z"/>
    <path class="fil67" d="M15 91c0,0 0,-1 0,-1 0,0 0,0 0,0 -1,-3 -1,-1 -1,-2l-1 2c-2,0 -1,-1 -2,0 -1,1 -1,1 0,2 0,1 1,2 1,2 1,0 3,-2 3,-3z"/>
    <path class="fil42" d="M106 153c-1,0 -1,0 -2,0 -1,1 0,0 -1,1 2,0 3,0 5,0l0 4 1 0 1 -3 -1 -3 -3 1z"/>
    <path class="fil68" d="M92 77c0,0 1,0 1,0 3,0 -3,-1 1,0 0,0 0,0 1,0 -1,1 -4,2 -4,3 -1,2 0,1 0,1 0,0 0,0 0,0 1,1 0,0 1,-1 0,0 0,0 1,0 0,2 0,2 0,5l1 -3c0,-1 0,-2 0,-3l1 0 0 -2c1,0 1,1 1,-1l-1 0 -1 0c-1,0 -1,0 -1,0 -1,1 -1,0 -1,1z"/>
    <path class="fil11" d="M74 126c0,1 0,1 0,3l0 0c1,-2 1,-1 1,-2l1 -3 -2 -2c0,-1 -1,-1 -1,-2 0,0 0,0 -1,0 -1,-1 0,0 -1,-1l2 3c0,0 0,0 0,0 1,2 0,2 1,4z"/>
    <path class="fil69" d="M58 55c-1,-1 0,0 -1,0 -1,-1 -2,-1 -3,-1 -1,0 -3,0 -5,0 -1,0 -1,0 -2,-1 0,0 0,1 0,1l-1 1c3,0 7,0 11,1 1,0 0,0 0,0 2,-1 1,0 1,-1z"/>
    <path class="fil70" d="M29 228l0 2 2 1c1,0 1,0 1,1l1 0c-1,-2 0,-2 0,-4 -1,0 -1,0 -2,0 0,0 0,0 0,0 -1,0 0,0 -2,0 0,0 0,0 0,0z"/>
    <path class="fil71" d="M78 114c-1,2 -1,2 -2,5 2,-1 2,-3 4,-5 1,-1 2,-1 2,-3 -4,1 -2,1 -4,3z"/>
    <path class="fil50" d="M54 40c0,1 0,2 0,3 2,0 0,0 3,0 0,-3 -1,-3 0,-3 3,-1 0,1 1,0 1,0 0,0 1,-1 -2,-1 0,-1 -3,0l-2 1z"/>
    <path class="fil72" d="M32 8c1,-1 -2,-1 2,-1 -1,-1 -1,-2 -2,-2l-2 -2 -1 4 3 1z"/>
    <path class="fil40" d="M91 74l0 1 1 0c1,-2 1,-2 3,-2l0 2 1 0c0,0 0,0 0,0l-1 -6c0,0 1,0 0,0 -2,-1 -2,0 -2,0 1,2 -1,-1 1,1 1,1 1,0 1,1 0,1 0,1 -3,1l-1 2z"/>
    <path class="fil73" d="M19 132c0,0 0,1 0,1 1,1 0,0 0,1l1 0c1,-1 0,0 1,-1l0 -2c2,-2 3,-2 4,-4 -3,1 -4,3 -6,5z"/>
    <path class="fil74" d="M68 232l0 0 1 -3 0 0 -1 -2 -2 0 -1 -1c2,2 1,1 1,3 1,1 1,1 1,3l1 0z"/>
    <path class="fil75" d="M35 229c2,1 2,1 2,3l2 0 0 1 -2 1c1,1 3,0 4,0l-1 0 -1 -3c-2,-2 -1,-2 -3,-3 -1,-1 0,-1 -1,-1l0 2z"/>
    <path class="fil21" d="M64 160l2 0c0,0 2,0 0,-5 -1,1 -2,0 -2,5z"/>
    <path class="fil59" d="M59 191c3,-1 4,-2 4,-5l-5 0c1,1 0,1 2,1 0,0 1,0 1,0 0,2 -1,2 -2,2l0 2z"/>
    <path class="fil76" d="M30 41l0 -2c2,-1 1,0 4,1 0,-1 1,0 0,-1 0,-1 0,-1 -1,-2 -1,-1 0,0 -1,-1l1 2c0,0 -5,-1 -4,2 0,2 0,1 1,1z"/>
    <path class="fil74" d="M48 234l0 0c2,0 3,1 3,0l0 0 0 -6 -1 1c-1,2 -2,4 -2,5z"/>
    <path class="fil52" d="M36 199l0 0 2 -2c1,0 2,0 1,-2l-1 -1 -1 0c-1,1 1,1 -1,1 1,1 0,1 0,4z"/>
    <path class="fil49" d="M23 84l-1 4c-1,0 -2,0 -4,0 0,4 0,0 1,2 0,-3 1,-1 1,0l2 -1c1,-1 1,-2 1,-3 1,-1 1,-2 2,-3l-2 1z"/>
    <path class="fil54" d="M87 71l2 1c2,0 0,1 1,-1 -1,-1 0,-2 -3,-4 -1,3 0,1 0,4z"/>
    <path class="fil77" d="M77 10c0,1 0,1 -1,2l-1 -1 -1 -1 1 3 2 0c2,-1 1,0 2,-3l3 0c-1,-1 -4,0 -5,0z"/>
    <path class="fil78" d="M17 110l0 0c2,-1 7,-5 9,-5 2,-1 1,-1 2,0 2,0 0,0 1,-1 -2,-1 0,0 -2,-1 -2,1 -4,2 -6,3 -1,1 -3,2 -4,4z"/>
    <polygon class="fil79" points="49,50 54,47 55,46 53,46 49,48 "/>
    <path class="fil3" d="M93 14l0 0 -3 0c0,1 -2,4 3,3 0,0 0,-1 0,-1 0,0 0,0 1,0l-1 -2z"/>
    <path class="fil80" d="M39 147c0,-1 0,-1 1,0l0 -2c-4,1 -2,-1 -6,-1 1,3 2,3 5,3z"/>
    <path class="fil60" d="M29 220c0,1 -1,0 0,1 1,0 1,0 2,1l1 0 1 -1 0 -1c-2,-1 -2,-1 -3,-1l-2 -1 1 2z"/>
    <path class="fil56" d="M30 41l2 1c0,0 0,-2 1,-2 0,0 0,0 0,0l2 0c0,-3 0,-1 -1,-1 1,1 0,0 0,1 -3,-1 -2,-2 -4,-1l0 2z"/>
    <path class="fil35" d="M35 233c0,0 2,1 2,1l2 -1 0 -1 -2 0c-1,0 -1,0 -2,-1 0,0 0,0 0,-1 -1,0 -1,-1 -1,-1 0,1 0,2 0,2 0,0 1,0 1,1l0 1z"/>
    <path class="fil36" d="M48 33c0,2 -1,2 0,4 1,0 3,1 4,0l0 -1c-1,1 1,1 -2,1 -2,-1 0,-2 -1,-5 -1,1 0,0 -1,1z"/>
    <path class="fil24" d="M35 29c0,1 0,1 0,2 1,1 1,1 1,1 0,-1 0,-2 0,-3 3,1 2,0 3,2l0 -3c-3,0 -2,0 -4,-1l0 2z"/>
    <path class="fil34" d="M14 122c1,0 2,-1 3,-1 0,0 1,-1 1,-1 1,-1 0,0 1,-1l-2 0c-2,-1 0,-2 -2,-2 0,1 0,0 0,1l1 1c-1,1 -1,1 -1,2 0,1 0,1 -1,1z"/>
    <path class="fil68" d="M71 119c1,1 0,0 1,1 1,0 1,0 1,0 0,1 1,1 1,2l1 0 1 -2c0,0 -1,0 -1,0l-1 0c-3,-2 -1,-2 -3,-3l0 2z"/>
    <path class="fil81" d="M69 229l0 0c1,0 1,0 1,1l0 0c1,-1 1,-2 1,-2 1,-2 1,-1 3,-2l0 2c0,0 0,0 0,0 0,0 0,0 0,-1l0 0c0,-3 0,0 0,-1 0,-1 0,0 0,-1 -2,0 -1,0 -2,1l-3 3z"/>
    <path class="fil82" d="M76 227l-1 1c0,0 0,1 0,1l-1 0 2 1c1,-1 1,-1 1,-1 1,-1 1,-1 1,-1l1 -2 -3 1z"/>
    <path class="fil83" d="M69 56c1,1 1,1 1,2 1,-1 1,-1 1,-1 1,0 0,0 1,0l0 1c1,0 1,0 1,0 0,-2 0,-2 -2,-2 -3,-2 0,-1 -2,-1l0 1z"/>
    <path class="fil84" d="M70 230c1,1 0,1 2,1 -1,-3 0,-1 0,-1l1 -1c0,-1 0,-1 1,-1l0 -2c-2,1 -2,0 -3,2 0,0 0,1 -1,2z"/>
    <path class="fil48" d="M103 74c1,2 2,4 4,5l-1 -4 0 1 -2 -3c-1,1 -1,0 -1,1z"/>
    <path class="fil67" d="M41 62l-2 -1 0 4c2,-1 2,-1 3,-2 0,-1 0,-1 -1,-1z"/>
    <path class="fil85" d="M82 81l-1 1c0,0 0,2 0,2l2 0c1,-1 0,0 1,-1 0,0 1,-1 1,-1 0,-3 0,2 -1,-1 0,0 0,0 0,-1 -1,1 0,0 -1,1 -1,1 0,0 -1,0z"/>
    <path class="fil86" d="M91 53c-1,-2 -3,-2 -5,-1 -1,-2 0,-2 -2,-3 1,2 0,1 1,2 0,1 0,1 0,2 2,0 1,-1 3,-1 1,0 1,1 3,1z"/>
    <path class="fil87" d="M32 122c1,-1 3,-1 4,-2 1,0 3,-1 4,-1l-1 0c-2,0 -6,1 -7,3z"/>
    <path class="fil88" d="M73 221l0 1c0,1 -1,0 0,1l1 -1c0,0 -1,0 1,0 1,3 0,1 0,1l0 1c1,0 1,0 2,0 0,-2 -1,-3 -3,-3 1,-3 0,-1 -1,-2l1 2 -1 0z"/>
    <path class="fil71" d="M94 55l0 -1 0 0 -2 -1 -1 0 0 1c-2,2 0,2 0,2l3 -1z"/>
    <path class="fil89" d="M40 225l0 -1 2 0c-1,-1 -3,-3 -5,-2 0,2 1,2 3,3z"/>
    <path class="fil90" d="M92 75l-1 0 0 2 1 0c0,-1 0,0 1,-1 0,0 0,0 1,0l0 -3 -2 2z"/>
    <polygon class="fil91" points="24,225 24,226 26,226 26,227 28,227 25,224 "/>
    <path class="fil62" d="M37 66c0,0 0,0 1,-2 1,-2 0,-1 -1,-3 0,-1 0,-2 -1,-1 0,2 1,4 1,6z"/>
    <path class="fil34" d="M67 101c-1,0 0,0 -1,0 0,1 0,1 0,1 -1,1 -1,1 -2,1 1,0 1,0 1,1l0 0 2 -1c1,0 1,-2 1,-3 0,0 0,0 0,0l-1 0c0,0 0,1 0,1 0,-1 0,0 0,0z"/>
    <path class="fil91" d="M21 109c0,2 -1,3 0,4 1,-1 2,-3 2,-5 -1,0 1,0 -1,0l-1 1z"/>
    <path class="fil54" d="M23 63l0 1 1 -1c0,-1 -1,0 0,0 2,-1 3,-2 4,-3 0,0 0,0 0,0 -2,0 -4,1 -5,3z"/>
    <path class="fil92" d="M20 67l0 0 1 0c0,-1 0,-2 2,-2l0 -1 0 -1 0 -1c-1,1 -1,1 -2,2 -1,1 -1,2 -1,3z"/>
    <path class="fil93" d="M29 52c2,0 0,0 1,0 1,1 2,1 3,1l0 -2c-4,0 -1,0 -4,-1l0 2z"/>
    <path class="fil51" d="M97 60c1,2 0,1 2,1 2,1 2,1 3,1 0,0 0,-1 -2,-1 0,0 -1,0 -2,0 0,-3 0,-3 -2,-4 1,1 0,0 1,1 0,1 0,-1 0,1 1,1 0,1 0,1z"/>
    <path class="fil42" d="M20 85c2,0 1,0 1,-1 1,0 1,0 2,0l2 -1 0 -1 -1 -1c-1,1 -3,2 -4,4z"/>
    <path class="fil94" d="M34 229l0 0c0,0 0,1 1,1 0,1 0,1 0,1 1,1 1,1 2,1 0,-2 0,-2 -2,-3l-1 0z"/>
    <path class="fil95" d="M30 3l2 2c0,-1 0,-1 1,-1 -1,-1 0,0 -1,-1l0 0c0,0 0,-1 0,-1 -3,0 -2,-1 -6,-2 2,2 2,0 4,3z"/>
    <path class="fil77" d="M54 24c1,0 1,0 1,0 0,0 0,0 0,0l1 -1c1,0 0,0 1,0l2 -1 -3 -1c-1,1 -2,2 -2,3z"/>
    <path class="fil83" d="M83 49l-1 -1c-1,-1 -3,-2 -5,-2 1,2 3,1 6,3z"/>
    <path class="fil96" d="M21 30c0,2 0,1 1,1l6 0c-2,-1 -3,0 -5,0l0 -2 -2 1z"/>
    <path class="fil16" d="M39 12l-1 -2c-1,-1 -1,-1 -2,-1l0 1c1,1 1,2 2,3 1,-1 1,0 1,-1z"/>
    <path class="fil80" d="M36 199l4 -2 0 -2 -2 -1 1 1c1,2 0,2 -1,2l-2 2z"/>
    <path class="fil58" d="M40 225c0,1 1,1 1,2 0,0 0,0 0,1 1,2 0,0 1,1l0 -3 2 0c-1,-1 -1,0 -1,-1l-1 -1 0 1 -2 0z"/>
    <path class="fil72" d="M23 66l0 3c-2,-1 -1,-2 -2,0 1,1 1,1 3,1l0 -3 0 -2 -1 1z"/>
    <path class="fil97" d="M27 218c0,0 0,0 0,1 1,1 1,0 2,1l-1 -2 2 1c-1,-1 0,-1 -1,-1 0,0 0,-1 0,-1 -1,0 -1,0 -1,-1l-1 0 0 2z"/>
    <path class="fil98" d="M32 140c0,2 -1,3 2,2 0,-1 0,-1 0,-1 1,-1 0,-1 0,-1 -1,-1 -1,-1 -2,0z"/>
    <path class="fil99" d="M26 224l3 -1c0,-1 1,-1 -1,-1 -1,-1 -1,0 -2,0l0 2z"/>
    <path class="fil65" d="M21 67l-1 0 0 1 0 3 1 -2c1,-2 0,-1 2,0l0 -3c-1,1 0,-1 -1,1l-1 0z"/>
    <path class="fil61" d="M42 99l0 1 2 0c1,-2 1,-1 0,-3 -2,1 -1,3 -2,1 0,0 0,1 0,1z"/>
    <path class="fil100" d="M21 67l1 0c1,-2 0,0 1,-1l1 -1 0 -1 -1 1c-2,0 -2,1 -2,2z"/>
    <path class="fil101" d="M74 59c1,0 0,0 2,1l3 0 -1 -1c0,0 -1,-1 -1,-1 -2,0 0,1 -3,1z"/>
    <path class="fil43" d="M53 46l2 0 -1 1 1 0c0,-3 0,-1 1,-1 1,-1 1,0 1,-1 0,0 0,0 0,0l-1 -1c-2,1 -1,1 -3,2z"/>
    <path class="fil51" d="M109 141l0 -1 3 0c-1,-1 -2,-1 -4,-2 0,1 0,1 0,2 1,1 1,0 1,1z"/>
    <path class="fil63" d="M28 79l1 -1c2,-1 2,-1 3,0 0,-1 0,0 -1,-1l0 -1c-1,0 -1,0 -2,1 0,1 0,1 -1,2z"/>
    <path class="fil65" d="M103 69c0,0 0,0 0,0 0,0 1,0 1,0 0,0 0,0 0,0 -1,-1 -1,-1 -1,-2 -2,-2 0,-1 -2,-1 0,1 1,3 2,3z"/>
    <path class="fil86" d="M38 10l1 2c1,1 1,1 1,1 2,1 0,1 1,0 -1,-1 -1,-2 -2,-4 0,2 0,2 -1,1z"/>
    <path class="fil80" d="M35 162l2 0 0 -2 -4 -1 1 1c0,0 1,0 1,0 0,0 0,1 1,1 -1,1 0,1 -1,1z"/>
    <path class="fil68" d="M96 80c1,1 1,0 1,1l0 0c1,1 1,1 2,1 -1,-2 -1,-3 -3,-3l-1 0c1,1 0,0 1,1z"/>
    <path class="fil102" d="M58 229l0 1 2 0 0 -1c1,-1 0,0 1,-1 0,0 -1,0 -1,0 -2,0 1,0 -1,0l-1 0c2,0 1,-1 1,1l-1 0z"/>
    <path class="fil92" d="M126 144c-1,2 -1,2 0,3 2,-1 2,-2 0,-3z"/>
    <path class="fil103" d="M31 121c-1,-2 1,-1 -2,-1 0,1 -1,0 0,1 1,2 2,0 2,0z"/>
    <path class="fil104" d="M101 133c1,0 1,0 1,1l0 0 0 -1c1,-1 -1,-1 1,0 -1,-1 -1,-1 -1,-2 -2,0 -2,-2 -1,2z"/>
    <path class="fil105" d="M12 124l-1 0 0 -2c0,0 0,0 0,0 0,0 -1,0 -1,4 0,0 1,0 1,-1 1,-1 1,0 1,-1z"/>
    <polygon class="fil69" points="39,39 39,39 39,37 37,37 37,39 "/>
    <path class="fil89" d="M47 224l2 0c1,-1 0,0 1,-1l-2 0 0 -2 -1 3z"/>
    <path class="fil106" d="M39 119l1 0 2 -1c-2,0 -1,0 -1,-1l2 0 -3 0 -1 2z"/>
    <path class="fil65" d="M92 75l2 -2 0 3 1 0 0 -1 0 -2c-2,0 -2,0 -3,2z"/>
    <path class="fil107" d="M32 74c1,-1 2,-1 3,-3l-1 0c-1,0 -1,1 -2,1l0 2z"/>
    <path class="fil84" d="M31 21c0,-2 0,-2 -1,-2 0,0 -1,-1 -1,1 1,1 1,1 2,1z"/>
    <path class="fil108" d="M77 226c0,0 -1,1 -1,1l3 -1 -1 2 2 -1 0 -2 -2 1 -1 0z"/>
    <path class="fil102" d="M35 227c1,0 0,0 1,1l0 -1 2 0c-1,-1 -1,-1 -3,-1l0 1z"/>
    <path class="fil95" d="M49 227c1,1 0,0 1,1 0,1 0,0 0,1l1 -1 0 -1c-1,0 0,0 -1,-1 0,0 0,0 1,0l0 -1c-2,1 -1,0 -2,2z"/>
    <path class="fil89" d="M14 3c0,-2 2,-1 0,-1l0 -2 -2 1c1,2 0,1 2,2z"/>
    <path class="fil109" d="M62 57c0,0 0,0 0,0l0 -1c-2,-1 -2,-2 -3,-1l0 1 3 1z"/>
    <path class="fil110" d="M34 229l1 0 0 -2 0 -1 -1 0c0,2 0,1 0,2l0 1z"/>
    <path class="fil86" d="M85 107c0,0 0,0 1,-1 0,0 0,0 0,-1 1,-1 1,-1 1,-3 0,1 0,1 -1,2 0,0 0,1 0,1 -1,1 -1,1 -1,2z"/>
    <path class="fil88" d="M77 10c-1,0 0,0 -1,0 -1,0 -1,0 -1,1l1 1c1,-1 1,-1 1,-2z"/>
    <path class="fil111" d="M43 229c1,0 1,0 2,0l0 -1 0 0c0,0 -1,0 -1,-1 0,0 0,0 -1,0l0 2z"/>
    <path class="fil112" d="M62 104l0 1 2 0 1 0 0 -1c0,-1 0,-1 -1,-1l-1 0c1,1 1,1 1,1l-2 0z"/>
    <path class="fil113" d="M26 227l0 -1 -2 0 0 -1c-1,1 -1,-1 -1,1 1,1 1,0 2,1 0,0 0,0 1,0z"/>
    <path class="fil114" d="M74 225c0,1 0,0 0,1 0,1 0,-2 0,1 1,-1 1,-1 1,-3 -1,0 -1,0 -1,1z"/>
    <path class="fil108" d="M71 221c0,-1 -1,1 0,-2 -1,-1 0,0 -1,-1l-1 1c1,0 -1,1 1,0l0 3 1 -1z"/>
    <path class="fil115" d="M63 36c0,0 0,0 0,0 0,0 1,0 1,-1l1 -1c-2,1 -1,0 -2,-1l0 3z"/>
    <path class="fil96" d="M71 221c2,0 0,0 1,-1 -1,-1 -1,-1 -1,-2 -2,0 -1,0 -1,0 1,1 0,0 1,1 -1,3 0,1 0,2z"/>
    <path class="fil116" d="M64 225c1,1 0,1 1,1l1 1 0 -2c-1,0 -1,0 -2,0z"/>
    <path class="fil104" d="M83 111c1,0 1,0 1,-1l0 -1 -1 1c0,0 0,0 0,0 -1,1 -1,1 0,1z"/>
    <path class="fil114" d="M74 228c-1,0 -1,0 -1,1 -1,2 0,0 1,1l1 -1c0,0 0,-1 0,-1 -1,0 -1,0 -1,-1 0,1 0,1 0,1 0,0 0,0 0,0z"/>
    <path class="fil91" d="M31 224c1,1 0,0 1,1l1 -1 -1 -2 -1 0c0,0 0,0 0,0 1,1 1,1 1,1 0,2 1,1 -1,1z"/>
    <path class="fil86" d="M23 64l0 1 1 -1 0 1 0 0c1,-1 0,0 1,-2l-1 0 -1 1z"/>
    <path class="fil117" d="M68 108c1,0 0,0 2,0 0,0 0,-2 0,-3 -2,2 1,3 -2,3z"/>
    <path class="fil118" d="M68 232c2,0 2,-1 2,-2 0,-1 0,-1 -1,-1l-1 3z"/>
    <path class="fil64" d="M64 105c1,1 1,1 2,1 0,0 0,0 0,-1l-1 -1 0 0 0 1 -1 0z"/>
    <path class="fil119" d="M30 184c1,-2 1,-1 1,-3 -1,-1 0,0 -1,-1 0,0 -1,0 -1,0 1,1 1,1 1,1l0 3z"/>
    <polygon class="fil10" points="40,225 40,225 42,225 42,224 40,224 "/>
    <path class="fil120" d="M61 226l0 -2c-2,1 -1,0 -2,1 1,2 0,1 2,1z"/>
    <path class="fil121" d="M80 227c1,-1 0,0 1,-2l-1 0c-1,0 0,0 -1,0l-1 1 2 -1 0 2z"/>
    <path class="fil117" d="M28 232l4 0c0,-1 0,-1 -1,-1 0,1 1,0 -2,1 0,0 0,0 0,0 -1,0 -1,0 -1,0z"/>
    <path class="fil122" d="M54 24l-2 0 0 2c1,-1 1,0 2,-2z"/>
    <path class="fil95" d="M73 94c2,-1 2,-1 2,-3l0 0 -2 3z"/>
    <path class="fil104" d="M102 74l1 0c0,-1 0,0 1,-1 -1,-1 0,0 -2,-1l0 2z"/>
    <path class="fil95" d="M77 87c0,0 0,0 0,1 1,-1 2,-1 2,-3 -1,1 0,0 -1,1 0,0 0,0 -1,0 0,0 0,1 0,1z"/>
    <path class="fil68" d="M24 65l2 -1c-1,-1 0,-1 -2,-1 -1,0 0,-1 0,0l1 0c-1,2 0,1 -1,2z"/>
    <path class="fil81" d="M73 221l1 0 -1 -2c-2,1 0,0 -1,1l1 0 0 1z"/>
    <polygon class="fil123" points="65,104 66,105 67,105 67,103 "/>
    <path class="fil117" d="M108 71c0,-1 0,-1 0,-2 -1,-1 -1,0 -1,-1 0,1 -1,1 0,2 1,2 0,0 1,1z"/>
    <path class="fil124" d="M90 193l0 -1 0 0 0 -1c-1,0 -1,0 -1,1 0,0 0,0 0,1 1,0 1,0 1,0z"/>
    <path class="fil81" d="M26 217l1 1 0 -2 1 0c-1,-1 1,0 -1,-1 -1,2 -1,1 -1,2z"/>
    <path class="fil121" d="M42 118l1 0 0 -1 -2 0c0,1 -1,1 1,1z"/>
    <path class="fil125" d="M17 113l-1 -1c0,1 -1,0 0,2 1,-1 0,0 1,-1z"/>
    <polygon class="fil126" points="50,223 49,221 48,221 48,223 "/>
    <path class="fil100" d="M72 230c0,2 0,0 1,1l1 -1c-1,-1 -2,1 -1,-1l-1 1z"/>
    <path class="fil122" d="M72 44l-1 1 -1 -1c0,2 -1,1 1,2l1 -2z"/>
    <path class="fil125" d="M21 109l0 0 1 -1c2,0 0,0 1,0l1 -1c0,0 0,0 0,0l0 0 -3 2z"/>
    <path class="fil108" d="M25 82l0 1c1,-1 0,0 1,-2 0,-1 0,0 -1,-1 0,1 1,1 0,2z"/>
    <polygon class="fil81" points="34,29 35,29 35,27 34,28 "/>
    <path class="fil126" d="M119 144l1 1 0 -1 -2 -1c1,1 0,1 1,1z"/>
    <path class="fil91" d="M75 223c0,0 1,2 0,-1 -2,0 -1,0 -1,0l1 0 0 1z"/>
    <path class="fil100" d="M19 91c1,-2 0,-1 1,-1 0,-1 -1,-3 -1,0l0 1z"/>
    <path class="fil64" d="M87 235c0,0 0,1 0,-1 0,-1 0,-1 0,-1l-1 1 1 1z"/>
    <path class="fil127" d="M73 223c-1,-1 0,0 0,-1 -2,1 -1,0 -1,2 1,-1 0,0 0,-1 1,0 1,0 1,0z"/>
    <path class="fil51" d="M15 5l1 2c0,-1 1,0 0,-2 -1,-1 -1,0 -1,-1l0 1z"/>
    <path class="fil122" d="M26 19c0,-1 0,-1 -1,-2 0,1 0,1 0,1 1,1 1,1 1,1z"/>
    <path class="fil128" d="M58 229l1 0c0,-2 1,-1 -1,-1l0 1 0 0z"/>
    <path class="fil81" d="M46 14c-1,-1 -1,-1 -1,-2 -1,-1 0,0 -1,-1l0 1 2 2z"/>
    <path class="fil129" d="M36 70l1 -1c0,0 1,1 1,1l0 -1 -2 0 0 1z"/>
    <path class="fil64" d="M29 230l0 -2c-1,1 -1,0 -1,2l1 0z"/>
    <path class="fil48" d="M89 99c0,0 1,0 1,-1l0 -1c-1,1 -1,0 -1,2z"/>
    <path class="fil51" d="M75 91c1,-1 1,0 1,-2 -1,1 -1,0 -1,2z"/>
    <path class="fil115" d="M123 112c1,1 0,1 2,1 1,0 0,0 0,0 1,-3 0,-1 0,-2l0 1 -2 0z"/>
    <path class="fil130" d="M63 234l1 0c0,-1 1,-1 0,-1 -1,1 0,0 -1,1z"/>
    <path class="fil100" d="M99 83c-1,-1 0,0 0,-1 -1,0 -1,0 -2,-1 1,2 1,1 2,2z"/>
    <path class="fil117" d="M90 74c0,-1 0,-1 -1,-2 1,1 0,1 1,2z"/>
    <polygon class="fil75" points="72,133 74,131 73,131 72,131 "/>
    <polygon class="fil91" points="49,74 49,72 48,72 "/>
    <path class="fil100" d="M92 92c0,-1 0,1 0,-1 1,-1 0,0 1,-1 -1,0 -1,0 -1,1 0,1 0,0 0,1z"/>
    <path class="fil124" d="M29 149l0 -2 -1 1c-1,0 -1,-1 -1,0 1,0 1,0 2,1z"/>
    <path class="fil120" d="M65 143c1,-1 0,0 1,-1l-2 -1c0,0 0,0 0,0 0,1 1,1 1,1 0,1 0,0 0,1z"/>
    <path class="fil120" d="M43 88c0,0 1,0 1,0 1,-2 0,-1 0,-2l-1 2z"/>
    <path class="fil48" d="M88 101c1,-1 1,0 1,-2 -1,1 -1,1 -1,2z"/>
    <path class="fil100" d="M51 227l0 -1c-1,0 -1,0 -1,0 1,1 0,1 1,1z"/>
    <path class="fil48" d="M97 81c0,-1 0,0 -1,-1l0 1 1 0z"/>
    <path class="fil120" d="M68 200c-1,-1 -1,-1 -1,-1l0 1 1 0z"/>
    <path class="fil51" d="M95 56l-1 -2 0 1c1,0 0,0 1,1z"/>
    <path class="fil131" d="M120 146l0 -1 -1 -1c0,1 -1,1 1,2z"/>
    <path class="fil117" d="M84 80c2,0 1,0 2,-1l-1 1c-1,0 -1,0 -1,0z"/>
    <path class="fil91" d="M34 237c-1,-2 0,0 -1,-1 1,2 0,1 1,1z"/>
    <path class="fil51" d="M80 84c1,0 0,0 1,0 0,0 0,-2 0,-2l-1 2z"/>
    <path class="fil117" d="M87 233c-1,-1 0,0 -2,-1 0,1 0,1 1,1l1 0z"/>
    <path class="fil129" d="M100 182c1,0 0,0 1,-1 -1,1 -1,0 -1,1z"/>
    <path class="fil115" d="M60 42c0,-1 0,0 1,-1 -1,0 -1,0 -1,1z"/>
    <path class="fil48" d="M31 75l1 0 0 -1c-1,1 -1,1 -1,1z"/>
    <path class="fil129" d="M67 62l-1 -2c0,1 0,1 1,2z"/>
    <path class="fil100" d="M94 54c0,-1 0,0 -1,0l-1 -1 2 1z"/>
    <path class="fil129" d="M97 17l-1 -1c1,1 0,1 1,1z"/>
    <polygon class="fil115" points="46,16 47,17 46,15 "/>
    <path class="fil124" d="M118 105c-1,0 -1,0 -1,-1 -1,0 1,1 -1,0 0,0 0,0 0,0 0,0 0,0 1,0 0,1 0,1 1,1z"/>
    <path class="fil129" d="M30 52c-1,0 1,0 -1,0l1 0z"/>
    <path class="fil132" d="M29 167c0,0 1,0 1,0l-2 0c2,-1 1,-1 1,0z"/>
    <path class="fil121" d="M15 4c0,-1 0,0 0,-1 -2,-2 1,2 -1,0l1 1z"/>
    <polygon class="fil117" points="11,103 12,102 "/>
    <polygon class="fil124" points="14,157 15,156 "/>
   </g>
   <ellipse class="fil133" cx="146" cy="241" rx="84" ry="12"/>
   <g>
    <path class="fil134" d="M174 79c1,2 7,5 10,10 4,-1 6,-2 11,-1 9,-8 10,-6 -1,-15 0,-1 -3,-4 -2,0 0,0 -13,3 -18,6z"/>
    <path class="fil135" d="M127 70c1,0 -1,2 0,2 2,2 8,3 9,3 5,-1 7,-2 10,-4 -1,-2 -1,-2 -1,-2 -13,1 -3,2 -18,1z"/>
    <path class="fil136" d="M127 73c-1,1 -3,7 -3,8 3,4 9,3 13,3 3,0 10,-1 12,-3 0,-2 -2,-7 -3,-9 -7,3 -12,5 -19,1z"/>
    <path class="fil137" d="M88 95c1,-1 6,-9 7,-11 -4,-2 -8,-1 -8,1 -2,3 0,9 1,10z"/>
    <path class="fil134" d="M72 83c5,1 13,8 15,13 1,-2 0,-1 -1,-5 -1,-1 -1,-4 0,-6 1,-4 6,-2 9,-1 3,-3 7,-6 7,-8 0,0 -14,-6 -18,-4 -4,2 -11,9 -12,11z"/>
    <path class="fil134" d="M110 103c-32,-19 28,17 0,0zm48 -4c20,-39 -11,20 0,0zm-78 32c-2,9 1,26 9,31 4,2 10,2 14,3 18,3 26,-13 48,-2 2,1 3,2 6,3 6,1 13,2 20,0 8,-3 14,-11 16,-15 -11,0 -18,-10 0,-11 5,-8 -4,-40 -9,-48 -1,-3 -5,-8 -10,-13 -8,-6 -19,-12 -22,-10 0,0 -1,0 -1,0 -7,4 1,10 -1,12 -6,7 -27,2 -26,1 1,-6 4,-13 2,-14 -1,-1 -4,1 -8,3 2,12 -7,15 -13,7 -6,0 -16,18 -16,19 -1,3 -4,8 -4,11 -3,6 -6,17 -5,23z"/>
    <path class="fil138" d="M90 94c0,0 -11,56 16,71 -19,1 -29,-13 -26,-36 1,-4 1,-12 3,-17 11,-28 7,-18 7,-18z"/>
    <path class="fil137" d="M95 87c4,2 10,-2 6,-7 -1,0 -3,2 -3,3 -1,1 -3,3 -3,4z"/>
    <path class="fil139" d="M194 267c-7,0 -11,-1 -15,-4 -3,-3 -7,-6 -7,-13 0,-3 0,-7 1,-10 1,-3 1,-5 2,-8 0,-2 0,-2 0,-3 1,-1 2,-1 5,-2 4,-1 3,0 6,-2 3,-2 5,-2 8,-2 3,0 4,3 6,4 1,1 5,0 6,3 2,4 0,6 0,9 0,3 1,6 0,10 0,2 -1,6 -2,8 -2,5 -7,8 -10,10zm-133 -21c0,-3 1,-2 0,-5 -1,-1 -1,-3 -1,-5 1,-10 8,-7 10,-9 2,-1 4,-4 6,-4 2,-1 7,-1 9,0 2,2 2,3 6,4 1,0 2,0 3,1 4,5 -1,5 -1,11 2,9 3,13 -2,20 -2,3 -6,5 -10,5 -6,1 -10,-1 -14,-4 -3,-1 -4,-3 -4,-5 -1,-4 -2,-6 -2,-9zm115 -21c0,-8 2,-7 5,-4 1,1 2,1 3,2 -2,2 -2,1 -4,1 -2,1 -3,1 -4,1zm13 -5c0,-3 2,-6 4,-6 1,2 2,4 1,7l-5 -1zm-13 -49c1,2 3,3 4,5 1,2 2,4 3,5 1,1 1,2 2,3 3,6 8,14 10,19 1,4 4,11 1,14 -1,-3 0,-3 -2,-5 -3,-1 -3,1 -5,2 0,1 0,1 -1,1 -1,-2 0,-1 -1,-3 -3,-2 -7,-13 -8,-16 -2,-4 -2,-7 -3,-11 0,-1 -2,-12 -1,-14 0,0 1,0 1,0zm-11 38c0,0 0,1 0,1 1,6 2,9 2,15 0,3 -2,10 -3,13 -3,4 -11,11 -18,12 -9,2 -18,1 -25,-3l-8 -3c-3,-2 -6,-7 -6,-13 -1,-1 -1,-1 -1,-2 0,0 0,-1 0,-2 0,-5 0,-7 1,-12 0,-1 0,-1 0,-2 0,-1 1,-1 1,-1 0,-2 7,-15 6,-25l0 -10c1,0 18,6 35,4 6,-1 8,-2 12,-3 -1,10 2,21 4,31zm69 -25c-2,-2 -1,-8 1,-9 3,-3 7,-2 9,1 -3,2 -10,8 -10,8zm-164 -24c2,2 2,6 4,8 4,3 24,12 25,4 0,-3 1,-3 0,-6 2,1 2,2 4,3 3,8 11,5 8,25 -1,5 -4,9 -5,13 0,0 0,1 0,1 0,1 0,0 0,1 -1,6 -3,11 -3,17 0,3 1,6 2,9 0,3 1,4 2,7 0,0 0,0 1,1l-3 0c-4,0 -6,5 -8,5 0,-3 -3,-9 -2,-11 1,-2 3,-3 3,-6 -1,-3 0,-2 1,-5 1,-2 2,-8 -1,-9 0,0 -1,0 -2,0 -4,3 -5,6 -6,7 -3,-1 -1,-2 -6,-3 0,-2 0,-3 0,-5 -1,-2 3,-5 3,-11 0,-3 -1,-5 -2,-7 -1,-3 -2,-4 -4,-6 -5,-4 -5,-4 -11,-6 -4,-3 -9,-2 -11,-2 -2,-1 -4,-3 -4,-4 0,-1 0,-2 0,-3 5,-8 -3,-7 0,-12 2,-2 2,-1 5,-1 1,-1 4,-5 4,-6 2,-1 4,-2 6,2zm115 62c0,0 0,1 -1,0 0,-2 -4,-7 -8,-6 -3,2 -2,9 -3,11 -2,5 0,8 -2,12 -1,5 -1,8 -1,13 -4,-1 -7,-4 -10,-6 0,0 7,-8 8,-16 4,-16 -6,-34 -5,-53 3,-2 9,-7 11,-9 -1,5 -2,9 -1,15 2,11 2,10 6,19 2,6 5,9 7,13 0,2 0,1 1,2 0,3 0,4 -2,5zm-81 -55c5,0 8,1 13,0 2,0 5,-2 6,-2 1,0 1,1 4,3 5,3 14,3 19,0 2,-1 1,-3 3,-4 6,4 10,5 21,4 0,2 -1,2 -2,3 -2,1 -2,2 -3,2 -6,4 -14,6 -21,6 -7,0 -33,0 -40,-12zm22 -3c3,-3 16,-4 20,-1l-1 1c-3,2 -6,3 -9,3 -3,1 -9,-1 -10,-3zm100 -3c0,-1 1,-1 2,-1 2,-1 3,-1 4,-2 4,-1 5,-1 5,2 0,4 -2,5 -6,5 -4,1 -4,-1 -5,-4zm36 0c0,-6 1,-7 4,-10 1,-2 1,-3 3,-4 1,-1 3,-1 5,-1l-5 8c-1,3 -4,6 -7,7zm-79 -16c2,-15 -1,13 0,0zm-91 -2c-1,0 0,0 -1,0 0,0 0,0 -1,0 0,0 -1,0 -1,0 -5,1 -14,4 -17,-1 3,-6 20,-6 21,0l-1 1zm163 28c1,-1 1,0 1,-1l4 -3c13,-10 17,-22 23,-37 1,-2 1,-6 2,-7 0,0 1,1 1,2 1,1 4,5 3,8 -3,4 -7,1 -6,10 0,2 1,6 1,7 -1,3 -3,3 -5,4 -6,3 -2,9 -4,12 -2,1 -5,1 -6,2 -1,1 -2,4 -3,6 -2,0 -9,-1 -11,-3zm17 -44c1,3 0,7 -2,10 -1,1 -4,3 -6,4 2,-6 6,-7 8,-14zm5 -4c0,-1 1,-2 1,-3 1,-1 2,-1 3,0 0,2 0,3 -1,4 -1,0 -2,0 -3,-1zm-2 -1c-1,5 4,5 7,4 -1,4 -5,15 -7,19 -3,-1 -3,-2 -7,-1 -3,2 -7,9 -8,12 -1,7 -1,7 -7,14 -2,1 -4,3 -7,4 -3,-3 -13,-7 -16,5 0,4 1,5 2,7 -1,3 -6,9 -8,13 -2,2 -2,2 -3,4 -2,2 -4,6 -6,9 -1,2 -3,7 -5,8 -2,-2 -2,-2 -5,0 -2,1 -4,3 -4,5 -1,-1 -4,-3 -5,-4 1,-1 1,0 3,0 4,2 5,-1 3,-5 -1,-3 -2,-3 -2,-5 -2,-4 -2,-7 -4,-10 -1,-5 -3,-6 -5,-9 -3,-6 -4,-6 -2,-10 2,-3 13,-10 16,-12 5,-3 13,-7 19,-8 1,3 1,7 10,5 4,-1 5,-6 4,-11 5,-2 7,-3 10,-5 6,-2 20,-8 23,-12 2,-2 4,-7 3,-11 -1,-3 -1,-1 0,-5 1,-4 4,-15 8,-15 6,18 -4,1 -7,14zm-80 3c0,-4 -2,-9 -2,-13 -2,-8 -1,-13 2,-21 1,-2 5,-7 6,-8 5,6 0,37 -6,42zm-116 -4c-1,-1 -3,-7 -4,-8 -3,-9 -5,-19 -4,-29 3,0 16,12 14,18 -3,7 -5,11 -6,19zm111 -20c-1,-1 -4,-7 -4,-9 0,-1 2,-3 3,-4 1,0 3,1 4,1 0,2 -1,4 -2,5 0,2 -1,6 -1,7zm-102 -6c-3,-9 -2,-13 7,-11 -2,3 -6,9 -7,11zm7 -8c1,-2 4,-6 6,-7 4,5 -2,8 -6,7zm32 -14c8,4 15,3 19,-1 1,2 3,7 3,9 -6,3 -19,4 -25,0 0,-1 2,-7 3,-8zm-53 10c-5,-2 3,-1 8,-2 1,-1 1,-2 2,-4l0 -5c1,0 4,0 4,0 1,3 2,6 4,6 1,1 2,1 5,-3 2,0 3,1 5,2 -2,1 -6,5 -7,6 -3,-1 -8,-2 -9,2 -1,2 -1,5 0,6 1,6 2,6 -2,1 -2,-4 -7,-8 -10,-9zm125 -6c-1,2 -4,4 -4,1 -1,-3 1,-4 2,-5 1,1 2,2 2,4zm-92 -1c2,-1 7,-4 9,-5 2,16 -9,8 -9,5zm-36 4c0,-1 1,-4 1,-5 1,-3 8,-3 11,-3 0,2 0,7 -3,8 -3,0 -7,0 -9,0zm119 -6c-1,3 -1,5 -2,6 -1,1 -3,0 -7,-3l9 -3zm10 5c0,0 1,1 1,2 -2,1 -4,4 -6,7 -2,-1 -3,-2 -6,-2 -1,1 -3,2 -5,3 -3,-5 -8,-8 -9,-10 1,-1 3,-1 4,-2 5,4 9,7 11,4 0,-2 1,-4 1,-8 2,0 3,0 3,0 1,-1 -3,3 0,7 2,2 5,0 6,-1zm-104 -4c-1,0 -2,3 -4,2 -1,0 -2,-3 -2,-4 2,0 4,1 6,2zm50 -4c-3,2 -5,3 -9,3 -1,1 -8,0 -10,-2 0,0 0,-1 1,-2 7,2 9,3 17,-1 0,0 0,2 1,2zm-3 14c11,-3 8,-3 6,-10 2,-2 3,-2 3,-6 6,1 14,6 19,9 4,2 5,4 7,7 2,2 4,4 5,6 1,2 1,3 2,5 4,7 5,9 6,18 1,5 5,22 2,26 -4,0 -11,0 -12,4 -1,6 9,7 12,7 -4,5 -4,6 -11,12 -1,1 -5,2 -6,3 -3,1 -15,0 -19,0 -3,-1 -4,-2 -6,-3 -22,-11 -30,5 -48,2 -4,-1 -10,-2 -14,-5 -4,-3 -6,-8 -7,-13 3,-1 11,-2 12,-4 1,-3 -1,-5 -3,-6 -1,-1 -4,-1 -6,-1l-4 0c0,-12 -1,-16 4,-29 1,-2 3,-8 4,-10 2,-4 4,-6 6,-9 4,1 11,-2 6,-8 1,-1 3,-2 4,-2 3,4 6,5 10,4 5,-1 4,-7 3,-12 14,-6 7,3 4,13 11,3 10,3 21,2zm7 -13c0,1 0,1 -1,1l-2 -5 3 1c0,1 1,2 0,3zm-22 -3c1,-1 4,-11 7,-11 5,-1 8,6 9,10 -1,1 -5,2 -7,2 -3,1 -6,0 -9,-1zm-46 145c0,-2 -2,-3 -4,-2 -1,0 -2,2 -2,3 -1,2 0,5 -2,6 -6,3 -2,4 -10,4 -4,-8 -8,-6 -8,0 1,3 2,6 2,7 1,3 -1,5 0,8 0,2 1,3 1,4 1,2 -1,4 2,12 3,10 16,12 24,10 6,-2 10,-6 11,-13 1,-1 5,-6 6,-7 7,-4 19,4 27,6 16,2 23,-3 28,-6 2,0 7,6 15,9 0,4 2,6 4,8 9,6 16,7 24,2 5,-2 9,-10 9,-17 0,-4 -2,-5 -2,-9 0,-1 1,-2 1,-4 0,-1 0,-3 1,-4 1,-2 1,-2 1,-5l0 -3 1 1c1,0 1,-2 2,-3l3 -7c1,-1 2,-2 2,-3 5,-8 15,-23 21,-28 4,-4 8,-8 14,-9 1,0 5,1 7,2 8,2 8,1 10,-4 2,-5 8,1 8,-10 0,-4 0,-5 3,-6 2,-1 4,-1 5,-4 0,-2 0,-2 0,-4 0,-3 -2,-6 -1,-10 3,-2 7,-1 6,-8 0,-3 -3,-6 -4,-9 -4,-5 -1,-15 -6,-14 -4,0 -6,15 -12,23 -15,23 -32,24 -50,31 -6,3 -13,6 -18,9 -6,5 -9,7 -14,13 -2,-3 -9,-14 -12,-15 3,-2 6,-2 11,-7 2,-2 5,-6 8,-10 11,1 13,-8 2,-11 0,0 -1,0 -1,0 0,-2 0,-6 0,-10 0,-2 2,-3 3,-5 7,-11 12,-38 3,-53 -5,-6 -20,3 -26,6 -2,-1 -5,-3 -7,-4 -5,-2 -9,-4 -14,-6 -3,-1 -8,-1 -9,-2 -1,0 -5,-10 -9,-10 -4,1 -6,6 -8,10 -5,2 -11,4 -16,6 -10,6 -6,5 -12,2 -8,-4 -22,-6 -29,-1 -2,2 -3,12 -3,16 0,24 11,27 12,47 -12,2 -12,11 0,11 5,16 12,17 18,19 2,12 -19,4 -22,1 -4,-3 -3,-8 -6,-10 -2,-3 -3,-2 -4,-3 -2,-1 -1,-2 -3,-4 -1,1 0,6 0,6 -4,2 -2,6 -4,6 -1,0 -3,0 -4,1 -1,2 -3,0 -5,0 -3,-1 1,3 2,4 -1,4 1,5 2,7 -2,1 -2,2 -3,2 -2,0 -4,1 -5,2 1,1 5,2 7,2 1,5 3,6 9,6 5,-1 21,6 23,12 3,9 -1,14 -3,16z"/>
    <path class="fil140" d="M113 244l6 3c9,4 18,5 27,3 7,-1 14,-7 18,-13 3,-4 3,-11 3,-15 0,-16 -5,-28 -6,-45 -1,0 -4,2 -10,4 -16,1 -28,-2 -37,-4 0,7 0,13 -2,19 -2,7 -5,14 -6,21 -2,12 0,23 7,27z"/>
    <path class="fil134" d="M248 155c2,0 4,0 5,1 5,2 3,10 -2,12 -4,1 -7,-3 -8,-5 -1,-4 3,-7 5,-8zm34 -47c-3,0 -5,6 -6,9 -1,2 -2,4 -2,6 -1,4 -2,2 -1,5 1,4 0,8 -2,10 -3,4 -5,4 -9,3 -4,5 -19,13 -25,16 2,4 0,9 -4,10 -6,2 -8,-3 -9,-5 -5,0 -14,5 -19,8 -4,2 -14,9 -16,12 -2,4 -1,4 2,10 2,3 4,4 5,9 2,3 2,6 4,10 0,2 1,2 2,5 2,4 1,7 -3,5 -2,0 -2,-1 -3,0 1,1 4,3 5,4 0,-2 2,-4 4,-5 3,-2 3,-2 5,0 2,-2 12,-18 14,-21 2,-4 7,-10 8,-13 -1,-2 -2,-3 -2,-7 4,-12 12,-7 17,-4 1,-2 4,-4 6,-5 2,-2 6,-5 9,-8 -2,-9 4,-19 13,-16 2,-4 7,-17 7,-21 -3,2 -6,-1 -6,-4 2,-6 6,-1 7,-2 1,0 1,-1 1,-2 0,-2 -1,-6 -2,-9z"/>
    <path class="fil138" d="M55 165c-1,1 -4,4 1,9 1,1 -2,1 -2,3 -1,5 1,7 2,7 5,2 5,-1 14,2 6,3 13,6 15,12 1,2 2,5 2,8 -1,6 -4,8 -3,10 0,2 0,3 0,5 5,2 3,2 6,4 2,-2 11,-17 8,0 -1,3 -1,2 -1,5 0,3 -1,5 -2,7 -1,2 1,11 1,15 2,-3 2,-6 9,-8 1,0 5,0 5,0 0,-1 -4,-6 -5,-10 -3,-17 2,-24 6,-40 1,-3 2,-14 2,-18 -7,-3 -9,-10 -14,-10 0,4 1,6 -2,7 -1,1 -3,1 -4,1 -12,-2 -17,-4 -20,-7 -1,-2 -1,-6 -3,-9 -1,-2 -8,-6 -9,2 0,4 -5,2 -6,5z"/>
    <path class="fil134" d="M171 254c-1,-5 -1,-9 1,-15 1,-3 -1,-7 1,-12 1,-2 0,-9 3,-11 4,-1 8,4 8,6l1 0c2,-1 2,-2 2,-5 -1,-1 -1,0 -1,-2 -2,-4 -5,-7 -7,-13 -4,-9 -4,-8 -6,-19 -1,-6 0,-10 1,-15 -1,1 -3,3 -8,6 -1,1 -3,2 -3,3 -1,19 8,37 4,53 -1,5 -2,8 -4,11 -2,1 -4,3 -4,4 1,2 5,6 12,9z"/>
    <path class="fil134" d="M68 250c-1,-20 1,24 0,0zm-3 -19c3,-1 5,1 4,4 0,2 -1,4 -3,5 -5,0 -7,-8 -1,-9zm25 -2c4,-2 5,6 2,7 -3,2 -7,-4 -2,-7zm-13 -5c1,-1 5,0 6,1 2,2 1,5 -1,6 -1,1 -5,0 -6,-1 -2,-1 -1,-5 1,-6zm-16 22c0,3 0,5 1,9 2,7 11,10 17,10 9,0 15,-5 16,-12 1,-4 -1,-9 -2,-14 0,-6 6,-6 2,-13 -2,-2 -4,0 -5,0 -3,0 -3,-2 -5,-3 -4,-4 -8,-2 -10,-1 -2,2 -3,4 -5,5 -2,2 -10,-2 -11,9 0,2 1,4 1,6 1,2 1,1 1,4z"/>
    <path class="fil134" d="M177 250c-1,-3 2,-7 4,-8 1,-1 3,-1 4,-2 2,-1 3,-6 8,-3 2,0 3,0 3,2 1,3 1,1 3,3 2,0 3,1 4,3 2,6 0,9 -4,11 -2,1 -4,3 -6,2 -4,0 -7,0 -10,-2 -3,-1 -6,-4 -6,-6zm24 -20c4,-2 6,7 2,9 -4,1 -8,-6 -2,-9zm-22 -1c1,0 3,2 3,4 1,3 0,5 -3,5 -3,0 -7,-6 0,-9zm11 -4c5,-2 8,8 3,9 -6,3 -8,-7 -3,-9zm16 32c4,-15 -1,-13 0,-18 0,-3 2,-5 0,-9 -1,-3 -5,-2 -6,-3 -2,-1 -3,-4 -6,-4 -3,0 -5,0 -8,2 -5,5 -10,-3 -13,7 0,3 1,5 0,8 -2,7 -1,18 4,22 4,4 12,6 17,5 5,-1 11,-5 12,-10z"/>
    <path class="fil134" d="M144 180c7,0 15,-3 21,-7 2,-1 6,-4 7,-5 -10,2 -17,-1 -23,-4 -10,10 -25,2 -26,-1 -5,3 -14,4 -19,4 6,11 29,13 40,13z"/>
    <path class="fil134" d="M175 185c1,7 9,30 13,30 2,0 2,-4 6,-3 2,2 1,2 2,5 4,1 1,-10 -4,-21 -4,-9 -11,-20 -15,-25 -1,-1 -1,-1 -2,-1 -1,1 -2,6 0,15z"/>
    <path class="fil141" d="M251 172c5,1 13,6 16,3 2,-1 2,-5 3,-6 1,-1 4,-1 5,-2 3,-2 0,-10 4,-12 3,-1 5,-1 5,-4 1,-1 0,-7 0,-8 -1,-9 3,-4 6,-10 2,-4 -4,-9 -5,-11 -10,32 -15,35 -34,50z"/>
    <path class="fil142" d="M101 119c0,0 0,0 0,0 0,0 0,0 0,0l2 -2c0,-1 -2,-4 0,-6 1,-2 4,-2 6,-1 3,2 3,8 -2,9l0 2c2,0 4,-1 5,-2l1 -2c1,3 1,6 0,9 0,0 0,0 0,-1 0,0 -1,0 -1,-1 0,0 0,-1 0,-1l-2 -1c0,-1 0,0 0,1l-2 -1c1,2 2,2 4,4 -1,2 -1,4 -2,4 -1,1 -2,2 -4,3 -2,1 -2,0 -5,0 -4,-1 -5,-3 -6,-5 -1,-1 0,0 -1,-1 0,-1 0,-1 0,-1 0,-5 -1,-12 4,-15 1,-1 2,-2 4,-2 -1,0 -2,1 -2,3 0,2 0,2 0,4 -1,2 0,-1 -1,1l2 2zm-11 2c-3,16 18,20 24,11 3,-6 4,-17 -1,-24 -8,-10 -19,-2 -23,13z"/>
    <path class="fil140" d="M85 102c2,-6 -6,-16 -14,-18 -1,10 1,20 4,29 1,1 3,7 4,8 2,-9 3,-10 6,-19z"/>
    <path class="fil140" d="M195 125c8,-6 13,-41 7,-43 -2,1 -6,7 -7,9 -4,8 -5,13 -2,22 0,4 2,8 2,12z"/>
    <path class="fil142" d="M190 239c5,-1 4,2 5,4 2,1 5,0 6,4 1,4 -1,5 -3,7 -3,2 -3,2 -7,2 -4,0 -13,-4 -11,-8 0,-3 2,-4 5,-5 3,0 3,-2 5,-4zm-13 11c0,2 3,5 6,6 3,2 6,2 10,2 2,1 5,-1 6,-2 4,-2 6,-5 4,-11 -1,-2 -2,-3 -4,-3 -2,-2 -2,0 -3,-3 0,-2 -2,-3 -4,-3 -6,-1 -5,3 -7,4 -1,1 -3,1 -4,2 -2,1 -5,5 -4,8z"/>
    <path class="fil142" d="M155 107c-1,4 9,-4 10,-5 4,-3 5,-3 3,-6 -1,-1 -3,-3 -4,-2 -5,5 -9,11 -9,13z"/>
    <path class="fil143" d="M105 127c1,0 1,1 1,2 0,-1 0,0 0,-1 -1,0 -1,-1 -1,-1zm-8 -6c1,-1 2,0 2,1 -1,1 -2,0 -2,-1zm-3 5c1,-1 2,-1 3,0 -1,1 -1,1 -2,0l0 2c1,2 2,4 6,5 3,0 3,1 5,0 2,-1 3,-2 4,-3 -2,1 -1,0 -1,0 -1,-2 -1,0 -2,-2 -1,-1 -1,-2 0,-3 1,-1 1,0 1,-2 0,0 0,-1 -1,-1 0,-1 1,0 0,-1 0,2 0,2 -1,4 0,0 0,0 0,0l0 1c-2,1 -1,1 -3,1 -1,0 0,-1 -1,0 -1,1 0,0 -2,0l0 -1c0,-2 0,0 1,-3l-1 1c0,0 0,0 -1,0l1 -4c-2,0 -2,-1 -2,-2 2,0 1,0 2,1 1,0 0,0 1,0l-2 -2c1,-2 0,1 1,-1 0,-2 0,-2 0,-4 0,-2 1,-3 2,-3 -2,0 -3,1 -4,2 -5,3 -4,10 -4,15z"/>
    <path class="fil136" d="M128 69c4,2 14,2 17,-1 -2,-4 -5,-11 -10,-10 -3,0 -6,10 -7,11z"/>
    <path class="fil144" d="M202 146c1,-5 -19,-6 -19,-2 -2,5 17,9 19,2z"/>
    <path class="fil144" d="M93 142c0,-7 -22,-5 -21,0 1,6 19,3 21,0z"/>
    <path class="fil144" d="M125 164c4,5 20,5 23,-1 -8,-4 -19,-2 -23,1z"/>
    <path class="fil142" d="M254 158c0,5 -3,11 -8,6 -3,-3 2,-9 8,-6zm-6 -3c-2,1 -6,4 -5,8 1,2 4,6 8,5 5,-2 8,-10 2,-12 -1,-1 -3,-2 -5,-1z"/>
    <path class="fil141" d="M262 162c4,-2 11,-12 13,-16 -5,-1 -8,2 -10,4 -1,2 -3,7 -3,12z"/>
    <path class="fil141" d="M70 81c3,0 7,-1 10,-1 3,-1 3,-6 3,-8 -7,-1 -12,0 -13,9z"/>
    <path class="fil141" d="M233 185c2,-2 8,-8 12,-10 -2,-2 -7,-3 -10,-1 -2,1 -5,8 -2,11z"/>
    <path class="fil141" d="M225 161c1,3 2,5 3,5 2,0 5,0 6,-1 2,-1 3,-4 3,-6 -1,-3 -1,-2 -5,-1 -2,1 -5,2 -7,3z"/>
    <path class="fil141" d="M106 76c1,4 15,11 11,-5 -3,1 -9,4 -11,5z"/>
    <path class="fil142" d="M157 82c-2,-1 -2,-6 0,-6 1,0 5,1 6,2 -1,2 -4,5 -6,4zm-2 -8c-4,6 0,15 7,9 2,-2 4,-5 1,-7 -2,-1 -5,-3 -8,-2z"/>
    <path class="fil142" d="M150 93c0,0 0,0 0,-1 0,0 0,-1 0,-2 0,-1 0,-1 0,-2 1,0 2,0 3,0 1,0 1,0 2,1 -1,2 -3,3 -5,4zm-1 -7c-1,1 -2,6 -1,8 2,3 4,1 6,0 4,-4 3,-8 0,-8 -1,-1 -4,-1 -5,0z"/>
    <path class="fil141" d="M190 101c0,-1 1,-5 2,-7 0,-1 1,-3 2,-5 -1,0 -4,-1 -5,-1 -1,1 -3,3 -3,4 0,2 3,8 4,9z"/>
    <path class="fil141" d="M255 158c-8,-7 -13,4 -10,7 2,1 4,2 6,2 3,-1 6,-7 4,-9z"/>
    <path class="fil142" d="M193 229c1,1 1,3 -1,3 -1,0 -2,0 -2,-1 -2,-5 2,-4 3,-2zm-3 -4c-5,2 -3,12 3,9 5,-1 2,-11 -3,-9z"/>
    <path class="fil142" d="M67 233c0,2 0,4 -3,4 0,-2 0,-2 0,-3l3 -1zm-2 -2c-6,1 -4,9 1,9 2,-1 3,-3 3,-5 1,-3 -1,-5 -4,-4z"/>
    <path class="fil142" d="M200 235c0,-1 0,-2 1,-2 1,0 2,1 3,2 -1,2 -3,2 -4,0zm1 -5c-6,3 -2,10 2,9 4,-2 2,-11 -2,-9z"/>
    <path class="fil145" d="M104 120c1,1 1,2 1,3 -4,4 -5,-4 -1,-3zm-3 -1c-1,0 0,0 -1,0 0,2 0,1 0,1l-1 4c1,0 1,0 1,0l1 -1c-1,3 -1,1 -1,3l1 0 1 1c1,-1 0,0 1,0 2,0 1,0 3,-1l0 -1c0,0 0,0 0,0 1,-2 1,-2 1,-4l0 0 0 -2c-2,0 -3,-1 -4,-2l-2 2c0,0 0,0 0,0 0,0 0,0 0,0z"/>
    <path class="fil142" d="M178 234c0,-2 1,-3 2,-3 1,2 1,3 0,4 -1,0 -2,-1 -2,-1zm1 -5c-7,3 -3,9 0,9 3,0 4,-2 3,-5 0,-2 -2,-4 -3,-4z"/>
    <path class="fil146" d="M108 125c2,0 2,0 2,1 -2,1 -1,0 -2,-1zm-1 -4l0 0c1,1 0,0 0,1 1,0 1,1 1,1 0,2 0,1 -1,2 1,1 2,2 3,4 -1,1 0,1 -1,1 0,0 -1,1 1,0 1,0 1,-2 2,-4 -2,-2 -3,-2 -4,-4l2 1c0,-1 0,-2 0,-1l2 1c0,0 0,1 0,1 0,1 1,1 1,1 0,1 0,1 0,1 1,-3 1,-6 0,-9l-1 2c-1,1 -3,2 -5,2z"/>
    <path class="fil141" d="M157 82c2,1 5,-2 6,-4 -1,-1 -5,-2 -6,-2 -2,0 -2,5 0,6z"/>
    <path class="fil147" d="M176 225c1,0 2,0 4,-1 2,0 2,1 4,-1 -1,-1 -2,-1 -3,-2 -3,-3 -5,-4 -5,4z"/>
    <path class="fil148" d="M272 127c-2,5 -8,12 -10,13 4,2 8,-1 9,-3 2,-3 2,-7 1,-10z"/>
    <path class="fil142" d="M141 143c1,2 8,4 8,0 1,-3 -7,-2 -8,0z"/>
    <path class="fil147" d="M189 220l5 1c1,-3 0,-5 -1,-7 -2,0 -4,3 -4,6z"/>
    <path class="fil149" d="M181 77c5,5 9,5 9,-3l-8 3 -1 0z"/>
    <path class="fil141" d="M199 77c0,-2 -1,-3 -2,-4 -1,1 -3,2 -2,5 0,3 3,1 4,-1z"/>
    <path class="fil137" d="M96 75c-2,-1 -4,-2 -6,-2 0,1 1,4 2,4 2,1 3,-2 4,-2z"/>
    <path class="fil137" d="M150 93c2,-1 4,-2 5,-4 -1,-1 -1,-1 -2,-1 -1,0 -2,0 -3,0 0,1 0,1 0,2 0,1 0,2 0,2 0,1 0,1 0,1z"/>
    <path class="fil150" d="M195 228c-2,-4 -9,-3 -7,4 1,2 2,2 5,2 3,-1 2,-3 2,-6z"/>
    <path class="fil151" d="M104 120c-4,-1 -3,7 1,3 0,-1 0,-2 -1,-3z"/>
    <path class="fil137" d="M149 73c1,0 1,0 1,-1 1,-1 0,-2 0,-3l-3 -1 2 5z"/>
    <path class="fil150" d="M202 238c1,1 2,-1 3,-2 0,-3 -2,-6 -4,-5 -3,0 -3,3 -3,4 1,2 2,3 4,3z"/>
    <path class="fil150" d="M63 233c-1,2 -1,4 1,5 4,2 7,-4 3,-6 -2,-1 -3,0 -4,1z"/>
    <path class="fil152" d="M176 234c0,1 2,4 4,3 2,0 3,-5 0,-7 -2,-1 -5,2 -4,4z"/>
    <path class="fil151" d="M109 130c1,0 0,0 1,-1 -1,-2 -2,-3 -3,-4 -1,1 -1,2 0,3 1,2 1,0 2,2z"/>
    <path class="fil149" d="M76 55c1,-1 1,-1 1,-2 -1,-1 0,0 -1,-2 0,1 -1,2 0,4z"/>
    <path class="fil153" d="M94 126c0,0 0,0 0,1 1,1 0,0 1,1l0 -2c1,1 1,1 2,0 -1,-1 -2,-1 -3,0z"/>
    <path class="fil154" d="M100 120c0,0 0,1 0,-1 -1,-1 0,-1 -2,-1 0,1 0,2 2,2z"/>
    <path class="fil154" d="M97 121c0,1 1,2 2,1 0,-1 -1,-2 -2,-1z"/>
    <path class="fil154" d="M108 125c1,1 0,2 2,1 0,-1 0,-1 -2,-1z"/>
    <path class="fil155" d="M100 126l0 1c2,0 1,1 2,0l-1 -1 -1 0z"/>
    <path class="fil153" d="M106 129c0,-1 0,-2 -1,-2 0,0 0,1 1,1 0,1 0,0 0,1z"/>
    <path class="fil156" d="M45 287c-2,1 -1,1 -1,0 0,0 0,0 1,0 -1,-1 0,-1 -1,0 -1,0 -1,0 0,1 1,0 0,0 1,-1z"/>
    <path class="fil157" d="M286 191c1,1 -1,0 1,0 -1,-1 0,0 -1,0 -1,-1 0,0 0,0z"/>
    <path class="fil158" d="M45 287l0 0c-1,0 -1,0 -1,0 0,1 -1,1 1,0z"/>
    <path class="fil159" d="M185 222l-1 0c1,1 1,0 1,0z"/>
    <path class="fil142" d="M120 93c-1,-1 -2,-6 0,-6 1,0 5,1 6,2 0,2 -4,5 -6,4zm-2 -8c-3,6 1,15 7,9 2,-2 5,-5 1,-7 -2,-1 -5,-3 -8,-2z"/>
    <path class="fil141" d="M120 93c2,1 6,-2 6,-4 -1,-1 -5,-2 -6,-2 -2,0 -1,5 0,6z"/>
    <path class="fil142" d="M122 74c0,0 0,0 -1,-1 0,0 0,-1 0,-1 0,-1 0,-2 1,-3 0,1 1,1 2,1 1,0 1,0 2,1 -1,1 -3,2 -4,3zm-2 1c1,3 3,1 5,-1 2,-4 2,-7 0,-6 -4,0 -8,1 -5,7z"/>
    <path class="fil137" d="M121 75c2,-1 3,-1 4,-4 2,-3 -2,-2 -4,-1 -3,2 0,5 0,5z"/>
    <path class="fil142" d="M117 105c1,4 -9,-4 -10,-5 -4,-4 -5,-3 -2,-6 0,-1 2,-4 3,-2 5,5 9,11 9,13z"/>
    <circle class="fil160 str0" cx="103" cy="122" r="2"/>
    <circle class="fil161 str0" cx="107" cy="114" r="5"/>
    <circle class="fil161 str0" cx="101" cy="127" r="1"/>
    <path class="fil142" d="M165 120c0,0 0,0 0,0 0,0 0,0 0,0l2 -2c0,-2 -2,-4 0,-6 1,-2 4,-2 6,-1 3,2 3,8 -2,9l0 2c2,0 4,-1 5,-2l1 -2c1,3 1,6 0,9 0,0 0,0 0,-1 0,0 -1,0 -1,-1 0,0 0,-1 0,-1l-2 -1c0,-1 0,0 0,1l-2 -1c1,2 2,2 4,3 -1,3 -1,5 -2,5 -1,1 -2,2 -4,3 -2,1 -2,0 -5,0 -4,-1 -5,-3 -6,-5 -1,-1 0,0 -1,-1 0,-1 0,-1 0,-1 0,-5 -1,-12 4,-15 1,-1 2,-2 4,-2 -1,0 -2,1 -2,3 0,2 0,2 0,4 -1,2 0,-1 -1,1l2 2zm-11 2c-3,16 18,20 24,11 3,-6 4,-17 -1,-24 -8,-10 -19,-3 -23,13z"/>
    <path class="fil143" d="M169 128c1,0 1,1 1,2 0,-1 0,0 0,-1 -1,0 -1,-1 -1,-1zm-8 -6c1,-1 2,0 2,1 -1,1 -2,0 -2,-1zm-3 5c1,-1 2,-1 3,-1 -1,2 -1,1 -2,1l0 2c1,2 2,4 6,5 3,0 3,1 5,0 2,-1 3,-2 4,-3 -2,1 -1,0 -1,0 -1,-2 -1,0 -2,-2 -1,-1 -1,-2 0,-3 1,-1 1,0 1,-2 0,0 -1,-1 -1,-1 0,-1 1,0 0,-1 0,2 0,2 -1,4 0,0 0,0 0,0l0 1c-2,0 -1,1 -3,1 -1,0 0,-1 -1,0 -1,1 0,0 -2,0l0 -1c0,-2 0,0 1,-3l-1 1c0,0 0,0 -1,0l1 -4c-2,0 -2,-1 -2,-2 2,0 1,0 2,1 0,0 0,0 1,0l-2 -2c1,-2 0,1 1,-1 0,-2 0,-2 0,-4 0,-2 1,-3 2,-3 -2,0 -3,1 -4,2 -5,3 -4,10 -4,15z"/>
    <path class="fil145" d="M168 121c1,1 1,2 1,3 -4,4 -5,-4 -1,-3zm-3 -1c-1,0 -1,0 -1,0 0,2 0,1 0,1l-1 4c1,0 1,0 1,0l1 -1c-1,3 -1,1 -1,3l1 0 1 1c1,-1 0,0 1,0 2,0 1,-1 3,-1l0 -1c0,0 0,0 0,0 1,-2 1,-2 1,-4l0 0 0 -2c-2,0 -3,-1 -4,-2l-2 2c0,0 0,0 0,0 0,0 0,0 0,0z"/>
    <path class="fil146" d="M172 126c1,0 2,0 2,1 -2,1 -1,-1 -2,-1zm-1 -4l0 0c1,1 0,0 0,1 0,0 1,1 1,1 0,2 0,1 -1,2 1,1 2,2 3,4 -1,1 0,1 -1,1 0,0 -1,1 1,0 1,0 1,-2 2,-5 -2,-1 -3,-1 -4,-3l2 1c0,-1 0,-2 0,-1l2 1c0,0 0,1 0,1 0,1 1,1 1,1 0,1 0,1 0,1 1,-3 1,-6 0,-9l-1 2c-1,1 -3,2 -5,2z"/>
    <path class="fil151" d="M168 121c-4,-1 -3,7 1,3 0,-1 0,-2 -1,-3z"/>
    <path class="fil151" d="M173 131c1,0 0,0 1,-1 -1,-2 -2,-3 -3,-4 -1,1 -1,2 0,3 1,2 1,0 2,2z"/>
    <path class="fil153" d="M158 127c0,0 0,0 0,1 1,1 0,0 1,1l0 -2c1,0 1,1 2,-1 -1,0 -2,0 -3,1z"/>
    <path class="fil154" d="M164 121c0,0 0,1 0,-1 -1,-1 0,-1 -2,-1 0,1 0,2 2,2z"/>
    <path class="fil154" d="M161 122c0,1 1,2 2,1 0,-1 -1,-2 -2,-1z"/>
    <path class="fil154" d="M172 126c1,0 0,2 2,1 0,-1 -1,-1 -2,-1z"/>
    <path class="fil155" d="M164 127l0 1c2,0 1,1 2,0l-1 -1 -1 0z"/>
    <path class="fil153" d="M170 130c0,-1 0,-2 -1,-2 0,0 0,1 1,1 0,1 0,0 0,1z"/>
    <circle class="fil160 str0" cx="167" cy="123" r="2"/>
    <circle class="fil161 str0" cx="171" cy="115" r="5"/>
    <circle class="fil161 str0" cx="165" cy="127" r="1"/>
    <path class="fil162 str0" d="M122 140c0,0 14,-10 31,0"/>
    <path class="fil142" d="M135 143c-2,2 -9,4 -9,0 -1,-3 7,-2 9,0z"/>
    <circle class="fil163" cx="280" cy="122" r="3"/>
    <path class="fil140" d="M190 237c-4,1 -1,4 -5,5 -4,0 -6,1 -7,6 -2,5 8,9 12,9 6,1 14,-2 13,-10 -1,-4 -4,-3 -6,-5 -2,-2 -2,-7 -7,-5z"/>
    <path class="fil142" d="M83 228c-2,1 -5,2 -5,-1 1,-1 1,-1 2,-1l3 2zm1 -3c-5,-5 -12,1 -8,5 1,2 4,3 6,1 3,-1 3,-4 2,-6z"/>
    <path class="fil150" d="M80 224c-2,0 -5,1 -5,3 1,6 9,5 9,1 0,-3 -2,-4 -4,-4z"/>
    <path class="fil142" d="M89 234c0,-2 0,-2 1,-3 1,0 2,1 2,2 0,2 -2,2 -3,1zm0 -5c-6,2 -1,10 3,8 4,-2 1,-10 -3,-8z"/>
    <path class="fil150" d="M90 237c2,0 3,-1 3,-3 1,-3 -1,-6 -3,-5 -3,1 -3,4 -3,5 0,2 2,3 3,3z"/>
    <path class="fil142" d="M79 238c6,0 4,3 6,4 1,2 4,1 5,5 1,4 -1,5 -3,6 -3,3 -3,2 -7,2 -4,0 -13,-3 -11,-8 1,-3 2,-3 5,-4 4,-1 4,-2 5,-5zm-13 12c1,2 4,5 6,6 3,2 6,2 10,2 2,0 5,-1 6,-2 4,-2 6,-5 4,-11 -1,-2 -2,-3 -3,-4 -3,-1 -2,1 -4,-2 0,-2 -2,-3 -4,-3 -6,-1 -4,3 -6,4 -2,1 -3,0 -5,1 -2,1 -5,5 -4,9z"/>
    <path class="fil140" d="M79 236c-4,2 -1,5 -5,5 -3,1 -6,2 -7,6 -2,6 8,10 12,10 6,0 15,-3 13,-11 -1,-3 -4,-3 -6,-4 -2,-2 -2,-7 -7,-6z"/>
    <path class="fil142" d="M62 180c-2,1 -4,2 -5,0 1,-1 1,-1 2,-1l3 1zm0 -2c-3,-4 -9,1 -6,4 1,2 3,2 5,1 2,-1 3,-3 1,-5z"/>
    <path class="fil150" d="M59 177c-1,0 -4,1 -4,3 1,5 7,4 7,0 0,-2 -1,-3 -3,-3z"/>
    <path class="fil142" d="M59 166c0,2 0,3 -2,3 0,-2 0,-1 0,-2l2 -1zm-1 -1c-4,0 -4,6 -1,6 2,0 3,-1 4,-3 0,-2 -1,-3 -3,-3z"/>
    <path class="fil150" d="M56 166c-1,1 -1,3 0,4 3,2 6,-2 4,-4 -2,-1 -3,-1 -4,0z"/>
    <path class="fil142" d="M68 162c-2,0 -4,0 -3,-2 1,0 1,0 2,0l1 2zm1 -1c-1,-4 -7,-4 -6,0 0,1 1,3 3,3 2,0 3,-1 3,-3z"/>
    <path class="fil150" d="M68 159c-2,-1 -4,-1 -4,1 -2,3 3,5 4,3 1,-2 0,-3 0,-4z"/>
    <path class="fil142" d="M63 172c0,-3 2,-1 3,-2 1,-1 1,-3 3,-3 2,0 2,1 3,3 1,2 1,2 0,4 0,2 -3,6 -5,5 -2,-1 -2,-2 -2,-4 0,-2 -1,-2 -2,-3zm4 9c2,-1 4,-2 5,-3 1,-1 1,-3 2,-5 0,-1 0,-3 0,-4 -1,-2 -3,-3 -6,-3 -1,0 -2,1 -2,2 -1,1 0,1 -2,1 -1,0 -2,1 -2,2 -1,3 1,3 1,4 0,1 0,1 1,2 0,2 2,4 3,4z"/>
    <path class="fil140" d="M62 172c0,2 2,1 2,3 0,2 0,4 2,5 3,1 6,-3 7,-6 1,-3 0,-8 -4,-8 -2,1 -2,2 -3,3 -2,1 -4,0 -4,3z"/>
    <path class="fil164" d="M108 210c-2,7 -10,33 15,38 0,0 -9,-14 -11,-19 -2,-6 -4,-19 -4,-19z"/>
    <path class="fil165" d="M155 179c0,0 -12,6 -41,-2 0,0 0,12 -1,17 -1,5 14,-7 42,-15z"/>
    <path class="fil166" d="M210 167c0,0 -19,25 -13,36 6,10 -10,-19 -10,-19 0,0 9,-11 23,-17z"/>
    <path class="fil138" d="M119 165c0,0 -5,1 -15,1 -2,0 4,7 11,10 7,3 -3,-4 4,-11z"/>
    <path class="fil165" d="M85 101c2,-6 -6,-15 -14,-18 0,3 0,5 0,7 6,3 12,9 13,14 0,-1 0,-2 1,-3z"/>
    <path class="fil165" d="M195 125l0 0 0 -1c0,1 0,1 0,1zm9 -36c0,-4 -1,-6 -2,-7 -2,1 -6,7 -7,9 -4,8 -5,12 -2,21 -1,-5 0,-9 4,-15 1,-2 5,-7 6,-9 1,0 1,1 1,1zm-10 30l0 1c0,0 0,0 0,-1l0 0z"/>
    <path class="fil138" d="M172 238c0,0 -4,8 -9,11 0,0 7,6 8,5 1,-1 0,-4 0,-8 0,-4 1,-8 1,-8z"/>
   </g>
   <g>
    <path class="fil167" d="M58 212l1 0c0,1 1,1 1,1 2,1 3,3 4,5 1,1 1,1 2,2l1 5c1,3 0,6 -1,9 -1,3 -3,5 -5,7 0,0 1,-1 0,0 0,1 -4,8 -7,9 0,-1 0,-2 -1,-3 0,1 -1,3 -1,3 -2,4 -10,11 -14,13 -1,0 -1,0 -1,1 1,0 1,-1 2,-1 -1,1 -2,1 -4,1 -6,1 -11,-2 -15,-5 0,-1 0,-1 -1,-1 0,-1 -1,-1 -1,-1 -1,-1 -2,-2 -2,-3l-4 -6c-1,-2 -2,-4 -3,-6 -5,-14 -1,-18 -1,-20 1,-1 1,-3 2,-4l1 -3c0,0 -1,-1 -2,-1 0,1 -2,3 -2,5 -6,10 -3,20 1,30l1 4c4,6 9,9 15,12 4,2 1,1 5,2 2,1 3,1 5,1 2,0 4,0 6,0 2,-1 3,-1 5,-1l0 1c4,-2 6,0 11,-5l2 -1c1,2 0,2 1,3 1,-2 1,-3 1,-5 0,-1 2,-2 2,-2 1,-2 1,-2 2,-3 2,-2 3,-5 4,-8 -2,0 -2,-1 -3,-1 -1,-1 -1,0 -1,-2 1,2 2,2 4,2 0,-1 -1,0 0,-1 1,-1 1,-2 1,-3l-2 -1 2 0c1,-3 1,-6 2,-9 -1,-3 0,-6 -3,-13 -2,-2 -2,-2 -4,-5 -1,-1 -3,-3 -4,-4 0,0 0,0 -1,1 0,0 0,0 0,0 0,0 0,0 -1,1z"/>
    <path class="fil168" d="M19 224c-1,1 -1,2 0,3 0,3 0,6 6,9 8,4 24,3 29,-4 5,-5 2,-10 -3,-13 -1,2 -5,9 -8,5 0,-1 3,-3 3,-4 0,0 1,0 1,0l2 -2c-1,-1 -2,-1 -3,-1 -1,-1 0,-1 -2,-1 0,1 -1,2 -1,2 -1,-1 -1,0 -1,-1 0,-1 1,-1 1,-2 -3,-2 -14,-2 -18,1 -2,1 -2,1 -3,3 -1,1 -3,2 -3,3 0,0 1,3 2,3 0,2 2,2 1,4 -1,0 -2,-3 -3,-5z"/>
    <path class="fil169" d="M61 241c-1,1 -2,1 -3,2l-4 2c-3,1 -3,1 -8,2 -10,2 -24,0 -32,-8 -1,-1 -3,-3 -4,-5 -2,-3 -3,-9 -2,-12 0,2 -4,6 1,20 1,2 2,4 3,6l4 6c0,1 1,2 2,3 0,0 1,0 1,1 1,0 1,0 1,1 4,3 9,6 15,5 2,0 3,0 4,-1 -1,0 -1,1 -2,1 0,-1 0,-1 1,-1 4,-2 12,-9 14,-13 0,0 1,-2 1,-3 1,1 1,2 1,3 3,-1 7,-8 7,-9 1,-1 0,0 0,0z"/>
    <path class="fil170" d="M18 221c-1,-2 -2,-4 -3,-5l-2 0c-1,2 -2,3 -3,5 -4,15 16,25 32,24 5,-1 9,-2 12,-3 3,-2 6,-4 9,-7 3,-4 3,-9 1,-13 -1,-4 -4,-6 -7,-9 -1,1 -3,3 -4,4 2,2 4,4 4,7 1,3 0,6 -2,8 -3,3 -9,6 -14,7 -6,0 -14,0 -18,-4 -4,-2 -5,-6 -6,-10 0,-2 0,-1 1,-2 0,-1 -1,-1 0,-2z"/>
    <path class="fil171" d="M16 207c-1,0 -2,-1 -3,0 -1,0 -2,0 -3,0 0,-1 -1,-4 -2,-4 0,1 1,3 2,4 -1,1 -5,3 -1,7 1,0 2,1 2,1l-1 3c-1,1 -1,3 -2,4 -1,3 0,9 2,12 1,2 3,4 4,5 8,8 22,10 32,8 5,-1 5,-1 8,-2l4 -2c1,-1 2,-1 3,-2 2,-2 4,-4 5,-7 1,-3 2,-6 1,-9l-1 -5c-1,-1 -1,-1 -2,-2 -1,-2 -2,-4 -4,-5 0,0 -1,0 -1,-1l-1 0c0,0 0,0 -1,0 0,1 0,1 0,1 3,3 6,5 7,9 2,4 2,9 -1,13 -3,3 -6,5 -9,7 -3,1 -7,2 -12,3 -16,1 -36,-9 -32,-24 1,-2 2,-3 3,-5l2 0c1,1 2,3 3,5 0,0 0,1 0,1 1,1 1,1 1,2 1,2 2,5 3,5 1,-2 -1,-2 -1,-4 -1,0 -2,-3 -2,-3 0,-1 2,-2 3,-3 1,-2 1,-2 3,-3 4,-3 15,-3 18,-1 0,0 0,1 1,-2 -3,-1 -4,-2 -8,-2 -3,0 -5,0 -7,1 -3,1 -5,2 -6,3 -2,2 -1,1 -5,5 -3,-7 -1,-2 1,-9 0,0 1,-1 3,-1 8,-4 15,-3 24,-1l1 -2c-5,-1 -8,-3 -16,-2 -4,1 -10,3 -13,5 0,-1 0,0 0,-1l-1 -1c0,-1 0,-1 -1,-1z"/>
    <path class="fil172" d="M56 206l4 0c-1,1 -1,2 -2,2 -1,1 -2,1 -2,2 -1,0 -2,-1 -4,-2 -1,0 -2,-1 -4,-1 0,0 0,0 0,-1l-1 3c3,1 5,2 7,3 0,1 -3,3 -3,4 -5,-1 -3,-2 -6,-2l-1 2c2,0 1,0 2,1 1,0 2,0 3,1l-2 2c0,-1 1,-1 2,-2 0,-1 1,-1 2,-2l8 -9c1,-1 1,-1 2,-2 1,0 1,0 2,0l0 -1c1,0 0,0 1,0l-1 -12c-1,1 1,0 -1,0 0,-1 0,-5 -1,-7 0,-2 0,-7 -1,-7 0,0 0,0 0,1l-3 4c-2,6 -5,10 -6,14 0,1 0,2 0,3 -2,1 -2,1 -4,0 -1,0 -1,0 -1,-1 -1,0 -1,0 -2,-1 0,2 0,2 2,3 3,2 3,1 5,2l1 0c0,0 0,0 0,0 0,0 0,0 0,0l2 1c0,1 0,1 1,1l4 -18c0,-2 0,-4 1,-6l0 0c0,2 -3,21 -4,22 0,0 0,1 0,1l0 0c0,1 0,1 0,2z"/>
    <path class="fil173" d="M39 195l1 -1c0,1 1,3 2,4 1,1 0,0 0,2 1,-1 2,1 3,1 1,1 3,2 3,3l1 0c2,0 6,2 7,2 0,-1 0,-1 0,-2l0 0c0,0 0,-1 0,-1 1,-1 4,-20 4,-22l0 0c-1,2 -1,4 -1,6l-4 18c-1,0 -1,0 -1,-1l-2 -1c0,0 0,0 0,0 0,0 0,0 0,0l-1 0c-2,-1 -2,0 -5,-2 -2,-1 -2,-1 -2,-3 1,1 1,1 2,1 0,1 0,1 1,1 2,1 2,1 4,0 0,-1 0,-2 0,-3 1,-4 4,-8 6,-14l3 -4c0,-1 0,-1 0,-1 1,0 1,5 1,7 1,2 1,6 1,7 2,0 0,1 1,0l-2 -12c0,-2 1,-4 0,-4 -1,0 -1,1 -4,3 -1,0 -1,1 -2,1 -2,2 -1,2 -2,3l-5 3c0,1 -1,0 -1,1 -1,0 -1,1 -2,1l-5 5c-1,1 0,0 -1,2z"/>
    <path class="fil174" d="M43 256c-5,0 -9,0 -14,-4 -1,-1 -2,-1 -3,-3 0,2 1,2 1,4 -3,-1 -8,-6 -9,-8 0,1 0,2 1,3 -3,-1 -6,-7 -8,-9 1,7 6,14 11,18 3,3 6,4 12,4 4,0 6,-1 9,-4 0,0 0,0 0,0l0 -1z"/>
    <path class="fil175" d="M47 207l-1 2c-9,-2 -16,-3 -24,1 -2,0 -3,1 -3,1 -2,7 -4,2 -1,9 4,-4 3,-3 5,-5 1,-1 3,-2 6,-3 2,-1 4,-1 7,-1 4,0 5,1 8,2 -1,3 -1,2 -1,2 0,1 -1,1 -1,2 0,1 0,0 1,1 0,0 1,-1 1,-2l1 -2c3,0 1,1 6,2 0,-1 3,-3 3,-4 -2,-1 -4,-2 -7,-3l1 -3 1 -2 -1 0 -1 3z"/>
    <path class="fil176" d="M64 204c-1,0 0,0 -1,0l0 1c-1,0 -1,0 -2,0 -1,1 -1,1 -2,2l-8 9c-1,1 -2,1 -2,2 -1,1 -2,1 -2,2 0,0 -1,0 -1,0 0,1 -3,3 -3,4 3,4 7,-3 8,-5 5,3 8,8 3,13 -5,7 -21,8 -29,4 -6,-3 -6,-6 -6,-9 -1,-1 -1,-2 0,-3 0,-1 0,-1 -1,-2 0,0 0,-1 0,-1 -1,1 0,1 0,2 -1,1 -1,0 -1,2 1,4 2,8 6,10 4,4 12,4 18,4 5,-1 11,-4 14,-7 2,-2 3,-5 2,-8 0,-3 -2,-5 -4,-7 1,-1 3,-3 4,-4 0,0 0,0 0,-1 1,0 1,0 1,0 1,-1 1,-1 1,-1 0,0 0,0 0,0 1,-1 1,-1 1,-1 2,-2 3,-3 7,-3 2,0 7,-1 9,-1 0,-4 -3,-2 -5,-2 -2,0 -6,0 -7,0z"/>
    <path class="fil177" d="M39 195c0,2 2,3 2,4 1,2 0,1 2,2 0,0 1,1 2,1 -7,0 -15,-1 -21,1l-3 1c0,1 0,1 0,1 -1,0 -3,0 -4,2l-1 0c1,0 1,0 1,1l1 1c0,1 0,0 0,1 3,-2 9,-4 13,-5 8,-1 11,1 16,2l1 -3c0,-1 -2,-2 -3,-3 -1,0 -2,-2 -3,-1 0,-2 1,-1 0,-2 -1,-1 -2,-3 -2,-4l-1 1z"/>
    <path class="fil177" d="M56 206c-1,0 -5,-2 -7,-2l-1 2c0,1 0,1 0,1 2,0 3,1 4,1 2,1 3,2 4,2 0,-1 1,-1 2,-2 1,0 1,-1 2,-2l-4 0z"/>
    <path class="fil178" d="M16 208c-1,0 -3,-2 -6,-1 -2,1 -3,3 -1,5l1 1c2,0 3,-1 5,-2 0,0 0,0 0,-1 1,0 0,-1 1,-2z"/>
   </g>
  </g>
 </g>
</svg>
