<?xml version="1.0" encoding="UTF-8"?>
<!DOCTYPE svg PUBLIC "-//W3C//DTD SVG 1.1//EN" "http://www.w3.org/Graphics/SVG/1.1/DTD/svg11.dtd">
<!-- Creator: CorelDRAW X7 -->
<svg xmlns="http://www.w3.org/2000/svg" xml:space="preserve" width="72mm" height="105.647mm" version="1.1" style="shape-rendering:geometricPrecision; text-rendering:geometricPrecision; image-rendering:optimizeQuality; fill-rule:evenodd; clip-rule:evenodd"
viewBox="0 0 643 944"
 xmlns:xlink="http://www.w3.org/1999/xlink">
 <defs>
  <style type="text/css">
   <![CDATA[
    .fil45 {fill:#FEFEFE}
    .fil11 {fill:#EEDECE}
    .fil8 {fill:#423B1D;fill-opacity:0.560784}
    .fil6 {fill:#534B28;fill-opacity:0.560784}
    .fil5 {fill:#564F2C;fill-opacity:0.560784}
    .fil7 {fill:#626627;fill-opacity:0.560784}
    .fil4 {fill:#716E34;fill-opacity:0.560784}
    .fil9 {fill:#A7A739;fill-opacity:0.560784}
    .fil3 {fill:#BABC3C;fill-opacity:0.560784}
    .fil1 {fill:#C6CA44;fill-opacity:0.560784}
    .fil0 {fill:#CED249;fill-opacity:0.560784}
    .fil2 {fill:#D5DA4A;fill-opacity:0.560784}
    .fil10 {fill:#FEFEFE;fill-opacity:0.670588}
    .fil19 {fill:#094416;fill-opacity:0.788235}
    .fil32 {fill:#0B9610;fill-opacity:0.788235}
    .fil15 {fill:#195516;fill-opacity:0.788235}
    .fil28 {fill:#272604;fill-opacity:0.788235}
    .fil29 {fill:#32702A;fill-opacity:0.788235}
    .fil26 {fill:#32730F;fill-opacity:0.788235}
    .fil37 {fill:#363837;fill-opacity:0.788235}
    .fil27 {fill:#395719;fill-opacity:0.788235}
    .fil22 {fill:#3A4B47;fill-opacity:0.788235}
    .fil17 {fill:#3A6643;fill-opacity:0.788235}
    .fil30 {fill:#4A8D79;fill-opacity:0.788235}
    .fil20 {fill:#4B8F2E;fill-opacity:0.788235}
    .fil38 {fill:#519011;fill-opacity:0.788235}
    .fil35 {fill:#52AD2C;fill-opacity:0.788235}
    .fil25 {fill:#535B02;fill-opacity:0.788235}
    .fil34 {fill:#565860;fill-opacity:0.788235}
    .fil36 {fill:#586415;fill-opacity:0.788235}
    .fil16 {fill:#67998E;fill-opacity:0.788235}
    .fil43 {fill:#697818;fill-opacity:0.788235}
    .fil31 {fill:#698857;fill-opacity:0.788235}
    .fil44 {fill:#6B726E;fill-opacity:0.788235}
    .fil42 {fill:#6BB02F;fill-opacity:0.788235}
    .fil23 {fill:#6C7303;fill-opacity:0.788235}
    .fil40 {fill:#76C1D7;fill-opacity:0.788235}
    .fil24 {fill:#7CACA3;fill-opacity:0.788235}
    .fil33 {fill:#887908;fill-opacity:0.788235}
    .fil41 {fill:#8DB092;fill-opacity:0.788235}
    .fil39 {fill:#8E920B;fill-opacity:0.788235}
    .fil21 {fill:#90B4AC;fill-opacity:0.788235}
    .fil18 {fill:#A3D8E5;fill-opacity:0.788235}
    .fil14 {fill:#ADC3C2;fill-opacity:0.788235}
    .fil12 {fill:#C9D7C7;fill-opacity:0.788235}
    .fil13 {fill:#F3ECD2;fill-opacity:0.788235}
   ]]>
  </style>
 </defs>
 <g id="圖層_x0020_1">
  <metadata id="CorelCorpID_0Corel-Layer"/>
  <g id="_2173999437632">
   <path class="fil0" d="M40 567c14,-7 5,11 9,-7 1,-6 0,-2 -4,-9l-5 16zm94 -47c-1,11 -1,9 6,22 -13,4 -23,13 -40,19 -24,8 -37,2 -58,10l-2 -4 -1 5c-17,-4 -10,-20 -12,-40l7 -19c5,-12 -4,-6 8,-11 22,0 47,1 56,-19 6,3 18,9 24,13 10,8 14,8 12,24z"/>
   <path class="fil0" d="M22 522l2 25c-20,-5 -13,-2 -22,-16 -1,1 -1,1 -2,2l0 -30c4,0 8,1 14,1 3,25 -5,16 8,18zm-22 20c14,4 17,14 18,34 -10,-2 -15,-4 -18,-6l0 -28z"/>
   <path class="fil1" d="M150 591c-28,10 -37,38 -79,20 14,-10 1,-4 0,-7 -18,16 -6,5 -10,16 -15,10 -9,9 -27,16 0,-10 -1,-20 -2,-30 -1,-23 -5,-19 7,-34l3 -1c21,-8 34,-2 58,-10 17,-6 27,-15 40,-19 5,2 2,-2 5,10 0,2 1,10 1,11 2,15 1,14 4,28z"/>
   <path class="fil2" d="M98 483c-9,20 -34,19 -56,19 -12,5 -3,-1 -8,11l-7 19 -3 -32 -2 22c-13,-2 -5,7 -8,-18 -6,0 -10,-1 -14,-1l0 -52c5,-4 12,-7 22,-7 24,0 20,5 38,20 14,11 21,12 38,19z"/>
   <path class="fil1" d="M0 607c7,7 11,16 14,27 -5,-2 -9,-3 -14,-4l0 -23z"/>
   <path class="fil3" d="M122 648c-8,3 -37,7 -42,7 -16,1 -11,-2 -19,-2 -9,-1 -12,2 -23,4 6,-11 5,-9 12,-19 13,-17 6,0 11,-18 13,-1 6,2 10,-9 42,18 51,-10 79,-20 3,1 5,-12 5,10 1,6 1,7 -2,12 -7,13 -6,9 -26,10l-4 22c0,0 -1,2 -1,3z"/>
   <path class="fil3" d="M14 634l-3 23c-6,-1 -9,-2 -11,-3l0 -24c5,1 9,2 14,4z"/>
   <path class="fil4" d="M24 547l1 209 -20 -2 6 -97 3 -23c-3,-11 -7,-20 -14,-27l0 -10c5,3 10,7 16,10l2 -31c-1,-20 -4,-30 -18,-34l0 -9c1,-1 1,-1 2,-2 9,14 2,11 22,16z"/>
   <path class="fil5" d="M27 532c2,20 -5,36 12,40 -12,15 -8,11 -7,34 1,10 2,20 2,30 18,-7 12,-6 27,-16 -5,18 2,1 -11,18 -7,10 -6,8 -12,19l5 92 0 10 -18 1 0 -4 -1 -209 -2 -25 2 -22 3 32z"/>
   <path class="fil1" d="M18 576l-2 31c-6,-3 -11,-7 -16,-10l0 -27c3,2 8,4 18,6z"/>
   <path class="fil6" d="M71 611c-4,11 3,8 -10,9 4,-11 -8,0 10,-16 1,3 14,-3 0,7z"/>
   <path class="fil7" d="M40 567l5 -16c4,7 5,3 4,9 -4,18 5,0 -9,7z"/>
   <polygon class="fil8" points="39,572 40,567 42,571 "/>
  </g>
  <g id="_2173999447648">
   <path class="fil0" d="M120 624c8,-5 3,6 5,-4 1,-5 1,-2 -2,-6l-3 10zm56 -29c0,7 0,5 4,13 -8,3 -14,8 -24,12 -14,5 -22,1 -35,6l-1 -2 -1 3c-10,-3 -6,-13 -7,-25l4 -11c4,-7 -2,-3 5,-7 13,0 28,1 34,-11 3,2 11,6 14,8 6,5 9,4 7,14z"/>
   <path class="fil0" d="M109 597l1 15c-11,-4 -7,-1 -13,-10 -4,3 -4,5 -10,5 16,1 19,6 20,22 -17,-4 -10,-6 -24,-5 -6,-7 0,-1 -9,-4 -2,-7 5,-4 -3,-7l-7 4c-8,4 -4,2 -12,-5 -8,-7 -4,6 -7,-8 -2,-13 -2,-13 5,-24l3 -4 9 3c11,-3 0,-3 20,4 6,2 7,1 22,3 2,15 -2,9 5,11z"/>
   <path class="fil1" d="M186 638c-17,6 -22,23 -48,12 9,-6 1,-2 1,-4 -11,9 -4,2 -7,9 -9,6 -5,6 -15,10 -1,-6 -1,-12 -2,-18 -1,-14 -3,-12 4,-20l2 -1c13,-5 21,-1 35,-6 10,-4 16,-9 24,-12 3,2 1,-1 3,7 0,1 1,5 1,6 1,9 0,8 2,17z"/>
   <path class="fil2" d="M155 573c-6,12 -21,11 -34,11 -7,4 -1,0 -5,7l-4 11 -2 -19 -1 14c-7,-2 -3,4 -5,-11 -15,-2 -16,-1 -22,-3 -20,-7 -9,-7 -20,-4l16 -9c0,0 9,-7 9,-7 7,-7 10,-13 22,-13 15,-1 12,3 23,12 9,6 12,7 23,11z"/>
   <path class="fil1" d="M74 620l6 9c5,3 6,9 0,10 14,3 21,12 24,24 -14,-3 -26,-4 -40,-10 -4,-1 -13,-4 -16,-7 -11,-6 -1,-5 -16,-10 6,-5 4,-4 4,-15 1,-4 1,-8 3,-11 5,-10 0,-4 6,-6 3,14 -1,1 7,8 8,7 4,9 12,5l7 -4c8,3 1,0 3,7z"/>
   <path class="fil3" d="M169 672c-5,2 -22,4 -25,4 -10,1 -6,-1 -12,-1 -5,0 -7,1 -13,3 3,-7 3,-6 7,-12 8,-10 4,0 6,-11 8,0 4,2 6,-5 26,11 31,-6 48,-12 2,0 3,-7 3,6 0,4 0,4 -1,7 -5,8 -4,5 -16,6l-2 13c0,0 -1,2 -1,2z"/>
   <path class="fil3" d="M104 663l-1 15c-12,-3 -7,-4 -16,-3l-19 0c-18,-2 -15,0 -18,-9l-1 -10 -8 0c-9,-5 -10,-8 -9,-20 15,5 5,4 16,10 3,3 12,6 16,7 14,6 26,7 40,10z"/>
   <path class="fil4" d="M110 612l1 125 -12 -1 4 -58 1 -15c-3,-12 -10,-21 -24,-24 6,-1 5,-7 0,-10 -2,-5 -2,-4 3,-4 5,11 12,17 22,23l2 -19c-1,-16 -4,-21 -20,-22 6,0 6,-2 10,-5 6,9 2,6 13,10z"/>
   <path class="fil5" d="M112 602c1,12 -3,22 7,25 -7,8 -5,6 -4,20 1,6 1,12 2,18 10,-4 6,-4 15,-10 -2,11 2,1 -6,11 -4,6 -4,5 -7,12l3 55 0 6 -11 0 0 -2 -1 -125 -1 -15 1 -14 2 19z"/>
   <path class="fil1" d="M107 629l-2 19c-10,-6 -17,-12 -22,-23l0 -1c14,-1 7,1 24,5z"/>
   <path class="fil6" d="M138 650c-2,7 2,5 -6,5 3,-7 -4,0 7,-9 0,2 8,-2 -1,4z"/>
   <path class="fil9" d="M83 625c-5,0 -5,-1 -3,4l-6 -9c9,3 3,-3 9,4l0 1z"/>
   <path class="fil7" d="M120 624l3 -10c3,4 3,1 2,6 -2,10 3,-1 -5,4z"/>
   <polygon class="fil8" points="119,627 120,624 121,626 "/>
  </g>
  <g id="_2173999389120">
   <path class="fil0" d="M602 594c8,-4 3,7 5,-4 1,-4 0,-1 -2,-5l-3 9zm41 -47l0 41c-2,1 -4,2 -5,3 -15,4 -22,1 -35,5l-1 -2 -1 3c-10,-3 -6,-12 -7,-24l4 -11c3,-8 -2,-4 5,-7 13,0 28,1 33,-11 2,1 5,2 7,3z"/>
   <path class="fil0" d="M591 567l1 15c-12,-3 -8,-1 -13,-9 -4,3 -4,4 -11,4 17,2 20,7 21,23 -17,-4 -10,-6 -24,-5 -6,-7 0,-1 -9,-5 -3,-6 5,-4 -3,-7l-8 5c-7,4 -3,2 -11,-5 -8,-8 -4,6 -7,-8 -3,-14 -3,-14 5,-24l3 -5 9 3c11,-3 0,-2 20,5 5,2 7,0 22,2 2,15 -3,10 5,11z"/>
   <path class="fil1" d="M643 623c-6,2 -13,2 -23,-3 8,-6 1,-2 0,-4 -11,10 -3,3 -6,10 -9,6 -5,5 -16,10 0,-6 -1,-13 -1,-19 -1,-13 -3,-11 4,-20l2 -1c13,-4 20,-1 35,-5 1,-1 3,-2 5,-3l0 35z"/>
   <path class="fil2" d="M636 544c-5,12 -20,11 -33,11 -7,3 -2,-1 -5,7l-4 11 -2 -19 -1 13c-8,-1 -3,4 -5,-11 -15,-2 -17,0 -22,-2 -20,-7 -9,-8 -20,-5l15 -8c0,0 9,-7 10,-8 7,-6 10,-13 22,-13 14,0 12,3 23,12 8,7 12,7 22,12z"/>
   <path class="fil1" d="M556 590l6 9c5,3 6,9 0,11 14,2 21,12 24,24 -14,-4 -26,-5 -40,-10 -5,-2 -13,-5 -17,-7 -10,-7 0,-5 -15,-11 6,-4 3,-4 4,-14 0,-4 1,-8 3,-12 4,-9 0,-3 6,-5 3,14 -1,0 7,8 8,7 4,9 11,5l8 -5c8,3 0,1 3,7z"/>
   <path class="fil3" d="M643 645c-7,1 -15,2 -17,2 -10,0 -7,-1 -12,-1 -5,-1 -7,1 -14,2 4,-7 3,-5 8,-11 7,-10 3,0 6,-11 8,-1 4,1 6,-6 10,5 17,5 23,3l0 22z"/>
   <path class="fil3" d="M586 634l-2 14c-11,-3 -6,-3 -16,-2l-19 0c-17,-2 -14,-1 -17,-9l-1 -10 -9 0c-8,-6 -10,-9 -8,-21 15,6 5,4 15,11 4,2 12,5 17,7 14,5 26,6 40,10z"/>
   <path class="fil4" d="M592 582l1 125 -12 0 3 -59 2 -14c-3,-12 -10,-22 -24,-24 6,-2 5,-8 0,-11 -2,-5 -3,-3 3,-3 4,10 12,16 22,22l2 -18c-1,-16 -4,-21 -21,-23 7,0 7,-1 11,-4 5,8 1,6 13,9z"/>
   <path class="fil5" d="M594 573c1,12 -3,21 7,24 -7,9 -5,7 -4,20 0,6 1,13 1,19 11,-5 7,-4 16,-10 -3,11 1,1 -6,11 -5,6 -4,4 -8,11l3 55 0 6 -10 1 0 -3 -1 -125 -1 -15 1 -13 2 19z"/>
   <path class="fil1" d="M589 600l-2 18c-10,-6 -18,-12 -22,-22l0 -1c14,-1 7,1 24,5z"/>
   <path class="fil6" d="M620 620c-2,7 2,5 -6,6 3,-7 -5,0 6,-10 1,2 8,-2 0,4z"/>
   <path class="fil9" d="M565 596c-6,0 -5,-2 -3,3l-6 -9c9,4 3,-2 9,5l0 1z"/>
   <path class="fil7" d="M602 594l3 -9c2,4 3,1 2,5 -2,11 3,0 -5,4z"/>
   <polygon class="fil8" points="601,597 602,594 603,596 "/>
  </g>
  <g id="_2173999402400">
   <path class="fil0" d="M643 474c-4,1 0,9 -2,-4 -1,-6 -1,-3 2,-8l0 -51c-21,0 -43,0 -52,-19 -6,4 -18,10 -23,14 -11,8 -15,7 -12,23 0,12 0,9 -7,22 13,4 24,13 41,19 22,8 34,3 53,9l0 -5z"/>
   <path class="fil1" d="M539 500c28,10 37,39 80,20 -14,-10 -2,-4 -1,-6 19,15 6,4 11,15 9,7 10,9 14,11l0 -61c-19,-6 -31,-1 -53,-9 -17,-6 -28,-15 -41,-19 -5,3 -2,-2 -5,10 0,3 -1,10 -1,12 -1,14 0,13 -4,27z"/>
   <path class="fil2" d="M591 392c9,19 31,19 52,19l0 -51c-3,3 -7,7 -14,13 -14,11 -20,12 -38,19z"/>
   <path class="fil3" d="M567 558c9,2 37,6 42,6 17,1 11,-1 20,-2 6,0 9,1 14,2l0 -12c-1,-1 -2,-2 -4,-4 -12,-17 -6,-1 -10,-19 -14,-1 -7,3 -10,-9 -43,19 -52,-10 -80,-20 -3,1 -4,-12 -5,10 0,7 0,7 2,12 8,13 7,9 26,10l4 22c1,0 1,3 1,4z"/>
   <path class="fil5" d="M643 540c-4,-2 -5,-4 -14,-11 4,18 -2,2 10,19 2,2 3,3 4,4l0 -12z"/>
   <path class="fil6" d="M619 520c3,12 -4,8 10,9 -5,-11 8,0 -11,-15 -1,2 -13,-4 1,6z"/>
   <path class="fil7" d="M643 462c-3,5 -3,2 -2,8 2,13 -2,5 2,4l0 -12z"/>
  </g>
  <path class="fil10" d="M612 59l6 -3 6 1c11,2 12,2 16,-6 1,0 2,1 3,1l0 -52c-6,2 -2,3 -9,2 -7,-1 -10,-7 -32,7l-9 6c-7,5 0,2 -8,3 -30,4 -24,27 -17,32 8,6 11,1 19,4 1,1 3,2 4,3 9,5 11,4 21,2z"/>
  <path class="fil11" d="M188 838c-5,4 -39,10 -49,11 -22,3 -30,3 -54,8 -7,1 -16,3 -24,6l-24 6c-8,2 -15,6 -22,9 -1,1 -3,1 -5,2 -2,1 -6,4 -10,6l0 58 643 0 0 -90c0,0 0,1 -1,1 -2,-1 -1,-1 -2,-3 -1,-2 0,-2 -2,-2l1 11c-3,-1 -2,-2 -4,-4 -3,3 -1,15 -1,21 -2,-3 -3,-8 -4,-11l-2 -4c0,2 0,3 0,5 0,1 -1,1 -1,2 0,1 0,1 0,1 -2,-3 -5,-15 -7,-16 -1,2 1,6 1,9 0,4 1,1 -1,2 -2,-2 -6,-9 -8,-10 0,6 5,12 5,18 -4,-2 -8,-10 -12,-11 2,4 5,5 5,12 -3,-1 -1,-1 -3,-3 -2,-1 -1,-1 -3,-1 0,3 0,3 -1,6 -2,-1 -1,1 -2,-2 -3,-4 -3,-7 -4,-9 -1,5 0,8 0,13 -2,-1 -1,0 -4,-4 -4,-4 -5,-10 -5,-16 -1,-1 -1,0 -1,-2l0 8 1 10c-3,-2 -2,-3 -5,-5l2 7c-3,-1 -1,0 -3,-2 -2,-1 0,-1 -3,-1l1 5c-3,-2 -5,-9 -7,-10l0 11c-3,-1 -5,-7 -6,-10 -3,0 0,1 -5,1 -5,1 -1,1 -4,2 -1,-3 0,-2 -3,-3 0,0 0,0 -1,0 0,0 0,0 0,0l0 1c0,0 -1,2 -1,2 -3,-1 -1,0 -3,-3 -1,1 -6,12 -14,12 -2,3 -10,2 -13,2 -18,-1 -19,0 -35,2 -7,1 -7,1 -3,-5l6 -12c1,-2 2,-3 2,-6 -4,-4 -3,-5 -6,-7 0,1 2,4 2,8 -4,-1 -9,-5 -10,-7 0,-2 0,0 0,-2 -1,0 -1,0 -2,0 1,5 5,6 5,12 -9,-2 -9,-15 -10,-19 -2,5 0,12 0,14 0,1 0,0 0,1 -4,-5 -2,-7 -3,-12 -2,3 0,5 -3,8 0,-2 -1,-5 -3,-6l0 10c-4,-1 -2,-6 -6,-9 0,3 1,7 -1,10 0,1 -3,4 -4,3 -2,-1 3,-8 0,-14 -1,2 0,12 -6,12 0,-2 0,-8 -2,-9 -2,1 0,9 -4,11l-2 -12c-2,-1 -1,-1 -2,0 0,3 1,7 -1,10 0,0 0,0 0,0 -3,-3 -1,-8 -6,-10 0,4 4,8 2,12 -2,-2 -3,-7 -6,-8l0 3c-3,-1 -3,-2 -5,-4 0,0 0,0 0,0l0 2c0,0 0,1 0,2 -2,-1 0,-1 -2,-1 -2,0 -2,2 -6,-5 -2,1 0,2 -3,2l0 -6 -2 6c0,0 0,0 0,0 0,0 0,1 0,1 -1,0 -1,0 -1,0l-1 -3c-1,2 0,1 -1,4l-2 -1c0,0 -1,1 -1,1 0,1 0,1 0,2 -3,-1 -2,0 -2,-4 -4,3 -3,0 -5,2 -1,0 0,0 -2,1 -1,-3 2,-2 0,-5 -4,2 0,4 -3,6 -1,-2 0,-2 0,-3 -1,-1 -1,-1 -1,-2l0 -1c-2,3 -2,2 -2,6l-1 1c-1,0 -2,-1 -3,-1 -2,-1 -3,-2 -5,-1 -2,-1 1,0 -2,2 -2,-2 -2,-3 -2,-5 0,-1 0,-1 0,-1l-7 0c0,0 0,0 0,0l0 -3c-1,-2 -2,-1 -3,-2 -4,-1 -5,1 -4,-3 -2,0 -4,0 -5,-2 1,-2 3,-1 6,-2l-1 0c-3,-2 -4,-2 -7,-2 -2,-9 -2,-3 -3,-8 4,0 10,3 12,0 -5,-2 -3,0 -5,-3 -2,-1 -4,-1 -6,-2 1,-1 -1,-3 4,-2 3,1 2,2 2,2 7,2 23,9 27,10l-21 -12c-3,-2 -5,-2 -6,-5 7,2 26,14 29,14l-17 -12c-4,-3 -4,-2 -5,-5 6,1 15,10 20,12 -1,-2 -29,-24 -29,-27 3,1 27,23 30,24l-26 -28 -16 3c-5,2 -9,3 -14,4 -27,7 -95,9 -100,10 0,3 2,3 3,7 -1,0 -1,0 -1,1l-3 2c-3,2 -6,2 -10,3l-18 3c-11,1 -8,2 -11,4z"/>
  <g id="_2173999410816">
   <path class="fil12" d="M238 747l-26 4c-4,2 0,3 1,5 -4,5 -11,1 -16,3l3 1c1,0 3,0 4,0 8,0 4,0 8,-1 2,0 8,0 10,-3 0,-4 -1,1 -1,-4 4,-1 15,-2 21,-2 7,-1 14,-2 21,-3 0,2 0,1 -1,3 0,0 -2,1 -2,1 -2,1 -3,1 -4,2l-21 5c-3,1 -9,1 -12,2 4,2 20,1 20,6 0,4 -13,5 -14,5 0,5 2,1 6,5 -2,2 -22,2 -27,2l-20 2c-6,1 -4,1 -4,3 4,2 21,1 27,3 7,1 8,-1 7,2 -1,0 -4,0 -5,1 -3,0 -1,1 -5,2l-10 2c-11,3 -46,5 -59,8 -3,1 -9,2 -12,2 -5,0 -10,3 -15,3 -2,2 -7,3 -9,4l4 1c2,0 4,0 5,0 10,0 32,-5 30,3 -2,3 -6,4 -10,5 -10,2 -6,2 -10,3 -2,1 -3,1 -5,1l1 6 24 -4c6,-1 18,-3 19,-10 -3,-2 -4,-3 -8,-3 0,-3 0,-2 -1,-4 5,-2 7,-3 12,-4 3,-1 2,-1 4,-2 3,-1 7,-1 10,-1l19 -3c4,-1 7,-2 10,-2 3,0 6,1 10,1 3,0 7,-1 10,0 -2,1 -1,0 -3,1l0 6c-4,-1 -12,-1 -15,0 6,1 9,0 15,0 0,3 0,1 -5,3 -4,1 -4,0 -6,0 0,0 -2,1 -3,2 0,0 -1,0 -1,0 -3,2 -8,2 -5,5 3,4 3,5 4,6 -2,0 -1,5 -11,9 -9,3 -4,1 -6,4 -2,3 -2,1 -7,3l4 2c3,-2 0,-3 11,-4l18 -3c4,-1 7,-1 10,-3l3 -2c0,-1 0,-1 1,-1 -1,-4 -3,-4 -3,-7 5,-1 73,-3 100,-10 5,-1 9,-2 14,-4l16 -3c0,-1 0,-2 -1,-3l7 6c3,4 16,19 19,21 -1,-3 -10,-15 -13,-19 -2,-3 -7,-10 -8,-12 3,2 5,6 7,9 4,4 19,25 21,26 -1,-2 -5,-8 -6,-10l-7 -11c-2,-4 -12,-18 -12,-22 4,5 8,12 12,18 4,6 7,14 11,18l-17 -38c-1,-3 0,-2 0,-2 4,6 6,10 9,17 2,3 7,16 9,17 -1,-9 -11,-26 -12,-34 3,3 6,11 8,17 2,4 6,12 7,17l0 0c1,-6 -10,-33 -7,-37 1,1 10,34 11,38 0,-4 -1,-7 -2,-9 0,-4 -1,-7 -1,-10 -1,-7 -5,-18 -3,-21 4,5 0,5 7,8 0,-5 -1,-2 2,-3 1,10 3,4 4,7l0 -5c-2,-4 -6,-6 -8,-9 3,0 19,15 24,18 2,2 5,6 8,7 0,-4 -12,-15 -15,-18 -2,-3 -14,-14 -15,-17 6,3 29,31 33,32 0,-3 -11,-15 -14,-19 -4,-4 -14,-16 -15,-19 3,1 19,21 23,26 2,2 3,3 4,5 4,4 2,4 5,4 -1,-4 -24,-34 -26,-42 3,1 1,0 5,5l10 14c2,4 4,6 6,10 3,3 6,9 7,10 1,-2 -11,-22 -12,-24 -3,-5 -12,-21 -13,-25l2 3c5,7 25,42 27,43 1,-3 -19,-39 -20,-47 4,3 19,42 22,44 1,-1 1,0 1,-2 0,-1 0,1 0,-1l-12 -32c-2,-6 -4,-8 -3,-12 0,3 7,18 9,22 1,4 2,8 4,11l3 8c1,3 0,2 2,3 0,-7 -8,-27 -9,-37 5,5 8,29 11,34 1,-1 1,0 1,-2 1,-2 0,-2 0,-4 -1,-6 -5,-32 -4,-34 3,7 4,31 7,36 2,-1 1,0 2,-2 0,-1 0,-3 0,-4 0,-2 0,-5 0,-7 0,-5 0,-9 0,-14 2,4 1,14 3,20 7,-1 3,-10 5,-16 1,1 1,3 1,5 0,2 0,3 0,6l2 0c3,-4 4,-3 5,-9 1,0 2,3 6,-3l0 -2c4,0 6,-3 10,-6 7,-5 12,-4 23,-14l2 -4c3,-1 2,0 3,-2 -3,-2 -8,0 -9,-3 1,-1 3,-1 5,-1 3,0 3,0 4,-1 -1,-4 -3,-1 -8,-1 -4,0 -6,0 -6,-3 6,0 8,1 10,-1 -4,-3 -4,0 -10,-1 -2,0 -6,-2 -7,-3 3,-1 8,0 8,0 3,-1 2,-2 2,-2 -2,-1 -3,-1 -6,-1 -1,0 -2,0 -3,-1 -2,-1 -5,-2 -7,-4 3,-1 10,2 13,3 -1,-3 -5,-11 -5,-13 3,1 5,3 6,6 2,4 1,5 1,10 2,1 2,1 4,2 0,-4 -3,-10 -2,-13 3,1 4,4 4,7 1,3 0,7 1,9 3,-1 2,3 2,-3 0,-1 -1,-5 0,-9 3,1 3,6 4,9l1 -8 4 -27c-1,1 -1,1 -1,1 -1,0 -1,0 -1,1 -1,-9 -3,0 -3,-8 2,4 -1,3 -1,3 -1,-1 1,0 -2,-1 -3,0 -4,1 -7,1l0 11c-3,0 -6,-1 -8,0 -7,0 6,2 -20,2 -1,2 0,1 -3,2 0,3 0,5 -1,6 0,2 1,2 1,5l-20 0 0 7 -20 0 -1 3 -5 0c-1,1 -1,2 -1,4 -3,0 -5,0 -6,1 -2,1 1,1 -8,1l0 5c-9,0 -5,1 -7,6 -5,0 -2,0 -4,-3 -3,1 1,3 -9,3l0 5c0,0 -1,0 -1,0l-4 -1c-3,-1 -3,0 -3,-3 0,-1 1,-1 1,-1 5,-2 2,-1 6,-3 2,-2 4,-1 8,-4 5,-4 -7,-3 -8,-5 1,-4 0,-1 2,-2 1,-1 1,-2 3,-3 3,-2 7,-3 11,-5 -3,-1 -7,1 -9,-3 1,-3 1,-2 4,-3l5 -1c4,-2 5,0 5,-4l-7 0c-3,-1 -5,0 -7,-1 -5,-1 1,-2 -12,-1 0,2 8,1 11,3 -1,2 -2,2 -3,2l-6 2c-3,0 0,0 -2,0l-20 2 0 2c2,0 5,0 7,0l7 1c2,1 5,0 7,1 2,1 0,-1 1,1 0,3 0,0 -1,1 0,0 -1,2 -1,2l-17 3c-3,0 -5,-1 -8,1 -4,1 -3,2 -6,3 2,2 4,1 6,3l0 3c-11,0 -9,2 -12,2 -8,1 -19,0 -27,2 -4,0 -1,0 -5,1 -1,1 -4,1 -5,2l0 2c1,0 6,1 8,1 2,0 7,1 8,1 0,3 0,3 -2,4 -10,5 -22,1 -29,3 -1,1 -2,1 -3,3 2,3 2,0 3,2 0,5 -17,3 -21,2 -1,0 -2,0 -4,0 -8,2 -17,4 -25,4 -6,0 -11,1 -18,1l6 -1c3,0 1,0 3,-1z"/>
   <path class="fil13" d="M236 650c3,1 7,4 9,5 2,1 2,2 4,3 1,2 1,3 3,3 1,-2 1,-2 3,-3 2,-3 7,-7 12,-8 7,-1 10,3 19,0 4,-1 10,-5 14,4 2,3 2,5 2,9 0,6 3,2 2,8 -1,2 1,2 -5,2 4,4 -4,5 -7,5 -7,0 -7,0 -12,2l0 5 -15 2c-3,0 -3,1 -3,2l1 0c0,0 0,0 0,0l3 1c1,2 1,2 2,3 1,0 1,1 1,1l1 0c0,6 0,5 2,6l-1 1c-3,2 -1,3 0,5 0,0 0,1 0,1 2,4 -1,2 -5,3 -3,0 -3,1 -3,4 -7,0 -1,1 -7,3 -1,0 -3,1 -4,1 -1,2 0,1 1,4 -3,0 -4,0 -7,1l-7 1c1,2 -1,-1 6,3 2,1 2,0 4,1 0,0 0,1 0,1l1 0c0,0 0,1 0,1 0,0 1,0 1,1 -1,5 -3,2 -4,5 4,2 11,2 12,3 1,4 -3,4 -10,5 -3,1 -7,4 -11,3 -2,1 0,1 -3,1l-6 1c7,0 12,-1 18,-1 8,0 17,-2 25,-4 2,0 3,0 4,0 4,1 21,3 21,-2 -1,-2 -1,1 -3,-2 1,-2 2,-2 3,-3 7,-2 19,2 29,-3 2,-1 2,-1 2,-4 -1,0 -6,-1 -8,-1 -2,0 -7,-1 -8,-1l0 -2c1,-1 4,-1 5,-2 4,-1 1,-1 5,-1 8,-2 19,-1 27,-2 3,0 1,-2 12,-2l0 -3c-2,-2 -4,-1 -6,-3 3,-1 2,-2 6,-3 3,-2 5,-1 8,-1l17 -3c0,0 1,-2 1,-2 1,-1 1,2 1,-1 -1,-2 1,0 -1,-1 -2,-1 -5,0 -7,-1l-7 -1c-2,0 -5,0 -7,0l0 -2 20 -2c2,0 -1,0 2,0l6 -2c1,0 2,0 3,-2 -3,-2 -11,-1 -11,-3 13,-1 7,0 12,1 2,1 4,0 7,1l7 0c0,4 -1,2 -5,4l-5 1c-3,1 -3,0 -4,3 2,4 6,2 9,3 -4,2 -8,3 -11,5 -2,1 -2,2 -3,3 -2,1 -1,-2 -2,2 1,2 13,1 8,5 -4,3 -6,2 -8,4 -4,2 -1,1 -6,3 0,0 -1,0 -1,1 0,3 0,2 3,3l4 1c0,0 1,0 1,0l0 -5c10,0 6,-2 9,-3 2,3 -1,3 4,3 2,-5 -2,-6 7,-6l0 -5c9,0 6,0 8,-1 1,-1 3,-1 6,-1 0,-2 0,-3 1,-4l5 0 1 -3 20 0 0 -7 20 0c0,-3 -1,-3 -1,-5 1,-1 1,-3 1,-6 3,-1 2,0 3,-2 26,0 13,-2 20,-2 2,-1 5,0 8,0l0 -11c3,0 4,-1 7,-1 3,1 1,0 2,1 0,0 3,1 1,-3 0,8 2,-1 3,8 0,-1 0,-1 1,-1 0,0 0,0 1,-1 0,-4 1,-5 1,-8 0,0 -1,-1 -1,-1 0,-2 -33,-7 -37,-7 -6,-2 -12,-3 -18,-4 -6,-2 -13,-3 -18,-4l-4 0c1,1 1,0 1,1l1 1c1,0 1,0 2,0 0,5 -1,5 -4,7 -3,3 -2,3 -7,3 -7,0 -11,-1 -18,-2l-1 -2c-3,0 -6,1 -9,1 -2,-2 -2,-5 -4,-7 -2,-3 -4,-3 -5,-5l3 -2c-1,0 -1,-1 -1,-1l-3 0 -7 -1c2,5 10,6 7,14 -2,4 -10,4 -13,3 -2,-3 0,-2 -5,-3 -1,-5 -4,-7 0,-12 1,-1 0,0 1,-1 0,0 1,-1 1,-1l-3 -2c-5,1 -20,-2 -26,-2 -9,-1 -17,-3 -27,-3 -6,0 -9,-1 -15,-1 -15,0 -98,-1 -99,0 4,3 9,4 13,6 3,2 11,8 12,9z"/>
   <path class="fil14" d="M271 678l-21 5c-2,1 -4,2 -6,2 -12,4 -21,2 -33,2 -5,0 -11,0 -15,1 -2,1 -5,1 -7,1 -3,1 -4,2 -6,2 0,1 0,1 0,2 3,-1 6,-2 11,-3 5,-1 6,-2 13,-1 5,0 10,0 14,0 5,0 9,1 14,1 -1,2 -3,2 -5,3 1,2 2,2 2,3 -3,2 -13,2 -17,3 2,3 2,0 4,3 -2,2 -13,3 -17,3 1,2 1,4 2,6l1 2c5,0 3,-4 11,0 2,1 7,4 9,5 3,21 -4,18 -19,24 -6,3 -5,2 -10,-1 -4,0 -6,1 -11,0 -3,0 -6,0 -9,0 -7,-1 -16,-3 -18,-3l-5 0c3,1 7,2 10,3 6,1 12,0 17,1 4,0 7,1 11,1 2,0 3,0 5,1 -1,1 0,0 -2,1 -1,1 -3,1 -6,1 -3,1 -4,2 -8,2 -2,-2 0,-1 -2,-2 -1,-1 -2,-1 -3,-1 -2,1 -4,1 -6,1 -1,1 0,1 -1,1 0,2 0,1 -1,2l-11 0c0,1 0,2 -1,3 -6,0 -5,0 -9,-2 -3,-1 -6,1 -8,-1 0,-2 1,-1 6,-3 -1,-2 -3,-1 -4,-2 1,-3 1,-2 3,-3l-2 -2c0,0 0,0 0,0l1 -3c-3,-3 -5,0 -7,-4 0,-4 0,-1 1,-3l2 -2c1,-3 2,-6 4,-7 -1,-3 0,-1 -1,-2 -4,0 -11,1 -14,2l-12 5c1,4 1,0 4,5 0,0 1,0 1,0l0 1c0,0 1,1 1,1 1,2 0,3 -1,5 0,0 0,0 -1,0l-11 3c-4,1 -1,2 -5,2 -5,0 -1,0 -7,1 1,2 0,1 3,2l7 0c4,0 8,0 11,-1 3,0 7,0 10,-1 6,-3 6,-2 7,-3l0 2c-1,3 0,2 -3,2l1 2c1,0 1,0 1,1l0 1c-1,2 -1,4 -1,6 -4,0 -1,0 -2,1 3,3 0,-1 1,3 0,3 1,1 1,3l-9 4c4,0 4,0 6,1l0 5c-3,0 0,0 -2,1l0 5c5,0 6,1 10,1l0 9c-1,0 -1,0 -3,1l0 7 3 1c-1,0 -2,0 -2,1 -2,1 -2,0 -3,2l10 0 -7 1c-2,1 -6,2 -8,3 3,0 9,-1 12,-2 13,-3 48,-5 59,-8l10 -2c4,-1 2,-2 5,-2 1,-1 4,-1 5,-1 1,-3 0,-1 -7,-2 -6,-2 -23,-1 -27,-3 0,-2 -2,-2 4,-3l20 -2c5,0 25,0 27,-2 -4,-4 -6,0 -6,-5 1,0 14,-1 14,-5 0,-5 -16,-4 -20,-6 3,-1 9,-1 12,-2l21 -5c1,-1 2,-1 4,-2 0,0 2,-1 2,-1 1,-2 1,-1 1,-3 -7,1 -14,2 -21,3 -6,0 -17,1 -21,2 0,5 1,0 1,4 -2,3 -8,3 -10,3 -4,1 0,1 -8,1 -1,0 -3,0 -4,0l-3 -1c5,-2 12,2 16,-3 -1,-2 -5,-3 -1,-5l26 -4c4,1 8,-2 11,-3 7,-1 11,-1 10,-5 -1,-1 -8,-1 -12,-3 1,-3 3,0 4,-5 0,-1 -1,-1 -1,-1 0,0 0,-1 0,-1l-1 0c0,0 0,-1 0,-1 -2,-1 -2,0 -4,-1 -7,-4 -5,-1 -6,-3l7 -1c3,-1 4,-1 7,-1 -1,-3 -2,-2 -1,-4 1,0 3,-1 4,-1 6,-2 0,-3 7,-3 0,-3 0,-4 3,-4 4,-1 7,1 5,-3 0,0 0,-1 0,-1 -1,-2 -3,-3 0,-5l1 -1c-2,-1 -2,0 -2,-6l-1 0c0,0 0,-1 -1,-1 -1,-1 -1,-1 -2,-3l-3 -1c0,0 0,0 0,0l-1 0c0,-1 0,-2 3,-2l15 -2 0 -5c5,-2 5,-2 12,-2 3,0 11,-1 7,-5 6,0 4,0 5,-2 -11,4 -21,0 -29,2l0 0 -3 1c0,3 0,2 -1,4z"/>
   <path class="fil15" d="M403 784c3,1 0,-1 2,1l12 9c3,4 3,2 5,4 1,2 1,1 1,4 -5,0 -3,-1 -6,-3 -1,-1 -3,-1 -4,-2l-5 -3c-3,-2 -1,-2 -5,-3 1,4 0,1 7,5 0,3 0,3 -1,5 -3,0 -2,0 -4,-1l-3 1c3,1 2,3 1,8l-3 -1c0,0 0,0 -1,0 0,0 0,0 0,0l0 3c4,-1 2,-1 4,0 1,0 1,0 1,0l2 1c0,0 1,0 1,0 2,3 1,0 0,4 5,-3 0,-3 6,-1 0,0 0,0 0,1 0,0 1,0 1,0 1,0 1,0 2,0l14 5c2,0 5,0 5,3 -2,1 -1,-1 -9,-2l-2 0c0,0 0,0 0,0l-8 -2c-2,0 -2,0 -3,-1 -1,-1 0,2 0,-1 -1,0 -1,0 -1,0 -1,1 -3,1 -3,1 -1,0 1,-2 -3,0 -2,2 0,0 0,1 5,4 -3,0 1,1 1,0 1,0 3,0 0,3 0,5 -3,6l0 1c-2,-1 -1,-1 -4,-1l0 3c3,6 0,8 0,12 5,-1 6,-4 6,-8 1,-3 2,-2 2,-5 0,-3 -2,-4 0,-7 2,-1 1,1 5,1l3 0c1,1 3,1 4,1 3,1 11,2 14,2 1,-6 -1,-6 -2,-6 -5,-3 -2,0 -8,-3 -4,-2 -4,-1 -7,-2l-2 -1c-2,-1 0,0 -2,-1 -2,-1 -2,-3 -2,-3 0,2 0,2 -5,2 0,-1 0,-3 0,-4l2 -3c2,0 0,0 2,1 2,1 0,1 4,2l15 8c0,0 0,0 0,0l3 1c2,1 6,3 7,5l-3 0c0,4 1,11 4,12 0,-4 -1,-5 1,-9 2,2 1,1 2,5 1,4 1,4 3,4 2,-1 1,-9 1,-12 3,2 -1,5 4,13l1 -2c0,-5 -1,-7 1,-12 1,2 0,6 1,9 2,-1 2,-1 3,-4 1,-5 1,-8 1,-13 0,1 2,0 2,7 0,3 0,3 -1,5 0,0 0,2 0,2 0,2 0,2 1,3 2,0 1,0 3,-2 0,0 0,0 1,-2l1 -3c0,-2 0,-2 0,-3 2,4 1,6 0,10 6,-1 3,-1 4,-2 1,8 -1,3 -2,10 3,-1 3,-1 6,-4l2 -2c1,-2 0,-1 0,-1 -1,3 -3,5 -3,9 3,1 4,1 5,4 -2,2 -3,2 -7,2l0 5c4,0 3,0 6,2l0 2c0,2 0,0 0,2 1,2 6,6 10,7 0,-4 -2,-7 -2,-8 3,2 2,3 6,7 2,-1 7,-11 15,-18 1,-1 1,-1 3,-3 2,0 3,-2 7,-3l3 -1c0,0 0,0 1,0 0,0 0,0 0,0 -1,-3 -1,-2 -3,-4 -5,-3 -6,-1 -11,-1 2,-3 9,-7 13,-10 4,-3 11,-9 16,-9 1,-3 0,-4 2,-5 3,-3 3,-1 3,-5 -4,0 -5,2 -7,5 -1,1 -2,4 -4,5 -2,-5 3,-7 5,-9 -8,-5 -3,0 -8,-6 -3,1 -5,1 -8,1 0,0 0,1 0,1l3 3c0,0 6,-3 9,2 -5,1 -15,-3 -12,13 -5,-1 -3,-6 -8,-4 0,0 0,0 0,0 0,0 0,1 0,1 0,3 1,0 2,7 -4,-1 -4,-2 -5,-2 -4,1 -1,2 -4,3 -1,-2 -1,-4 -3,-5 -2,-1 -6,-1 -9,0 1,4 3,4 2,8l-6 -7c-2,-3 -4,-1 -5,-9l1 0c1,-3 1,-1 1,-5 -2,0 -3,0 -6,0 1,-1 1,-4 2,-5 0,0 0,0 0,0l1 -1c2,-2 2,-1 2,-4 -4,0 -3,0 -5,2 -1,2 -2,3 -2,4 -1,-2 4,-9 5,-12 0,0 0,-1 1,-2l-3 -1c0,-2 0,-2 1,-4 0,-3 0,-3 -1,-4 -2,4 0,3 -3,7 -3,3 1,3 -4,5 0,-3 0,-2 1,-6l-1 -1c-1,0 0,1 -1,-1 0,-1 0,-2 0,-3 1,-5 2,-2 0,-5 -2,-3 1,0 -1,-1l0 4c-1,1 -1,2 -1,3 0,5 -1,4 -2,4 0,0 0,0 0,0 0,0 -1,0 -1,-1l-1 -4c0,-3 0,-4 0,-7 0,0 0,0 0,1 0,0 0,0 0,0l-2 0c0,3 0,4 0,7 0,3 0,4 -1,6 -2,-2 0,0 -1,-1 -4,-4 0,-17 0,-18 0,-2 -1,-4 -1,-5 0,-3 0,-4 0,-6 0,-2 0,-4 -1,-5 -2,6 2,15 -5,16 -2,-6 -1,-16 -3,-20 0,5 0,9 0,14 0,2 0,5 0,7 0,1 0,3 0,4 -1,2 0,1 -2,2 -3,-5 -4,-29 -7,-36 -1,2 3,28 4,34 0,2 1,2 0,4 0,2 0,1 -1,2 -3,-5 -6,-29 -11,-34 1,10 9,30 9,37 -2,-1 -1,0 -2,-3l-3 -8c-2,-3 -3,-7 -4,-11 -2,-4 -9,-19 -9,-22 -1,4 1,6 3,12l12 32c0,2 0,0 0,1 0,2 0,1 -1,2 -3,-2 -18,-41 -22,-44 1,8 21,44 20,47 -2,-1 -22,-36 -27,-43l-2 -3c1,4 10,20 13,25 1,2 13,22 12,24 -1,-1 -4,-7 -7,-10 -2,-4 -4,-6 -6,-10l-10 -14c-4,-5 -2,-4 -5,-5 2,8 25,38 26,42 -3,0 -1,0 -5,-4 -1,-2 -2,-3 -4,-5 -4,-5 -20,-25 -23,-26 1,3 11,15 15,19 3,4 14,16 14,19 -4,-1 -27,-29 -33,-32 1,3 13,14 15,17 3,3 15,14 15,18 -3,-1 -6,-5 -8,-7 -5,-3 -21,-18 -24,-18 2,3 6,5 8,9z"/>
   <path class="fil16" d="M56 744c0,0 0,0 0,0 -2,1 -16,2 -18,2l-17 1c4,0 8,2 10,3 0,6 -1,2 -1,5 0,2 0,0 1,3 -2,1 -2,1 -5,1 0,7 1,22 0,27 -8,3 -18,3 -20,6l2 1c1,0 7,2 8,1 1,2 2,1 -1,2l-15 2 0 17c12,-1 25,-3 36,-3l0 3c0,0 0,0 0,0 0,0 -1,0 -1,0l-4 0 0 12 5 1c0,2 0,2 2,3 -4,0 -11,1 -14,2l-14 3c12,-1 24,-4 36,-5 1,0 18,-2 20,-2 3,-3 5,-2 10,-3 4,-1 4,0 6,-1l-5 0 -1 -3c-3,1 -3,1 -5,-1 3,-1 2,0 4,0 2,-1 5,-2 4,-4 0,-2 0,-1 -3,-1l0 -11c-4,1 -3,0 -3,0l-1 0c0,-1 0,-1 1,-1l1 -2c1,-1 1,0 2,-1l0 -10c-5,0 -8,1 -12,1 -3,0 -11,0 -13,-1 1,-2 0,0 2,-1 3,-1 3,1 3,-2 0,0 -4,1 -6,-3 5,-2 11,-1 16,-3 0,0 0,0 0,-1l10 -1 0 -3c-4,6 -3,-8 -3,-11 0,-6 0,-11 0,-17 -3,0 -3,0 -7,0 1,-2 2,-1 3,-3l-3 0c1,-3 2,-1 3,-4 -3,-1 -2,1 -2,-2l-4 0c1,2 0,1 1,2 0,0 1,1 2,1 -3,1 -6,1 -10,1z"/>
   <path class="fil17" d="M124 703c-9,2 -1,-1 -11,0 -4,0 -9,0 -12,1 -7,1 -19,0 -24,1 -9,3 -7,0 -12,2 -3,1 2,1 -4,0 -1,0 -4,0 -6,0 -6,1 -10,1 -17,2 -1,0 -1,0 -3,0l-2 2c0,5 3,0 4,5 -2,1 -2,0 -4,0 -2,1 -1,1 -4,0 0,-1 1,-1 1,-3 -3,0 -11,2 -13,-1l-2 3c-2,4 -7,0 -7,0 -2,1 -2,1 -6,1 -1,0 -1,0 -2,0l0 40c1,-1 2,-1 3,-1l20 -2c0,0 1,-1 1,-1l1 -1 -4 -2c-3,-1 -4,0 -5,-2 1,-2 3,-1 8,-2 8,-1 25,-2 32,-1 4,0 7,0 10,-1 -1,0 -2,-1 -2,-1 -1,-1 0,0 -1,-2l4 0c4,0 23,-3 29,-4 2,-1 3,0 3,-2 -2,-2 -3,0 -6,-3 1,0 1,-1 1,0l9 -3c3,-1 9,-2 10,-3 -2,-3 -3,-1 -4,-4 1,-1 3,-2 6,-2l1 -1c0,0 1,0 1,0l1 -7c5,0 10,0 15,0 -1,-4 -1,-2 0,-5l7 -1c1,-1 0,1 1,-1 2,0 2,1 4,1 7,-1 -4,-2 13,-3l0 -3c-5,1 -11,3 -16,3 -3,1 -6,1 -8,2 -3,0 -6,1 -9,1l-1 -2z"/>
   <path class="fil18" d="M209 804c-3,0 -12,1 -14,2 -7,3 -9,1 -10,4 1,3 -1,0 1,2l2 1c0,1 0,0 1,1 3,3 1,7 -2,10 -3,3 -4,3 -7,4 -1,1 -2,2 -2,2 -1,0 -5,2 -5,2 -4,1 -8,2 -12,3 -4,2 -8,2 -13,3 -2,0 -4,1 -6,1 -9,2 -43,2 -57,3 -3,1 -2,1 -5,1 -5,1 -10,0 -15,1 -3,1 -4,0 -7,1 -9,0 -36,5 -44,8 -4,2 -5,2 -11,3 0,0 -2,1 -3,1l0 29c4,-2 8,-5 10,-6 2,-1 4,-1 5,-2 7,-3 14,-7 22,-9l24 -6c8,-3 17,-5 24,-6 24,-5 32,-5 54,-8 10,-1 44,-7 49,-11l-4 -2c5,-2 5,0 7,-3 2,-3 -3,-1 6,-4 10,-4 9,-9 11,-9 -1,-1 -1,-2 -4,-6 -3,-3 2,-3 5,-5 0,0 1,0 1,0 1,-1 3,-2 3,-2 2,0 2,1 6,0 5,-2 5,0 5,-3 -6,0 -9,1 -15,0z"/>
   <path class="fil19" d="M633 774l3 1c-2,3 -4,2 -8,3 -2,5 -3,2 1,7 1,2 2,6 1,9 -6,-1 -5,-8 -5,-11 -3,1 -1,0 -2,2 -3,1 -2,3 -5,4l1 -8c-3,0 -7,0 -9,2l-1 1c-2,4 -1,3 -2,3 0,0 0,-2 0,-2 -1,-2 0,-2 -2,-3 -2,3 -1,3 -1,5 -1,1 -1,1 -3,2 4,1 3,2 5,5 2,-2 2,-4 6,-5 0,3 0,5 -1,7 -2,3 -3,2 -4,3 0,0 -1,2 -2,3 -1,1 -3,5 -5,5 -1,-7 1,-5 2,-9 -5,0 -5,0 -9,1 0,5 3,4 3,8 -4,0 -6,-2 -7,-5 -2,-2 0,-1 -2,-2 -2,3 0,3 1,6 1,2 1,5 1,7 -6,-2 -5,-8 -5,-11 -4,0 -4,6 -7,7 -1,-4 0,-6 1,-9l-8 1c-3,10 -2,5 -5,9 -2,2 -4,6 -7,7 0,-3 0,-6 1,-7 3,-4 4,-1 4,-4 -2,0 -3,-1 -4,-2 -3,-2 -1,0 -2,-3l-9 0c1,3 0,1 1,2l2 3c3,-1 1,-3 5,-2 1,0 2,1 3,2 2,1 0,-1 1,2 -4,0 -5,0 -9,1l-2 7c2,2 1,2 3,6 1,2 0,7 -1,10 -2,4 -5,2 -5,7 -4,-1 0,0 -3,2 0,0 -2,1 -2,1l-3 1c-1,1 -4,1 -5,1 0,3 0,1 1,4l3 -1c4,-1 5,-1 8,1 3,1 2,2 5,4 1,-3 -1,-1 1,-3 3,-4 5,-4 11,-4 7,-1 9,-2 14,-3l2 4c2,5 11,2 13,1 -1,-1 -1,0 -2,-2 -3,0 -3,0 -5,-1l-5 -1 2 -2c3,-2 4,-1 8,-3 -1,-1 -1,-1 -2,-2 -2,1 0,2 -4,2 -5,1 -2,-1 -7,-1 -8,-1 -7,-2 -11,-3 -1,1 -1,0 -1,1l-1 2 -2 -2c2,-4 5,-9 12,-9 3,0 7,0 10,1 2,1 6,3 8,3l2 0c0,-4 -1,0 1,-4 1,0 1,-1 1,-1 1,-3 -1,-2 2,-2 0,2 0,4 0,6 0,4 1,3 4,3 -1,2 -1,1 0,3 2,-1 7,-5 8,-8 1,-4 0,-10 1,-14 0,0 1,11 2,12 2,0 1,0 4,-6 1,-1 1,-4 2,-6l2 4c0,1 0,1 0,1 0,0 0,0 1,0 0,1 0,1 0,1 1,-1 1,0 1,-1 3,-4 2,-13 4,-15l1 9c0,2 0,2 1,4 2,-1 2,-3 3,-5 1,-3 1,-3 2,-6 1,1 0,0 1,2 1,7 -6,13 -4,16 4,-1 2,-4 5,-7 0,2 0,4 0,5 0,4 1,3 2,4 3,-3 1,-10 3,-17 4,8 1,10 1,18 1,0 2,-1 2,-2l0 -55c0,0 -1,0 -2,1l-1 -6 0 -2c-2,2 -1,1 -4,1 0,-4 2,-5 2,-8 -2,1 -6,6 -6,8 1,5 3,0 2,5l-3 5c0,0 1,0 1,0l1 1z"/>
   <path class="fil14" d="M112 806c-3,0 -9,3 -10,4 2,2 0,1 4,2l12 0 -1 8c-5,2 -3,0 -13,3 -3,1 -10,2 -14,3 -7,0 -15,3 -24,3 -2,0 -19,2 -20,2l-2 2c-4,1 -8,-1 -8,1 1,2 -1,1 2,1l12 0 0 2c-2,0 -8,1 -9,2 -2,2 0,-1 0,1 -3,2 0,-1 -5,2 -3,2 -6,2 -9,2l-1 2c0,0 -1,0 -1,0 -4,0 -4,0 -7,1 -3,2 -6,2 -9,6 -2,2 -1,-1 -1,1 0,0 1,0 1,1 -5,0 -3,0 -6,1 6,-1 7,-1 11,-3 8,-3 35,-8 44,-8 3,-1 4,0 7,-1 5,-1 10,0 15,-1 3,0 2,0 5,-1 14,-1 48,-1 57,-3 2,0 4,-1 6,-1 5,-1 9,-1 13,-3 4,-1 8,-2 12,-3 0,0 4,-2 5,-2 0,0 1,-1 2,-2 3,-1 4,-1 7,-4 3,-3 5,-7 2,-10 -1,-1 -1,0 -1,-1l-2 -1c-2,-2 0,1 -1,-2 1,-3 3,-1 10,-4 2,-1 11,-2 14,-2 3,-1 11,-1 15,0l0 -6c2,-1 1,0 3,-1 -3,-1 -7,0 -10,0 -4,0 -7,-1 -10,-1 -3,0 -6,1 -10,2l-19 3c-3,0 -7,0 -10,1 -2,1 -1,1 -4,2 -5,1 -7,2 -12,4 1,2 1,1 1,4 4,0 5,1 8,3 -1,7 -13,9 -19,10l-24 4 -1 -6c2,0 3,0 5,-1 4,-1 0,-1 10,-3 4,-1 8,-2 10,-5 2,-8 -20,-3 -30,-3 -1,0 -3,0 -5,0l-4 -1c2,-1 7,-2 9,-4z"/>
   <path class="fil20" d="M604 769l-2 3c3,1 3,0 4,2 -2,1 -4,1 -6,1 -3,1 -3,1 -7,1 1,5 4,1 2,5 -3,-1 0,-2 -4,-3 -1,2 0,1 -1,3 -1,0 -7,-5 -12,2 4,0 9,-1 12,2 -2,2 -4,2 -6,3 0,1 0,1 2,2 2,0 1,0 2,0l1 0c4,1 2,2 10,1 1,2 0,2 2,3 3,2 2,0 4,3 -5,2 -2,0 -6,-2 -3,-2 -4,-1 -6,1 -1,-3 0,-1 -2,-3 -3,2 0,2 -3,2 0,-4 2,1 2,-4l-9 1c1,-9 -6,-8 -7,-11 2,0 4,-1 5,-2 2,-1 2,-2 3,-3 0,0 1,0 1,-1 3,1 3,1 7,1 -1,-4 -5,-6 -9,-6 -3,4 0,1 -4,4 -2,2 -2,4 -3,5 -3,-1 -2,-4 -8,-5 1,11 6,10 7,10 1,3 1,1 1,5 -2,0 -1,0 -3,-2 0,0 0,-2 0,-3 -5,3 0,3 -6,4 1,-4 2,-2 2,-5 -5,-1 -5,1 -8,2 -3,-5 0,-1 -5,-5 -3,-3 -4,-3 -8,-3 0,0 0,1 0,1 -1,0 -1,1 -1,1l-1 1c0,0 0,0 0,0 -1,1 -1,-1 -2,3 0,2 0,6 0,8 2,0 1,0 4,-4l2 -4c4,0 2,2 7,3 2,1 1,0 3,1 -2,3 -2,-2 -3,4 4,0 9,-1 10,2 -3,2 -5,-1 -7,2 -2,2 -3,2 -6,3 0,-5 1,-4 -2,-6 0,5 -2,3 -6,5 -2,2 -1,-1 -8,5l-3 -4c0,-1 0,-1 0,-3 -1,-2 -1,0 -1,-2 3,-2 5,-2 5,-7 -5,0 -3,1 -8,3 -1,-3 -2,-6 -3,-7l-2 3c-1,-1 -2,-4 -7,-4 0,2 0,2 2,4l3 2c0,2 1,1 0,1l-9 0c0,3 -1,1 1,3 2,1 1,-1 3,2 -1,3 0,2 -2,4 -1,1 0,-2 -2,2l0 2c-5,-1 -2,-5 -7,-6 0,2 1,2 1,4 0,3 0,4 -1,6 0,-1 -1,0 -1,-3 -1,-2 0,-3 -2,-6l-7 0c2,5 4,3 5,7 0,1 0,2 -3,1 -1,2 0,1 -2,3 -1,-1 -1,1 -2,-3 -2,0 -3,0 -4,1 3,4 2,1 5,3 0,2 1,1 -1,2 0,0 0,0 0,1l-2 0c-1,2 0,2 -2,4 -2,0 -1,-1 -4,-3 -2,-2 1,-1 -1,-1l-1 0c1,8 3,6 5,9l6 7c1,-4 -1,-4 -2,-8 3,-1 7,-1 9,0 2,1 2,3 3,5 3,-1 0,-2 4,-3 1,0 1,1 5,2 -1,-7 -2,-4 -2,-7 0,0 0,-1 0,-1 0,0 0,0 0,0 5,-2 3,3 8,4 -3,-16 7,-12 12,-13 -3,-5 -9,-2 -9,-2l-3 -3c0,0 0,-1 0,-1 3,0 5,0 8,-1 5,6 0,1 8,6 -2,2 -7,4 -5,9 2,-1 3,-4 4,-5 2,-3 3,-5 7,-5 0,4 0,2 -3,5 -2,1 -1,2 -2,5 2,-1 3,-1 6,0 3,1 4,0 6,2l2 -7c4,-1 5,-1 9,-1 -1,-3 1,-1 -1,-2 -1,-1 -2,-2 -3,-2 -4,-1 -2,1 -5,2l-2 -3c-1,-1 0,1 -1,-2l9 0c1,3 -1,1 2,3 1,1 2,2 4,2 0,3 -1,0 -4,4 -1,1 -1,4 -1,7 3,-1 5,-5 7,-7 3,-4 2,1 5,-9l8 -1c-1,3 -2,5 -1,9 3,-1 3,-7 7,-7 0,3 -1,9 5,11 0,-2 0,-5 -1,-7 -1,-3 -3,-3 -1,-6 2,1 0,0 2,2 1,3 3,5 7,5 0,-4 -3,-3 -3,-8 4,-1 4,-1 9,-1 -1,4 -3,2 -2,9 2,0 4,-4 5,-5 1,-1 2,-3 2,-3 1,-1 2,0 4,-3 1,-2 1,-4 1,-7 -4,1 -4,3 -6,5 -2,-3 -1,-4 -5,-5 2,-1 2,-1 3,-2 0,-2 -1,-2 1,-5 2,1 1,1 2,3 0,0 0,2 0,2 1,0 0,1 2,-3l1 -1c2,-2 6,-2 9,-2l-1 8c3,-1 2,-3 5,-4 1,-2 -1,-1 2,-2 0,3 -1,10 5,11 1,-3 0,-7 -1,-9 -4,-5 -3,-2 -1,-7 4,-1 6,0 8,-3l-3 -1c-2,0 -6,-1 -8,-3 2,-2 0,1 3,-1 0,0 0,-1 0,-1 3,-2 3,-3 3,-5 -4,0 -6,0 -10,1 2,-5 3,0 3,-8 -3,1 -9,4 -7,9 1,2 1,1 2,3 -3,1 -3,-1 -5,-3 -2,-5 -2,-4 -5,-5 0,3 0,1 0,3 2,5 1,4 -5,5z"/>
   <path class="fil21" d="M128 718c-1,1 1,0 -2,1l-15 2c2,3 2,1 3,4 -3,3 -15,4 -15,4 -3,1 -2,1 -3,2 2,1 3,1 6,2 0,1 -1,2 0,3 -3,5 -1,3 -11,4l1 3 -5 1c0,2 1,-1 0,1 0,0 0,0 -1,2 3,0 8,-1 10,0 3,0 1,1 6,3 2,9 0,10 1,17l-1 2c0,2 0,5 1,6 -3,1 -6,4 -8,1l-2 2c-3,3 -4,-1 -4,4 1,1 1,1 3,1l0 6 3 1c0,11 2,3 2,9 0,4 -2,2 0,10 0,0 0,0 0,1 0,0 0,0 0,0l-1 9c0,4 1,2 -1,4 3,0 1,0 2,1 -1,0 -3,0 -4,0l-3 2c4,-1 11,-2 14,-3 10,-3 8,-1 13,-3l1 -8 -12 0c-4,-1 -2,0 -4,-2 1,-1 7,-4 10,-4 5,0 10,-3 15,-3 2,-1 6,-2 8,-3l7 -1 -10 0c1,-2 1,-1 3,-2 0,-1 1,-1 2,-1l-3 -1 0 -7c2,-1 2,-1 3,-1l0 -9c-4,0 -5,-1 -10,-1l0 -5c2,-1 -1,-1 2,-1l0 -5c-2,-1 -2,-1 -6,-1l9 -4c0,-2 -1,0 -1,-3 -1,-4 2,0 -1,-3 1,-1 -2,-1 2,-1 0,-2 0,-4 1,-6l0 -1c0,-1 0,-1 -1,-1l-1 -2c3,0 2,1 3,-2l0 -2c-1,1 -1,0 -7,3 -3,1 -7,1 -10,1 -3,1 -7,1 -11,1l-7 0c-3,-1 -2,0 -3,-2 6,-1 2,-1 7,-1 4,0 1,-1 5,-2l11 -3c1,0 1,0 1,0 1,-2 2,-3 1,-5 0,0 -1,-1 -1,-1l0 -1c0,0 -1,0 -1,0 -3,-5 -3,-1 -4,-5l12 -5c3,-1 10,-2 14,-2 1,1 0,-1 1,2 0,-1 0,0 1,-2l0 -1 -15 1z"/>
   <path class="fil22" d="M143 718c-1,2 -1,1 -1,2 -2,1 -3,4 -4,7l0 4c4,2 5,1 10,2 1,2 1,3 3,4 2,1 5,0 7,1 2,0 11,2 18,3 3,0 6,0 9,0 5,1 7,0 11,0 5,3 4,4 10,1 15,-6 22,-3 19,-24 -2,-1 -7,-4 -9,-5 -8,-4 -6,0 -11,0l-1 -2c-2,-1 -2,-2 -3,-4 -6,-11 -12,-6 -19,-6 -8,1 -15,-3 -20,9 -3,8 -7,-3 -18,8l-1 0z"/>
   <path class="fil15" d="M515 701l-1 8c-1,-3 -1,-8 -4,-9 -1,4 0,8 0,9 0,6 1,2 -2,3 -1,-2 0,-6 -1,-9 0,-3 -1,-6 -4,-7 -1,3 2,9 2,13 -2,-1 -2,-1 -4,-2 0,-5 1,-6 -1,-10 -1,-3 -3,-5 -6,-6 0,2 4,10 5,13 -3,-1 -10,-4 -13,-3 2,2 5,3 7,4 1,1 2,1 3,1 3,0 4,0 6,1 0,0 1,1 -2,2 0,0 -5,-1 -8,0 1,1 5,3 7,3 6,1 6,-2 10,1 -2,2 -4,1 -10,1 0,3 2,3 6,3 5,0 7,-3 8,1 -1,1 -1,1 -4,1 -2,0 -4,0 -5,1 1,3 6,1 9,3 -1,2 0,1 -3,2 1,3 1,-1 2,3 1,-1 1,0 2,0 4,8 1,-1 10,7l3 2c1,2 2,2 4,3 0,1 0,1 -1,1 -1,1 0,0 0,0 3,1 4,1 6,4 2,2 1,3 5,1l0 2c2,-1 4,-1 7,-2 4,-1 1,-1 6,-2l-1 -2c1,0 1,1 2,3 0,-5 -1,-8 -1,-11 0,-2 1,-3 1,-5 0,-2 -1,-4 -1,-5 0,-3 -1,-6 -1,-8 4,0 4,0 5,4 0,1 0,2 1,3 7,0 10,-1 12,-1l3 -4c1,-2 1,-2 1,-4l-1 0c0,5 2,7 2,13 2,-2 -1,-2 3,-2 0,-4 1,-5 0,-8 -2,-1 0,0 -1,0 -1,0 -1,0 -1,0l-2 -1 0 -9c1,3 0,1 -1,2 -2,3 -3,6 -4,11 -2,0 -2,1 -4,0 -1,0 -3,-1 -3,-2 2,-1 3,0 5,-2 3,-3 6,-9 3,-14 -2,0 0,-1 -2,2 -1,3 -2,7 -3,11 -1,-1 -2,-2 -3,-2 1,-6 6,-5 4,-16 -2,0 -2,1 -3,4 -1,5 -1,4 -3,5 1,-5 4,-10 1,-15 -1,1 -1,1 -2,3 -2,6 -2,4 -2,9 -3,1 -3,2 -6,0 0,-5 0,-2 1,-2 0,-1 1,-1 1,-1 4,-2 6,-11 4,-14 -4,0 0,-1 -2,1l-2 2c0,-2 0,-4 0,-6 -1,-4 -1,-2 -2,-4l-2 -6c-2,-2 -1,-1 -3,-2 -1,0 -1,0 -2,-1 0,2 0,2 -1,3 0,-2 -1,-4 -2,-6l-3 -4 -1 5c-2,0 -2,-1 -3,-3 -2,-2 0,-1 -2,-2l-4 1c-1,4 1,2 1,6 0,4 0,3 2,6 1,1 3,3 5,4 1,0 2,0 3,1 3,1 1,-1 2,2 -4,2 -4,-2 -9,-2 0,4 3,4 4,5 0,4 0,1 -1,3 2,3 2,3 5,5 -1,3 0,5 0,8l-1 2c-1,5 1,10 -1,15 -3,5 -1,7 -1,15l-4 0c0,-5 4,-10 2,-15 0,-1 -1,-2 -1,-3 -2,0 -1,1 -2,0 -3,0 -3,-3 -4,-5 -2,1 1,2 -3,3 -3,0 -1,0 -3,-2 -2,-3 2,0 -1,-1 -2,3 0,6 0,13l-7 0c1,-6 1,-2 3,-6 2,-3 2,-9 0,-13 -1,-3 0,0 -2,-2 -1,-1 0,-1 -1,-2z"/>
   <path class="fil23" d="M620 642c4,-1 3,-2 7,-2 0,4 0,1 -1,3 -1,3 1,1 -2,3 -2,0 -5,0 -3,-3 -1,2 -1,1 -1,2 -1,1 -1,1 -2,1 4,3 -1,6 -3,9l-6 5c-1,1 0,1 -1,1 -4,-1 -1,-2 -5,-1l-1 3c1,-2 0,-1 2,-3 4,3 1,4 5,7l3 -2c2,4 2,3 2,9l5 -1 0 7c3,1 -1,0 2,0 1,0 0,-1 1,0 2,2 1,3 1,5l1 1c2,2 0,2 3,4 -1,2 -1,0 -1,3 3,1 2,1 2,5 0,0 0,1 1,1 1,2 2,1 0,6l3 1 0 5c0,0 0,0 0,0 0,0 0,1 0,1l0 2c-1,8 2,2 2,7 1,1 0,-1 1,2l0 1c2,12 -1,10 0,18 1,5 0,2 2,5 2,3 -1,6 3,9 -1,8 2,3 1,7 0,0 -1,1 -1,1l1 6c1,-1 2,-1 2,-1l0 -138c-6,1 -14,6 -20,8 -2,1 -2,0 -3,3z"/>
   <path class="fil24" d="M115 719c-3,0 -5,1 -6,2 1,3 2,1 4,4 -1,1 -7,2 -10,3l-9 3c0,-1 0,0 -1,0 3,3 4,1 6,3 0,2 -1,1 -3,2 -6,1 -25,4 -29,4 0,3 -1,1 2,2 -1,3 -2,1 -3,4l3 0c-1,2 -2,1 -3,3 4,0 4,0 7,0 0,6 0,11 0,17 0,3 -1,17 3,11l0 3 -10 1c0,1 0,1 0,1 -5,2 -11,1 -16,3 2,4 6,3 6,3 0,3 0,1 -3,2 -2,1 -1,-1 -2,1 2,1 10,1 13,1 4,0 7,-1 12,-1l0 10c-1,1 -1,0 -2,1l-1 2c-1,0 -1,0 -1,1l1 0c0,0 -1,1 3,0l0 11c3,0 3,-1 3,1 1,2 -2,3 -4,4 -2,0 -1,-1 -4,0 2,2 2,2 5,1l1 3 5 0c-2,1 -2,0 -6,1 -5,1 -7,0 -10,3 9,0 17,-3 24,-3l3 -2c1,0 3,0 4,0 -1,-1 1,-1 -2,-1 2,-2 1,0 1,-4l1 -9c0,0 0,0 0,0 0,-1 0,-1 0,-1 -2,-8 0,-6 0,-10 0,-6 -2,2 -2,-9l-3 -1 0 -6c-2,0 -2,0 -3,-1 0,-5 1,-1 4,-4l2 -2c2,3 5,0 8,-1 -1,-1 -1,-4 -1,-6l1 -2c-1,-7 1,-8 -1,-17 -5,-2 -3,-3 -6,-3 -2,-1 -7,0 -10,0 1,-2 1,-2 1,-2 1,-2 0,1 0,-1l5 -1 -1 -3c10,-1 8,1 11,-4 -1,-1 0,-2 0,-3 -3,-1 -4,-1 -6,-2 1,-1 0,-1 3,-2 0,0 12,-1 15,-4 -1,-3 -1,-1 -3,-4l15 -2c3,-1 1,0 2,-1l-13 1z"/>
   <path class="fil25" d="M219 673c4,0 2,-1 5,-4l3 -2c0,0 0,0 0,0 2,-1 1,-1 2,-3 2,-4 6,-2 9,-1 2,0 10,2 11,1 2,-1 3,-2 3,-3 -2,0 -2,-1 -3,-3 -2,-1 -2,-2 -4,-3 -2,-1 -6,-4 -9,-5 -4,-1 -2,1 -5,1 -4,-1 -1,-1 -2,-4 -1,0 -1,0 -1,0l-1 0c-4,1 -6,0 -8,1 -2,1 2,-1 0,1l-1 1c-3,-3 2,-1 -10,-3l-60 -1c-10,-1 -1,4 -10,1 -4,-1 -3,1 -6,-2 -2,-1 -1,-1 -2,-2 -2,0 -1,0 -3,2 0,-3 -1,-4 -1,-5l-2 -5c0,2 0,4 0,6l1 3c2,5 1,4 4,6 2,1 3,2 4,3 1,0 3,0 5,0 5,1 -2,1 6,3 1,0 1,0 1,1 0,0 2,0 2,0 2,1 1,3 1,5 -1,1 -2,0 -3,2 1,3 2,1 4,1 2,-1 2,0 4,-1 0,0 0,0 2,-1l0 4c3,-1 2,-2 4,0 2,1 0,1 4,1 0,5 0,3 4,6 0,0 0,1 2,1 2,0 0,1 2,-2 3,1 0,1 3,1 2,-2 3,-5 7,-5 2,1 3,5 6,1 0,-1 0,-1 0,-1 2,0 2,1 3,1 3,0 1,-1 3,-1l3 1c0,0 0,0 0,0 2,1 2,0 3,3 0,0 0,0 0,0l20 0z"/>
   <path class="fil15" d="M591 830l1 1c3,2 12,6 14,8 -1,2 0,1 -3,3l-16 11c0,3 1,3 1,6 0,6 1,12 5,16 3,4 2,3 4,4 0,-5 -1,-8 0,-13 1,2 1,5 4,9 1,3 0,1 2,2 1,-3 1,-3 1,-6 2,0 1,0 3,1 2,2 0,2 3,3 0,-7 -3,-8 -5,-12 4,1 8,9 12,11 0,-6 -5,-12 -5,-18 2,1 6,8 8,10 2,-1 1,2 1,-2 0,-3 -2,-7 -1,-9 2,1 5,13 7,16 0,0 0,0 0,-1 0,-1 1,-1 1,-2 0,-2 0,-3 0,-5l2 4c1,3 2,8 4,11 0,-6 -2,-18 1,-21 2,2 1,3 4,4l-1 -11c2,0 1,0 2,2 1,2 0,2 2,3 1,0 1,-1 1,-1l0 -30c0,1 -1,2 -2,2 0,-8 3,-10 -1,-18 -2,7 0,14 -3,17 -1,-1 -2,0 -2,-4 0,-1 0,-3 0,-5 -3,3 -1,6 -5,7 -2,-3 5,-9 4,-16 -1,-2 0,-1 -1,-2 -1,3 -1,3 -2,6 -1,2 -1,4 -3,5 -1,-2 -1,-2 -1,-4l-1 -9c-2,2 -1,11 -4,15 0,1 0,0 -1,1 0,0 0,0 0,-1 -1,0 -1,0 -1,0 0,0 0,0 0,-1l-2 -4c-1,2 -1,5 -2,6 -3,6 -2,6 -4,6 -1,-1 -2,-12 -2,-12 -1,4 0,10 -1,14 -1,3 -6,7 -8,8 -1,-2 -1,-1 0,-3 -3,0 -4,1 -4,-3 0,-2 0,-4 0,-6 -3,0 -1,-1 -2,2 0,0 0,1 -1,1 -2,4 -1,0 -1,4l-2 0z"/>
   <path class="fil26" d="M403 830c0,0 -1,0 0,0 -2,3 -1,0 -2,4 0,1 1,2 -1,4l-2 3c0,-2 0,-2 -2,-3 -4,1 -1,2 -2,5 -2,-1 0,0 -2,-1l0 -1c0,0 0,0 0,0l-4 -2c0,2 3,3 2,6 -5,1 -1,1 -9,-1 0,0 0,0 0,1 1,1 2,1 2,3l-4 0 -1 2c0,0 0,0 0,1l-6 0c0,-1 3,-1 4,-1 6,0 5,1 6,2 -1,1 2,2 -2,1 -4,0 -5,0 -9,2l-1 0c2,0 4,0 6,0 2,1 0,1 4,2l1 3c2,-3 -1,-3 4,-4 0,4 -1,3 0,7l1 -1c0,-4 0,-3 2,-6l0 1c0,1 0,1 1,2 0,1 -1,1 0,3 3,-2 -1,-4 3,-6 2,3 -1,2 0,5 2,-1 1,-1 2,-1 2,-2 1,1 5,-2 0,4 -1,3 2,4 0,-1 0,-1 0,-2 0,0 1,-1 1,-1l2 1c1,-3 0,-2 1,-4l1 3c0,0 0,0 1,0 0,0 0,-1 0,-1 0,0 0,0 0,0l2 -6 0 6c3,0 1,-1 3,-2 4,7 4,5 6,5 2,0 0,0 2,1 0,-1 0,-2 0,-2l0 -2c0,0 0,0 0,0 2,2 2,3 5,4l0 -3c3,1 4,6 6,8 2,-4 -2,-8 -2,-12 5,2 3,7 6,10 0,0 0,0 0,0 2,-3 1,-7 1,-10 1,-1 0,-1 2,0 0,-2 0,0 -1,-3 2,1 2,1 4,1 1,-1 1,-2 1,-3l1 1c0,0 0,0 0,0l1 1c1,-2 0,-2 2,-3l2 0c2,-1 2,-1 2,-2l3 -1c0,0 0,0 0,0l0 -6c3,-1 0,0 2,0 1,-1 1,-1 2,-1 1,0 2,0 2,-3l3 0c0,-1 -2,0 0,-2 0,0 1,0 2,-2 -4,-1 -4,-1 -7,1l-2 0 -1 2c-5,-8 -1,-11 -4,-13 0,3 1,11 -1,12 -2,0 -2,0 -3,-4 -1,-4 0,-3 -2,-5 -2,4 -1,5 -1,9 -3,-1 -4,-8 -4,-12l3 0c-1,-2 -5,-4 -7,-5l-3 -1c0,0 0,0 0,0l-15 -8c-4,-1 -2,-1 -4,-2 -2,-1 0,-1 -2,-1l-2 3c0,1 0,3 0,4 5,0 5,0 5,-2 0,0 0,2 2,3 2,1 0,0 2,1l2 1c3,1 3,0 7,2 6,3 3,0 8,3 1,0 3,0 2,6 -3,0 -11,-1 -14,-2 -1,0 -3,0 -4,-1l-3 0c-4,0 -3,-2 -5,-1 -2,3 0,4 0,7 0,3 -1,2 -2,5 0,4 -1,7 -6,8 0,-4 3,-6 0,-12z"/>
   <path class="fil26" d="M475 751c-4,6 -5,3 -6,3 -1,6 -2,5 -5,9l-2 0c0,1 1,3 1,5 0,1 -4,14 0,18 1,1 -1,-1 1,1 1,-2 1,-3 1,-6 0,-3 0,-4 0,-7l2 0c0,0 0,0 0,0 0,-1 0,-1 0,-1 0,3 0,4 0,7l1 4c0,1 1,1 1,1 0,0 0,0 0,0 1,0 2,1 2,-4 0,-1 0,-2 1,-3l0 -4c2,1 -1,-2 1,1 2,3 1,0 0,5 0,1 0,2 0,3 1,2 0,1 1,1l1 1c-1,4 -1,3 -1,6 5,-2 1,-2 4,-5 3,-4 1,-3 3,-7 1,1 1,1 1,4 -1,2 -1,2 -1,4l3 1c-1,1 -1,2 -1,2 -1,3 -6,10 -5,12 0,-1 1,-2 2,-4 2,-2 1,-2 5,-2 0,3 0,2 -2,4l-1 1c0,0 0,0 0,0 -1,1 -1,4 -2,5 3,0 4,0 6,0 0,4 0,2 -1,5 2,0 -1,-1 1,1 3,2 2,3 4,3 2,-2 1,-2 2,-4l2 0c0,-1 0,-1 0,-1 2,-1 1,0 1,-2 -3,-2 -2,1 -5,-3 1,-1 2,-1 4,-1 1,4 1,2 2,3 2,-2 1,-1 2,-3 3,1 3,0 3,-1 -1,-4 -3,-2 -5,-7l7 0c2,3 1,4 2,6 0,3 1,2 1,3 1,-2 1,-3 1,-6 0,-2 -1,-2 -1,-4 5,1 2,5 7,6l0 -2c2,-4 1,-1 2,-2 2,-2 1,-1 2,-4 -2,-3 -1,-1 -3,-2 -2,-2 -1,0 -1,-3l9 0c-2,0 -5,-1 -7,0l-3 0c-1,1 1,1 -2,1 -1,-3 0,-1 0,-2 2,-3 1,1 1,-1l-3 -2c0,-3 1,-3 1,-5 0,-2 0,-2 0,-5 0,-4 0,-6 2,-8 -1,-4 3,3 0,-1 -2,-3 -2,-7 -1,-11 0,-3 1,-3 1,-6 0,-2 0,-4 0,-6 -1,3 0,6 -2,10 -2,3 0,2 -3,3 -1,-2 -1,-2 -1,-5 0,-2 0,-2 1,-4 -2,1 -6,12 -7,15 -3,6 -1,4 -3,5 -4,-5 4,-15 0,-20 -1,5 -2,7 -3,11l-2 11c-2,-1 -2,0 -2,-3 0,0 0,-2 0,-2 0,-4 2,-11 2,-12l-1 -2c-2,4 -3,14 -4,19 0,2 -1,4 -2,5 -2,-1 0,0 -1,-2l0 -17c-3,4 0,9 -4,17 -2,-2 -1,-9 -2,-16 -1,-3 0,-4 -2,-4z"/>
   <path class="fil27" d="M575 707l0 9 2 1c0,0 0,0 1,0 1,0 -1,-1 1,0 1,3 0,4 0,8 -4,0 -1,0 -3,2 0,2 1,4 1,4 0,2 0,1 -1,2l-7 -1c2,3 6,3 7,3 2,1 0,-1 1,2 0,1 1,1 -3,1 0,0 1,1 1,1 0,0 0,1 0,1 0,0 0,0 1,0l-2 2c3,-1 3,-2 5,-3 0,4 -2,7 -2,12l2 -1c-1,-2 -1,0 0,-4 1,-7 9,-4 11,-3 -1,3 -1,1 -3,4 9,-2 8,2 10,-3l0 5c-2,1 -3,2 -10,1 -2,-1 -2,-1 -4,0 1,2 -1,1 3,2l8 2c-1,2 1,1 -1,2 2,0 1,-1 2,1 2,-1 0,-5 6,-5 1,3 1,4 0,5l8 1c2,1 0,0 2,1 -1,2 -3,4 -5,4 -1,1 -2,1 -2,1 -4,1 -2,3 -7,3 2,1 1,0 3,1 4,0 3,0 4,1 6,-1 7,0 5,-5 0,-2 0,0 0,-3 3,1 3,0 5,5 2,2 2,4 5,3 -1,-2 -1,-1 -2,-3 -2,-5 4,-8 7,-9 0,8 -1,3 -3,8 4,-1 6,-1 10,-1 0,2 0,3 -3,5 0,0 0,1 0,1 -3,2 -1,-1 -3,1 2,2 6,3 8,3l-1 -1c0,0 -1,0 -1,0l3 -5c1,-5 -1,0 -2,-5 0,-2 4,-7 6,-8 0,3 -2,4 -2,8 3,0 2,1 4,-1l0 2c0,0 1,-1 1,-1 1,-4 -2,1 -1,-7 -4,-3 -1,-6 -3,-9 -2,-3 -1,0 -2,-5 -1,-8 2,-6 0,-18l0 -1c-1,-3 0,-1 -1,-2 -2,1 1,-2 -1,1 -6,12 -8,2 -8,13 6,-1 3,-7 9,-8 -1,5 -3,7 -6,9l0 0c-3,2 -4,4 -1,6 3,-1 1,-1 3,-4 2,-2 3,-3 5,-4 -3,12 -11,7 -8,16 4,-2 3,-5 8,-8 0,3 -2,6 -4,8 -4,4 -4,0 -4,5 1,4 0,1 1,3 3,-2 1,0 3,-3 1,-3 3,-6 5,-7 2,2 -2,7 -3,9 -2,2 -4,1 -4,4l-1 3c-2,-2 0,-2 -1,-3 -1,-3 1,-1 -2,-2l1 -2c3,-5 -3,-4 -8,-6 -3,-1 -2,0 -4,-3 -1,-1 -2,-2 -2,-3 1,0 0,-1 2,0 0,0 1,0 1,0 4,3 8,6 10,6 1,-3 1,-4 -1,-5 -3,-2 -11,-3 -13,-9 4,0 7,3 10,5 1,1 2,1 2,1l1 1c1,-1 2,-6 -1,-6l-2 -1c-1,0 0,0 -2,0 -4,-1 -8,-3 -9,-7 3,0 2,1 4,2l6 2c2,2 0,1 4,2l0 -5c0,0 -15,-3 -16,-7 6,0 10,4 15,4 -1,-7 -1,-4 -5,-4 -3,0 -10,-4 -12,-6 7,0 9,2 12,3 0,0 2,0 2,0 1,0 1,0 2,0 -1,-5 -3,-3 -8,-4 -3,0 -4,-1 -7,-2 0,0 1,1 1,2 -2,0 -3,-1 -3,2 0,2 1,1 3,2 0,0 0,2 -1,2 0,4 1,2 1,4 1,3 0,4 0,6l1 2c0,0 0,0 1,0 0,2 0,4 2,7 0,0 0,0 0,0l-1 3c0,0 0,3 0,4 -5,-1 -3,0 -5,-4 -1,-3 -1,-4 -3,-1 -1,-4 -2,-5 -2,-9 -6,-1 -1,0 -5,-5l-4 -1c-1,-2 -1,-3 -2,-5l-5 0c0,-1 0,-3 -1,-4 -1,-2 1,0 -1,-1 -1,-1 0,2 -2,-1 0,0 0,0 0,0 0,-3 -1,-4 -2,-4 -1,0 -1,0 -1,-1 0,0 -1,0 -1,0 1,-4 -1,-2 0,-7 -2,-3 0,-1 -3,-2l1 3z"/>
   <path class="fil28" d="M512 728l-1 14c0,2 0,4 0,6 0,3 -1,3 -1,6 -1,4 -1,8 1,11 3,4 -1,-3 0,1 -2,2 -2,4 -2,8 0,3 0,3 0,5 0,2 -1,2 -1,5l3 2c0,2 1,-2 -1,1 0,1 -1,-1 0,2 3,0 1,0 2,-1l3 0c2,-1 5,0 7,0 1,0 0,1 0,-1l-3 -2c-2,-2 -2,-2 -2,-4 5,0 6,3 7,4l2 -3c1,1 2,4 3,7 5,-2 3,-3 8,-3 0,5 -2,5 -5,7 0,2 0,0 1,2 0,2 0,2 0,3l3 4c7,-6 6,-3 8,-5 -1,-5 -2,-4 -3,-7 -1,-6 2,-6 -2,-8l0 -2 2 -8c-7,1 -8,7 -20,3 -2,-1 -1,0 -2,-2 3,-2 10,0 14,-4 -3,-2 -7,-3 -7,-8l12 1c-1,-4 -3,-4 -3,-9 5,0 2,2 7,2l-1 -7 0 -2c-4,2 -3,1 -5,-1 -2,-3 -3,-3 -6,-4 0,0 -1,1 0,0 1,0 1,0 1,-1 -2,-1 -3,-1 -4,-3l-3 -2c-9,-8 -6,1 -10,-7 -1,0 -1,-1 -2,0z"/>
   <path class="fil29" d="M358 801l26 28c-3,-1 -27,-23 -30,-24 0,3 28,25 29,27 -5,-2 -14,-11 -20,-12 1,3 1,2 5,5l17 12c-3,0 -22,-12 -29,-14 1,3 3,3 6,5l21 12c-4,-1 -20,-8 -27,-10l-2 0c2,1 5,2 7,3l21 10c-6,-1 -27,-7 -31,-6l23 7c-3,0 -3,0 -6,0 1,1 3,1 5,2 3,0 4,0 6,1l-20 0c3,2 9,1 12,2 0,1 0,1 -1,1l-9 1c4,1 14,0 19,0 0,2 0,0 0,2 4,1 1,0 2,-1 -1,-1 0,-2 -6,-2 -1,0 -4,0 -4,1l6 0c0,-1 0,-1 0,-1l1 -2 4 0c0,-2 -1,-2 -2,-3 0,-1 0,-1 0,-1 8,2 4,2 9,1 1,-3 -2,-4 -2,-6l4 2c0,0 0,0 0,0l0 1c2,1 0,0 2,1 1,-3 -2,-4 2,-5 2,1 2,1 2,3l2 -3c2,-2 1,-3 1,-4 1,-4 0,-1 2,-4 -1,0 0,0 0,0l0 -3c3,0 2,0 4,1l0 -1c3,-1 3,-3 3,-6 -2,0 -2,0 -3,0 -4,-1 4,3 -1,-1 0,-1 -2,1 0,-1 4,-2 2,0 3,0 0,0 2,0 3,-1 0,0 0,0 1,0 0,3 -1,0 0,1 1,1 1,1 3,1l8 2c0,0 0,0 0,0l2 0c8,1 7,3 9,2 0,-3 -3,-3 -5,-3l-14 -5c-1,0 -1,0 -2,0 0,0 -1,0 -1,0 0,-1 0,-1 0,-1 -6,-2 -1,-2 -6,1 1,-4 2,-1 0,-4 0,0 -1,0 -1,0l-2 -1c0,0 0,0 -1,0 -2,-1 0,-1 -4,0 2,8 0,5 -1,8 0,0 0,0 0,0 -2,4 1,0 -2,3 0,0 0,1 0,1 -2,1 1,0 -1,1l-3 -8c-1,-5 -5,-13 -7,-17 -2,-6 -5,-14 -8,-17 1,8 11,25 12,34 -2,-1 -7,-14 -9,-17 -3,-7 -5,-11 -9,-17 0,0 -1,-1 0,2l17 38c-4,-4 -7,-12 -11,-18 -4,-6 -8,-13 -12,-18 0,4 10,18 12,22l7 11c1,2 5,8 6,10 -2,-1 -17,-22 -21,-26 -2,-3 -4,-7 -7,-9 1,2 6,9 8,12 3,4 12,16 13,19 -3,-2 -16,-17 -19,-21l-7 -6c1,1 1,2 1,3z"/>
   <path class="fil30" d="M0 798l15 -2c3,-1 2,0 1,-2 -1,1 -7,-1 -8,-1l-2 -1c2,-3 12,-3 20,-6 1,-5 0,-20 0,-27 3,0 3,0 5,-1 -1,-3 -1,-1 -1,-3 0,-3 1,1 1,-5 -2,-1 -6,-3 -10,-3l17 -1c2,0 16,-1 18,-2 0,0 0,0 0,0 -7,-1 -24,0 -32,1 -5,1 -7,0 -8,2 1,2 2,1 5,2l4 2 -1 1c0,0 -1,1 -1,1l-20 2c-1,0 -2,0 -3,1l0 42z"/>
   <path class="fil31" d="M183 691c-7,3 -12,5 -21,5 -7,1 -36,6 -38,7l1 2c3,0 6,-1 9,-1 2,-1 5,-1 8,-2 5,0 11,-2 16,-3l0 3c-17,1 -6,2 -13,3 -2,0 -2,-1 -4,-1 -1,2 0,0 -1,1l-7 1c-1,3 -1,1 0,5 -5,0 -10,0 -15,0l-1 7c0,0 -1,0 -1,0l-1 1 13 -1 15 -1 0 1 1 0c11,-11 15,0 18,-8 5,-12 12,-8 20,-9 7,0 13,-5 19,6 1,2 1,3 3,4 -1,-2 -1,-4 -2,-6 4,0 15,-1 17,-3 -2,-3 -2,0 -4,-3 4,-1 14,-1 17,-3 0,-1 -1,-1 -2,-3 2,-1 4,-1 5,-3 -5,0 -9,-1 -14,-1 -4,0 -9,0 -14,0 -7,-1 -8,0 -13,1 -5,1 -8,2 -11,3 0,-1 0,-1 0,-2z"/>
   <path class="fil32" d="M551 849c-2,2 0,0 -1,3 -3,-2 -2,-3 -5,-4 2,2 2,1 1,5 -2,1 -1,0 -3,2l-2 3c-2,-2 0,-1 -3,-3 -1,1 -1,3 -4,7l-7 9c1,-3 1,-3 0,-5l-1 -4c-4,2 -4,2 -5,5 -2,5 -3,2 -6,9 -1,2 -2,2 -2,5 4,2 20,1 23,1 8,0 13,-11 14,-12 2,3 0,2 3,3 0,0 1,-2 1,-2l0 -1c0,0 0,0 0,0 1,0 1,0 1,0 3,1 2,0 3,3 3,-1 -1,-1 4,-2 5,0 2,-1 5,-1 2,-2 3,-2 5,-3 1,-2 2,-3 4,-4 2,-2 2,-2 4,-4 1,-1 3,-1 4,-3l-1 0c0,-3 0,-2 0,-4 -6,-1 -13,-6 -17,-6l1 8c-1,0 -4,-1 -5,-2 -3,-1 -1,-2 -3,-5 0,2 -1,3 -1,4l-1 5c0,0 -1,0 -1,0 0,-1 0,-1 0,-1l-1 -2c-2,0 1,1 -2,0 0,0 0,0 0,0l-2 -4z"/>
   <path class="fil33" d="M620 642c-2,0 -11,5 -13,7 -7,7 1,1 -11,9l-12 8c-4,3 -7,5 -12,8l2 30c3,1 1,-1 3,2l0 -2c0,0 0,0 0,0l1 2c1,1 -1,0 1,1 3,0 2,-1 2,-3 3,0 6,0 8,0 1,0 2,0 2,-1 2,0 1,-1 4,-2l0 -6 4 0c-2,-4 1,0 1,-5 -1,-3 -2,-1 -2,-5 2,-1 1,-1 3,0l0 -1c0,0 0,0 0,0l-1 -1c-1,0 -2,-1 -2,-2 -1,-2 -1,-2 0,-4 1,-2 0,-1 -1,-4 -1,-1 -1,-4 -1,-5l6 1c0,-2 -1,-4 0,-6l1 -3c4,-1 1,0 5,1 1,0 0,0 1,-1l6 -5c2,-3 7,-6 3,-9 1,0 1,0 2,-1 0,-1 0,0 1,-2 -2,3 1,3 3,3 3,-2 1,0 2,-3 1,-2 1,1 1,-3 -4,0 -3,1 -7,2z"/>
   <path class="fil15" d="M593 756c-4,2 -3,1 -7,1 1,4 1,3 2,6 -4,-1 -8,-7 -8,-7 0,-1 0,-1 0,-1 -3,3 0,6 -4,6l-2 0c0,3 0,6 -1,8 -2,-1 -3,-5 -3,-8 1,-4 -4,0 -1,-2l-3 1 -1 3c1,1 1,2 3,2 -3,0 -5,0 -7,0 -1,0 -3,-1 -5,0 2,3 1,0 5,3 -1,3 -3,4 -8,4l2 5 -8 -1c-1,-1 -1,-2 -2,-3 -2,9 -3,5 -4,8 -4,1 -1,1 -2,-1l0 2c4,2 1,2 2,8 1,3 2,2 3,7 4,-2 6,0 6,-5 3,2 2,1 2,6 3,-1 4,-1 6,-3 2,-3 4,0 7,-2 -1,-3 -6,-2 -10,-2 1,-6 1,-1 3,-4 -2,-1 -1,0 -3,-1 -5,-1 -3,-3 -7,-3l-2 4c-3,4 -2,4 -4,4 0,-2 0,-6 0,-8 1,-4 1,-2 2,-3 0,0 0,0 0,0l1 -1c0,0 0,-1 1,-1 0,0 0,-1 0,-1 4,0 5,0 8,3 5,4 2,0 5,5 3,-1 3,-3 8,-2 0,3 -1,1 -2,5 6,-1 1,-1 6,-4 0,1 0,3 0,3 2,2 1,2 3,2 0,-4 0,-2 -1,-5 -1,0 -6,1 -7,-10 6,1 5,4 8,5 1,-1 1,-3 3,-5 4,-3 1,0 4,-4 4,0 8,2 9,6 -4,0 -4,0 -7,-1 0,1 -1,1 -1,1 -1,1 -1,2 -3,3 -1,1 -3,2 -5,2 1,3 8,2 7,11l9 -1c0,5 -2,0 -2,4 3,0 0,0 3,-2 2,2 1,0 2,3 2,-2 3,-3 6,-1 4,2 1,4 6,2 -2,-3 -1,-1 -4,-3 -2,-1 -1,-1 -2,-3 -8,1 -6,0 -10,-1l-1 0c-1,0 0,0 -2,0 -2,-1 -2,-1 -2,-2 2,-1 4,-1 6,-3 -3,-3 -8,-2 -12,-2 5,-7 11,-2 12,-2 1,-2 0,-1 1,-3 4,1 1,2 4,3 2,-4 -1,0 -2,-5 4,0 4,0 7,-1 2,0 4,0 6,-1 -1,-2 -1,-1 -4,-2l2 -3c-1,-1 0,-1 -4,-1 -2,-1 -1,0 -3,-1 5,0 3,-2 7,-3 0,0 1,0 2,-1 2,0 4,-2 5,-4 -2,-1 0,0 -2,-1l-8 -1c1,-1 1,-2 0,-5 -6,0 -4,4 -6,5 -1,-2 0,-1 -2,-1z"/>
   <path class="fil34" d="M255 658c4,-1 0,0 2,0 -2,3 -3,4 -4,8 -4,-1 -19,-4 -22,-3 1,6 3,-1 2,4 6,0 5,1 6,1 3,1 2,0 5,0 5,0 4,1 11,2 2,1 10,1 12,1 5,2 3,4 4,7 1,-2 1,-1 1,-4l3 -1 0 0c8,-2 18,2 29,-2 1,-6 -2,-2 -2,-8 0,-4 0,-6 -2,-9 -4,-9 -10,-5 -14,-4 -9,3 -12,-1 -19,0 -5,1 -10,5 -12,8z"/>
   <path class="fil35" d="M511 842c-2,2 -2,2 -3,3 -8,7 -13,17 -15,18 0,3 -1,4 -2,6l-6 12c-4,6 -4,6 3,5 16,-2 17,-3 35,-2 3,0 11,1 13,-2 -3,0 -19,1 -23,-1 0,-3 1,-3 2,-5 3,-7 4,-4 6,-9 1,-3 1,-3 5,-5l1 4c1,2 1,2 0,5l7 -9c3,-4 3,-6 4,-7 3,2 1,1 3,3l2 -3c2,-2 1,-1 3,-2 1,-4 1,-3 -1,-5 -3,-2 -4,-2 -8,-1 -2,2 -3,4 -5,5 -3,2 -3,3 -5,4 -3,2 -9,4 -12,7 0,3 1,5 0,8 -1,3 -9,10 -14,10 0,-1 8,-13 10,-15 2,-1 1,1 2,-1 -3,0 -9,3 -11,5 -2,1 -2,1 -4,1 0,0 1,-3 1,-3 0,-2 -1,-2 -1,-2 0,-1 0,-1 0,-1l7 0c2,-2 4,-8 7,-10l-5 -1 5 -1c-1,-1 1,-1 -2,-2 4,0 3,1 4,-3 2,-8 6,-3 8,-9 -5,0 -8,1 -11,3z"/>
   <path class="fil36" d="M577 706c-1,5 1,3 0,7 0,0 1,0 1,0 0,1 0,1 1,1 1,0 2,1 2,4 0,0 0,0 0,0 2,3 1,0 2,1 2,1 0,-1 1,1 1,1 1,3 1,4l5 0c1,2 1,3 2,5l4 1c4,5 -1,4 5,5 0,4 1,5 2,9 2,-3 2,-2 3,1 2,4 0,3 5,4 0,-1 0,-4 0,-4l1 -3c0,0 0,0 0,0 -2,-3 -2,-5 -2,-7 -1,0 -1,0 -1,0l-1 -2c0,-2 1,-3 0,-6 0,-2 -1,0 -1,-4 1,0 1,-2 1,-2 -2,-1 -3,0 -3,-2 0,-3 1,-2 3,-2 0,-1 -1,-2 -1,-2 -2,-3 -2,1 -2,-3 6,0 10,2 15,3l0 -3c-9,-2 -8,1 -16,-5 3,-2 8,0 11,1 3,1 2,1 3,-1 -1,-3 -1,0 -8,-2 -3,-1 -5,-2 -7,-4 -2,-1 -1,0 -1,-2l2 0c0,0 0,-1 0,-1 0,0 1,0 1,0 0,0 0,0 1,0l-3 -2c0,0 0,0 0,0 -1,-1 -2,-1 -3,-2l3 -2c-2,-1 -2,-3 -2,-3 0,-1 -1,0 -1,-2l1 -2c0,0 0,0 0,0 -2,-1 -1,-1 -3,0 0,4 1,2 2,5 0,5 -3,1 -1,5l-4 0 0 6c-3,1 -2,2 -4,2 0,1 -1,1 -2,1 -2,0 -5,0 -8,0 0,2 1,3 -2,3 -2,-1 0,0 -1,-1l-1 -2c0,0 0,0 0,0l0 2z"/>
   <path class="fil26" d="M455 833l2 0c3,-2 3,-2 7,-1 -1,2 -2,2 -2,2 -2,2 0,1 0,2l-3 0c0,3 -1,3 -2,3 -1,0 -1,0 -2,1 -2,0 1,-1 -2,0l0 6c0,0 0,0 0,0l-3 1c0,1 0,1 -2,2l-2 0c-2,1 -1,1 -2,3l-1 -1c0,0 0,0 0,0l-1 -1c0,1 0,2 -1,3 -2,0 -2,0 -4,-1 1,3 1,1 1,3l2 12c4,-2 2,-10 4,-11 2,1 2,7 2,9 6,0 5,-10 6,-12 3,6 -2,13 0,14 1,1 4,-2 4,-3 2,-3 1,-7 1,-10 4,3 2,8 6,9l0 -10c2,1 3,4 3,6 3,-3 1,-5 3,-8 1,5 -1,7 3,12 0,-1 0,0 0,-1 0,-2 -2,-9 0,-14 1,4 1,17 10,19 0,-6 -4,-7 -5,-12 1,0 1,0 2,0l0 -2c-3,-2 -2,-2 -6,-2l0 -5c4,0 5,0 7,-2 -1,-3 -2,-3 -5,-4 0,-4 2,-6 3,-9 0,0 1,-1 0,1l-2 2c-3,3 -3,3 -6,4 1,-7 3,-2 2,-10 -1,1 2,1 -4,2 1,-4 2,-6 0,-10 0,1 0,1 0,3l-1 3c-1,2 -1,2 -1,2 -2,2 -1,2 -3,2 -1,-1 -1,-1 -1,-3 0,0 0,-2 0,-2 1,-2 1,-2 1,-5 0,-7 -2,-6 -2,-7 0,5 0,8 -1,13 -1,3 -1,3 -3,4 -1,-3 0,-7 -1,-9 -2,5 -1,7 -1,12z"/>
   <path class="fil32" d="M519 834c2,2 2,1 3,4 0,0 0,0 0,0 -1,0 -1,0 -1,0l-3 1c-4,1 -5,3 -7,3 3,-2 6,-3 11,-3 -2,6 -6,1 -8,9 -1,4 0,3 -4,3 3,1 1,1 2,2l-5 1 5 1c-3,2 -5,8 -7,10l-7 0c0,0 0,0 0,1 0,0 1,0 1,2 0,0 -1,3 -1,3 2,0 2,0 4,-1 2,-2 8,-5 11,-5 -1,2 0,0 -2,1 -2,2 -10,14 -10,15 5,0 13,-7 14,-10 1,-3 0,-5 0,-8 3,-3 9,-5 12,-7 2,-1 2,-2 5,-4 2,-1 3,-3 5,-5l-3 1c-1,-3 -1,-1 -1,-4 1,0 4,0 5,-1l3 -1c0,0 2,-1 2,-1 3,-2 -1,-3 3,-2 0,-5 3,-3 5,-7 1,-3 2,-8 1,-10l-1 3c-1,1 0,0 -2,0 -3,0 -1,1 -5,0 -2,0 -5,-3 -6,-3 -1,-1 -1,-1 -1,-1l-1 1c3,1 5,2 5,8l-1 1c0,0 -2,0 -2,0l-14 3c-2,4 0,-1 -1,1 -1,-1 -1,-1 -4,-1z"/>
   <path class="fil15" d="M603 701c2,2 4,3 7,4 7,2 7,-1 8,2 -1,2 0,2 -3,1 -3,-1 -8,-3 -11,-1 8,6 7,3 16,5l0 3c-5,-1 -9,-3 -15,-3 0,4 0,0 2,3 3,1 4,2 7,2 5,1 7,-1 8,4 -1,0 -1,0 -2,0 0,0 -2,0 -2,0 -3,-1 -5,-3 -12,-3 2,2 9,6 12,6 4,0 4,-3 5,4 -5,0 -9,-4 -15,-4 1,4 16,7 16,7l0 5c-4,-1 -2,0 -4,-2l-6 -2c-2,-1 -1,-2 -4,-2 1,4 5,6 9,7 2,0 1,0 2,0l2 1c3,0 2,5 1,6l-1 -1c0,0 -1,0 -2,-1 -3,-2 -6,-5 -10,-5 2,6 10,7 13,9 2,1 2,2 1,5 -2,0 -6,-3 -10,-6 0,0 -1,0 -1,0 -2,-1 -1,0 -2,0 0,1 1,2 2,3 2,3 1,2 4,3 5,2 11,1 8,6l-1 2c3,1 1,-1 2,2 1,1 -1,1 1,3l1 -3c0,-3 2,-2 4,-4 1,-2 5,-7 3,-9 -2,1 -4,4 -5,7 -2,3 0,1 -3,3 -1,-2 0,1 -1,-3 0,-5 0,-1 4,-5 2,-2 4,-5 4,-8 -5,3 -4,6 -8,8 -3,-9 5,-4 8,-16 -2,1 -3,2 -5,4 -2,3 0,3 -3,4 -3,-2 -2,-4 1,-6l0 0c3,-2 5,-4 6,-9 -6,1 -3,7 -9,8 0,-11 2,-1 8,-13 2,-3 -1,0 1,-1 0,-5 -3,1 -2,-7l0 -2c0,0 0,-1 0,-1 0,0 0,0 0,0l0 -5 -3 -1c2,-5 1,-4 0,-6 -1,0 -1,-1 -1,-1 0,0 0,0 -1,1 0,0 0,-1 0,-1l-1 -3c-3,2 -2,2 -5,6l-1 1c0,0 0,1 0,1l-2 -1c-1,3 -1,1 -2,2 -6,-2 -4,-2 -13,-5l0 2z"/>
   <path class="fil37" d="M252 661c0,1 -1,2 -3,3 -1,1 -9,-1 -11,-1 -3,-1 -7,-3 -9,1 -1,2 0,2 -2,3 0,0 0,0 0,0l-3 2c-3,3 -1,4 -5,4 2,1 0,1 1,1 0,5 -1,0 -1,9 -7,0 -1,0 -5,-1 -1,1 -1,2 0,4l-3 1c12,0 21,2 33,-2 2,0 4,-1 6,-2l21 -5c-1,-3 1,-5 -4,-7 -2,0 -10,0 -12,-1 -7,-1 -6,-2 -11,-2 -3,0 -2,1 -5,0 -1,0 0,-1 -6,-1 1,-5 -1,2 -2,-4 3,-1 18,2 22,3 1,-4 2,-5 4,-8 -2,0 2,-1 -2,0 -2,1 -2,1 -3,3z"/>
   <path class="fil30" d="M0 837l10 -1 14 -3c3,-1 10,-2 14,-2 -2,-1 -2,-1 -2,-3l-5 -1 0 -12 4 0c0,0 1,0 1,0 0,0 0,0 0,0l0 -3c-11,0 -24,2 -36,3l0 22z"/>
   <path class="fil27" d="M602 663c-1,2 0,4 0,6l-6 -1c0,1 0,4 1,5 1,3 2,2 1,4 -1,2 -1,2 0,4 0,1 1,2 2,2l1 1c0,0 0,0 0,0l0 1c0,0 0,0 0,0l-1 2c0,2 1,1 1,2 0,0 0,2 2,3l-3 2c1,1 2,1 3,2 0,0 0,0 0,0l3 2c-1,0 -1,0 -1,0 0,0 -1,0 -1,0 0,0 0,1 0,1l-2 0c0,2 -1,1 1,2l0 -2c9,3 7,3 13,5 1,-1 1,1 2,-2l2 1c0,0 0,-1 0,-1l1 -1c3,-4 2,-4 5,-6l1 3c0,0 0,1 0,1 1,-1 1,-1 1,-1 0,-4 1,-4 -2,-5 0,-3 0,-1 1,-3 -3,-2 -1,-2 -3,-4l-1 -1c0,-2 1,-3 -1,-5 -1,-1 0,0 -1,0 -3,0 1,1 -2,0l0 -7 -5 1c0,-6 0,-5 -2,-9l-3 2c-4,-3 -1,-4 -5,-7 -2,2 -1,1 -2,3z"/>
   <path class="fil38" d="M541 748l1 7c-5,0 -2,-2 -7,-2 0,5 2,5 3,9l-12 -1c0,5 4,6 7,8 -4,4 -11,2 -14,4 1,2 0,1 2,2 12,4 13,-2 20,-3l-2 8c1,2 -2,2 2,1 1,-3 2,1 4,-8 1,1 1,2 2,3l8 1 -2 -5c5,0 7,-1 8,-4 -4,-3 -3,0 -5,-3 2,-1 4,0 5,0 2,0 4,0 7,0 -2,0 -2,-1 -3,-2l1 -3c1,0 2,-2 2,-4 -3,-1 -5,0 -6,1 -2,3 -1,4 -5,4 -1,-1 -1,0 -1,-2 0,0 0,-1 0,-1 0,-3 0,-2 -1,-4 -2,-5 2,-1 0,-4 -2,-1 -3,1 -7,0 -1,-1 -1,-1 -2,-2 7,-1 10,0 9,-3 -1,-2 -1,-3 -2,-3l1 2c-5,1 -2,1 -6,2 -3,1 -5,1 -7,2z"/>
   <path class="fil39" d="M475 751c2,0 1,1 2,4 1,7 0,14 2,16 4,-8 1,-13 4,-17l0 17c1,2 -1,1 1,2 1,-1 2,-3 2,-5 1,-5 2,-15 4,-19l1 2c0,1 -2,8 -2,12 0,0 0,2 0,2 0,3 0,2 2,3l2 -11c1,-4 2,-6 3,-11 4,5 -4,15 0,20 2,-1 0,1 3,-5 1,-3 5,-14 7,-15 -1,2 -1,2 -1,4 0,3 0,3 1,5 3,-1 1,0 3,-3 2,-4 1,-7 2,-10l1 -14c-1,-4 -1,0 -2,-3l-2 4c-11,10 -16,9 -23,14 -4,3 -6,6 -10,6l0 2z"/>
   <path class="fil35" d="M551 849l2 4c0,0 0,0 0,0 3,1 0,0 2,0l1 2c0,0 0,0 0,1 0,0 1,0 1,0l1 -5c0,-1 1,-2 1,-4 2,3 0,4 3,5 1,1 4,2 5,2l-1 -8c4,0 11,5 17,6 0,2 0,1 0,4l1 0c1,-2 0,-1 2,-2 0,2 0,4 0,6l1 5 0 -8c0,2 0,1 1,2 0,-3 -1,-3 -1,-6l16 -11c3,-2 2,-1 3,-3 -2,-2 -11,-6 -14,-8l-1 -1c-2,0 -6,-2 -8,-3 -3,-1 -7,-1 -10,-1 -7,0 -10,5 -12,9l2 2 1 -2c0,-1 0,0 1,-1 4,1 3,2 11,3 5,0 2,2 7,1 4,0 2,-1 4,-2 1,1 1,1 2,2 -4,2 -5,1 -8,3l-2 2 5 1c2,1 2,1 5,1 1,2 1,1 2,2 -2,1 -11,4 -13,-1l-2 -4c-5,1 -7,2 -14,3 -6,0 -8,0 -11,4z"/>
   <path class="fil19" d="M554 724c0,1 1,3 1,5 0,2 -1,3 -1,5 0,3 1,6 1,11 1,3 -2,2 -9,3 1,1 1,1 2,2 4,1 5,-1 7,0 2,3 -2,-1 0,4 1,2 1,1 1,4 0,0 0,1 0,1 0,2 0,1 1,2 4,0 3,-1 5,-4 1,-1 3,-2 6,-1 0,2 -1,4 -2,4l3 -1c-3,2 2,-2 1,2l0 -6c-2,-2 -4,-2 -4,-5 0,-5 3,-2 5,-1 1,-1 1,-3 3,-7l2 -2c-1,0 -1,0 -1,0 0,0 0,-1 0,-1 0,0 -1,-1 -1,-1 4,0 3,0 3,-1 -1,-3 1,-1 -1,-2 -1,0 -5,0 -7,-3l7 1c1,-1 1,0 1,-2 0,0 -1,-2 -1,-4 0,-6 -2,-8 -2,-13l1 0c0,2 0,2 -1,4l-3 4c-2,0 -5,1 -12,1 -1,-1 -1,-2 -1,-3 -1,-4 -1,-4 -5,-4 0,2 1,5 1,8z"/>
   <path class="fil34" d="M400 644c0,0 0,1 1,1l-3 2c1,2 3,2 5,5 2,2 2,5 4,7 3,0 6,-1 9,-1l1 2c7,1 11,2 18,2 5,0 4,0 7,-3 3,-2 4,-2 4,-7 -1,0 -1,0 -2,0l-1 -1c0,-1 0,0 -1,-1l4 0c-1,0 -1,0 -2,-1 0,0 -2,0 -2,0 -4,0 -5,-2 -10,-3 -7,-1 -3,1 -8,-2 -2,-2 -3,0 -8,-2 -5,-1 -11,2 -16,2z"/>
   <path class="fil40" d="M10 836l-10 1 0 20c1,0 3,-1 3,-1 3,-1 1,-1 6,-1 0,-1 -1,-1 -1,-1 0,-2 -1,1 1,-1 3,-4 6,-4 9,-6 3,-1 3,-1 7,-1 0,0 1,0 1,0l1 -2c3,0 6,0 9,-2 5,-3 2,0 5,-2 0,-2 -2,1 0,-1 1,-1 7,-2 9,-2l0 -2 -12 0c-3,0 -1,1 -2,-1 0,-2 4,0 8,-1l2 -2c-12,1 -24,4 -36,5z"/>
   <path class="fil41" d="M392 816l3 8c2,-1 -1,0 1,-1 0,0 0,-1 0,-1 3,-3 0,1 2,-3 0,0 0,0 0,0 1,-3 3,0 1,-8l0 -3c0,0 0,0 0,0 1,0 1,0 1,0l3 1c1,-5 2,-7 -1,-8l3 -1c2,1 1,1 4,1 1,-2 1,-2 1,-5 -7,-4 -6,-1 -7,-5 4,1 2,1 5,3l5 3c1,1 3,1 4,2 3,2 1,3 6,3 0,-3 0,-2 -1,-4 -2,-2 -2,0 -5,-4l-12 -9c-2,-2 1,0 -2,-1l0 5c-1,-3 -3,3 -4,-7 -3,1 -2,-2 -2,3 -7,-3 -3,-3 -7,-8 -2,3 2,14 3,21 0,3 1,6 1,10 1,2 2,5 2,9 -1,-4 -10,-37 -11,-38 -3,4 8,31 7,37l0 0z"/>
   <path class="fil42" d="M537 814c-5,0 -12,6 -16,9 -4,3 -11,7 -13,10 5,0 6,-2 11,1 3,0 3,0 4,1 1,-2 -1,3 1,-1l14 -3c0,0 2,0 2,0l1 -1c0,-6 -2,-7 -5,-8l1 -1c0,0 0,0 1,1 1,0 4,3 6,3 4,1 2,0 5,0 2,0 1,1 2,0l1 -3c-2,-4 -1,-4 -3,-6 -2,-2 -3,-1 -6,-2 -3,-1 -4,-1 -6,0z"/>
   <path class="fil16" d="M158 738c-2,-1 -5,0 -7,-1 -2,-1 -2,-2 -3,-4 -5,-1 -6,0 -10,-2l0 -4 -2 2c-1,2 -1,-1 -1,3 2,4 4,1 7,4l-1 3c0,0 0,0 0,0l2 2c-2,1 -2,0 -3,3 1,1 3,0 4,2 -5,2 -6,1 -6,3 2,2 5,0 8,1 4,2 3,2 9,2 1,-1 1,-2 1,-3l11 0c1,-1 1,0 1,-2 1,0 0,0 1,-1 2,0 4,0 6,-1 1,0 2,0 3,1 2,1 0,0 2,2 4,0 5,-1 8,-2 3,0 5,0 6,-1 2,-1 1,0 2,-1 -2,-1 -3,-1 -5,-1 -4,0 -7,-1 -11,-1 -5,-1 -11,0 -17,-1 -3,-1 -7,-2 -10,-3l5 0z"/>
   <path class="fil38" d="M574 742c-2,4 -2,6 -3,7 -2,-1 -5,-4 -5,1 0,3 2,3 4,5l0 6c0,3 1,7 3,8 1,-2 1,-5 1,-8l2 0c4,0 1,-3 4,-6 0,0 0,0 0,1 0,0 4,6 8,7 -1,-3 -1,-2 -2,-6 4,0 3,1 7,-1 2,-1 0,0 1,-2l-8 -2c-4,-1 -2,0 -3,-2 2,-1 2,-1 4,0 7,1 8,0 10,-1l0 -5c-2,5 -1,1 -10,3 2,-3 2,-1 3,-4 -2,-1 -10,-4 -11,3 -1,4 -1,2 0,4l-2 1c0,-5 2,-8 2,-12 -2,1 -2,2 -5,3z"/>
   <path class="fil12" d="M385 863c-1,-4 0,-3 0,-7 -5,1 -2,1 -4,4l-1 -3c-4,-1 -2,-1 -4,-2 -2,0 -4,0 -6,0l1 0c4,-2 5,-2 9,-2 0,-2 0,0 0,-2 -5,0 -15,1 -19,0l9 -1c1,0 1,0 1,-1 -3,-1 -9,0 -12,-2l20 0c-2,-1 -3,-1 -6,-1 -2,-1 -4,-1 -5,-2 3,0 3,0 6,0l-23 -7c4,-1 25,5 31,6l-21 -10c-2,-1 -5,-2 -7,-3l2 0c0,0 1,-1 -2,-2 -5,-1 -3,1 -4,2 2,1 4,1 6,2 2,3 0,1 5,3 -2,3 -8,0 -12,0 1,5 1,-1 3,8 3,0 4,0 7,2l1 0c-3,1 -5,0 -6,2 1,2 3,2 5,2 -1,4 0,2 4,3 1,1 2,0 3,2l0 3c0,0 0,0 0,0l7 0c0,0 0,0 0,1 0,2 0,3 2,5 3,-2 0,-3 2,-2 2,-1 3,0 5,1 1,0 2,1 3,1z"/>
   <path class="fil43" d="M554 724c-3,-4 1,-11 -4,-14l1 -3c-3,-2 -4,-2 -5,-4 3,0 4,1 6,0l0 -3 -6 0c-1,3 -3,14 -3,18l-1 16c0,3 0,3 2,4 1,-3 -1,-6 0,-10l1 -3c1,1 0,-1 1,1 3,5 0,10 1,14 -2,1 -5,0 -5,4 6,-1 6,-1 9,-3 0,-2 0,-4 -1,-6 0,-1 0,-2 0,-4 0,0 0,-1 0,-1l0 -2c3,2 1,2 3,3l1 -7z"/>
   <path class="fil34" d="M397 644l-1 -1c-2,0 -13,-2 -18,-2l3 2c0,0 -1,1 -1,1 -1,1 0,0 -1,1 -4,5 -1,7 0,12 5,1 3,0 5,3 3,1 11,1 13,-3 3,-8 -5,-9 -7,-14l7 1z"/>
   <path class="fil44" d="M342 651c0,4 3,0 3,7 1,4 0,6 1,9l6 -1c0,-3 0,-7 0,-8 0,-4 -1,-1 1,-3l2 11c1,-1 2,0 0,-6 0,-2 -1,-4 0,-6 2,4 1,6 3,9 0,2 4,4 7,2l0 -12c-3,-2 -6,-2 -11,-2l-1 3c0,0 0,0 0,0 -3,-1 -6,-6 -11,-3z"/>
   <path class="fil15" d="M584 856c-1,2 -3,2 -4,3 -2,2 -2,2 -4,4 -2,1 -3,2 -4,4 -2,1 -3,1 -5,3 1,3 3,9 6,10l0 -11c2,1 4,8 7,10l-1 -5c3,0 1,0 3,1 2,2 0,1 3,2l-2 -7c3,2 2,3 5,5l-1 -10 -1 -5c0,-2 0,-4 0,-6 -2,1 -1,0 -2,2z"/>
   <path class="fil34" d="M324 669c2,0 3,0 5,-1 1,-1 0,-1 1,-1 1,0 1,0 1,-1 0,0 0,0 0,0l2 -1c0,-4 0,-6 -2,-8 -2,-2 -5,-3 -7,-2 -6,3 -2,10 0,14z"/>
  </g>
  <g id="_2173890465104">
   <path class="fil0" d="M456 471c14,-8 5,11 8,-7 2,-7 1,-2 -3,-9l-5 16zm94 -48c-1,12 -1,9 6,22 -13,5 -24,14 -40,20 -24,8 -37,2 -58,9l-2 -3 -1 5c-17,-5 -10,-21 -13,-40l7 -19c6,-13 -3,-6 8,-12 23,0 47,2 57,-18 6,3 18,9 23,13 11,8 15,7 13,23z"/>
   <path class="fil0" d="M438 426l1 25c-19,-5 -12,-2 -21,-16 -7,6 -7,8 -18,7 28,3 32,11 34,38 -28,-7 -17,-10 -40,-9 -9,-11 1,-1 -15,-7 -4,-10 9,-7 -5,-11l-12 7c-12,6 -6,3 -19,-8 -14,-13 -7,10 -12,-14 -4,-22 -4,-22 8,-39l6 -8 14 5c18,-5 0,-4 34,8 9,3 11,1 37,4 3,24 -5,15 8,18z"/>
   <path class="fil1" d="M566 495c-28,10 -37,38 -80,19 14,-10 2,-3 1,-6 -18,15 -6,4 -11,15 -15,11 -8,10 -26,17 0,-10 -1,-20 -2,-31 -1,-23 -5,-19 7,-33l3 -2c21,-7 34,-1 58,-9 16,-6 27,-15 40,-20 5,3 2,-2 5,11 0,2 1,10 1,11 2,15 0,13 4,28z"/>
   <path class="fil2" d="M514 387c-10,20 -34,18 -57,18 -11,6 -2,-1 -8,12l-7 19 -2 -32 -2 22c-13,-3 -5,6 -8,-18 -26,-3 -28,-1 -37,-4 -34,-12 -16,-13 -34,-8l26 -14c0,0 15,-11 16,-12 12,-11 17,-22 37,-22 24,-1 20,5 38,19 14,12 21,13 38,20z"/>
   <path class="fil1" d="M379 464l10 15c9,6 10,16 1,18 22,4 35,20 40,40 -24,-6 -44,-8 -67,-17 -8,-2 -22,-8 -28,-11 -17,-11 -1,-9 -26,-18 11,-8 6,-7 8,-24 0,-7 0,-13 4,-19 8,-16 1,-6 10,-10 5,24 -2,1 12,14 13,11 7,14 19,8l12 -7c14,4 1,1 5,11z"/>
   <path class="fil3" d="M538 552c-8,3 -37,7 -42,7 -17,0 -11,-2 -19,-2 -9,-1 -13,1 -23,4 5,-12 5,-10 12,-19 13,-17 6,0 10,-19 14,-1 7,3 10,-9 43,19 52,-9 80,-19 3,0 4,-12 5,10 0,6 1,7 -2,11 -7,14 -6,9 -26,11l-4 22c0,-1 -1,2 -1,3z"/>
   <path class="fil3" d="M430 537l-3 24c-19,-5 -11,-6 -27,-4l-31 0c-30,-3 -24,-1 -29,-15l-2 -17 -14 0c-14,-9 -17,-14 -15,-34 25,9 9,7 26,18 6,3 20,9 28,11 23,9 43,11 67,17z"/>
   <path class="fil4" d="M439 451l2 208 -20 -1 6 -97 3 -24c-5,-20 -18,-36 -40,-40 9,-2 8,-12 -1,-18 -3,-8 -4,-5 6,-5 7,17 20,27 36,37l3 -31c-2,-27 -6,-35 -34,-38 11,1 11,-1 18,-7 9,14 2,11 21,16z"/>
   <path class="fil5" d="M442 436c3,19 -4,35 13,40 -12,14 -8,10 -7,33 1,11 2,21 2,31 18,-7 11,-6 26,-17 -4,19 3,2 -10,19 -7,9 -7,7 -12,19l4 92 1 9 -18 2 0 -5 -2 -208 -1 -25 2 -22 2 32z"/>
   <path class="fil1" d="M434 480l-3 31c-16,-10 -29,-20 -36,-37l-1 -3c23,-1 12,2 40,9z"/>
   <path class="fil6" d="M486 514c-3,12 4,8 -10,9 5,-11 -7,0 11,-15 1,3 13,-4 -1,6z"/>
   <path class="fil9" d="M395 474c-10,0 -9,-3 -6,5l-10 -15c16,6 6,-4 15,7l1 3z"/>
   <path class="fil7" d="M456 471l5 -16c4,7 5,2 3,9 -3,18 6,-1 -8,7z"/>
   <polygon class="fil8" points="455,476 456,471 458,474 "/>
  </g>
  <g id="_2173892009792">
   <path class="fil0" d="M536 527c8,-4 3,7 5,-4 1,-4 0,-1 -2,-5l-3 9zm56 -28c0,7 0,5 4,13 -8,3 -14,8 -24,12 -15,5 -22,1 -35,5l-1 -2 -1 3c-10,-3 -6,-12 -7,-24l4 -11c3,-8 -2,-4 5,-7 13,0 28,1 34,-11 3,2 11,5 14,8 6,5 9,4 7,14z"/>
   <path class="fil0" d="M525 500l1 15c-12,-3 -8,-1 -13,-9 -4,3 -4,5 -11,4 17,2 20,7 21,23 -17,-4 -10,-6 -24,-5 -6,-7 0,-1 -9,-5 -3,-6 5,-4 -3,-7l-7 5c-8,4 -4,2 -12,-5 -8,-8 -4,6 -7,-8 -2,-13 -3,-14 5,-24l3 -4 9 2c11,-3 0,-2 20,5 5,2 7,1 22,3 2,14 -3,9 5,10z"/>
   <path class="fil1" d="M602 542c-17,6 -22,23 -48,11 9,-6 1,-2 1,-3 -12,9 -4,2 -7,9 -9,6 -5,5 -16,10 0,-6 -1,-13 -1,-19 -1,-13 -3,-11 4,-20l2 -1c13,-4 20,0 35,-5 10,-4 16,-9 24,-12 3,2 1,-1 3,6 0,2 0,6 1,7 1,9 0,8 2,17z"/>
   <path class="fil2" d="M571 477c-6,12 -21,11 -34,11 -7,3 -2,-1 -5,7l-4 11 -2 -19 -1 13c-8,-1 -3,4 -5,-10 -15,-2 -17,-1 -22,-3 -20,-7 -9,-8 -20,-5l16 -8c0,0 8,-7 9,-7 7,-7 10,-13 22,-14 15,0 12,3 23,12 8,7 12,8 23,12z"/>
   <path class="fil1" d="M490 523l6 9c5,4 6,10 0,11 14,2 21,12 24,24 -14,-3 -26,-5 -40,-10 -4,-2 -13,-5 -17,-7 -10,-7 0,-5 -15,-11 6,-4 3,-4 4,-14 1,-4 1,-8 3,-12 5,-9 0,-3 6,-5 3,14 -1,0 7,8 8,7 4,9 12,5l7 -5c8,3 0,1 3,7z"/>
   <path class="fil3" d="M585 576c-5,2 -22,4 -25,4 -10,0 -6,-1 -12,-1 -5,-1 -7,1 -14,2 4,-7 3,-5 8,-11 7,-10 4,0 6,-11 8,-1 4,1 6,-6 26,12 31,-5 48,-11 2,0 3,-8 3,6 0,3 0,4 -1,7 -5,8 -4,5 -16,6l-2 13c0,0 -1,1 -1,2z"/>
   <path class="fil3" d="M520 567l-1 14c-12,-2 -7,-3 -17,-2l-19 0c-17,-2 -14,-1 -17,-9l-1 -10 -9 0c-8,-6 -9,-8 -8,-21 15,6 5,4 15,11 4,2 13,5 17,7 14,5 26,7 40,10z"/>
   <path class="fil4" d="M526 515l1 125 -12 0 4 -59 1 -14c-3,-12 -10,-22 -24,-24 6,-1 5,-7 0,-11 -2,-5 -3,-3 3,-3 4,10 12,16 22,22l2 -18c-1,-16 -4,-21 -21,-23 7,1 7,-1 11,-4 5,8 1,6 13,9z"/>
   <path class="fil5" d="M528 506c1,12 -3,21 7,24 -7,9 -5,7 -4,20 0,6 1,13 1,19 11,-5 7,-4 16,-10 -2,11 1,1 -6,11 -5,6 -4,4 -8,11l3 55 0 6 -10 1 0 -3 -1 -125 -1 -15 1 -13 2 19z"/>
   <path class="fil1" d="M523 533l-2 18c-10,-6 -18,-12 -22,-22l0 -1c14,-1 7,1 24,5z"/>
   <path class="fil6" d="M554 553c-2,7 2,5 -6,6 3,-7 -5,0 7,-9 0,1 8,-3 -1,3z"/>
   <path class="fil9" d="M499 529c-6,0 -5,-2 -3,3l-6 -9c9,4 3,-2 9,5l0 1z"/>
   <path class="fil7" d="M536 527l3 -9c2,4 3,1 2,5 -2,11 3,0 -5,4z"/>
   <polygon class="fil8" points="535,530 536,527 537,529 "/>
  </g>
  <g id="_2173892042272">
   <path class="fil0" d="M222 461c14,-7 6,11 9,-6 1,-7 1,-3 -4,-10l-5 16zm94 -47c-1,12 -1,9 7,22 -13,4 -24,13 -41,19 -24,9 -37,3 -58,10l-2 -4 -1 6c-17,-5 -10,-21 -12,-41l7 -19c6,-12 -4,-6 8,-11 22,0 47,1 56,-19 6,3 19,10 24,14 10,7 15,7 12,23z"/>
   <path class="fil0" d="M204 416l2 26c-19,-6 -13,-2 -22,-16 -7,5 -6,8 -17,7 27,3 32,11 34,37 -29,-6 -17,-10 -40,-8 -10,-11 0,-1 -15,-7 -4,-11 8,-7 -5,-12l-12 7c-13,7 -6,4 -19,-8 -15,-12 -7,11 -12,-13 -4,-22 -5,-22 8,-40l6 -7 13 5c19,-5 0,-5 35,7 8,3 10,1 36,5 4,24 -4,15 8,17z"/>
   <path class="fil1" d="M333 485c-29,10 -38,39 -80,20 14,-10 2,-4 0,-6 -18,15 -6,4 -10,15 -15,10 -8,9 -26,16 -1,-10 -2,-20 -3,-30 -1,-23 -5,-19 7,-33l3 -2c21,-7 34,-1 58,-10 17,-6 28,-15 41,-19 5,2 1,-2 4,10 1,3 1,10 2,12 1,14 0,13 4,27z"/>
   <path class="fil2" d="M280 377c-9,20 -34,19 -56,19 -12,5 -2,-1 -8,11l-7 19 -3 -32 -2 22c-12,-2 -4,7 -8,-17 -26,-4 -28,-2 -36,-5 -35,-12 -16,-12 -35,-7l27 -14c0,0 15,-12 16,-13 11,-11 16,-21 36,-22 25,0 21,5 39,20 14,11 20,12 37,19z"/>
   <path class="fil1" d="M146 455l10 15c8,5 10,15 0,18 23,4 35,20 40,40 -23,-6 -44,-8 -67,-17 -7,-3 -22,-8 -27,-12 -17,-11 -1,-8 -26,-17 10,-8 6,-7 7,-24 1,-7 1,-14 4,-20 8,-15 1,-6 11,-9 5,24 -3,1 12,13 13,12 6,15 19,8l12 -7c13,5 1,1 5,12z"/>
   <path class="fil3" d="M304 543c-8,2 -36,6 -41,6 -17,1 -11,-1 -20,-2 -9,0 -12,2 -23,4 6,-11 5,-9 12,-18 13,-17 7,-1 11,-19 13,-1 6,3 10,-9 42,19 51,-10 80,-20 3,1 4,-12 5,10 0,7 0,7 -3,12 -7,13 -6,9 -25,10l-5 22c0,0 0,2 -1,4z"/>
   <path class="fil3" d="M196 528l-2 23c-19,-4 -12,-6 -27,-4l-32 1c-29,-4 -24,-1 -29,-16l-1 -16 -15 0c-14,-10 -16,-14 -14,-34 25,9 9,6 26,17 5,4 20,9 27,12 23,9 44,11 67,17z"/>
   <path class="fil4" d="M206 442l2 208 -21 -1 7 -98 2 -23c-5,-20 -17,-36 -40,-40 10,-3 8,-13 0,-18 -3,-9 -4,-6 5,-6 7,18 20,28 37,37l3 -31c-2,-26 -7,-34 -34,-37 11,1 10,-2 17,-7 9,14 3,10 22,16z"/>
   <path class="fil5" d="M209 426c2,20 -5,36 12,41 -12,14 -8,10 -7,33 1,10 2,20 3,30 18,-7 11,-6 26,-16 -4,18 2,2 -11,19 -7,9 -6,7 -12,18l5 92 0 10 -18 1 1 -4 -2 -208 -2 -26 2 -22 3 32z"/>
   <path class="fil1" d="M201 470l-3 31c-17,-9 -30,-19 -37,-37l0 -2c23,-2 11,2 40,8z"/>
   <path class="fil6" d="M253 505c-4,12 3,8 -10,9 4,-11 -8,0 10,-15 2,2 14,-4 0,6z"/>
   <path class="fil9" d="M161 464c-9,0 -8,-3 -5,6l-10 -15c15,6 5,-4 15,7l0 2z"/>
   <path class="fil7" d="M222 461l5 -16c5,7 5,3 4,10 -3,17 5,-1 -9,6z"/>
   <polygon class="fil8" points="221,467 222,461 224,465 "/>
  </g>
  <g id="_2173892048672">
   <path class="fil0" d="M295 479c9,-5 4,7 5,-4 1,-4 1,-1 -2,-6l-3 10zm57 -28c-1,7 -1,5 4,13 -8,2 -15,8 -25,11 -14,5 -22,2 -35,6l-1 -2 0 3c-10,-3 -6,-12 -8,-24l4 -11c4,-8 -2,-4 5,-7 14,0 29,0 34,-12 4,3 11,6 14,9 6,4 9,4 8,14z"/>
   <path class="fil0" d="M284 452l2 15c-12,-3 -8,-1 -14,-9 -4,3 -4,4 -10,4 17,2 19,7 20,22 -17,-4 -10,-6 -24,-5 -5,-6 1,0 -9,-4 -2,-6 6,-4 -3,-7l-7 4c-7,4 -3,3 -11,-4 -9,-8 -4,6 -7,-8 -3,-14 -3,-14 4,-24l4 -5 8 3c11,-3 0,-3 21,5 5,2 6,0 22,2 2,15 -3,10 4,11z"/>
   <path class="fil1" d="M362 493c-17,7 -23,23 -48,12 8,-6 1,-2 0,-4 -11,10 -4,3 -6,10 -9,6 -5,5 -16,9 0,-6 -1,-12 -1,-18 -1,-14 -4,-11 4,-20l1 -1c13,-4 21,-1 35,-6 10,-3 17,-9 25,-11 3,1 1,-1 2,6 1,1 1,6 1,7 1,9 0,8 3,16z"/>
   <path class="fil2" d="M330 428c-5,12 -20,12 -34,12 -7,3 -1,-1 -5,7l-4 11 -1 -19 -2 13c-7,-1 -2,4 -4,-11 -16,-2 -17,0 -22,-2 -21,-8 -10,-8 -21,-5l16 -8c0,0 9,-7 10,-8 6,-6 9,-13 22,-13 14,0 12,3 23,12 8,7 12,7 22,11z"/>
   <path class="fil1" d="M249 475l6 9c6,3 7,9 1,11 13,2 21,12 24,24 -14,-4 -27,-5 -40,-10 -5,-2 -14,-5 -17,-7 -10,-7 -1,-5 -16,-11 7,-4 4,-4 5,-14 0,-4 0,-8 2,-12 5,-9 1,-3 7,-5 3,14 -2,0 7,8 8,7 4,8 11,4l7 -4c9,3 1,1 3,7z"/>
   <path class="fil3" d="M345 528c-5,1 -23,4 -25,4 -11,0 -7,-1 -12,-1 -5,-1 -7,1 -14,2 4,-7 3,-6 7,-11 8,-10 4,0 7,-11 8,-1 3,1 6,-6 25,11 31,-5 48,-12 1,1 2,-7 3,6 0,4 0,5 -2,7 -4,8 -4,6 -15,7l-3 13c0,0 0,1 0,2z"/>
   <path class="fil3" d="M280 519l-2 14c-11,-3 -7,-3 -16,-2l-19 0c-18,-2 -14,-1 -17,-9l-1 -10 -9 0c-8,-6 -10,-9 -9,-21 15,6 6,4 16,11 3,2 12,5 17,7 13,5 26,6 40,10z"/>
   <path class="fil4" d="M286 467l1 125 -13 -1 4 -58 2 -14c-3,-12 -11,-22 -24,-24 6,-2 5,-8 -1,-11 -1,-5 -2,-3 4,-3 4,10 12,16 22,22l1 -19c-1,-15 -3,-20 -20,-22 6,0 6,-1 10,-4 6,8 2,6 14,9z"/>
   <path class="fil5" d="M287 458c2,12 -2,21 8,24 -8,9 -5,6 -4,20 0,6 1,12 1,18 11,-4 7,-3 16,-9 -3,11 1,1 -7,11 -4,5 -3,4 -7,11l3 55 0 6 -11 1 1 -3 -1 -125 -2 -15 2 -13 1 19z"/>
   <path class="fil1" d="M282 484l-1 19c-10,-6 -18,-12 -22,-22l-1 -2c14,-1 7,1 24,5z"/>
   <path class="fil6" d="M314 505c-3,7 2,5 -6,6 2,-7 -5,0 6,-10 1,2 8,-2 0,4z"/>
   <path class="fil9" d="M259 481c-6,0 -5,-2 -4,3l-6 -9c10,4 4,-2 9,4l1 2z"/>
   <path class="fil7" d="M295 479l3 -10c3,5 3,2 2,6 -1,11 4,-1 -5,4z"/>
   <polygon class="fil8" points="295,482 295,479 296,481 "/>
  </g>
  <g id="_2173892054720">
   <path class="fil0" d="M566 526c-9,-5 -3,7 -5,-4 -1,-4 -1,-1 2,-6l3 10zm-56 -28c0,7 0,5 -4,13 7,2 14,8 24,11 14,5 22,2 35,6l1 -2 1 3c10,-3 5,-12 7,-24l-4 -11c-4,-8 2,-4 -5,-7 -13,0 -28,0 -34,-12 -4,2 -11,6 -14,9 -6,4 -9,4 -7,14z"/>
   <path class="fil0" d="M577 499l-1 15c11,-3 7,-1 13,-9 4,3 4,4 10,4 -16,2 -19,7 -20,22 17,-4 10,-6 24,-5 6,-6 0,0 9,-4 2,-6 -5,-4 3,-7l7 4c8,4 4,2 11,-4 9,-8 5,6 8,-8 2,-14 2,-14 -5,-24l-4 -5 -8 3c-11,-3 0,-3 -21,5 -5,2 -6,0 -22,2 -2,15 3,10 -4,11z"/>
   <path class="fil1" d="M500 540c17,6 22,23 47,12 -8,-6 -1,-2 0,-4 11,10 4,3 6,9 9,7 6,6 16,10 1,-6 1,-12 2,-18 0,-14 3,-11 -4,-20l-2 -1c-13,-4 -21,-1 -35,-6 -10,-3 -17,-9 -24,-11 -3,1 -1,-2 -3,6 0,1 -1,6 -1,7 -1,9 0,8 -2,16z"/>
   <path class="fil2" d="M531 475c6,12 21,12 34,12 7,3 1,-1 5,7l4 11 2 -19 1 13c7,-1 2,4 4,-11 16,-2 17,0 22,-2 21,-8 10,-8 21,-5l-16 -8c0,0 -9,-7 -9,-8 -7,-6 -10,-13 -22,-13 -15,0 -12,3 -23,12 -9,7 -13,7 -23,11z"/>
   <path class="fil1" d="M612 522l-6 9c-5,3 -6,9 0,11 -14,2 -21,12 -25,24 15,-4 27,-5 41,-10 4,-2 13,-5 16,-7 3,-2 4,-3 5,-4l0 -38c0,0 -1,0 -2,0 -3,14 1,0 -8,8 -7,6 -3,8 -11,4l-7 -4c-8,3 -1,1 -3,7z"/>
   <path class="fil3" d="M517 575c5,1 22,4 25,4 10,0 6,-1 11,-2 6,0 8,2 14,3 -3,-7 -3,-6 -7,-11 -8,-10 -4,-1 -7,-12 -8,0 -3,2 -6,-5 -25,11 -30,-6 -47,-12 -2,1 -3,-7 -3,6 0,4 -1,4 1,7 4,8 4,6 15,7l3 13c0,-1 0,1 1,2z"/>
   <path class="fil3" d="M581 566l2 14c11,-3 7,-3 16,-2l19 0c18,-2 14,-1 18,-9l1 -10 6 0 0 -14c-1,1 -2,2 -5,4 -3,2 -12,5 -16,7 -14,5 -26,6 -41,10z"/>
   <path class="fil4" d="M576 514l-1 125 12 -1 -4 -58 -2 -14c4,-12 11,-22 25,-24 -6,-2 -5,-8 0,-11 2,-5 2,-3 -4,-3 -4,10 -11,16 -22,22l-1 -19c1,-15 4,-20 20,-22 -6,0 -6,-1 -10,-4 -6,8 -2,6 -13,9z"/>
   <path class="fil5" d="M574 505c-2,12 3,21 -7,24 7,9 4,6 4,20 -1,6 -1,12 -2,18 -10,-4 -7,-3 -16,-10 3,11 -1,2 7,12 4,5 4,4 7,11l-3 55 0 6 11 1 0 -3 1 -125 1 -15 -1 -13 -2 19z"/>
   <path class="fil1" d="M579 531l1 19c11,-6 18,-12 22,-22l1 -2c-14,-1 -7,1 -24,5z"/>
   <path class="fil6" d="M547 552c3,7 -2,5 6,5 -2,-6 5,1 -6,-9 -1,2 -8,-2 0,4z"/>
   <path class="fil9" d="M602 528c6,0 6,-2 4,3l6 -9c-9,4 -3,-2 -9,4l-1 2z"/>
   <path class="fil7" d="M566 526l-3 -10c-3,5 -3,2 -2,6 2,11 -4,-1 5,4z"/>
   <polygon class="fil8" points="567,529 566,526 565,528 "/>
  </g>
  <path class="fil10" d="M48 275l4 -2 4 1c7,1 8,1 11,-4 5,1 23,2 27,0l3 -3 0 -5 -4 -3 -2 -1c4,-4 3,-1 5,-3 2,-3 1,-4 1,-8 -6,-5 -6,-7 -15,-4 -4,-4 -5,-8 -12,-7 -6,1 -3,2 -8,1 -4,-1 -6,-5 -21,5l-6 4c-4,3 0,1 -5,2 -21,2 -16,18 -12,21 6,4 8,1 13,3 1,0 2,1 3,2 6,3 7,2 14,1z"/>
  <circle class="fil45" cx="555" cy="744" r="2"/>
  <circle class="fil45" cx="610" cy="786" r="2"/>
  <circle class="fil45" cx="498" cy="881" r="2"/>
  <circle class="fil45" cx="552" cy="923" r="2"/>
  <circle class="fil45" cx="527" cy="798" r="2"/>
  <circle class="fil45" cx="620" cy="700" r="2"/>
  <circle class="fil45" cx="565" cy="742" r="2"/>
  <circle class="fil45" cx="555" cy="854" r="2"/>
  <circle class="fil45" cx="500" cy="896" r="2"/>
  <circle class="fil45" cx="641" cy="845" r="2"/>
  <circle class="fil45" cx="591" cy="862" r="2"/>
  <circle class="fil45" cx="484" cy="682" r="2"/>
  <circle class="fil45" cx="495" cy="680" r="2"/>
  <circle class="fil45" cx="493" cy="749" r="2"/>
  <circle class="fil45" cx="496" cy="764" r="2"/>
  <circle class="fil45" cx="535" cy="674" r="2"/>
  <circle class="fil45" cx="537" cy="689" r="2"/>
  <path class="fil45" d="M642 750c1,0 1,0 1,0l0 3c0,0 0,0 -1,0 0,0 -1,-1 -1,-2 0,-1 1,-1 1,-1z"/>
  <circle class="fil45" cx="449" cy="866" r="2"/>
  <path class="fil10" d="M477 850l4 -2 4 1c6,1 7,1 10,-4 4,2 21,2 25,0l3 -2 0 -5 -4 -3 -2 -1c3,-4 2,-1 4,-3 2,-2 2,-3 2,-7 -6,-5 -6,-6 -15,-4 -3,-3 -3,-8 -11,-7 -5,1 -2,2 -7,2 -4,-1 -5,-5 -19,4l-6 4c-4,3 0,1 -5,2 -19,2 -15,16 -11,20 5,3 7,0 13,2 0,0 1,1 2,2 5,3 7,2 13,1z"/>
  <circle class="fil45" cx="443" cy="731" r="2"/>
  <circle class="fil45" cx="394" cy="829" r="2"/>
 </g>
</svg>
